<svg width="35" height="31" viewBox="0 0 35 31" fill="none" xmlns="http://www.w3.org/2000/svg">
<path d="M14.6409 0.0471718C10.8568 0.378017 7.61041 1.26716 5.86658 2.45269C5.2876 2.84557 4.71552 3.44522 4.49495 3.89324C4.25371 4.38951 4.19857 5.27866 4.364 6.00927C4.94987 8.4975 7.9895 11.6543 12.5731 14.5423C13.6897 15.2385 15.3922 16.2103 16.0194 16.4929C16.3227 16.6308 16.3985 16.6997 16.3571 16.7893C16.1986 17.1615 16.1779 17.4786 16.2813 17.7887L16.3916 18.1127L16.0952 18.3815C15.2267 19.181 15.2612 20.5389 16.1572 21.3315C17.0119 22.0828 18.3284 21.9519 19.0246 21.042C19.3278 20.6423 19.4312 20.3252 19.4312 19.7807C19.4312 19.2637 19.1279 18.6158 18.742 18.3057C18.4938 18.1058 18.4869 18.0851 18.5765 17.9128C18.7006 17.6784 18.6937 17.0926 18.5765 16.8651L18.48 16.6997L19.5553 16.1414C22.8637 14.432 25.8482 12.2746 27.978 10.0621C29.2739 8.71806 29.9907 7.6566 30.3974 6.45729C30.5972 5.88521 30.6248 5.71289 30.6248 5.07877C30.6317 4.44465 30.6041 4.3068 30.4525 3.97596C29.5978 2.13563 26.2825 0.736432 21.3612 0.143668C20.2859 0.0127088 15.7781 -0.0493246 14.6409 0.0471718ZM20.2928 0.874284C22.9533 1.10174 25.0969 1.54976 26.9097 2.2528C28.1917 2.75596 29.3083 3.55551 29.6392 4.19652C30.1079 5.11323 29.653 6.71921 28.4881 8.28383C27.275 9.90359 24.7178 12.0817 22.0711 13.7497C20.1067 14.9903 17.8942 16.1345 17.4668 16.1414C16.9706 16.1414 14.5444 14.8594 12.4697 13.5015C10.4226 12.1644 9.23017 11.2201 7.8103 9.8071C6.63166 8.62846 6.05958 7.90474 5.61156 6.98802C5.23936 6.22294 5.09461 5.69221 5.09461 5.06499C5.09461 4.3068 5.34964 3.85878 6.1285 3.27291C7.58973 2.1632 10.7052 1.23959 13.9861 0.950103C14.4617 0.908747 14.9579 0.860499 15.0889 0.846714C15.6885 0.791573 19.5484 0.812251 20.2928 0.874284ZM17.7425 17.1133C17.9149 17.2856 17.8528 17.6302 17.6254 17.7612C17.4048 17.8783 17.2532 17.8163 17.0946 17.5406C17.005 17.3821 17.005 17.3407 17.1084 17.1822C17.2463 16.9754 17.5633 16.9409 17.7425 17.1133ZM17.9562 18.7882C18.3904 18.988 18.5696 19.2844 18.5696 19.8289C18.5696 20.1874 18.5352 20.3252 18.4111 20.5044C18.1078 20.918 17.5151 21.1041 17.0395 20.9249C16.5088 20.725 16.1641 20.0702 16.3227 19.5532C16.5432 18.8088 17.2601 18.4711 17.9562 18.7882Z" fill="#DD9000"/>
<path d="M5.74253 14.4867C5.10841 14.5969 4.81892 14.6934 4.25373 14.976C3.51622 15.3482 2.7856 15.9961 2.29623 16.713L2.08256 17.0231L1.46222 17.03C0.903924 17.0369 0.81432 17.0576 0.552401 17.2299C0.359408 17.3609 0.214664 17.5332 0.12506 17.7331C0.000992857 18.0157 -0.0127923 18.1742 0.00788546 19.9525L0.0285633 21.8755L0.228449 22.1306C0.33873 22.2822 0.566186 22.4545 0.738501 22.5303C1.00731 22.6544 1.13827 22.6682 1.66211 22.6268C3.04752 22.5234 4.17102 22.0547 5.01191 21.2276L5.51507 20.7245L5.78389 20.8623C6.16298 21.0553 6.99009 21.0553 7.36918 20.8623L7.638 20.7245L8.14805 21.2345C8.95448 22.0409 10.0711 22.5096 11.4565 22.6268C12.325 22.6957 12.773 22.4959 13.028 21.9376C13.1452 21.6825 13.159 21.462 13.159 19.8284C13.159 17.7262 13.1245 17.5745 12.6007 17.2299C12.3456 17.0645 12.2423 17.0369 11.6908 17.03L11.0636 17.0162L10.8155 16.6509C10.0504 15.4999 8.68567 14.6521 7.27269 14.4591C6.61789 14.3695 6.36976 14.3695 5.74253 14.4867ZM7.68624 15.3896C8.21697 15.5274 8.85799 15.8445 9.24397 16.1685C9.57482 16.4373 10.1262 17.0438 10.1262 17.1265C10.1262 17.1541 9.91945 17.2299 9.66442 17.2988C9.03719 17.4574 8.16183 17.8434 7.84477 18.1053C7.59664 18.3052 7.58285 18.3052 7.34161 18.2087C7.02455 18.0777 6.12852 18.0708 5.81146 18.2087C5.57711 18.3052 5.56332 18.2983 5.27383 18.0777C4.9292 17.8158 4.17102 17.4849 3.50933 17.3057C3.26119 17.2368 3.04752 17.1748 3.03374 17.1679C2.98549 17.1265 3.2543 16.7681 3.57136 16.4648C4.17102 15.879 5.10152 15.4103 5.90795 15.2793C6.39733 15.2035 7.16241 15.2517 7.68624 15.3896ZM2.90278 18.0019C3.42662 18.1122 4.32265 18.443 4.66039 18.6498C4.77757 18.7256 4.91542 18.8497 4.95677 18.9255C5.0257 19.0633 5.01191 19.0702 4.40537 19.0702C3.87463 19.0702 3.76435 19.0909 3.64718 19.2081C3.57136 19.2839 3.50933 19.408 3.50933 19.4838C3.50933 19.5596 3.57136 19.6837 3.64718 19.7595C3.76435 19.8767 3.87463 19.8973 4.40537 19.8973H5.03259L4.82581 20.2006C4.21926 21.0829 3.07509 21.6619 1.69657 21.7928C1.26234 21.8342 1.13827 21.8204 0.993527 21.7308L0.821212 21.6136L0.834998 19.8077L0.855675 18.0088L1.02799 17.9123C1.23477 17.802 2.16527 17.8502 2.90278 18.0019ZM12.2354 18.0019C12.3112 18.1053 12.3319 18.505 12.3319 19.8767V21.6205L12.1526 21.7377C11.9941 21.8411 11.9045 21.8411 11.298 21.7721C10.1538 21.6343 9.23019 21.2138 8.60296 20.5246C8.02398 19.8973 8.02398 19.8973 8.7477 19.8973C9.27843 19.8973 9.38872 19.8767 9.50589 19.7595C9.58171 19.6837 9.64374 19.5596 9.64374 19.4838C9.64374 19.408 9.58171 19.2839 9.50589 19.2081C9.38872 19.0909 9.27843 19.0702 8.74081 19.0702H8.11358L8.21008 18.9117C8.35483 18.6911 8.88556 18.4223 9.64374 18.1742C10.7466 17.8227 12.0424 17.7331 12.2354 18.0019ZM7.12105 19.084C7.18308 19.1667 7.23133 19.3804 7.23133 19.5527C7.23133 20.049 7.10037 20.1731 6.57653 20.1731C6.0527 20.1731 5.92174 20.049 5.92174 19.5527C5.92174 19.0565 6.0527 18.9324 6.57653 18.9324C6.95563 18.9324 7.03145 18.9531 7.12105 19.084Z" fill="#DD9000"/>
<path d="M23.3256 15.6383C22.9672 15.7623 22.6639 16.0449 22.4916 16.4102C22.2779 16.872 22.2779 17.2305 22.5054 17.6854C22.7121 18.0989 23.1257 18.4091 23.5668 18.4849C23.815 18.5263 23.8425 18.5538 23.8839 18.7813C23.9046 18.9191 24.0011 19.3258 24.0907 19.6773C24.6421 21.814 25.676 23.1236 27.2888 23.7302C27.7575 23.9025 27.8885 23.9232 28.6673 23.9232C29.4186 23.9163 29.591 23.8956 30.0252 23.744C31.3555 23.2615 32.2653 22.3172 32.9063 20.7595C33.1131 20.2494 33.3543 19.3947 33.4577 18.7813C33.4922 18.5538 33.5197 18.5263 33.7679 18.4849C34.209 18.4091 34.6226 18.0989 34.8293 17.6854C35.1257 17.0788 35.0361 16.4723 34.5605 16.0036C34.0918 15.528 33.4853 15.4384 32.8787 15.7348C32.0654 16.1414 31.8104 17.1615 32.348 17.8921C32.5686 18.1885 32.5617 18.2023 31.7552 19.0363C31.0798 19.7463 30.356 20.277 29.7219 20.5251C29.1567 20.7457 28.178 20.7457 27.6266 20.532C26.827 20.2149 26.0482 19.6015 25.2142 18.6434L24.8144 18.1747L25.0349 17.8232C25.5036 17.065 25.2486 16.1414 24.4698 15.7416C24.07 15.5418 23.6978 15.5073 23.3256 15.6383ZM24.1113 16.4861C24.4766 16.6722 24.5525 17.1891 24.2561 17.4855C23.815 17.9266 23.0637 17.5199 23.1808 16.8996C23.2635 16.4654 23.6978 16.2655 24.1113 16.4861ZM33.9815 16.5619C34.2917 16.8445 34.1745 17.451 33.7748 17.6233C33.3681 17.7888 32.8649 17.451 32.8718 17.0237C32.8787 16.8376 33.0373 16.5825 33.2234 16.4723C33.4232 16.362 33.8092 16.4033 33.9815 16.5619ZM26.3721 20.7939C27.7851 21.7175 29.2463 21.7865 30.6593 20.9938C31.1625 20.7112 31.5002 20.4493 32.0309 19.9392L32.4652 19.5188L32.2515 20.1391C31.2659 22.9789 28.6742 23.9852 26.5513 22.3654C25.9379 21.8967 25.3934 21.049 25.0418 20.0151L24.8833 19.5395L25.3727 20.0013C25.6415 20.2563 26.0895 20.6147 26.3721 20.7939Z" fill="#DD9000"/>
<path d="M14.5719 22.9441C14.1652 23.0544 13.6207 23.6333 13.5104 24.0607C13.3657 24.6534 13.5518 25.2669 14.0205 25.6735C14.1514 25.7976 14.3444 25.9148 14.434 25.9355L14.6063 25.9768V27.1623L14.5994 28.341L14.3789 28.4788C13.7379 28.8855 13.6207 29.754 14.1307 30.3398C14.3858 30.6293 14.7166 30.7465 15.1922 30.7051C15.847 30.65 16.2743 30.1606 16.2743 29.4783C16.2675 28.9889 16.0331 28.6098 15.592 28.3823C15.4403 28.3065 15.4334 28.2721 15.4334 27.1692V26.032L15.6609 25.9424C16.6534 25.5219 16.9429 24.171 16.2054 23.3921C15.8057 22.9716 15.1371 22.7855 14.5719 22.9441ZM15.5506 23.909C16.0538 24.3777 15.7436 25.2048 15.0681 25.2048C14.3582 25.2048 14.0205 24.4191 14.5236 23.9504C14.627 23.8539 14.758 23.7574 14.8131 23.7367C14.9992 23.6609 15.3783 23.7505 15.5506 23.909ZM15.2818 29.175C15.4541 29.2922 15.4955 29.6644 15.3507 29.8091C15.206 29.9539 14.8338 29.9125 14.7166 29.7402C14.565 29.5265 14.5788 29.43 14.7787 29.237C14.9716 29.0371 15.0681 29.0234 15.2818 29.175Z" fill="#DD9000"/>
<path d="M19.3554 22.9649C19.0177 23.0752 18.5973 23.4336 18.4318 23.7575C18.2733 24.0677 18.2319 24.5433 18.3284 24.8948C18.4387 25.2808 18.873 25.7909 19.19 25.908L19.4313 25.9907V27.1832C19.4313 28.1206 19.4106 28.3756 19.3417 28.3756C19.2038 28.3756 18.804 28.796 18.7006 29.0442C18.5766 29.3337 18.5766 29.63 18.7075 29.9471C18.9281 30.4709 19.3003 30.7191 19.8517 30.7191C20.3204 30.7191 20.7202 30.4916 20.9407 30.0987C21.2647 29.5266 21.0303 28.6995 20.4583 28.41L20.2584 28.2998V27.1625V26.0321L20.4376 25.9632C21.2027 25.6737 21.6507 24.626 21.3405 23.8747C21.0166 23.1096 20.1481 22.7099 19.3554 22.9649ZM20.1894 23.792C20.5685 23.985 20.7202 24.4399 20.5272 24.8121C20.2101 25.4255 19.2452 25.2877 19.1142 24.6053C19.0522 24.2745 19.2314 23.9161 19.5209 23.792C19.8103 23.6679 19.9482 23.6679 20.1894 23.792ZM20.1067 29.1751C20.2859 29.2992 20.3135 29.6231 20.1481 29.7817C20.0929 29.8437 19.9482 29.892 19.8448 29.892C19.445 29.892 19.3003 29.3199 19.6518 29.1476C19.8724 29.0442 19.9275 29.0511 20.1067 29.1751Z" fill="#DD9000"/>
<path d="M3.40587 26.4183C2.57187 26.8732 2.28927 27.8796 2.79243 28.6033C3.35073 29.3959 4.42598 29.4717 5.08767 28.7549C5.708 28.0794 5.59083 27.0869 4.83264 26.5562C4.58451 26.3839 4.46044 26.3425 4.07446 26.3287C3.74361 26.3149 3.55062 26.3356 3.40587 26.4183ZM4.43976 27.2868C4.54315 27.3833 4.63276 27.5487 4.66033 27.7004C4.69479 27.9278 4.67411 27.9829 4.44666 28.2104C4.2192 28.4379 4.16406 28.4585 3.9366 28.4241C3.15085 28.2931 3.1991 27.1352 3.99864 27.1352C4.17095 27.1352 4.32259 27.1903 4.43976 27.2868Z" fill="#DD9000"/>
<path d="M8.49946 26.4383C8.03076 26.652 7.64478 27.2448 7.64478 27.7617C7.64478 28.3614 8.16861 29.0506 8.7407 29.2023C10.1399 29.5745 11.1945 27.8996 10.2433 26.8174C9.80905 26.3212 9.09911 26.1626 8.49946 26.4383ZM9.60227 27.3482C10.071 27.9065 9.4851 28.6853 8.84409 28.3407C8.23065 28.0098 8.4581 27.1345 9.16115 27.1345C9.36793 27.1345 9.46442 27.1758 9.60227 27.3482Z" fill="#DD9000"/>
<path d="M27.1578 26.4112C25.7449 26.6662 24.9315 27.3417 25.221 28.024C25.4071 28.4789 26.0275 28.8305 26.9855 29.0303C27.2819 29.0924 27.53 29.1475 27.53 29.1544C27.7506 29.568 28.2538 29.8919 28.6742 29.8919C29.1085 29.885 29.5772 29.5818 29.8046 29.1544C29.8046 29.1475 30.0527 29.0924 30.356 29.0303C31.7483 28.7409 32.4238 28.1067 32.0792 27.3899C31.7552 26.7075 30.4456 26.3009 28.6053 26.3147C28.0883 26.3147 27.4404 26.3629 27.1578 26.4112ZM30.0596 27.2314C30.6524 27.3417 31.3899 27.6449 31.321 27.7552C31.2521 27.8655 30.8109 28.0654 30.4594 28.155C29.8322 28.3066 29.846 28.3066 29.7357 28.0998C29.4531 27.5553 28.688 27.321 28.1297 27.6105C27.9712 27.6932 27.7575 27.8793 27.661 28.024C27.4749 28.3135 27.5025 28.3066 26.8753 28.155C26.5306 28.0723 26.0826 27.8655 26.0137 27.7621C25.931 27.6243 26.8408 27.2796 27.53 27.1831C28.0194 27.1142 29.5703 27.1487 30.0596 27.2314ZM28.9292 28.3893C28.9775 28.4376 29.012 28.5754 29.012 28.6995C29.012 28.989 28.7707 29.1337 28.495 29.0097C28.3641 28.9476 28.3227 28.8787 28.3227 28.6995C28.3227 28.5754 28.3572 28.4376 28.4054 28.3893C28.5088 28.2859 28.8259 28.2859 28.9292 28.3893Z" fill="#DD9000"/>
</svg>
