<svg width="35" height="35" viewBox="0 0 35 35" fill="none" xmlns="http://www.w3.org/2000/svg">
<path d="M17.4928 24.3199V20.6201" stroke="#812900" stroke-width="1.3125" stroke-linecap="round" stroke-linejoin="round"/>
<path fill-rule="evenodd" clip-rule="evenodd" d="M26.5269 7.77344C28.9915 7.77344 30.9748 9.77135 30.9748 12.2359V17.2526C27.3873 19.3526 22.6478 20.6214 17.4853 20.6214C12.3228 20.6214 7.59775 19.3526 4.01025 17.2526V12.2214C4.01025 9.75677 6.00817 7.77344 8.47275 7.77344H26.5269Z" stroke="#812900" stroke-width="1.3125" stroke-linecap="round" stroke-linejoin="round"/>
<path d="M22.597 7.76643V7.23268C22.597 5.45352 21.1533 4.00977 19.3741 4.00977H15.6116C13.8324 4.00977 12.3887 5.45352 12.3887 7.23268V7.76643" stroke="#812900" stroke-width="1.3125" stroke-linecap="round" stroke-linejoin="round"/>
<path d="M4.04602 22.5791L4.32165 26.2381C4.50831 28.7041 6.5631 30.6101 9.03498 30.6101H25.9502C28.4221 30.6101 30.4769 28.7041 30.6635 26.2381L30.9391 22.5791" stroke="#812900" stroke-width="1.3125" stroke-linecap="round" stroke-linejoin="round"/>
</svg>
