<svg width="35" height="25" viewBox="0 0 35 25" fill="none" xmlns="http://www.w3.org/2000/svg">
<path d="M14.8253 0.0342792C14.6953 0.047957 11.6999 0.410418 8.17787 0.834429C1.83822 1.60039 1.763 1.60722 1.52364 1.79187C0.901297 2.2706 0.531997 3.33746 0.531997 4.67105C0.531997 5.33442 0.668775 5.94992 0.956008 6.56542L1.16801 7.03046L0.956008 7.48867C0.614063 8.22727 0.51148 8.78806 0.552513 9.69763C0.579869 10.4841 0.791875 11.339 1.04491 11.6946C1.12698 11.8177 1.1133 11.8656 0.894458 12.1665C-0.274992 13.7941 -0.302348 17.6102 0.839747 19.2994C0.990202 19.5251 1.24324 19.7987 1.3937 19.9081L1.67409 20.1064L11.2075 21.228L20.7409 22.3564L22.9499 22.0965L25.152 21.8298V23.0198C25.152 24.1824 25.152 24.2029 25.323 24.367C25.4939 24.5449 25.7538 24.5859 25.9658 24.4696C26.0342 24.4354 26.3762 23.9294 26.7249 23.3412C27.0737 22.7599 27.3746 22.2812 27.402 22.2812C27.4225 22.288 27.7029 22.6436 28.0243 23.0745C28.3458 23.5122 28.6603 23.8952 28.7219 23.9294C28.9271 24.0388 29.1869 23.9977 29.3579 23.8199C29.5289 23.6558 29.5289 23.6353 29.5289 22.4932C29.5289 21.3374 29.5289 21.3237 29.6862 21.2895C29.8572 21.2554 34.4392 20.7082 34.576 20.7082C34.6239 20.7082 34.7401 20.633 34.829 20.5373C35.1573 20.2158 34.9863 19.7166 34.5213 19.6209C33.5023 19.4157 33.0099 16.2356 33.6733 14.2113C33.9058 13.5137 34.152 13.1718 34.4871 13.0624C34.8222 12.9598 35 12.7546 35 12.4879C35 12.2622 34.7333 11.9545 34.535 11.9545C34.2477 11.9545 33.9058 10.9286 33.9058 10.0396C33.9058 9.15052 34.2477 8.12469 34.535 8.12469C34.7401 8.12469 35 7.81694 35 7.57757C35 7.33821 34.7401 7.03046 34.535 7.03046C34.2477 7.03046 33.9058 6.00463 33.9058 5.11557C33.9058 4.55479 34.0631 3.81619 34.2477 3.48792C34.3298 3.35114 34.4939 3.18701 34.6102 3.1323C34.9248 2.98184 35.0479 2.7288 34.9384 2.46892C34.8906 2.35266 34.788 2.22956 34.7059 2.18169C34.6239 2.14066 30.6163 1.64142 25.8017 1.07379C17.2257 0.0616348 15.6733 -0.0819819 14.8253 0.0342792ZM22.8952 1.83975C26.4856 2.25692 29.4742 2.61254 29.5289 2.63306C29.5836 2.65357 27.6619 2.91345 25.2546 3.20752L20.8777 3.74096L14.073 2.95449C10.3321 2.52364 7.21359 2.1475 7.1452 2.12014C6.98107 2.05175 14.9142 1.10115 15.7143 1.08747C16.1589 1.08063 18.4225 1.31999 22.8952 1.83975ZM3.39065 2.79719L4.1019 2.87926L4.05402 3.09126C3.79415 4.28123 3.75995 5.08138 3.91041 6.07302C3.95828 6.39445 3.99247 6.66116 3.98564 6.67484C3.93776 6.72955 2.13914 6.46284 2.09126 6.39445C1.53731 5.58746 1.47576 3.88457 1.96816 2.92713C2.11178 2.64674 2.11862 2.6399 2.39901 2.68093C2.55631 2.70145 3.00767 2.75616 3.39065 2.79719ZM12.3291 3.85038C16.0152 4.28123 19.1406 4.65053 19.2774 4.67789L19.5236 4.71208L19.3595 5.23867C19.0722 6.13457 19.0791 7.35189 19.3731 8.37089C19.4142 8.50082 19.2227 8.48715 13.5259 7.81694C9.25158 7.31086 7.61709 7.09885 7.57605 7.03046C7.44611 6.81846 7.35037 5.74475 7.39824 4.92409C7.43927 4.09658 7.43927 4.0829 7.27514 3.91877C7.04946 3.69992 6.73487 3.69309 6.52286 3.91193C6.38609 4.04187 6.35189 4.17181 6.31086 4.67789C6.25615 5.27971 6.29718 6.30554 6.38609 6.75007L6.43396 6.98259L5.96207 6.93472C5.23031 6.85949 5.19612 6.83897 5.11405 6.55858C4.86101 5.65585 4.85417 4.27439 5.10721 3.4674C5.24399 3.04339 5.25767 3.02287 5.43548 3.04339C5.5449 3.05707 8.64292 3.41953 12.3291 3.85038ZM33.0509 3.52211C33.0236 3.5905 32.9552 3.89141 32.9005 4.19232C32.7568 4.9446 32.8116 5.93624 33.0372 6.63381L33.2082 7.16724L32.9894 7.20144C32.8731 7.22195 30.0828 7.55706 26.7933 7.95371L20.8093 8.6718L20.6588 8.50082C20.1664 7.94687 20.0981 6.16192 20.5289 5.21132L20.693 4.86254L21.3633 4.77363C27.1148 4.07606 32.6269 3.41953 32.8389 3.41269C33.0578 3.40585 33.0919 3.42637 33.0509 3.52211ZM9.18319 8.40508C12.7941 8.82909 15.7554 9.17787 15.7622 9.18471C15.769 9.18471 15.7143 9.43775 15.6323 9.73182C15.475 10.3268 15.4203 11.7219 15.5297 12.5563L15.5844 12.9871L15.2219 12.9461C14.6338 12.8777 14.5722 12.8572 14.4902 12.6589C14.2371 12.0434 14.1414 10.8397 14.2782 10.1011C14.3602 9.66344 14.285 9.4104 14.032 9.29414C13.5738 9.08897 13.307 9.32149 13.1839 10.0464C13.0882 10.6004 13.1224 11.6809 13.2523 12.2827C13.3002 12.4811 13.3207 12.6589 13.3002 12.6794C13.2318 12.7478 2.14597 11.4005 2.09126 11.3184C1.53731 10.5046 1.47576 8.80857 1.96816 7.85113C2.11178 7.57757 2.12546 7.5639 2.36482 7.59809C2.5016 7.61861 5.57226 7.98107 9.18319 8.40508ZM33.0509 8.44611C33.0236 8.5145 32.9552 8.81541 32.9005 9.11632C32.7568 9.8686 32.8116 10.8808 33.0372 11.551C33.133 11.8314 33.2014 12.0707 33.1877 12.0844C33.174 12.0981 30.3837 12.44 26.9848 12.8504L20.8093 13.5958L20.6588 13.4248C20.1664 12.8709 20.0981 11.0859 20.5289 10.1353L20.693 9.78654L21.3974 9.69763C26.5676 9.06161 32.6269 8.34353 32.8389 8.33669C33.0578 8.32985 33.0919 8.35037 33.0509 8.44611ZM18.1968 9.45827C18.6961 9.51982 19.1953 9.58137 19.3116 9.59505L19.5304 9.62924L19.3595 10.1627C19.0722 11.0586 19.0791 12.2759 19.3731 13.2949L19.4142 13.4317L18.1285 13.2744C17.4241 13.1923 16.8222 13.1239 16.7949 13.1171C16.7744 13.1171 16.6991 12.823 16.6376 12.4605C16.4803 11.592 16.5213 10.4704 16.7402 9.81389C16.9248 9.27362 16.8222 9.30097 18.1968 9.45827ZM2.80251 12.5768C3.19916 12.6315 3.39749 12.6862 3.37697 12.7341C3.17865 13.206 2.91193 14.2045 2.81619 14.8336C2.73412 15.4218 2.7136 15.8458 2.74096 16.5707C2.78199 17.4051 2.8367 17.788 3.10342 19.0054L3.14445 19.1832L2.57682 19.1079C2.02287 19.0327 2.00236 19.0259 1.78351 18.7386C0.832908 17.4871 0.88078 13.8899 1.85874 12.7204C2.07759 12.4674 2.01604 12.4811 2.80251 12.5768ZM5.26451 12.8777L5.5791 12.9187L5.41496 13.4111C4.8405 15.0593 4.75843 17.0084 5.18928 18.7934C5.25767 19.1079 5.30554 19.3747 5.29186 19.3952C5.27135 19.4089 5.07302 19.402 4.8405 19.3747C4.437 19.3268 4.40965 19.3131 4.3139 19.0737C4.25235 18.937 4.12925 18.5335 4.03351 18.1779C3.87621 17.5897 3.8557 17.3982 3.8557 16.1946C3.84886 14.7105 3.93092 14.2318 4.37545 13.247C4.57378 12.8093 4.60114 12.7683 4.76527 12.8025C4.86101 12.823 5.0867 12.8504 5.26451 12.8777ZM10.4963 13.4795C12.5001 13.7189 14.1551 13.9309 14.1756 13.9514C14.1961 13.9719 14.1345 14.2592 14.0388 14.5943C13.5601 16.2493 13.5396 18.2736 13.9978 19.9286C14.073 20.1885 14.1209 20.4142 14.1004 20.4278C14.0798 20.4484 12.3838 20.2637 10.3253 20.0175L6.58441 19.5798L6.39292 19.0122C5.96891 17.7402 5.88685 15.7364 6.20827 14.519C6.35189 13.9788 6.73487 13.0487 6.81694 13.0487C6.83745 13.0487 8.4993 13.247 10.4963 13.4795ZM32.7295 13.6095C32.3875 14.5122 32.3055 15.073 32.3055 16.3997C32.3055 17.7675 32.3807 18.2052 32.7774 19.149C32.8799 19.3883 32.9757 19.6277 32.9894 19.6824C33.0167 19.7713 32.7432 19.8192 31.2796 19.9902L29.5289 20.2022V18.5745V16.9469L29.7204 16.9127C30.035 16.8443 30.2401 16.7143 30.3085 16.5297C30.3974 16.263 30.3085 16.0031 30.076 15.8868C29.8845 15.7842 29.693 15.8048 27.3268 16.092C25.0494 16.3655 24.769 16.4134 24.6254 16.5502C24.4681 16.6938 24.4202 16.9537 24.5091 17.1862C24.5639 17.323 24.9332 17.5145 25.0563 17.4666C25.1383 17.4324 25.152 17.6855 25.152 19.0669V20.7082L25.0015 20.7356C24.9126 20.7561 23.9073 20.8861 22.7584 21.016L20.6725 21.269L20.4537 21.0092C20.2143 20.7356 20.0092 20.2569 19.8313 19.5525C19.6809 18.9233 19.6809 17.0221 19.8313 16.3929C20.016 15.6817 20.2143 15.2098 20.4537 14.9431L20.6725 14.6969L26.5882 13.9856C29.8435 13.589 32.5859 13.2675 32.6885 13.2607L32.8663 13.2539L32.7295 13.6095ZM16.3845 14.1771C16.3914 14.1839 16.323 14.4643 16.2272 14.7994C15.7485 16.4476 15.7212 18.3557 16.1657 20.0175C16.2546 20.3731 16.3162 20.674 16.3025 20.6946C16.282 20.7082 16.0836 20.7014 15.8579 20.674C15.4408 20.6262 15.4408 20.6262 15.2972 20.3116C15.2219 20.1338 15.0715 19.6961 14.9757 19.3405C14.8116 18.7386 14.7979 18.5882 14.7979 17.2888C14.8048 15.7979 14.8526 15.4902 15.2356 14.4643L15.3861 14.0608L15.8785 14.1087C16.1452 14.1361 16.3709 14.1634 16.3845 14.1771ZM18.6072 14.4301C19.2227 14.4985 19.3389 14.5327 19.3116 14.6216C19.2979 14.6763 19.2022 14.9157 19.0996 15.1551C18.7098 16.0852 18.6345 16.5434 18.6277 17.8701C18.6209 19.1968 18.6961 19.6961 19.0175 20.5988L19.1885 21.0639L18.8739 21.0228C18.6961 21.0023 18.3473 20.9681 18.0943 20.9408L17.6292 20.8929L17.4241 20.3595C17.0274 19.3336 16.9795 19.0259 16.9864 17.5282C16.9864 16.2766 17 16.1057 17.1642 15.5107C17.4172 14.5874 17.5335 14.3481 17.7113 14.3481C17.7934 14.3481 18.1968 14.3823 18.6072 14.4301ZM28.4347 19.4089C28.4347 20.6877 28.421 21.7341 28.4073 21.7341C28.3936 21.7341 28.2227 21.5152 28.0243 21.2554C27.4567 20.4894 27.1558 20.5099 26.6497 21.3443C26.4787 21.6383 26.3146 21.8914 26.2873 21.9187C26.2667 21.9392 26.2462 20.9134 26.2462 19.6345V17.3093L27.1216 17.2067C27.6003 17.152 28.0927 17.0973 28.2158 17.0905L28.4347 17.0836V19.4089Z" fill="black"/>
</svg>
