<svg width="35" height="28" viewBox="0 0 35 28" fill="none" xmlns="http://www.w3.org/2000/svg">
<path d="M7.02028 0.103268C6.30113 0.295041 5.69841 0.795022 5.34911 1.48678C5.13679 1.91142 5.13679 1.91142 4.83543 4.71953L4.58887 7.01396L3.32179 7.05506C1.92458 7.09615 1.69172 7.15095 1.09585 7.56189C0.678056 7.84955 0.424641 8.15776 0.184924 8.67828L0 9.06868V17.4314V25.7872L0.260264 26.3078C0.561623 26.9173 0.890377 27.2392 1.54104 27.5543L1.98623 27.7666H14.9309C25.1908 27.7666 27.9373 27.7461 28.1633 27.6776C28.8482 27.4721 29.5605 26.8009 29.8413 26.0886C29.9783 25.753 29.992 25.5544 30.0194 24.1982L30.0468 22.6846L30.8755 22.6915C31.6015 22.6983 31.7591 22.6778 32.1015 22.5408C32.8275 22.2463 33.4782 21.4997 33.6563 20.7463C33.7795 20.2395 35.0466 4.80172 34.9987 4.37708C34.9165 3.57574 34.3275 2.72646 33.6083 2.36346C33.4234 2.26757 33.0741 2.15798 32.8344 2.11689C32.4029 2.04155 7.92436 -0.0131662 7.57506 0.000531869C7.47917 0.000531869 7.22575 0.0484753 7.02028 0.103268ZM20.0335 2.39085C26.8688 2.95932 32.5878 3.45246 32.7385 3.49355C33.0946 3.59629 33.5672 4.06202 33.6289 4.37708C33.6494 4.51406 33.3754 8.1783 33.0124 12.5206C32.3138 20.8902 32.3344 20.7052 31.9714 21.034C31.6769 21.3011 31.3413 21.3764 30.6701 21.3285L30.04 21.2805L30.0194 15.2123L29.9989 9.13717L29.8345 8.72623C29.6085 8.15776 28.9236 7.47285 28.3551 7.24683L27.9441 7.08245L16.972 7.06191L5.99292 7.04821V6.89068C5.99292 6.59617 6.46551 2.34976 6.51345 2.21963C6.65043 1.83608 7.20521 1.37719 7.53396 1.36349C7.57506 1.36349 13.1981 1.82238 20.0335 2.39085ZM27.7387 8.49336C28.088 8.58925 28.4921 8.99334 28.588 9.34264C28.6291 9.49332 28.6633 9.94536 28.6633 10.3495V11.0892H14.9994H1.33557V10.3152C1.33557 9.39059 1.39721 9.13032 1.70541 8.83581C2.15745 8.39747 1.26708 8.42487 14.9652 8.41802C23.8827 8.41802 27.5401 8.43857 27.7387 8.49336ZM28.6496 13.911L28.6633 15.3356H14.9994H1.33557V13.8973V12.459L14.9857 12.4727L28.6291 12.4932L28.6496 13.911ZM28.6633 20.9655C28.6633 23.7325 28.6359 25.3215 28.588 25.4927C28.5537 25.6365 28.4236 25.8557 28.314 25.9858C27.8894 26.4721 28.9304 26.4379 14.8556 26.4173L2.18485 26.3968L1.93828 26.2324C1.80815 26.1434 1.62323 25.9585 1.53419 25.8283L1.36981 25.5818L1.34926 21.1436L1.33557 16.7054H14.9994H28.6633V20.9655Z" fill="#003FB3"/>
<path d="M18.7115 18.9515L18.5266 19.1433V21.561V23.9787L18.7252 24.1774L18.9239 24.376H22.4648C24.7593 24.376 26.0469 24.3486 26.1359 24.3075C26.451 24.1363 26.4715 23.9787 26.4715 21.5679C26.4715 19.157 26.451 18.9995 26.1359 18.8282C26.0469 18.7871 24.7524 18.7598 22.4511 18.7598H18.8965L18.7115 18.9515ZM25.1017 21.5679V23.0062H22.4991H19.8964V21.5679V20.1296H22.4991H25.1017V21.5679Z" fill="#003FB3"/>
</svg>
