<svg width="32" height="32" viewBox="0 0 32 32" fill="none" xmlns="http://www.w3.org/2000/svg">
<path d="M4.1154 12.3109V31.3541H12.2636M27.1401 23.6689V31.3541H12.2636M12.2636 31.3541V18.3911M12.2636 12.3109V18.3911M27.1401 21.1072V18.3911M27.1401 12.3109V18.3911M12.2636 18.3911L8.65244 16.8788L10.7203 12.064M12.2636 8.88496C11.5938 10.1427 11.2299 10.7851 10.7203 12.064M12.2636 8.88496H10.794C9.95806 9.61917 9.44508 9.86332 8.48081 10.1195M12.2636 8.88496C12.3856 8.6008 13.2763 8.45706 14.1463 8.38434M27.1401 18.3911L30.5352 16.5701C30.5352 16.5701 27.6648 9.46001 27.1401 8.88496C26.6154 8.30991 23.4262 8.30991 23.4262 8.30991M15.9055 8.30991L16.9549 8.14422C17.5429 7.51671 17.9039 7.21241 18.6833 6.87879C18.8878 6.53009 18.906 6.29408 18.6833 5.76768C13.9919 3.48374 19.9796 -2.84342 22.3561 2.83558C21.7697 4.87262 20.7512 3.60719 20.1339 2.24916C19.7636 1.78621 18.4673 2.43435 18.6833 3.32942C19.4549 3.9467 20.7512 5.11954 20.7512 6.87879C21.4136 7.19419 21.7659 7.47401 22.3561 8.14422L23.4262 8.30991M15.9055 8.30991C15.9055 8.30991 15.0368 8.30991 14.1463 8.38434M15.9055 8.30991C16.0051 9.18804 16.1454 9.76352 16.3994 10.2127M23.4262 8.30991C23.2075 9.09061 22.9788 9.71602 22.7073 10.2127M19.2697 11.9405C21.0504 11.9061 22.0171 11.4756 22.7073 10.2127M3.99195 18.2368L0.535156 16.8788L1.15244 15.4899M2.01664 13.3294C2.01664 13.3294 3.31293 9.37879 3.99195 8.88496C4.67096 8.39114 7.9117 8.30991 7.9117 8.30991M7.9117 8.30991L9.05368 8.14422C9.64389 7.49698 10.0139 7.23282 10.7203 6.87879C10.8879 6.52429 10.939 6.30526 10.7203 5.76768C5.31911 3.14423 12.171 -2.99776 14.3623 2.83558C13.7759 5.76768 12.5105 2.6504 11.924 2.24916C11.3376 1.84792 10.4734 2.24916 10.4734 3.14422C10.794 4.44053 12.2636 3.82324 12.5105 6.87879C13.5188 7.35829 13.8243 7.70348 14.1463 8.38434M7.9117 8.30991C7.92471 8.7833 8.08877 9.44917 8.48081 10.1195M10.7203 12.064C9.58421 11.5662 8.9238 10.877 8.48081 10.1195M17.2636 11.1381C16.878 10.8502 16.6024 10.5718 16.3994 10.2127M16.3994 10.2127C17.6604 10.0169 18.1557 9.69359 18.8068 8.88496H20.3808C21.0108 9.68838 21.578 9.91991 22.7073 10.2127M21.7389 14.4405H25.4734V17.3726C24.1704 18.8286 23.3839 19.1172 21.7389 17.3726V14.4405Z" stroke="#7C01AC" stroke-width="0.8"/>
</svg>
