<svg width="35" height="35" viewBox="0 0 35 35" fill="none" xmlns="http://www.w3.org/2000/svg">
<path d="M8.86356 0.0912895C7.8232 0.378433 7.11822 1.15783 6.9471 2.23121C6.85813 2.75764 6.85813 7.9331 6.9471 8.15871C7.02924 8.38433 7.31671 8.45953 7.49466 8.30229C7.61786 8.1929 7.62471 8.03565 7.64524 5.16419C7.66578 2.43631 7.67946 2.12182 7.78898 1.87569C7.9464 1.53385 8.33653 1.12365 8.69245 0.932213C8.95938 0.788643 9.04836 0.781803 11.5534 0.761295L14.1338 0.740784V1.49967V2.25172H11.6766C9.36321 2.25172 9.21263 2.25855 9.06205 2.38161L8.89778 2.51152V6.75033C8.89778 11.2558 8.89778 11.2079 9.21947 11.2079C9.29476 11.2079 9.41112 11.1737 9.48641 11.1396C9.60961 11.0712 9.61645 10.9481 9.61645 7.03748V3.00377H11.8683H14.1201L14.1954 3.20203C14.3049 3.46183 14.6608 3.79 14.9483 3.88571C15.0989 3.93357 15.9134 3.96092 17.3302 3.96092C19.1097 3.96092 19.5204 3.94041 19.7258 3.85837C20.0543 3.72163 20.2117 3.57806 20.3691 3.25673L20.4992 3.00377H22.929H25.3588V9.0475C25.3588 15.6382 25.3382 15.2758 25.7489 15.228C26.1253 15.1869 26.1117 15.3784 26.0911 8.69198L26.0774 2.51152L25.9132 2.38161C25.7626 2.25855 25.612 2.25172 23.1275 2.25172H20.4992V1.49967V0.740784L23.2575 0.761295C25.9269 0.781803 26.0158 0.788643 26.2828 0.932213C26.6387 1.12365 27.0288 1.53385 27.1862 1.87569C27.3026 2.13549 27.3094 2.63458 27.33 10.5721L27.3437 19.0019H26.0774H24.8112L24.7017 19.1728C24.5648 19.3779 24.6332 19.6035 24.8591 19.6924C24.9549 19.7266 26.3238 19.7539 28.0555 19.7539C30.3142 19.7539 31.1013 19.7744 31.1629 19.836C31.2176 19.8907 31.245 20.1915 31.245 20.7384L31.2519 21.5657L29.9856 22.7963C29.1985 23.562 28.6646 24.1432 28.562 24.3346C28.4046 24.6422 28.4046 24.6491 28.4046 27.2197V29.804H22.0255H15.6396V26.9326V24.0611L15.4685 23.9517C15.3111 23.8492 15.2837 23.8492 15.1263 23.9517L14.9551 24.0611V27.0556V30.0433L14.3391 31.8893C14.0038 32.9011 13.7231 33.8104 13.7231 33.9129C13.7231 34.2343 14.0106 34.6718 14.3391 34.8428L14.6335 35H23.456C30.7933 35 32.3128 34.9863 32.4976 34.9043C32.8056 34.7744 33.0656 34.4667 33.1546 34.1317C33.2299 33.8583 33.2094 33.7557 32.8124 32.5593C32.5797 31.8482 32.3812 31.2398 32.3607 31.1987C32.347 31.1577 32.6002 31.103 33.052 31.062C33.6543 31.0005 33.8185 30.9594 34.0992 30.7885C34.4619 30.5629 34.8315 30.0707 34.941 29.6605C34.9889 29.4827 35.0095 28.5324 34.9958 26.9804L34.9753 24.5739L34.7905 24.232C34.6604 23.9722 34.2771 23.5757 33.312 22.7006L32.0048 21.511L31.9842 20.6017C31.9637 19.5967 31.9158 19.4736 31.4503 19.1523C31.2313 19.0087 31.1697 19.0019 29.6639 19.0019H28.1034L28.0829 10.5379L28.0623 2.0808L27.9049 1.68426C27.6927 1.16467 27.2957 0.679253 26.8645 0.412617C26.1596 -0.0249367 26.5634 -0.00442886 17.4534 0.00241089C11.0949 0.00241089 9.10312 0.0229187 8.86356 0.0912895ZM19.7463 1.84151C19.7463 2.84652 19.7326 2.94907 19.6094 3.07213C19.4794 3.20203 19.3835 3.20887 17.3233 3.20887C15.3111 3.20887 15.1673 3.20203 15.0167 3.07897C14.8593 2.94907 14.8525 2.90805 14.8319 1.84835L14.8114 0.74762H17.2754H19.7463V1.84151ZM33.093 23.5073C34.3661 24.6696 34.2566 24.3346 34.2566 27.1308C34.2566 29.3733 34.2497 29.4895 34.1129 29.7288C34.0376 29.8656 33.8665 30.057 33.7296 30.1459L33.4763 30.3168H31.6146H29.7461L29.5339 30.1117C29.1164 29.722 29.1232 29.7493 29.1232 27.2402C29.1232 25.4285 29.1438 24.902 29.219 24.7243C29.2738 24.6012 29.7461 24.0748 30.2799 23.5484L31.245 22.5912V23.1928C31.245 23.6304 31.2245 23.7876 31.156 23.7876C30.9918 23.7876 30.54 24.2184 30.4168 24.4987C30.2389 24.8815 30.2526 25.2029 30.4647 25.6199C31.0465 26.7958 32.8124 26.4677 32.9424 25.1618C32.9561 24.9772 32.9356 24.7243 32.8945 24.5876C32.7987 24.3141 32.3812 23.8697 32.1553 23.815C32.0048 23.774 31.9979 23.7398 31.9979 23.1587C31.9979 22.434 31.8679 22.3929 33.093 23.5073ZM32.0664 24.6628C32.2785 24.9226 32.2443 25.2439 31.9911 25.4558C31.7173 25.6883 31.4846 25.6814 31.2382 25.4353C30.9233 25.114 30.9918 24.6764 31.3956 24.5123C31.6625 24.3961 31.9021 24.4508 32.0664 24.6628ZM29.0958 30.7338C29.4791 31.0278 29.7735 31.0962 30.6975 31.103H31.553L32.0253 32.5046C32.4702 33.8514 32.4839 33.9198 32.3812 34.077L32.2717 34.248H23.4971C15.4343 34.248 14.7156 34.2411 14.5992 34.1317C14.5308 34.0702 14.476 33.9745 14.476 33.9129C14.476 33.8241 15.3384 31.1577 15.5369 30.6381C15.5575 30.5766 16.9606 30.5561 22.2103 30.5561H28.8563L29.0958 30.7338Z" fill="#00B0A4"/>
<path d="M17.7479 32.2314C17.6931 32.3613 17.6931 32.4434 17.7479 32.5732L17.83 32.7441H23.4356C28.4458 32.7441 29.0549 32.7305 29.1508 32.6348C29.2124 32.5801 29.2603 32.4707 29.2603 32.4023C29.2603 32.334 29.2124 32.2246 29.1508 32.1699C29.0549 32.0742 28.4458 32.0605 23.4356 32.0605H17.83L17.7479 32.2314Z" fill="#00B0A4"/>
<path d="M2.2655 2.36086C2.10123 2.51809 2.11492 3.22219 2.27918 3.36574C2.4503 3.51613 2.60772 3.5093 2.77199 3.34524C2.9431 3.17434 2.95679 2.62746 2.79937 2.40188C2.67616 2.22414 2.41607 2.20363 2.2655 2.36086Z" fill="#00B0A4"/>
<path d="M0.828216 3.79639C0.670793 3.94679 0.691327 4.20655 0.869283 4.3296C1.09515 4.48682 1.57426 4.47315 1.74538 4.30225C1.90964 4.13819 1.91649 4.04249 1.77275 3.83741C1.69062 3.71436 1.60164 3.68702 1.30049 3.68702C1.06093 3.68702 0.896661 3.7212 0.828216 3.79639Z" fill="#00B0A4"/>
<path d="M3.3058 3.76245C3.12784 3.86499 3.14838 4.19995 3.33318 4.32983C3.4906 4.43921 3.90127 4.47339 4.1066 4.39819C4.2914 4.32299 4.36669 4.03589 4.24349 3.85132C4.15451 3.7146 4.07922 3.68725 3.77807 3.68725C3.58642 3.68725 3.3674 3.72143 3.3058 3.76245Z" fill="#00B0A4"/>
<path d="M2.22445 4.84323C2.19023 4.91843 2.15601 5.13034 2.15601 5.32175C2.15601 5.60886 2.18338 5.68405 2.31343 5.76609C2.51192 5.9028 2.76516 5.83445 2.8473 5.62253C2.94312 5.3696 2.92259 5.03464 2.79939 4.86374C2.6625 4.67234 2.32712 4.65866 2.22445 4.84323Z" fill="#00B0A4"/>
<path d="M17.1456 7.43388C14.8595 7.56378 12.8814 8.91746 11.8479 11.0779C11.4646 11.871 11.2661 12.6093 11.2114 13.4708C11.1635 14.2775 11.2593 14.968 11.5673 16.0551C11.8 16.855 11.8069 16.9028 11.8069 18.1266C11.8069 19.1795 11.8274 19.412 11.9301 19.6102C12.1285 20.0136 12.3544 20.1298 13.0046 20.1572C13.5317 20.1777 13.5796 20.1913 13.6001 20.3212C13.6343 20.5742 13.8944 20.6426 14.8732 20.6426C15.7493 20.6426 15.7903 20.6357 15.9478 20.4717L16.1189 20.3076V18.1813C16.1189 16.1508 16.112 16.0551 15.982 15.9252C15.8588 15.8021 15.7561 15.7884 14.8663 15.7884C13.826 15.7884 13.5864 15.85 13.5864 16.1303C13.5864 16.2397 13.518 16.2602 13.0046 16.2807L12.416 16.3012L12.286 15.8568C12.2175 15.6107 12.1217 15.2757 12.0738 15.1048C11.9369 14.6262 11.9574 12.9854 12.108 12.4384C12.6556 10.4216 14.1819 8.87644 16.1531 8.3295C16.8991 8.12439 18.0422 8.12439 18.8224 8.3295C20.3967 8.74654 21.6629 9.79941 22.4158 11.3103C22.8333 12.1581 22.9565 12.6162 23.0113 13.5323C23.0523 14.298 22.9634 14.927 22.6964 15.8295L22.5595 16.3012L21.9709 16.2807C21.4576 16.2602 21.3891 16.2397 21.3891 16.1303C21.3891 15.85 21.1496 15.7884 20.1092 15.7884C19.2194 15.7884 19.1168 15.8021 18.9936 15.9252C18.8635 16.0551 18.8567 16.1508 18.8567 18.1813V20.3076L19.0278 20.4717C19.1852 20.6357 19.2263 20.6426 20.1024 20.6426C21.0811 20.6426 21.3412 20.5742 21.3754 20.3212C21.396 20.1913 21.4439 20.1777 21.9709 20.1572C22.6211 20.1298 22.847 20.0136 23.0455 19.6102C23.1482 19.412 23.1687 19.1795 23.1687 18.1266C23.1687 16.9028 23.1755 16.855 23.4083 16.0551C23.7231 14.9544 23.8121 14.2844 23.7642 13.4024C23.5725 9.93615 20.5815 7.23561 17.1456 7.43388ZM15.366 18.2155V19.8905H14.8526H14.3393V18.2155V16.5405H14.8526H15.366V18.2155ZM20.6362 18.2155V19.8905H20.1229H19.6096V18.2155V16.5405H20.1229H20.6362V18.2155ZM13.5864 18.2155V19.412H13.1552C12.9088 19.412 12.6898 19.3778 12.6419 19.3299C12.5529 19.241 12.5187 17.149 12.6077 17.0669C12.6282 17.0396 12.8609 17.0191 13.121 17.0191H13.5864V18.2155ZM22.4021 18.1403C22.4158 18.8787 22.3953 19.2547 22.3405 19.3162C22.2858 19.3778 22.1146 19.412 21.8272 19.412H21.3891V18.2155V17.0122L21.8888 17.0327L22.3816 17.0533L22.4021 18.1403Z" fill="#00B0A4"/>
<path d="M6.9472 9.7041C6.66657 9.98438 6.89929 10.5244 7.30311 10.5244C7.46738 10.5244 7.76853 10.2236 7.76853 10.0596C7.76853 9.65625 7.22782 9.42383 6.9472 9.7041Z" fill="#00B0A4"/>
<path d="M3.04579 11.9662C2.82677 12.0551 2.58037 12.2875 2.46401 12.5063C2.4161 12.602 2.15601 13.6891 1.87539 14.9197L1.37574 17.169L1.01298 17.3331C0.629692 17.5177 0.390135 17.757 0.150579 18.2082L0 18.4885V23.4452V28.4019L0.205334 28.771C0.417513 29.1539 0.807649 29.4957 1.21832 29.6462C1.37574 29.7009 2.48455 29.7282 5.12652 29.7282C8.04227 29.735 8.802 29.7555 8.77463 29.8171C8.76094 29.8649 8.53507 30.8289 8.28182 31.957C8.02173 33.1124 7.77533 34.0627 7.71373 34.1243C7.61791 34.2337 7.41942 34.2473 5.44136 34.2473C3.70971 34.2473 3.25113 34.2268 3.18953 34.1584C3.14846 34.1038 3.00473 33.5636 2.86099 32.9483C2.7241 32.3399 2.56668 31.7929 2.51192 31.7451C2.38188 31.6083 2.12863 31.6288 1.99174 31.7792C1.87539 31.9091 1.88223 31.9638 2.12863 33.0987C2.40241 34.3089 2.51192 34.5618 2.86099 34.8216C3.04579 34.9584 3.14162 34.9652 5.35923 34.9857C7.64529 35.0062 7.66582 34.9994 7.97382 34.849C8.13809 34.7601 8.32973 34.596 8.39818 34.4798C8.46662 34.3636 8.75409 33.2423 9.03472 31.9912C9.31534 30.74 9.5549 29.7077 9.56859 29.7009C9.57543 29.694 9.71232 29.6393 9.86974 29.571C10.2393 29.4069 10.5953 29.0377 10.7937 28.607C10.9375 28.2856 10.9512 28.1626 10.9717 26.5764L10.9991 24.8809H11.574C12.4296 24.8809 12.4227 24.8946 12.4227 23.4452C12.4227 21.9958 12.4296 22.0094 11.574 22.0094H10.9991L10.9649 20.3139C10.9443 19.1448 10.9101 18.5432 10.8485 18.3654C10.7116 17.9826 10.2599 17.504 9.85605 17.3194L9.51383 17.1553H5.83834C3.81238 17.1553 2.15601 17.1348 2.15601 17.1006C2.15601 16.916 3.12793 12.8071 3.18953 12.7319C3.25113 12.6635 3.70286 12.643 5.43452 12.643C6.62546 12.643 7.63844 12.6704 7.6932 12.7046C7.74795 12.7387 7.91222 13.313 8.08333 14.0514C8.3708 15.3025 8.45978 15.5145 8.69249 15.5145C8.83623 15.5145 9.06894 15.3025 9.06894 15.1658C9.06894 14.8855 8.51454 12.6088 8.39818 12.4106C8.32973 12.2944 8.15178 12.1303 8.0012 12.0482C7.74111 11.8978 7.6932 11.891 5.47559 11.8978C4.14091 11.8978 3.14846 11.9252 3.04579 11.9662ZM9.68494 18.0646C9.81499 18.1467 9.97926 18.3244 10.0545 18.4543C10.1983 18.6868 10.1983 18.7756 10.1983 23.4452C10.1983 28.0737 10.1914 28.2036 10.0614 28.4292C9.9861 28.5591 9.83552 28.7232 9.73285 28.8052C9.54121 28.9488 9.48645 28.9488 5.51665 28.9693L1.49894 28.983L1.26623 28.8257C1.13618 28.7437 0.958228 28.5659 0.876094 28.4429L0.718671 28.2104V23.4452V18.6799L0.876094 18.4475C0.958228 18.3244 1.13618 18.1467 1.25938 18.0646L1.4921 17.9074H5.47559H9.45907L9.68494 18.0646ZM11.6698 23.4452V24.1289H11.3276H10.9854V23.4452V22.7615H11.3276H11.6698V23.4452Z" fill="#00B0A4"/>
<path d="M4.52408 19.8566C3.60007 20.1095 2.68976 20.8069 2.23802 21.6068C1.42353 23.0494 1.66993 24.8611 2.84034 26.0439C4.30506 27.5206 6.59111 27.5138 8.08321 26.0165C8.82241 25.2713 9.13726 24.5124 9.13726 23.4459C9.13726 22.3589 8.82926 21.6205 8.04899 20.8479C7.49458 20.2941 7.04285 20.0343 6.36525 19.8566C5.87929 19.7335 4.98266 19.7335 4.52408 19.8566ZM6.68009 20.759C7.90525 21.3265 8.59655 22.605 8.38437 23.8903C8.22694 24.8611 7.57672 25.7089 6.67325 26.1396C5.87244 26.5156 4.7431 26.4609 3.96283 26.0029C3.53163 25.7499 2.99776 25.1414 2.75136 24.6287C2.54602 24.198 2.53234 24.1091 2.53234 23.4459C2.53234 22.7622 2.54602 22.7007 2.77874 22.2153C3.14149 21.4564 3.73012 20.9231 4.51724 20.6291C4.78417 20.5334 5.01004 20.5061 5.54391 20.5266C6.14622 20.5403 6.28311 20.5676 6.68009 20.759Z" fill="#00B0A4"/>
<path d="M4.34612 21.3271C4.21607 21.457 4.20923 21.5527 4.20923 23.4463C4.20923 25.3398 4.21607 25.4355 4.34612 25.5654C4.42141 25.6406 4.52407 25.7021 4.57883 25.7021C4.69519 25.7021 5.09901 25.4219 6.44737 24.4238C7.85734 23.3711 7.87787 23.5215 6.09146 22.2021C5.33857 21.6484 4.66781 21.1904 4.60621 21.1904C4.53776 21.1904 4.42141 21.252 4.34612 21.3271ZM5.75608 22.8789C6.14622 23.1729 6.46791 23.4258 6.46791 23.4463C6.46791 23.4873 5.13323 24.4785 5.01688 24.5264C4.9895 24.54 4.96212 24.0547 4.96212 23.4531C4.96212 22.8447 4.98265 22.3525 5.00319 22.3525C5.03057 22.3525 5.36595 22.5918 5.75608 22.8789Z" fill="#00B0A4"/>
<path d="M32.1757 12.0422C32.0182 12.2678 32.0319 12.8147 32.203 12.9856C32.3742 13.1565 32.559 13.1633 32.7027 12.9993C32.8601 12.8284 32.8601 12.1516 32.7095 12.0012C32.559 11.844 32.2989 11.8645 32.1757 12.0422Z" fill="#00B0A4"/>
<path d="M30.7316 13.4912C30.6563 13.6074 30.6426 13.6963 30.6905 13.8193C30.7658 14.0244 30.889 14.0791 31.2381 14.0791C31.5735 14.0791 31.7925 13.9219 31.7925 13.6689C31.7925 13.416 31.6351 13.3271 31.1833 13.3271C30.8959 13.3271 30.8206 13.3545 30.7316 13.4912Z" fill="#00B0A4"/>
<path d="M33.2025 13.4775C33.0588 13.6826 33.0656 13.7783 33.2299 13.9424C33.3257 14.0381 33.4558 14.0791 33.6611 14.0791C34.0102 14.0791 34.2566 13.9287 34.2566 13.7031C34.2566 13.4365 34.0854 13.3271 33.6748 13.3271C33.3736 13.3271 33.2846 13.3545 33.2025 13.4775Z" fill="#00B0A4"/>
<path d="M32.1759 14.5028C32.1143 14.5849 32.0664 14.7558 32.0664 14.8788C32.0664 15.3847 32.3265 15.6239 32.6482 15.4188C32.7919 15.3231 32.8193 15.2548 32.8193 14.9608C32.8193 14.7694 32.7851 14.5575 32.7509 14.4823C32.6482 14.2978 32.3128 14.3114 32.1759 14.5028Z" fill="#00B0A4"/>
<path d="M25.5162 16.3351C25.215 16.4581 25.1329 16.8614 25.3587 17.087C25.6394 17.3673 26.1801 17.1691 26.1801 16.7862C26.1801 16.465 25.8173 16.2189 25.5162 16.3351Z" fill="#00B0A4"/>
<path d="M15.1126 21.9415C14.8114 22.0646 14.7293 22.4679 14.9552 22.6935C15.2358 22.9737 15.7765 22.7755 15.7765 22.3927C15.7765 22.0714 15.4138 21.8253 15.1126 21.9415Z" fill="#00B0A4"/>
</svg>
