<svg width="35" height="37" viewBox="0 0 35 37" fill="none" xmlns="http://www.w3.org/2000/svg">
<path d="M26.4 0.040858C24.3452 0.366784 22.418 1.56421 21.2985 3.208L20.9513 3.71815L20.4129 3.76066C17.2174 4.0299 14.6454 5.7233 13.2992 8.43698C12.6969 9.65566 12.4631 10.6264 12.4277 12.0505L12.4064 13.0425L10.9681 13.8998C10.0045 14.4808 9.48018 14.835 9.3739 14.9838C9.28888 15.1043 9.16843 15.4444 9.09757 15.7349C9.02672 16.0254 8.94878 16.2946 8.92753 16.3371C8.8921 16.3938 8.67245 16.3938 8.15522 16.3371C7.47503 16.2663 7.41126 16.2663 7.12077 16.408C6.7665 16.578 6.56811 16.911 6.43349 17.5629L6.34846 17.9809L5.98711 17.9384C4.89597 17.818 4.78969 17.818 4.53462 17.9455C4.20161 18.1156 4.0103 18.4344 3.86151 19.0367L3.73397 19.5397L3.44347 19.4972C2.5153 19.3697 2.13269 19.3697 1.78551 19.483C1.36039 19.6247 0.843155 20.0569 0.673107 20.4254C0.5314 20.723 0 23.6421 0 24.1168C0 24.4711 0.191304 24.8395 0.439291 24.9671C0.821899 25.1655 4.02447 26.1858 4.27246 26.1858C4.42125 26.1858 4.61256 26.1503 4.69758 26.1078C4.7826 26.0582 7.2979 24.5632 10.2879 22.7777C13.2779 20.9851 15.7507 19.5255 15.7861 19.5255C15.8145 19.5255 15.9491 19.7806 16.0766 20.0853L16.3104 20.645L15.3398 21.9346C14.8084 22.6431 14.3266 23.3375 14.2699 23.4721C14.1778 23.6846 14.1778 23.8193 14.2486 24.3861C14.2982 24.7545 14.3195 25.0663 14.2982 25.0875C14.277 25.1088 13.9794 25.208 13.6322 25.3143C12.8528 25.541 12.6544 25.6756 12.4985 26.0795C12.3923 26.3629 12.3923 26.4621 12.4631 26.9368C12.5127 27.2344 12.541 27.4895 12.5198 27.5036C12.5056 27.5178 12.208 27.617 11.8609 27.7162C11.124 27.9288 10.9539 28.0209 10.7697 28.3326C10.6209 28.5735 10.5926 29.0057 10.6918 29.608L10.7485 29.941L10.2454 30.0827C9.11883 30.4086 8.76456 30.6353 8.47407 31.2093C8.1694 31.8115 8.17648 31.9603 8.6016 33.8663C9.01964 35.7439 9.09757 35.9352 9.53687 36.1407C9.77777 36.254 9.89822 36.254 11.542 36.1477C13.533 36.0131 13.703 35.9919 13.9369 35.8431C14.029 35.7864 15.9066 33.3136 18.1101 30.3519L22.1275 24.9742L22.6306 25.0308C23.4666 25.123 24.7845 25.0875 25.4364 24.9529C28.7806 24.2656 31.2534 21.8424 32.0753 18.4486C32.1745 18.0447 32.2029 17.6479 32.1958 16.6206C32.1958 15.4444 32.1745 15.2389 32.0116 14.6367C31.9053 14.2682 31.8061 13.914 31.7848 13.8502C31.7494 13.7793 31.8344 13.673 32.0612 13.5101C33.4924 12.4827 34.6261 10.5626 34.9307 8.66372C35.0724 7.80639 34.9874 6.32555 34.7607 5.532C34.3781 4.23538 33.8183 3.2576 32.8901 2.294C31.4731 0.820245 29.7726 0.0621141 27.7391 0.00543134C27.236 -0.00873934 26.6267 0.00543134 26.4 0.040858ZM28.3839 1.25245C30.9488 1.60672 33.1098 3.61895 33.6837 6.18385C33.8608 6.98449 33.8396 8.23151 33.627 9.06049C33.3436 10.1729 32.798 11.1507 32.0116 11.9442C31.5085 12.4473 31.2322 12.6528 31.1967 12.5394C31.0976 12.2347 30.3111 11.2215 29.7301 10.6405C29.0853 9.99576 29.0074 9.88948 28.8586 9.4431C28.476 8.30945 27.8525 7.28916 27.0022 6.39641C25.9394 5.27692 24.4869 4.41251 23.0699 4.04407C22.6802 3.94488 22.3542 3.85277 22.3401 3.84568C22.2905 3.79609 23.0557 2.94585 23.41 2.66243C24.8625 1.48627 26.5842 0.997379 28.3839 1.25245ZM22.2976 5.09979C23.8776 5.4328 25.3797 6.31847 26.3787 7.51589C26.7897 8.01186 27.3211 8.81251 27.2644 8.8621C27.2502 8.87628 26.9668 8.79834 26.6409 8.68497C25.5426 8.30945 25.075 8.23151 23.8067 8.23859C22.9778 8.23859 22.4889 8.27402 22.1204 8.35196C18.6911 9.13135 16.1971 11.6396 15.5169 14.9909C15.3539 15.7845 15.3114 17.2653 15.4319 17.9101L15.4956 18.2431L9.86988 21.6157L4.24412 24.9883L2.72077 24.4853C1.3037 24.0106 1.19742 23.961 1.23285 23.8193C1.2541 23.7413 1.36747 23.0824 1.48792 22.3597C1.60837 21.637 1.75716 20.978 1.81385 20.8859C1.99098 20.6167 2.20354 20.5813 3.08212 20.6663C3.52141 20.7159 3.99613 20.73 4.13075 20.7017C4.44251 20.645 4.7826 20.2695 4.88888 19.8798C4.92431 19.7239 4.98808 19.4759 5.03059 19.3271L5.09436 19.065L5.83123 19.1288C6.7169 19.2067 6.90112 19.1642 7.1987 18.8453C7.37584 18.6611 7.46086 18.4769 7.54589 18.066L7.66634 17.5346L8.50241 17.5842C9.27471 17.6267 9.35973 17.6196 9.57938 17.485C9.89822 17.2866 9.98324 17.1165 10.1745 16.3796C10.2596 16.0325 10.38 15.7136 10.4296 15.664C10.4792 15.6144 11.1948 15.1751 12.0238 14.6792C12.8528 14.1832 13.5543 13.7439 13.5826 13.6943C13.6109 13.6447 13.6393 13.0637 13.6464 12.4048C13.6534 10.8177 13.8306 10.0383 14.447 8.84793C15.5452 6.75776 17.5858 5.33361 19.9452 5.00768C20.5617 4.92266 21.6528 4.96517 22.2976 5.09979ZM25.6135 9.63441C26.9526 9.98159 28.3768 10.8531 29.2412 11.8521C29.5955 12.256 30.1835 13.1204 30.1835 13.2267C30.1835 13.34 28.9861 13.7156 28.2988 13.8148L28.0083 13.8573L27.9233 13.5526C27.3707 11.6892 24.8483 11.2357 23.7005 12.7945C23.3249 13.3046 23.2187 13.6872 23.2541 14.3745C23.3037 15.2743 23.7501 15.9687 24.5507 16.3938C24.8695 16.5639 24.9829 16.5851 25.6135 16.5851C26.2441 16.5851 26.3645 16.5639 26.6763 16.3938C27.0802 16.1883 27.6257 15.6357 27.7604 15.3098C27.8454 15.0972 27.8737 15.0901 28.5964 14.9697C29.0003 14.9059 29.6167 14.7571 29.9568 14.6367C30.2969 14.5162 30.6016 14.4099 30.637 14.4028C30.6724 14.3958 30.7645 14.6083 30.8425 14.8846C30.9558 15.2885 30.9842 15.6144 30.9913 16.6206C30.9984 17.7117 30.9771 17.9313 30.8354 18.4627C30.1269 21.056 28.1784 22.9974 25.5993 23.6846C25.0042 23.8405 24.7562 23.8689 23.8422 23.8689C23.0982 23.8759 22.6447 23.8405 22.3259 23.7626C21.8228 23.635 21.6599 23.6705 21.419 23.9255C21.341 24.0176 19.4776 26.5046 17.2882 29.445C15.0918 32.3854 13.2992 34.8015 13.2921 34.8015C13.2567 34.844 10.1604 35.0141 10.1249 34.9787C10.0966 34.9574 9.93364 34.2843 9.75651 33.4907C9.31722 31.5423 9.28179 31.6344 10.6776 31.2163C11.8396 30.8692 12.0663 30.5645 11.9105 29.5442C11.8679 29.2466 11.8396 28.9916 11.8467 28.9845C11.8609 28.9774 12.123 28.8994 12.4348 28.8144C13.2283 28.5877 13.4409 28.4743 13.6109 28.1909C13.7526 27.9642 13.7597 27.8862 13.7172 27.2556L13.6676 26.5613L14.362 26.3558C15.1343 26.1291 15.4744 25.8669 15.5523 25.456C15.5807 25.3213 15.5523 24.9175 15.5027 24.549L15.4035 23.883L16.523 22.3668C17.2386 21.4032 17.6425 20.8009 17.6425 20.6875C17.6425 20.5954 17.5008 20.2412 17.3307 19.9011C16.7285 18.7036 16.5443 17.8038 16.5939 16.3301C16.6293 15.5011 16.6718 15.1893 16.8206 14.6721C17.6425 11.923 19.9381 9.89656 22.7085 9.46436C23.4596 9.35099 24.8199 9.42893 25.6135 9.63441ZM25.9536 13.085C26.2158 13.1558 26.7117 13.5739 26.7117 13.7297C26.7117 13.8431 26.1449 13.751 25.493 13.5313C25.1884 13.4321 24.9404 13.3188 24.9404 13.2834C24.9404 13.1983 25.3513 13.0141 25.5426 13.007C25.6206 13.007 25.8048 13.0425 25.9536 13.085ZM25.6489 14.8421C25.9749 14.9201 26.3079 14.9909 26.3787 14.9909C26.4992 14.9909 26.4992 15.0051 26.4212 15.1043C26.1378 15.4444 25.408 15.5294 25.0042 15.2531C24.7562 15.083 24.4444 14.6792 24.4444 14.5233C24.4444 14.4524 24.5153 14.4595 24.7491 14.5587C24.9191 14.6296 25.323 14.7571 25.6489 14.8421Z" fill="#636363"/>
<path d="M8.64403 19.5329C5.97286 21.1342 3.71972 22.5088 3.63469 22.5938C3.27334 22.9197 3.54967 23.5645 4.04564 23.5645C4.22278 23.5645 5.43437 22.8701 9.16834 20.6311C11.8608 19.0228 14.121 17.6411 14.1918 17.5632C14.3548 17.379 14.3477 17.0389 14.1635 16.8051C13.8447 16.4012 13.9226 16.3658 8.64403 19.5329Z" fill="#636363"/>
<path d="M19.7185 22.1612C19.6405 22.2533 17.8267 24.6694 15.6869 27.5319C12.8315 31.358 11.7971 32.8034 11.7758 32.9664C11.7546 33.1506 11.79 33.2427 11.96 33.4127C12.2293 33.682 12.4773 33.6891 12.7465 33.4269C12.8669 33.3206 14.7021 30.8903 16.8418 28.0279C20.3845 23.2665 20.7175 22.7989 20.7175 22.5438C20.7246 22.3454 20.675 22.2391 20.5545 22.14C20.3207 21.9486 19.9027 21.9628 19.7185 22.1612Z" fill="#636363"/>
</svg>
