<svg width="35" height="9" viewBox="0 0 35 9" fill="none" xmlns="http://www.w3.org/2000/svg">
<path d="M3.41582 0.103311C2.65694 0.260557 1.88439 0.691273 1.28959 1.28607C-0.426442 3.00894 -0.433279 5.72997 1.28959 7.446C3.01929 9.16887 5.74033 9.17571 7.44952 7.45284C9.17922 5.7163 9.17922 3.02261 7.44952 1.28607C6.38982 0.219536 4.89257 -0.218018 3.41582 0.103311Z" fill="#3C3C3C"/>
<path d="M16.5424 0.103311C15.7835 0.260557 15.011 0.691273 14.4162 1.28607C12.7001 3.00894 12.6933 5.72997 14.4162 7.446C16.1459 9.16887 18.8669 9.17571 20.5761 7.45284C22.3058 5.7163 22.3058 3.02261 20.5761 1.28607C19.5164 0.219536 18.0192 -0.218018 16.5424 0.103311Z" fill="#3C3C3C"/>
<path d="M29.669 0.103311C28.9101 0.260557 28.1376 0.691273 27.5428 1.28607C25.8267 3.00894 25.8199 5.72997 27.5428 7.446C29.2725 9.16887 31.9935 9.17571 33.7027 7.45284C35.4324 5.7163 35.4324 3.02261 33.7027 1.28607C32.643 0.219536 31.1457 -0.218018 29.669 0.103311Z" fill="#3C3C3C"/>
</svg>
