<svg width="35" height="38" viewBox="0 0 35 38" fill="none" xmlns="http://www.w3.org/2000/svg">
<path d="M15.2234 0.732555C14.8709 1.20262 14.6946 1.84897 14.9296 2.20152C15.1059 2.49532 14.9296 2.78911 14.5183 2.78911C13.9895 2.78911 13.9895 2.96539 14.6358 3.3767C15.3997 3.84677 15.3409 3.96428 14.5183 3.96428C13.9307 3.96428 13.4607 4.19932 13.4607 4.55187C13.4607 4.84566 13.9307 5.13946 14.5183 5.13946C15.3409 5.13946 15.3997 5.25698 14.6358 5.72705C14.1658 6.02084 14.0482 6.31463 14.342 6.31463C15.1647 6.31463 15.3997 11.4266 14.6358 11.8967C14.2833 12.073 14.0482 14.4821 14.0482 17.42C14.0482 20.2404 13.872 22.7671 13.6369 22.9433C12.9318 23.7072 11.6391 20.1229 11.2866 16.3624C10.8753 12.073 9.34755 9.84016 6.82093 9.84016C5.46948 9.84016 5.41072 10.0164 4.99941 14.9522C4.82313 17.8313 4.47058 21.0043 4.2943 22.0032C4.05927 23.2371 4.17679 23.9422 4.5881 23.9422C4.94065 23.9422 5.23444 23.5309 5.23444 23.0609C5.23444 22.3558 5.99831 22.1795 8.46617 22.1795C11.8742 22.1795 12.638 23.0021 10.7578 24.5886C10.0527 25.1762 9.87638 26.4101 9.9939 30.6407C10.1702 35.8115 10.1702 35.9878 8.81872 36.1641C7.64355 36.3403 7.58479 36.2228 8.17238 35.1652C8.52493 34.4601 8.75997 31.9334 8.64245 29.348L8.46617 24.8236H4.35306H0.239952L0.0636762 29.7006C-0.1126 34.1663 0.00491744 34.6363 1.35637 35.9878C2.70782 37.3392 3.11913 37.398 6.52713 37.1042C8.58369 36.9279 11.6979 36.8692 13.4607 36.9279C21.2168 37.398 27.9153 37.0454 30.0306 36.1641L32.1459 35.2239L32.0872 23.2371C32.0284 11.3679 32.0284 11.3091 33.6737 7.66608C34.6138 5.66829 35.1426 3.61173 34.9663 2.96539C34.1437 0.321244 28.0916 -0.971448 24.6248 0.850072C22.0394 2.20152 21.8632 3.43546 23.7434 7.66608C24.8011 10.0752 25.2124 12.073 25.2124 14.5409C25.2124 16.4799 25.4474 18.0664 25.8 18.0664C26.1525 18.0664 26.3876 17.5375 26.3876 16.8912C26.3876 15.8923 26.7989 15.716 28.7379 15.716C30.912 15.716 31.0883 15.8335 31.0883 17.3025C31.0883 20.4755 30.3244 23.3547 29.5605 23.3547C29.1492 23.3547 27.9153 22.297 26.9164 21.0043C25.8587 19.7116 24.5073 18.654 23.861 18.654C22.9796 18.654 22.8033 18.3602 23.0971 17.4788C23.2734 16.8324 23.6259 15.7748 23.8022 15.1284C24.2723 13.6595 23.4496 13.6595 20.9818 15.1284C19.9241 15.7748 18.8665 16.3036 18.6314 16.3036C18.4552 16.3036 18.1026 15.246 17.8676 13.9533C17.6325 12.6606 17.2212 11.6029 16.9274 11.6029C16.1636 11.6029 16.2811 8.25367 17.0449 7.72484C17.515 7.48981 17.4563 7.19601 16.9274 6.84346C16.2811 6.43215 16.2811 6.31463 16.8687 6.31463C17.28 6.31463 17.4563 6.02084 17.28 5.72705C17.1037 5.37449 17.3387 5.13946 17.8088 5.13946C18.3376 5.13946 18.7489 4.84566 18.7489 4.55187C18.7489 4.19932 18.1614 3.96428 17.4563 3.96428C16.3398 3.96428 16.2811 3.84677 16.9862 3.3767C17.75 2.84787 17.75 2.78911 16.9862 2.78911C16.2223 2.78911 16.2223 2.67159 16.9274 2.26028C17.6325 1.79021 17.6325 1.55518 16.8687 0.791314C16.046 0.0274504 15.811 0.0274504 15.2234 0.732555ZM32.2634 1.79021C33.0861 2.20152 33.7912 2.90663 33.9087 3.43546C34.085 4.49311 31.7934 9.84016 31.147 9.84016C30.8532 9.84016 30.7945 8.60622 30.9708 7.01974C31.2646 3.84677 30.5007 4.02304 29.9719 7.31353C29.443 10.5453 27.7978 10.604 27.3865 7.48981C27.2102 6.13836 26.9164 4.90442 26.7401 4.72815C26.035 3.96428 25.8587 4.96318 26.3876 7.19601C26.6814 8.48871 26.7989 9.66388 26.6226 9.84016C26.0938 10.3102 24.6248 8.01864 23.9197 5.49201C23.2734 3.3767 23.3321 3.14166 24.5661 2.14276C26.1525 0.850072 30.0306 0.673796 32.2634 1.79021ZM9.34755 12.1317C9.64135 12.7781 9.93514 14.3646 9.93514 15.6573C9.93514 17.9489 9.81762 18.0664 8.17238 18.0664H6.40962V14.5409C6.40962 11.4266 6.52713 11.0153 7.58479 11.0153C8.17238 11.0153 8.995 11.5442 9.34755 12.1317ZM31.0883 12.7781C31.0883 14.4233 30.9708 14.5409 28.7379 14.5409C26.5051 14.5409 26.3876 14.4233 26.3876 12.7781C26.3876 11.1328 26.5051 11.0153 28.7379 11.0153C30.9708 11.0153 31.0883 11.1328 31.0883 12.7781ZM16.9862 17.3613C16.9862 19.9467 16.2811 21.5919 15.1059 21.5919C14.5183 21.5919 14.4596 15.481 15.0471 14.9522C16.2223 13.7182 16.9862 14.7171 16.9862 17.3613ZM22.0394 17.5963C21.9807 19.3003 22.157 19.5353 23.6259 19.7116C26.0938 20.0054 25.5062 21.0043 22.9208 21.0043C18.984 21.0043 19.5716 22.1207 23.5672 22.297L27.269 22.4733L27.4452 24.9411L27.6215 27.3503L24.331 27.7616C22.5095 27.9966 19.6303 27.9966 17.9851 27.7028C15.2234 27.2327 14.9296 26.9977 14.7534 25.5287C14.5183 23.3547 15.5172 22.1795 17.6325 22.1795C19.5128 22.1795 19.9241 21.2393 18.3376 20.828C17.4563 20.593 17.515 20.4755 18.6902 20.1229C19.9829 19.6529 20.0416 19.5941 19.0427 18.889C18.1026 18.1839 18.1614 18.0076 19.9829 16.95C21.0993 16.2449 22.0394 15.716 22.0394 15.716C22.0982 15.716 22.0982 16.5974 22.0394 17.5963ZM11.1103 20.1229C11.1103 20.7693 10.4052 21.0043 8.46617 21.0043C6.52713 21.0043 5.82203 20.7693 5.82203 20.1229C5.82203 19.4766 6.52713 19.2415 8.46617 19.2415C10.4052 19.2415 11.1103 19.4766 11.1103 20.1229ZM31.0883 25.6463C31.0883 26.1163 29.7368 26.8802 28.973 26.8802C28.8554 26.8802 28.7379 26.2338 28.7379 25.4112C28.7379 24.0598 28.8554 24.001 29.9131 24.5298C30.5594 24.8824 31.0883 25.4112 31.0883 25.6463ZM14.0482 25.705C14.0482 26.9389 13.1081 27.2327 11.7567 26.3514C10.699 25.705 11.4629 24.5298 12.9318 24.5298C13.6369 24.5298 14.0482 24.9411 14.0482 25.705ZM7.58479 28.6429V31.5809H4.35306H1.12133V28.6429V25.705H4.35306H7.58479V28.6429ZM21.0993 28.3492C24.8011 28.3492 28.5616 28.1729 29.5018 27.8791L31.0883 27.4678V30.9345C31.0883 33.99 30.912 34.5776 29.7956 35.1652C27.739 36.2816 17.2212 36.5166 14.0482 35.5765L11.4041 34.7539L11.2278 31.1108L11.0516 27.409L12.6968 27.8791C13.5782 28.1141 17.3975 28.3492 21.0993 28.3492ZM7.58479 33.4612C7.58479 34.5776 5.70451 36.2816 4.47058 36.2816C3.06037 36.2816 1.12133 34.6951 1.12133 33.5199C1.12133 32.9911 2.06147 32.7561 4.35306 32.7561C6.40962 32.7561 7.58479 32.9911 7.58479 33.4612Z" fill="#C60094"/>
<path d="M17.8676 30.9935C17.6325 31.346 18.8665 31.5811 21.0993 31.5811C23.3321 31.5811 24.5661 31.346 24.331 30.9935C24.1547 30.6409 22.6858 30.4059 21.0993 30.4059C19.5128 30.4059 18.0438 30.6409 17.8676 30.9935Z" fill="#C60094"/>
<path d="M19.219 33.1677C20.2179 33.2852 21.9807 33.2852 23.0383 33.1677C24.0372 33.0502 23.2146 32.9327 21.0993 32.9327C18.984 32.9327 18.1613 33.0502 19.219 33.1677Z" fill="#C60094"/>
</svg>
