<svg width="35" height="31" viewBox="0 0 35 31" fill="none" xmlns="http://www.w3.org/2000/svg">
<path d="M19.5745 0.102664C18.9517 0.438032 18.8559 0.684425 18.8559 1.95061C18.8559 2.92934 18.8559 2.94987 19.0339 3.12782C19.1707 3.26471 19.246 3.29208 19.424 3.25786C19.8141 3.17573 19.8483 3.10044 19.8825 2.03274L19.9168 1.06086L20.7312 1.04033C21.2651 1.02664 21.5731 1.04717 21.6347 1.10192C21.71 1.16352 21.7305 1.49205 21.7305 2.76508C21.7305 4.52405 21.7784 4.85257 22.1617 5.57122C22.4423 6.11191 23.2157 6.88531 23.7564 7.17277C24.8309 7.734 26.2272 7.734 27.3017 7.17277C27.8561 6.87847 28.6363 6.10507 28.8964 5.57806C29.3071 4.7636 29.3481 4.55827 29.3892 2.7377L29.4303 1.06086L30.2447 1.04033C30.7649 1.02664 31.0866 1.04717 31.1345 1.09508C31.1824 1.14299 31.2235 2.01221 31.244 3.68221L31.2782 6.19404L31.463 6.58417C31.8189 7.34388 32.5923 7.94617 33.352 8.04199C34.0501 8.13097 33.9817 8.00093 33.9817 9.26711V10.3827L29.7656 12.4086L25.5496 14.4345L22.1206 12.7919C20.2316 11.8816 18.3221 10.9713 17.884 10.7592L17.0764 10.3827V9.30818C17.0764 8.52793 17.0969 8.2131 17.1654 8.15834C17.2064 8.12412 17.4049 8.07621 17.5897 8.06252C18.1441 8.01461 18.7396 7.69978 19.157 7.24806C19.6567 6.71421 19.8209 6.26249 19.8689 5.35905C19.8962 4.68147 19.8962 4.66093 19.7251 4.48983C19.4993 4.26397 19.205 4.25712 19.0133 4.46245C18.897 4.59249 18.8627 4.73622 18.8422 5.27007C18.808 5.98187 18.6848 6.31724 18.3289 6.65261C18.103 6.87163 17.6992 7.04958 17.4528 7.04958C16.8163 7.04958 16.2619 7.43285 16.125 7.97355C16.0703 8.17888 16.0498 9.9926 16.0498 13.7775V19.2734L14.7562 20.0468L13.4626 20.8134L13.0451 20.6696C12.6687 20.5464 12.4634 20.5327 10.8824 20.5327H9.13707V16.0908V11.6421L11.0056 11.6215L12.8672 11.601L13.2436 11.4094C13.7638 11.1424 14.2223 10.6702 14.4482 10.1706C14.6125 9.8215 14.6398 9.65723 14.6467 9.17129C14.6467 8.65113 14.6262 8.54162 14.4277 8.13781C13.9965 7.26859 13.2573 6.78949 12.2512 6.7279L11.6831 6.68683L11.6558 6.15298C11.6147 5.45487 11.3615 4.9347 10.8892 4.5788C10.5128 4.29134 10.1637 4.17499 9.56826 4.12024L9.13707 4.08602V3.45635C9.13707 2.91565 9.11654 2.79245 8.9865 2.60081C8.65113 2.11487 8.569 2.0875 7.32335 2.0875C6.07769 2.0875 5.99556 2.11487 5.66019 2.60081C5.53015 2.79245 5.50962 2.91565 5.50962 3.45635V4.08602L4.98261 4.13393C3.75749 4.23659 3.05938 4.94839 2.99094 6.13929L2.95672 6.70736H2.53922C1.76582 6.70736 1.40307 6.90585 1.40307 7.33019C1.40307 7.42601 1.46467 7.56289 1.53311 7.62449C1.65631 7.734 2.0259 7.74769 7.00851 7.734C10.7112 7.734 12.4428 7.75453 12.6345 7.80244C13.0178 7.90511 13.4626 8.36367 13.579 8.77433C13.7706 9.44506 13.4626 10.1363 12.833 10.4512L12.5318 10.6086H7.34388C1.67 10.6086 1.88217 10.6223 1.44414 10.2116C1.14983 9.931 0.992416 9.54088 0.992416 9.0481C0.992416 8.71957 0.965039 8.59638 0.855531 8.48687C0.684425 8.31576 0.369589 8.30892 0.164262 8.48002C0.0136885 8.60322 0 8.66482 0 9.18498C0 9.92416 0.22586 10.4443 0.759711 10.9508C1.41676 11.5736 1.49889 11.5942 3.64798 11.6215L5.50962 11.6421V16.084V20.5259L3.64114 20.5464C1.78635 20.567 1.7795 20.567 1.38938 20.7518C0.903441 20.9776 0.444876 21.443 0.191639 21.9563C0.0342212 22.2917 0.00684425 22.4354 0 22.9625C0 23.4895 0.027377 23.6332 0.17795 23.9617C0.629671 24.9199 1.50573 25.4538 2.62135 25.4606H2.97725V25.9055C2.97725 26.7199 3.35368 27.3907 4.01757 27.7534C4.30503 27.9108 4.49667 27.9588 4.92786 27.993L5.4754 28.0272L5.50962 28.7253C5.55068 29.4987 5.63282 29.6903 6.064 29.9436C6.26933 30.0668 6.4199 30.0805 7.32335 30.0805C8.22679 30.0805 8.37736 30.0668 8.58269 29.9436C9.01387 29.6903 9.10285 29.4987 9.12338 28.739L9.15076 28.0614L9.56141 28.4378C9.78727 28.65 10.15 28.9101 10.3759 29.0196C11.2246 29.4508 10.7112 29.4371 21.3677 29.4166L31.0729 29.396L31.4356 29.1907C31.8394 28.9717 32.0585 28.739 32.2912 28.3078C32.4349 28.0409 32.4417 27.9314 32.4623 26.2408L32.4828 24.4545L32.9277 24.4134C33.1672 24.3861 33.5026 24.3108 33.6737 24.2355C34.098 24.0438 34.5635 23.5921 34.7825 23.1404L34.9741 22.7571L34.9946 15.4338C35.0083 8.84961 35.0015 8.08306 34.9057 7.82298C34.7209 7.34388 34.2486 7.04958 33.6669 7.04958C33.2288 7.04958 32.736 6.74843 32.4623 6.3104C32.3048 6.05716 32.3048 6.02978 32.2706 3.49057L32.2364 0.923974L32.0653 0.622827C31.9489 0.4175 31.7915 0.266926 31.593 0.157418C31.3193 0.013689 31.2029 5.2806e-07 30.3132 5.2806e-07C29.266 5.2806e-07 29.0607 0.041066 28.7595 0.328524C28.4105 0.657048 28.4036 0.69127 28.3626 2.56659C28.3283 4.18184 28.3147 4.38032 28.1778 4.72253C27.8629 5.52331 27.158 6.19404 26.3914 6.43359C25.0226 6.86478 23.6263 6.2488 22.9761 4.92786C22.7913 4.55143 22.7913 4.53774 22.7571 2.7377C22.7161 0.677581 22.6887 0.54754 22.1891 0.219016C21.9221 0.041066 21.8674 0.0342218 20.8476 0.013689C19.9715 5.2806e-07 19.7457 0.013689 19.5745 0.102664ZM8.11043 3.59323V4.10655H7.32335H6.53626V3.59323V3.07991H7.32335H8.11043V3.59323ZM10.1432 5.29745C10.458 5.48909 10.6428 5.86552 10.6428 6.32409V6.70736H7.32335H4.00388V6.32409C4.00388 5.71495 4.24343 5.35905 4.74991 5.19478C4.84573 5.16741 6.05031 5.14687 7.42601 5.15372C9.75305 5.16741 9.93785 5.17425 10.1432 5.29745ZM21.2582 13.5174C23.4963 14.5919 25.3853 15.4885 25.4674 15.5091C25.5633 15.5364 26.9595 14.8999 29.7588 13.5585C32.0448 12.4634 33.9269 11.5668 33.9475 11.5668C33.968 11.5668 33.9817 14.0033 33.9817 16.9737C33.9817 22.7503 33.9885 22.6476 33.6532 23.024C33.4821 23.2157 33.0303 23.4073 32.736 23.4073H32.4828L32.4623 20.9229C32.4417 18.5205 32.4349 18.4384 32.2912 18.1646C32.0516 17.7129 31.8121 17.4734 31.4014 17.2749C31.0729 17.1106 30.9292 17.0832 30.4637 17.0832C29.5535 17.0901 29.2523 17.3023 28.7869 18.2947C28.2941 19.335 27.5002 19.9441 26.4051 20.1358C25.0636 20.3616 23.6879 19.6156 23.0788 18.3289C22.5586 17.2407 22.2575 17.0764 20.8065 17.0764C19.6772 17.0832 19.7593 17.0559 18.2468 17.9662C17.6445 18.3221 17.138 18.6164 17.1175 18.6164C17.0969 18.6164 17.0764 17.0285 17.0764 15.0916C17.0764 13.1546 17.1038 11.5668 17.138 11.5668C17.1654 11.5668 19.0202 12.4428 21.2582 13.5174ZM8.11043 16.084V20.5327H7.32335H6.53626V16.084V11.6352H7.32335H8.11043V16.084ZM21.6552 18.1441C21.8332 18.2057 21.9221 18.3221 22.1754 18.8217C22.8735 20.2111 24.1602 21.0803 25.6796 21.1898C26.672 21.2651 27.8972 20.8544 28.6637 20.1837C29.0744 19.8278 29.5603 19.1502 29.7656 18.6369C29.9573 18.1646 30.1284 18.0483 30.5459 18.0962C30.9565 18.1509 31.2098 18.3015 31.3398 18.5753C31.4356 18.7806 31.4493 19.1981 31.4493 22.1343V25.4606H27.904H24.3587L23.4758 24.1876C22.9898 23.4826 22.5244 22.8803 22.4354 22.8393C22.059 22.6681 21.6278 23.0788 21.7716 23.4552C21.8126 23.5579 22.1138 24.0302 22.4354 24.4956C22.764 24.961 23.0309 25.3716 23.0309 25.399C23.0309 25.4332 22.7708 25.4606 22.456 25.4606H21.8811L20.3411 23.2431C19.4856 22.0248 18.7875 20.9913 18.7738 20.9434C18.7532 20.8681 19.424 20.3959 19.5472 20.3959C19.5677 20.3959 19.8415 20.7654 20.1563 21.2172C20.7312 22.0385 20.8544 22.148 21.1829 22.0932C21.402 22.0659 21.621 21.751 21.5731 21.5457C21.5457 21.4636 21.2856 21.0324 20.9776 20.6012C20.6765 20.1768 20.4301 19.7867 20.4301 19.7388C20.4301 19.6977 20.4711 19.6225 20.5259 19.5814C20.6833 19.4445 20.8407 18.897 20.8407 18.4658V18.0688H21.1419C21.2993 18.0688 21.532 18.103 21.6552 18.1441ZM19.7114 18.9243C19.6293 19.0886 18.9723 19.513 16.7616 20.8407C15.1942 21.7784 13.8322 22.5586 13.7296 22.5723C13.5037 22.6066 13.0862 22.4081 13.1273 22.2917C13.141 22.2438 14.6467 21.313 16.4673 20.2179L19.7799 18.2331L19.8004 18.4726C19.8141 18.6095 19.7799 18.808 19.7114 18.9243ZM19.2255 23.4415C19.9647 24.4956 20.567 25.3785 20.567 25.4058C20.567 25.4401 20.3137 25.4606 19.9989 25.4606H19.4308L18.2125 23.7085C17.3433 22.456 17.0148 21.9358 17.0696 21.8811C17.2133 21.7373 17.795 21.4293 17.843 21.4772C17.8703 21.5046 18.4932 22.3875 19.2255 23.4415ZM12.1143 21.621C12.0733 21.6484 11.5462 21.97 10.944 22.3328C10.0816 22.8461 9.74621 23.0925 9.42453 23.4347C8.97965 23.9138 8.65797 24.5024 8.52109 25.1115C8.43896 25.4743 8.45949 26.4804 8.56215 26.8089L8.60322 26.9663H6.61839H4.63356L4.41454 26.7884C4.11339 26.5351 4.00388 26.2751 4.00388 25.837V25.4606H5.4754C7.02904 25.4606 7.22068 25.4264 7.35072 25.1389C7.45339 24.9062 7.44654 24.8172 7.29597 24.6324L7.16593 24.4682L4.60618 24.434L2.05327 24.3997L1.74528 24.2286C0.910285 23.7564 0.746023 22.6271 1.4236 21.9906C1.89586 21.5388 1.5468 21.5662 7.11802 21.5594C9.91731 21.5594 12.1485 21.5868 12.1143 21.621ZM17.1038 23.9138C17.6513 24.7009 18.103 25.3716 18.103 25.4058C18.103 25.4332 17.843 25.4606 17.5281 25.4606H16.9532L16.084 24.2218C15.6117 23.5442 15.2285 22.9761 15.2421 22.9625C15.2969 22.9077 16.0771 22.456 16.0908 22.4697C16.0977 22.4765 16.5562 23.1267 17.1038 23.9138ZM12.8535 23.4142C13.1889 23.5853 13.7432 23.6537 14.0786 23.5579L14.325 23.4895L14.9821 24.434C15.3448 24.9541 15.6391 25.399 15.6391 25.4195C15.6391 25.4401 14.2703 25.4606 12.5934 25.4606H9.54773V25.3032C9.54773 25.0499 9.92416 24.3587 10.2116 24.0781C10.3553 23.9412 10.855 23.5921 11.3135 23.3115L12.1622 22.7982L12.3744 23.0377C12.4839 23.1678 12.7029 23.3389 12.8535 23.4142ZM31.4356 27.1717L31.4151 27.8561L31.155 28.1093L30.9018 28.3694H21.1282H11.3615L10.9713 28.1846C10.3553 27.8972 9.77359 27.247 9.58879 26.6378L9.54088 26.4872H20.4985H31.463L31.4356 27.1717ZM8.11043 28.5405V29.0881H7.32335H6.53626V28.5405V27.993H7.32335H8.11043V28.5405Z" fill="#009607"/>
<path d="M24.4203 9.11693C24.0301 9.30857 24.0917 9.89718 24.5229 10.0272L24.7419 10.0888V10.9649C24.7419 11.7109 24.7282 11.8409 24.6393 11.8409C24.4682 11.8409 24.1944 12.1626 24.1944 12.3543C24.1944 12.4501 24.2697 12.6075 24.3655 12.6965C24.5229 12.8607 24.5777 12.8676 25.2895 12.8676C26.0013 12.8676 26.056 12.8607 26.2134 12.6965C26.3093 12.6075 26.3846 12.4501 26.3846 12.3543C26.3846 12.1421 26.1039 11.8409 25.9055 11.8409C25.7754 11.8409 25.7686 11.8067 25.7686 10.6911C25.7686 9.43861 25.7412 9.33595 25.3579 9.13746C25.1321 9.02111 24.6393 9.00742 24.4203 9.11693Z" fill="#009607"/>
</svg>
