<svg width="25" height="34" viewBox="0 0 25 34" fill="none" xmlns="http://www.w3.org/2000/svg">
<path d="M13.7593 0.0647382C13.3613 0.192888 12.9971 0.503146 12.8217 0.860617C12.7003 1.11017 12.6801 1.27879 12.6801 1.96001V2.76938L12.4778 2.96497C12.1675 3.26174 11.8977 3.72713 11.7696 4.17228C11.6549 4.55673 11.6616 4.71861 11.8303 8.01678C11.9652 10.5595 12.0394 11.524 12.1068 11.6859C12.181 11.8545 12.208 12.2053 12.208 13.1158V14.3299H11.9179H11.6279L10.6837 10.8024C9.84731 7.68629 9.74614 7.25463 9.8001 7.0253C9.88104 6.7083 9.77987 6.3306 9.55729 6.08779C9.43588 5.95289 9.41565 5.8787 9.45612 5.68985C9.51682 5.39308 9.41565 5.01537 9.20656 4.76582C9.06492 4.5972 9.04469 4.51626 9.07841 4.27345C9.11214 4.05088 9.05818 3.75411 8.86933 3.06615C8.61303 2.12188 8.44441 1.79814 8.10717 1.62277C7.68225 1.40694 7.52038 1.42043 5.67907 1.91954C4.70108 2.18258 3.81752 2.43888 3.72309 2.4861C3.32515 2.69518 3.10258 3.0594 3.10258 3.50455C3.10258 4.13181 3.6489 5.83149 3.85124 5.83149C3.87148 5.83149 3.88497 6.05406 3.88497 6.31711C3.87822 6.73528 3.9052 6.8432 4.04684 7.04554C4.18174 7.23439 4.21546 7.36254 4.21546 7.69978C4.21546 8.07074 4.24244 8.14493 4.44478 8.39449C4.64712 8.64404 4.74155 8.9543 5.40253 11.4161C5.80722 12.9269 6.13771 14.195 6.13771 14.2354C6.13771 14.2894 5.9556 14.3231 5.64534 14.3433C5.0653 14.3703 4.74829 14.5389 4.51897 14.9571C4.38408 15.1864 4.37733 15.2943 4.39757 16.1172C4.4178 16.9063 4.43804 17.0412 4.55944 17.2099C4.74155 17.4527 5.10576 17.7022 5.28787 17.7022C5.36881 17.7022 5.46324 17.7292 5.51045 17.7562C5.57115 17.7966 6.13771 21.5063 6.13771 21.8772C6.13771 21.9312 5.67232 21.9514 4.49874 21.9514C2.71813 21.9514 2.35391 21.9986 1.74014 22.3359C1.35569 22.5449 0.809368 23.098 0.613771 23.4892C0.330492 24.049 0.269789 24.4604 0.269789 25.9308C0.269789 27.1853 0.2563 27.3472 0.134895 27.5833C0.00674474 27.8328 0 27.9812 0 30.4228C0 32.082 0.0269789 33.0735 0.0741921 33.1949C0.168618 33.4512 0.458642 33.7547 0.721687 33.8626C0.903795 33.9435 2.49555 33.957 10.252 33.957C19.3979 33.957 19.5665 33.957 19.8295 33.8221C20.0858 33.694 20.3017 33.4512 20.3961 33.1814C20.4231 33.1072 20.7805 30.6116 21.1852 27.6305C21.7046 23.8062 21.9002 22.174 21.8529 22.093C21.7315 21.857 21.3943 21.8165 21.2257 22.0054C21.138 22.0998 20.9424 23.4015 20.3758 27.536C19.9509 30.6723 19.6069 32.9858 19.5597 33.0465C19.4855 33.1342 18.8178 33.1477 14.4068 33.1477H9.34146L9.36169 30.5914C9.38193 28.3117 9.36844 28.0082 9.26727 27.7451C9.17284 27.5091 9.13912 27.1179 9.10539 25.8633C9.07167 24.6021 9.03795 24.2109 8.94352 23.9411C8.67373 23.1722 8.10717 22.5517 7.38549 22.2212L6.9808 22.0323L6.71776 20.0831C6.57612 19.0174 6.44797 18.0597 6.42773 17.9518L6.39401 17.7697H14.056H21.718L21.6843 17.9518C21.5225 18.9298 21.5157 19.1388 21.6169 19.294C21.718 19.4559 21.9271 19.5031 22.1497 19.4154C22.2711 19.3682 22.3588 19.0647 22.4262 18.5116C22.5072 17.7899 22.5139 17.7764 22.8174 17.6955C23.2019 17.5943 23.4514 17.4055 23.6066 17.0952C23.7212 16.8794 23.7415 16.6973 23.7415 16.0498C23.7415 15.1864 23.674 14.9504 23.3638 14.6536C23.1075 14.4175 22.8647 14.3299 22.4465 14.3299C22.1834 14.3299 22.116 14.3096 22.143 14.2354C22.1632 14.1882 22.8242 11.7466 23.6066 8.82615C25.1781 2.96497 25.1646 3.04591 24.7936 2.56703C24.6925 2.43214 24.5306 2.28376 24.4294 2.2298C24.1731 2.0949 21.9474 1.51486 21.6978 1.51486C21.3808 1.51486 20.9222 1.77116 20.7468 2.04769C20.6389 2.20956 20.0588 4.2802 18.9797 8.3068L17.3744 14.3299H16.8146H16.2548V13.0821C16.2548 12.3132 16.2818 11.7803 16.329 11.6792L16.4032 11.5106L16.7202 11.6724C17.2261 11.9287 17.3677 11.9422 17.57 11.7399C17.8263 11.4836 17.7117 11.1531 17.3475 11.0587C17.0035 10.971 16.7135 10.7417 16.5786 10.4381C16.3762 9.97275 16.4437 9.82437 17.2328 9.03524C17.7859 8.48217 17.9747 8.23936 18.1838 7.81444C18.4266 7.32207 18.4469 7.25463 18.4469 6.67458C18.4469 6.10128 18.4334 6.03383 18.2513 5.77753C17.9882 5.39982 17.5835 5.20423 17.1046 5.23795L16.7404 5.25818L16.7135 4.68488C16.6797 4.01715 16.4841 3.54502 16.0525 3.09987L15.7962 2.83008L15.7692 1.98699C15.7422 1.08319 15.6748 0.867362 15.3173 0.482912C14.9328 0.0647382 14.2921 -0.10388 13.7593 0.0647382ZM14.6361 0.968533C14.8924 1.15739 14.9733 1.36647 14.9733 1.90605C14.9733 2.37818 14.9666 2.39842 14.8317 2.35795C14.6428 2.29725 13.8267 2.2905 13.6379 2.3512C13.4895 2.39842 13.4895 2.39167 13.4895 1.8386C13.4895 1.2046 13.5704 1.02249 13.9211 0.867362C14.1639 0.759446 14.3933 0.79317 14.6361 0.968533ZM7.74296 2.37144C7.91157 2.51308 8.32975 4.00366 8.2623 4.21275C8.23532 4.28694 8.16787 4.37462 8.10717 4.40835C7.85762 4.54324 4.63363 5.35936 4.51223 5.32563C4.34361 5.27167 4.2964 5.1705 4.08731 4.37462C3.88497 3.59223 3.87148 3.38315 4.01986 3.26174C4.10754 3.18755 7.31129 2.27701 7.52712 2.26352C7.57434 2.25678 7.66876 2.31073 7.74296 2.37144ZM22.9186 2.62774C23.5256 2.78961 24.0652 2.95823 24.1192 3.00544C24.1731 3.04591 24.2136 3.16057 24.2136 3.255C24.2136 3.34942 23.5526 5.8787 22.75 8.88011L21.2931 14.3299H19.7486C18.9055 14.3299 18.2108 14.3231 18.2108 14.3096C18.2108 14.2287 18.4266 13.5879 18.4536 13.5879C18.4738 13.5879 18.6829 13.6351 18.919 13.6958C19.3237 13.797 19.3709 13.797 19.526 13.6958C19.8295 13.5003 19.7081 13.0686 19.3237 12.9607C19.2495 12.9404 19.0606 12.8865 18.9122 12.846L18.629 12.7786L18.7639 12.2525C18.838 11.9692 18.9055 11.7264 18.9122 11.7129C18.9257 11.7062 19.2158 11.7736 19.5665 11.868C19.9172 11.9625 20.2747 12.0366 20.3624 12.0366C20.5782 12.0366 20.7738 11.8545 20.7738 11.6589C20.7738 11.4229 20.5175 11.2745 19.8025 11.0924L19.1483 10.9238L19.1888 10.7147C19.209 10.5933 19.2697 10.3437 19.3304 10.1549L19.4248 9.81762L19.7486 9.91205C20.1668 10.0402 20.4298 10.0402 20.5849 9.89856C20.8952 9.62203 20.6321 9.28479 20.0049 9.14315C19.7014 9.0757 19.6272 9.03524 19.6542 8.94755C19.6744 8.88685 19.7351 8.64404 19.8025 8.40798C19.8632 8.17865 19.9509 7.9898 19.9914 7.9898C20.0319 7.9898 20.3354 8.06399 20.6726 8.15842C21.0031 8.25285 21.3336 8.32704 21.3943 8.32704C21.5494 8.32704 21.7855 8.09097 21.7855 7.93584C21.7855 7.68629 21.6101 7.57837 20.9087 7.38952C20.4703 7.27486 20.1937 7.16694 20.1802 7.10624C20.1735 7.05228 20.2207 6.81622 20.2882 6.57341C20.4231 6.08779 20.3826 6.10802 21.0368 6.24292C21.455 6.3306 21.4685 6.3306 21.5899 6.17547C21.8664 5.83823 21.6843 5.56844 21.0908 5.43355C20.8817 5.38633 20.6928 5.32563 20.6726 5.29865C20.6456 5.24469 20.8615 4.37462 20.9222 4.31392C20.9357 4.30043 21.2594 4.36788 21.6371 4.46231C22.4802 4.68488 22.6825 4.65116 22.7163 4.27345C22.7432 3.95645 22.6691 3.90249 21.9069 3.70015C21.5629 3.61247 21.2459 3.52479 21.1987 3.50455C21.0908 3.47083 21.3403 2.51982 21.4955 2.41191C21.6573 2.28376 21.7046 2.2905 22.9186 2.62774ZM14.8856 3.24151C15.2026 3.35617 15.6748 3.8283 15.8231 4.17903C15.8771 4.30718 15.9176 4.60394 15.9176 4.83327C15.9243 5.38633 15.6478 10.7417 15.6073 10.9373C15.5803 11.0924 15.5736 11.0924 14.2044 11.0924H12.8352L12.788 10.5663C12.7678 10.283 12.6868 8.83289 12.6059 7.34905C12.4508 4.36113 12.4508 4.30043 12.8352 3.79458C13.3209 3.16057 14.0763 2.95823 14.8856 3.24151ZM8.63326 5.35261C8.72094 5.52797 8.66699 5.63589 8.41069 5.79776C8.12066 5.97987 8.08694 6.23617 8.33649 6.43177C8.45115 6.51945 8.56581 6.55992 8.66699 6.53294C8.82886 6.49247 9.03795 6.6476 9.03795 6.80947C9.03795 6.86343 8.9705 6.95111 8.88956 7.00507C8.72094 7.10624 5.49021 7.9898 5.27438 7.9898C5.0653 7.9898 4.95738 7.81444 5.04506 7.61884C5.09228 7.52442 5.16647 7.45022 5.22043 7.45022C5.33509 7.45022 5.53068 7.20067 5.53068 7.05903C5.53068 6.89715 5.20019 6.62737 5.05855 6.67458C4.78202 6.76226 4.55944 6.49247 4.70783 6.24966C4.76853 6.16198 8.0667 5.24469 8.37696 5.23121C8.49162 5.22446 8.58605 5.27167 8.63326 5.35261ZM17.5431 6.17547C17.6712 6.30362 17.6847 6.37781 17.6577 6.73528C17.6105 7.25463 17.3812 7.72001 16.936 8.19889L16.5988 8.5631V7.9898C16.6055 6.95786 16.6797 6.3306 16.8214 6.17547C16.99 5.98662 17.3542 5.98662 17.5431 6.17547ZM9.92825 11.0991C10.4004 12.8595 10.7916 14.3029 10.7916 14.3096C10.7916 14.3231 10.4611 14.3299 10.0497 14.3299C9.64497 14.3299 9.30773 14.3164 9.30773 14.2961C9.30773 14.2759 8.94352 12.9067 8.49837 11.2475C8.05321 9.5883 7.69574 8.22587 7.70923 8.21912C7.7497 8.17865 8.94352 7.8684 9.00422 7.88189C9.03795 7.88863 9.45612 9.33875 9.92825 11.0991ZM7.69574 11.3757L8.47813 14.2961L7.76994 14.3164C7.38549 14.3231 7.04825 14.3231 7.03476 14.3029C6.98755 14.2624 5.54417 8.83289 5.57115 8.80591C5.61162 8.76545 6.63682 8.47542 6.77846 8.46868C6.90661 8.46193 6.98755 8.73172 7.69574 11.3757ZM15.4454 13.1158V14.3299H14.2314H13.0173V13.1158V11.9017H14.2314H15.4454V13.1158ZM22.8107 15.2539C22.9119 15.3416 22.9321 15.4697 22.9321 16.016C22.9321 16.4679 22.9051 16.704 22.8377 16.7984C22.7432 16.9266 22.5679 16.9266 14.1235 16.9468C6.47495 16.9603 5.49021 16.9536 5.34858 16.8591C5.20019 16.758 5.19345 16.7175 5.19345 16.0498C5.19345 15.5034 5.21368 15.3281 5.30136 15.2471C5.39579 15.1527 6.27935 15.1392 14.0425 15.1392C21.9878 15.1392 22.696 15.146 22.8107 15.2539ZM7.02127 22.9361C7.47317 23.1452 7.85762 23.5229 8.07345 23.9613C8.25556 24.339 8.2623 24.366 8.2623 25.6273V26.9088L4.66736 26.929L1.06567 26.9425L1.09265 25.6138C1.11288 24.3728 1.12637 24.2581 1.27475 23.9748C1.55803 23.4285 2.05714 23.0036 2.63045 22.8215C2.72487 22.7945 3.68263 22.7743 4.75504 22.781C6.59635 22.7945 6.73125 22.8012 7.02127 22.9361ZM8.4579 27.9003C8.61977 28.1296 8.61977 32.77 8.4579 32.9993L8.35673 33.1477H4.70783C1.4029 33.1477 1.04543 33.1342 0.930773 33.033C0.816113 32.9318 0.809368 32.7632 0.809368 30.4633C0.809368 28.2645 0.822858 27.9879 0.924029 27.8733C1.0252 27.7586 1.23429 27.7519 4.69434 27.7519H8.35673L8.4579 27.9003Z" fill="#C70003"/>
<path d="M21.4482 20.4001C21.2796 20.5687 21.2728 20.8183 21.4347 20.9599C21.6977 21.196 22.1227 21.0206 22.1227 20.6834C22.1227 20.4946 21.8933 20.2652 21.718 20.2652C21.6438 20.2652 21.5224 20.3259 21.4482 20.4001Z" fill="#C70003"/>
<path d="M11.1828 21.0884C10.8321 21.1828 10.4746 21.5942 10.4207 21.9652C10.4004 22.1271 10.387 23.5165 10.4004 25.0543C10.4207 28.1569 10.4139 28.1097 10.8726 28.4401C11.0952 28.5953 11.1221 28.5953 13.1456 28.6155L15.2027 28.6357L16.6056 27.2328L18.0085 25.8299V23.8537C18.0085 21.6212 17.9883 21.5133 17.4892 21.203L17.2329 21.0412L14.3326 21.0277C12.5588 21.0209 11.338 21.0479 11.1828 21.0884ZM17.071 21.8843C17.1924 21.9517 17.1991 22.0461 17.1991 23.6042V25.2566H16.0525C14.535 25.2566 14.6361 25.1555 14.6361 26.673V27.8196H12.9837C11.4256 27.8196 11.3312 27.8129 11.2638 27.6915C11.2233 27.6038 11.1963 26.5719 11.1963 24.7912V22.0259L11.3447 21.9247C11.4729 21.8303 11.8641 21.8168 14.218 21.8168C15.9649 21.8168 16.9833 21.8438 17.071 21.8843ZM16.5921 26.0862C16.5921 26.093 16.3358 26.356 16.0188 26.673L15.4455 27.2463V26.6528V26.066H16.0188C16.3358 26.066 16.5921 26.0727 16.5921 26.0862Z" fill="#C70003"/>
</svg>
