<svg width="50" height="44" viewBox="0 0 50 44" fill="none" xmlns="http://www.w3.org/2000/svg">
<path d="M20.7434 0.0667129C15.3821 0.535463 10.7825 1.79523 8.31178 3.47492C7.49146 4.03156 6.68092 4.88117 6.36842 5.51593C6.02662 6.21906 5.9485 7.47882 6.18287 8.51398C7.01295 12.0394 11.3196 16.512 17.8137 20.6038C19.3958 21.5901 21.8079 22.9671 22.6965 23.3675C23.1262 23.5628 23.2337 23.6605 23.1751 23.7874C22.9504 24.3148 22.9212 24.764 23.0676 25.2034L23.2239 25.6624L22.804 26.0433C21.5735 27.1761 21.6223 29.0999 22.8919 30.223C24.1028 31.2874 25.968 31.1019 26.9544 29.8128C27.384 29.2464 27.5305 28.7972 27.5305 28.0257C27.5305 27.2933 27.1008 26.3753 26.554 25.9359C26.2024 25.6526 26.1926 25.6234 26.3196 25.3792C26.4954 25.0472 26.4856 24.2171 26.3196 23.8948L26.1829 23.6605L27.7063 22.8694C32.3938 20.4476 36.6223 17.3909 39.6399 14.2562C41.4758 12.3519 42.4915 10.848 43.0676 9.14874C43.3508 8.3382 43.3899 8.09406 43.3899 7.19562C43.3997 6.29718 43.3606 6.10187 43.1458 5.63312C41.9348 3.0257 37.2376 1.04328 30.2649 0.203432C28.7415 0.0178847 22.3547 -0.0700059 20.7434 0.0667129ZM28.7512 1.23859C32.5208 1.56085 35.5579 2.19562 38.1262 3.19171C39.9426 3.9046 41.5247 5.03742 41.9934 5.94562C42.6575 7.24445 42.0129 9.51984 40.3626 11.7366C38.6438 14.0316 35.0208 17.1175 31.2708 19.4808C28.4876 21.2386 25.3528 22.8597 24.7473 22.8694C24.0442 22.8694 20.6067 21.053 17.6672 19.1292C14.7669 17.2347 13.0774 15.8968 11.0657 13.8948C9.39576 12.2249 8.58521 11.1995 7.95045 9.9007C7.42311 8.81671 7.21803 8.06476 7.21803 7.17609C7.21803 6.10187 7.57936 5.4671 8.68287 4.63703C10.7532 3.06476 15.1672 1.75617 19.8157 1.34601C20.4895 1.28742 21.1926 1.21906 21.3782 1.19953C22.2278 1.1214 27.6965 1.1507 28.7512 1.23859ZM25.1379 24.2464C25.3821 24.4905 25.2942 24.9788 24.9719 25.1644C24.6594 25.3304 24.4446 25.2425 24.22 24.8519C24.093 24.6273 24.093 24.5687 24.2395 24.3441C24.4348 24.0511 24.884 24.0023 25.1379 24.2464ZM25.4407 26.6194C26.0559 26.9026 26.3098 27.3226 26.3098 28.0941C26.3098 28.6019 26.261 28.7972 26.0852 29.0511C25.6555 29.637 24.8157 29.9007 24.1419 29.6468C23.3899 29.3636 22.9016 28.4359 23.1262 27.7034C23.4387 26.6487 24.4544 26.1702 25.4407 26.6194Z" fill="black"/>
<path d="M8.13617 20.5255C7.23773 20.6817 6.82758 20.8185 6.0268 21.2188C4.98187 21.7462 3.94672 22.6642 3.25336 23.6798L2.95063 24.1192L2.07172 24.129C1.2807 24.1388 1.15375 24.1681 0.782657 24.4122C0.509219 24.5977 0.304141 24.8419 0.177188 25.1251C0.00140671 25.5255 -0.0181245 25.7501 0.0111723 28.2696L0.0404692 30.9942L0.323672 31.3556C0.479922 31.5704 0.802188 31.8145 1.04633 31.922C1.42719 32.0977 1.61273 32.1173 2.35492 32.0587C4.31781 31.9122 5.90961 31.2481 7.10102 30.0763L7.81391 29.3634L8.19477 29.5587C8.73187 29.8321 9.90375 29.8321 10.4409 29.5587L10.8217 29.3634L11.5444 30.086C12.687 31.2286 14.269 31.8927 16.2319 32.0587C17.4623 32.1563 18.0971 31.8731 18.4584 31.0821C18.6245 30.7208 18.644 30.4083 18.644 28.0938C18.644 25.1153 18.5952 24.9005 17.853 24.4122C17.4916 24.1778 17.3452 24.1388 16.5639 24.129L15.6752 24.1095L15.3237 23.5919C14.2397 21.961 12.3061 20.7599 10.3041 20.4864C9.37641 20.3595 9.02484 20.3595 8.13617 20.5255ZM10.8901 21.8048C11.642 22.0001 12.5502 22.4493 13.0971 22.9083C13.5659 23.2892 14.3471 24.1485 14.3471 24.2657C14.3471 24.3048 14.0541 24.4122 13.6928 24.5099C12.8041 24.7345 11.5639 25.2813 11.1147 25.6524C10.7631 25.9356 10.7436 25.9356 10.4018 25.7989C9.95258 25.6134 8.68305 25.6036 8.23383 25.7989C7.9018 25.9356 7.88227 25.9259 7.47211 25.6134C6.98383 25.2423 5.90961 24.7735 4.97211 24.5196C4.62055 24.422 4.31781 24.3341 4.29828 24.3243C4.22992 24.2657 4.61078 23.7579 5.06 23.3282C5.90961 22.4981 7.22797 21.8341 8.37055 21.6485C9.06391 21.5411 10.1479 21.6095 10.8901 21.8048ZM4.11273 25.506C4.85492 25.6622 6.12445 26.131 6.60297 26.4239C6.76898 26.5313 6.9643 26.7071 7.02289 26.8145C7.12055 27.0099 7.10102 27.0196 6.24164 27.0196C5.48969 27.0196 5.33344 27.0489 5.16742 27.2149C5.06 27.3224 4.97211 27.4981 4.97211 27.6056C4.97211 27.713 5.06 27.8888 5.16742 27.9962C5.33344 28.1622 5.48969 28.1915 6.24164 28.1915H7.13031L6.83734 28.6212C5.97797 29.8712 4.35688 30.6915 2.40375 30.877C1.78852 30.9356 1.61273 30.9161 1.40766 30.7892L1.16352 30.6231L1.18305 28.0645L1.21234 25.5157L1.45648 25.379C1.74945 25.2227 3.06781 25.2911 4.11273 25.506ZM17.3354 25.506C17.4428 25.6524 17.4721 26.2188 17.4721 28.1622V30.6329L17.2182 30.7989C16.9936 30.9454 16.8666 30.9454 16.0073 30.8477C14.3862 30.6524 13.0776 30.0567 12.1889 29.0802C11.3686 28.1915 11.3686 28.1915 12.394 28.1915C13.1459 28.1915 13.3022 28.1622 13.4682 27.9962C13.5756 27.8888 13.6635 27.713 13.6635 27.6056C13.6635 27.4981 13.5756 27.3224 13.4682 27.2149C13.3022 27.0489 13.1459 27.0196 12.3842 27.0196H11.4955L11.6323 26.795C11.8373 26.4825 12.5893 26.1017 13.6635 25.7501C15.226 25.252 17.062 25.1251 17.3354 25.506ZM10.0893 27.0392C10.1772 27.1563 10.2455 27.4591 10.2455 27.7032C10.2455 28.4063 10.06 28.5821 9.31781 28.5821C8.57562 28.5821 8.39008 28.4063 8.39008 27.7032C8.39008 27.0001 8.57562 26.8243 9.31781 26.8243C9.85492 26.8243 9.96234 26.8536 10.0893 27.0392Z" fill="black"/>
<path d="M33.0484 22.1567C32.5406 22.3325 32.1109 22.7329 31.8668 23.2505C31.564 23.9048 31.564 24.4126 31.8863 25.0571C32.1793 25.6431 32.7652 26.0825 33.3902 26.1899C33.7418 26.2485 33.7808 26.2876 33.8394 26.6099C33.8687 26.8052 34.0054 27.3813 34.1324 27.8794C34.9136 30.9067 36.3785 32.7622 38.6636 33.6216C39.3277 33.8657 39.5132 33.895 40.6168 33.895C41.6812 33.8853 41.9254 33.856 42.5406 33.6411C44.4254 32.9575 45.7144 31.6196 46.6226 29.4126C46.9156 28.6899 47.2574 27.479 47.4039 26.6099C47.4527 26.2876 47.4918 26.2485 47.8433 26.1899C48.4683 26.0825 49.0543 25.6431 49.3472 25.0571C49.7671 24.1978 49.6402 23.3384 48.9664 22.6743C48.3023 22.0005 47.4429 21.8735 46.5836 22.2935C45.4312 22.8696 45.0699 24.3149 45.8316 25.3501C46.1441 25.77 46.1343 25.7896 44.9918 26.9712C44.0347 27.9771 43.0093 28.729 42.1109 29.0806C41.3101 29.3931 39.9234 29.3931 39.1421 29.0903C38.0093 28.6411 36.9058 27.772 35.7242 26.4146L35.1578 25.7505L35.4703 25.2524C36.1343 24.1782 35.773 22.8696 34.6695 22.3032C34.1031 22.02 33.5757 21.9712 33.0484 22.1567ZM34.1617 23.3579C34.6793 23.6216 34.7867 24.354 34.3668 24.7739C33.7418 25.3989 32.6773 24.8228 32.8433 23.9438C32.9605 23.3286 33.5757 23.0454 34.1617 23.3579ZM48.1461 23.4653C48.5855 23.8657 48.4195 24.7251 47.8531 24.9692C47.2769 25.2036 46.564 24.7251 46.5738 24.1196C46.5836 23.856 46.8082 23.4946 47.0718 23.3384C47.355 23.1821 47.9019 23.2407 48.1461 23.4653ZM37.3648 29.4614C39.3668 30.77 41.4371 30.8677 43.439 29.7446C44.1519 29.3442 44.6304 28.9731 45.3824 28.2505L45.9976 27.6548L45.6949 28.5337C44.2984 32.5571 40.6265 33.9829 37.6187 31.688C36.7496 31.0239 35.9781 29.8228 35.48 28.3579L35.2554 27.6841L35.9488 28.3384C36.3296 28.6997 36.9644 29.2075 37.3648 29.4614Z" fill="black"/>
<path d="M20.6457 32.5081C20.0695 32.6644 19.298 33.4847 19.1418 34.0901C18.9367 34.93 19.2003 35.7991 19.8644 36.3753C20.05 36.5511 20.3234 36.7171 20.4503 36.7464L20.6945 36.805V38.4847L20.6847 40.1546L20.3722 40.3499C19.464 40.9261 19.298 42.1565 20.0207 42.9866C20.382 43.3968 20.8507 43.5628 21.5246 43.5042C22.4523 43.4261 23.0578 42.7327 23.0578 41.7659C23.048 41.0726 22.716 40.5355 22.091 40.2132C21.8761 40.1058 21.8664 40.0569 21.8664 38.4944V36.8831L22.1886 36.7562C23.5949 36.1605 24.005 34.2464 22.9601 33.1429C22.3937 32.5472 21.4464 32.2835 20.6457 32.5081ZM22.0324 33.8753C22.7453 34.5394 22.3058 35.7112 21.3488 35.7112C20.3429 35.7112 19.8644 34.598 20.5773 33.9339C20.7238 33.7972 20.9093 33.6605 20.9875 33.6312C21.2511 33.5237 21.7882 33.6507 22.0324 33.8753ZM21.6515 41.3362C21.8957 41.5023 21.9543 42.0296 21.7492 42.2347C21.5441 42.4398 21.0168 42.3812 20.8507 42.137C20.6359 41.8343 20.6554 41.6976 20.9386 41.4241C21.2121 41.1409 21.3488 41.1214 21.6515 41.3362Z" fill="black"/>
<path d="M27.4232 32.5376C26.9447 32.6938 26.349 33.2017 26.1146 33.6606C25.89 34.1001 25.8314 34.7739 25.9681 35.272C26.1244 35.8188 26.7396 36.5415 27.1888 36.7075L27.5306 36.8247V38.5142C27.5306 39.8423 27.5013 40.2036 27.4037 40.2036C27.2083 40.2036 26.6419 40.7993 26.4954 41.1509C26.3197 41.561 26.3197 41.981 26.5052 42.4302C26.8177 43.1724 27.3451 43.5239 28.1263 43.5239C28.7904 43.5239 29.3568 43.2017 29.6693 42.645C30.1283 41.8345 29.7962 40.6626 28.9857 40.2524L28.7025 40.0962V38.4849V36.8833L28.9564 36.7856C30.0404 36.3755 30.6751 34.8911 30.2357 33.8267C29.7767 32.7427 28.5462 32.1763 27.4232 32.5376ZM28.6048 33.7095C29.1419 33.9829 29.3568 34.6274 29.0833 35.1548C28.6341 36.0239 27.2669 35.8286 27.0814 34.8618C26.9935 34.3931 27.2474 33.8853 27.6576 33.7095C28.0677 33.5337 28.263 33.5337 28.6048 33.7095ZM28.4876 41.3364C28.7415 41.5122 28.7806 41.9712 28.5462 42.1958C28.4681 42.2837 28.263 42.3521 28.1165 42.3521C27.5501 42.3521 27.3451 41.5415 27.8431 41.2974C28.1556 41.1509 28.2337 41.1606 28.4876 41.3364Z" fill="black"/>
<path d="M4.82533 37.4298C3.64369 38.0743 3.2433 39.5001 3.95619 40.5255C4.7472 41.6485 6.27064 41.756 7.20814 40.7403C8.08705 39.7833 7.92103 38.377 6.84681 37.6251C6.49525 37.381 6.31947 37.3224 5.77259 37.3028C5.30384 37.2833 5.03041 37.3126 4.82533 37.4298ZM6.29017 38.6602C6.43666 38.797 6.56361 39.0313 6.60267 39.2462C6.6515 39.5685 6.6222 39.6466 6.29994 39.9688C5.97767 40.2911 5.89955 40.3204 5.57728 40.2716C4.464 40.086 4.53236 38.4454 5.66517 38.4454C5.90931 38.4454 6.12416 38.5235 6.29017 38.6602Z" fill="black"/>
<path d="M12.0425 37.4592C11.3784 37.7619 10.8315 38.6018 10.8315 39.3342C10.8315 40.1838 11.5737 41.1604 12.3843 41.3752C14.3667 41.9025 15.8608 39.5295 14.5132 37.9963C13.8979 37.2932 12.8921 37.0686 12.0425 37.4592ZM13.605 38.7482C14.269 39.5393 13.439 40.6428 12.5308 40.1545C11.6616 39.6857 11.9839 38.4455 12.98 38.4455C13.2729 38.4455 13.4097 38.5041 13.605 38.7482Z" fill="black"/>
<path d="M38.4779 37.4204C36.476 37.7817 35.3236 38.7388 35.7338 39.7056C35.9975 40.3501 36.8764 40.8481 38.2338 41.1313C38.6537 41.2192 39.0053 41.2974 39.0053 41.3071C39.3178 41.8931 40.0307 42.3521 40.6264 42.3521C41.2416 42.3423 41.9057 41.9126 42.2279 41.3071C42.2279 41.2974 42.5795 41.2192 43.0092 41.1313C44.9819 40.7212 45.9389 39.8228 45.4506 38.8071C44.9916 37.8403 43.1361 37.2642 40.5287 37.2837C39.7963 37.2837 38.8783 37.3521 38.4779 37.4204ZM42.5893 38.5825C43.4291 38.7388 44.474 39.1685 44.3764 39.3247C44.2787 39.481 43.6537 39.7642 43.1557 39.8911C42.267 40.106 42.2865 40.106 42.1303 39.813C41.7299 39.0415 40.6459 38.7095 39.8549 39.1196C39.6303 39.2368 39.3276 39.5005 39.1908 39.7056C38.9272 40.1157 38.9662 40.106 38.0776 39.8911C37.5893 39.7739 36.9545 39.481 36.8569 39.3345C36.7397 39.1392 38.0287 38.6509 39.0053 38.5142C39.6986 38.4165 41.8959 38.4653 42.5893 38.5825ZM40.9877 40.2231C41.0561 40.2915 41.1049 40.4868 41.1049 40.6626C41.1049 41.0728 40.7631 41.2778 40.3725 41.1021C40.1869 41.0142 40.1283 40.9165 40.1283 40.6626C40.1283 40.4868 40.1772 40.2915 40.2455 40.2231C40.392 40.0767 40.8412 40.0767 40.9877 40.2231Z" fill="black"/>
</svg>
