<svg width="50" height="50" viewBox="0 0 50 50" fill="none" xmlns="http://www.w3.org/2000/svg">
<path d="M24.9899 34.7434V29.458" stroke="black" stroke-width="1.5" stroke-linecap="round" stroke-linejoin="round"/>
<path fill-rule="evenodd" clip-rule="evenodd" d="M37.8957 11.105C41.4165 11.105 44.2498 13.9591 44.2498 17.48V24.6466C39.1248 27.6466 32.354 29.4591 24.979 29.4591C17.604 29.4591 10.854 27.6466 5.729 24.6466V17.4591C5.729 13.9383 8.58317 11.105 12.104 11.105H37.8957Z" stroke="black" stroke-width="1.5" stroke-linecap="round" stroke-linejoin="round"/>
<path d="M32.2816 11.0957V10.3332C32.2816 7.7915 30.2191 5.729 27.6774 5.729H22.3024C19.7607 5.729 17.6982 7.7915 17.6982 10.3332V11.0957" stroke="black" stroke-width="1.5" stroke-linecap="round" stroke-linejoin="round"/>
<path d="M5.78027 32.2563L6.17402 37.4834C6.44069 41.0063 9.37611 43.7293 12.9074 43.7293H37.0719C40.6032 43.7293 43.5386 41.0063 43.8053 37.4834L44.199 32.2563" stroke="black" stroke-width="1.5" stroke-linecap="round" stroke-linejoin="round"/>
</svg>
