<svg width="50" height="36" viewBox="0 0 50 36" fill="none" xmlns="http://www.w3.org/2000/svg">
<path d="M21.179 0.0485542C20.9933 0.0680939 16.7141 0.585896 11.6827 1.19163C2.62604 2.28585 2.51857 2.29562 2.17662 2.5594C1.28757 3.24329 0.759995 4.76739 0.759995 6.67251C0.759995 7.62018 0.955392 8.49947 1.36573 9.37875L1.66859 10.0431L1.36573 10.6977C0.877233 11.7528 0.730686 12.554 0.789305 13.8533C0.828384 14.9769 1.13125 16.1981 1.49273 16.7061C1.60997 16.882 1.59043 16.9504 1.2778 17.3803C-0.392846 19.7055 -0.431925 25.1571 1.19964 27.5702C1.41457 27.8926 1.77606 28.2834 1.991 28.4397L2.39156 28.723L16.0107 30.3253L29.6299 31.9373L32.7855 31.5661L35.9314 31.185V32.885C35.9314 34.5459 35.9314 34.5752 36.1757 34.8097C36.4199 35.0637 36.7912 35.1223 37.094 34.9562C37.1917 34.9074 37.6802 34.1844 38.1785 33.3442C38.6768 32.5137 39.1066 31.8299 39.1457 31.8299C39.175 31.8396 39.5756 32.3477 40.0348 32.9632C40.4939 33.5884 40.9434 34.1355 41.0313 34.1844C41.3244 34.3407 41.6956 34.2821 41.9399 34.0281C42.1841 33.7936 42.1841 33.7643 42.1841 32.1327C42.1841 30.4816 42.1841 30.4621 42.4088 30.4132C42.6531 30.3644 49.1989 29.5828 49.3943 29.5828C49.4627 29.5828 49.6287 29.4753 49.7558 29.3385C50.2247 28.8794 49.9805 28.1662 49.3161 28.0294C47.8604 27.7363 47.157 23.1933 48.1047 20.3014C48.4368 19.3049 48.7885 18.8164 49.2673 18.6601C49.746 18.5136 50 18.2205 50 17.8394C50 17.517 49.619 17.0774 49.3357 17.0774C48.9253 17.0774 48.4368 15.6119 48.4368 14.3418C48.4368 13.0718 48.9253 11.6063 49.3357 11.6063C49.6287 11.6063 50 11.1666 50 10.8247C50 10.4827 49.6287 10.0431 49.3357 10.0431C48.9253 10.0431 48.4368 8.57763 48.4368 7.30755C48.4368 6.50642 48.6615 5.45128 48.9253 4.98232C49.0426 4.78693 49.277 4.55245 49.4431 4.47429C49.8925 4.25936 50.0684 3.89787 49.9121 3.52662C49.8437 3.36053 49.6971 3.18467 49.5799 3.11628C49.4627 3.05767 43.7375 2.34447 36.8596 1.53357C24.6082 0.0876336 22.3904 -0.117533 21.179 0.0485542ZM32.7074 2.62779C37.8365 3.22375 42.106 3.73179 42.1841 3.76109C42.2623 3.7904 39.517 4.16166 36.078 4.58176L29.8253 5.34381L20.1043 4.22028C14.7602 3.60478 10.3051 3.06744 10.2074 3.02836C9.97296 2.93066 21.306 1.57265 22.449 1.55311C23.0841 1.54334 26.3179 1.88528 32.7074 2.62779ZM4.84379 3.99557L5.85985 4.11281L5.79146 4.41567C5.42021 6.11563 5.37136 7.2587 5.5863 8.67533C5.65469 9.13451 5.70354 9.51553 5.69377 9.53507C5.62538 9.61323 3.05591 9.23221 2.98752 9.13451C2.19616 7.98167 2.10823 5.54898 2.81166 4.1812C3.01683 3.78063 3.0266 3.77086 3.42716 3.82948C3.65187 3.85879 4.29668 3.93695 4.84379 3.99557ZM17.613 5.50013C22.8789 6.11563 27.3437 6.6432 27.5391 6.68228L27.8908 6.73113L27.6564 7.4834C27.246 8.76325 27.2558 10.5023 27.6759 11.958C27.7345 12.1436 27.461 12.1241 19.3227 11.1666C13.2165 10.4437 10.8816 10.1408 10.8229 10.0431C10.6373 9.74024 10.5005 8.20637 10.5689 7.03399C10.6275 5.85184 10.6275 5.8323 10.3931 5.59783C10.0707 5.28519 9.62124 5.27542 9.31838 5.58806C9.12298 5.77368 9.07413 5.95931 9.01551 6.68228C8.93735 7.54202 8.99597 9.0075 9.12298 9.64254L9.19137 9.97471L8.51725 9.90633C7.47188 9.79886 7.42303 9.76955 7.30579 9.36898C6.94431 8.07937 6.93454 6.10586 7.29602 4.95302C7.49142 4.34729 7.51096 4.31798 7.76497 4.34729C7.92129 4.36682 12.347 4.88463 17.613 5.50013ZM47.2156 5.03117C47.1765 5.12887 47.0788 5.55875 47.0007 5.98862C46.7955 7.0633 46.8737 8.47993 47.1961 9.47645L47.4403 10.2385L47.1277 10.2873C46.9616 10.3167 42.9755 10.7954 38.2762 11.362L29.7276 12.3879L29.5126 12.1436C28.8092 11.3523 28.7115 8.80233 29.327 7.44433L29.5615 6.94606L30.5189 6.81906C38.7354 5.82253 46.6099 4.88463 46.9127 4.87486C47.2254 4.86509 47.2742 4.8944 47.2156 5.03117ZM13.1188 12.0068C18.2773 12.6126 22.5077 13.1108 22.5174 13.1206C22.5272 13.1206 22.449 13.4821 22.3318 13.9022C22.1071 14.7522 22.0289 16.7452 22.1853 17.9371L22.2634 18.5526L21.7456 18.494C20.9054 18.3963 20.8175 18.367 20.7002 18.0837C20.3388 17.2044 20.202 15.4849 20.3974 14.4298C20.5146 13.8045 20.4071 13.443 20.0457 13.2769C19.3911 12.9838 19.0101 13.316 18.8342 14.3516C18.6974 15.143 18.7463 16.6866 18.9319 17.5463C19.0003 17.8297 19.0296 18.0837 19.0003 18.113C18.9026 18.2107 3.06568 16.286 2.98752 16.1688C2.19616 15.0062 2.10823 12.5833 2.81166 11.2155C3.01683 10.8247 3.03637 10.8052 3.37831 10.854C3.57371 10.8833 7.96037 11.4011 13.1188 12.0068ZM47.2156 12.0655C47.1765 12.1632 47.0788 12.593 47.0007 13.0229C46.7955 14.0976 46.8737 15.5435 47.1961 16.501C47.3328 16.9015 47.4305 17.2435 47.411 17.263C47.3915 17.2826 43.4054 17.771 38.5497 18.3572L29.7276 19.4222L29.5126 19.1779C28.8092 18.3865 28.7115 15.8366 29.327 14.4786L29.5615 13.9804L30.5678 13.8533C37.9538 12.9447 46.6099 11.9189 46.9127 11.9091C47.2254 11.8994 47.2742 11.9287 47.2156 12.0655ZM25.9955 13.5114C26.7087 13.5993 27.4219 13.6873 27.588 13.7068L27.9006 13.7556L27.6564 14.5177C27.246 15.7975 27.2558 17.5366 27.6759 18.9923L27.7345 19.1877L25.8978 18.963C24.8915 18.8457 24.0318 18.748 23.9927 18.7383C23.9634 18.7383 23.8559 18.3182 23.768 17.8004C23.5433 16.5596 23.6019 14.9573 23.9145 14.0194C24.1783 13.2476 24.0318 13.2867 25.9955 13.5114ZM4.00358 17.9664C4.57023 18.0446 4.85356 18.1228 4.82425 18.1912C4.54092 18.8653 4.1599 20.2917 4.02312 21.1905C3.90588 22.0307 3.87658 22.6364 3.91565 23.672C3.97427 24.864 4.05243 25.4111 4.43346 27.1501L4.49208 27.4041L3.68118 27.2966C2.88982 27.1892 2.86051 27.1794 2.54788 26.7691C1.18987 24.9812 1.25826 19.8423 2.65534 18.1716C2.96798 17.8101 2.88005 17.8297 4.00358 17.9664ZM7.52073 18.3963L7.97014 18.4549L7.73566 19.1584C6.915 21.5129 6.79776 24.2973 7.41326 26.8472C7.51096 27.2966 7.57934 27.6777 7.55981 27.707C7.5305 27.7265 7.24717 27.7167 6.915 27.6777C6.33857 27.6093 6.2995 27.5897 6.16272 27.2478C6.07479 27.0524 5.89893 26.476 5.76215 25.9679C5.53745 25.1277 5.50814 24.8542 5.50814 23.1347C5.49837 21.0146 5.61561 20.3307 6.25065 18.9239C6.53397 18.2986 6.57305 18.24 6.80753 18.2889C6.94431 18.3182 7.26671 18.3572 7.52073 18.3963ZM14.9947 19.2561C17.8572 19.598 20.2215 19.9009 20.2508 19.9302C20.2801 19.9595 20.1922 20.3698 20.0554 20.8485C19.3715 23.2129 19.3422 26.1047 19.9968 28.469C20.1043 28.8403 20.1727 29.1627 20.1434 29.1822C20.1141 29.2115 17.6911 28.9477 14.7504 28.596L9.40631 27.9708L9.13275 27.1599C8.52702 25.3427 8.40978 22.4801 8.86896 20.7411C9.07413 19.9693 9.62124 18.6406 9.73848 18.6406C9.76779 18.6406 12.1419 18.9239 14.9947 19.2561ZM46.7564 19.4417C46.2679 20.7313 46.1507 21.5324 46.1507 23.4278C46.1507 25.3818 46.2582 26.007 46.8248 27.3553C46.9713 27.6972 47.1081 28.0392 47.1277 28.1173C47.1667 28.2443 46.776 28.3127 44.6852 28.557L42.1841 28.8598V26.5346V24.2094L42.4577 24.1605C42.9071 24.0628 43.2002 23.8772 43.2979 23.6134C43.4249 23.2324 43.2979 22.8611 42.9657 22.6951C42.6922 22.5485 42.4186 22.5778 39.0382 22.9881C35.7849 23.3789 35.3843 23.4473 35.1791 23.6427C34.9544 23.8479 34.8861 24.2191 35.0131 24.5513C35.0912 24.7467 35.6188 25.0203 35.7946 24.9519C35.9119 24.903 35.9314 25.2645 35.9314 27.238V29.5828L35.7165 29.6219C35.5895 29.6512 34.1533 29.8368 32.512 30.0224L29.5322 30.3839L29.2195 30.0127C28.8776 29.6219 28.5845 28.938 28.3305 27.9317C28.1156 27.0329 28.1156 24.3168 28.3305 23.418C28.5943 22.402 28.8776 21.7278 29.2195 21.3468L29.5322 20.9951L37.9831 19.979C42.6335 19.4124 46.5512 18.9532 46.6978 18.9434L46.9518 18.9337L46.7564 19.4417ZM23.4065 20.2526C23.4163 20.2624 23.3186 20.6629 23.1818 21.1416C22.4979 23.4962 22.4588 26.222 23.0939 28.596C23.2209 29.1041 23.3088 29.5339 23.2893 29.5632C23.2599 29.5828 22.9766 29.573 22.6542 29.5339C22.0583 29.4656 22.0583 29.4656 21.8531 29.0161C21.7456 28.7621 21.5307 28.1369 21.3939 27.6288C21.1594 26.7691 21.1399 26.5541 21.1399 24.6979C21.1497 22.568 21.218 22.1284 21.7652 20.6629L21.9801 20.0865L22.6835 20.1549C23.0645 20.194 23.387 20.233 23.4065 20.2526ZM26.5817 20.6141C27.461 20.7118 27.6271 20.7606 27.588 20.8876C27.5684 20.9658 27.4317 21.3077 27.2851 21.6497C26.7282 22.9784 26.6208 23.633 26.611 25.5283C26.6012 27.4237 26.7087 28.1369 27.1679 29.4265L27.4121 30.0908L26.9627 30.0322C26.7087 30.0029 26.2104 29.954 25.849 29.915L25.1846 29.8466L24.8915 29.0845C24.3249 27.6191 24.2565 27.1794 24.2662 25.0398C24.2662 23.2519 24.2858 23.0077 24.5203 22.1577C24.8817 20.8388 25.0478 20.4968 25.3018 20.4968C25.4191 20.4968 25.9955 20.5457 26.5817 20.6141ZM40.621 27.7265C40.621 29.5535 40.6014 31.0483 40.5819 31.0483C40.5623 31.0483 40.3181 30.7356 40.0348 30.3644C39.2239 29.2702 38.794 29.2995 38.071 30.4914C37.8268 30.9115 37.5923 31.273 37.5532 31.3121C37.5239 31.3414 37.4946 29.8759 37.4946 28.0489V24.7272L38.7451 24.5806C39.429 24.5025 40.1325 24.4243 40.3083 24.4145L40.621 24.4048V27.7265Z" fill="black"/>
</svg>
