<svg width="50" height="40" viewBox="0 0 50 40" fill="none" xmlns="http://www.w3.org/2000/svg">
<path d="M10.0098 0.146584C8.98438 0.420021 8.125 1.13291 7.62695 2.11924C7.32422 2.72471 7.32422 2.72471 6.89453 6.72861L6.54297 10.0001L4.73633 10.0587C2.74414 10.1173 2.41211 10.1954 1.5625 10.7813C0.966797 11.1915 0.605469 11.631 0.263672 12.3731L0 12.9298V24.8536V36.7677L0.371094 37.5099C0.800781 38.379 1.26953 38.838 2.19727 39.2872L2.83203 39.5899H21.2891C35.918 39.5899 39.834 39.5606 40.1562 39.463C41.1328 39.17 42.1484 38.213 42.5488 37.1974C42.7441 36.7188 42.7637 36.4356 42.8027 34.502L42.8418 32.3438L44.0234 32.3536C45.0586 32.3634 45.2832 32.3341 45.7715 32.1388C46.8066 31.7188 47.7344 30.6544 47.9883 29.5802C48.1641 28.8575 49.9707 6.8458 49.9023 6.24033C49.7852 5.09775 48.9453 3.88682 47.9199 3.36924C47.6562 3.23252 47.1582 3.07627 46.8164 3.01768C46.2012 2.91026 11.2988 -0.0194321 10.8008 9.9143e-05C10.6641 9.9143e-05 10.3027 0.0684585 10.0098 0.146584ZM28.5645 3.4083C38.3105 4.21885 46.4648 4.92197 46.6797 4.98057C47.1875 5.12705 47.8613 5.79111 47.9492 6.24033C47.9785 6.43565 47.5879 11.6603 47.0703 17.8517C46.0742 29.7853 46.1035 29.5216 45.5859 29.9903C45.166 30.3712 44.6875 30.4786 43.7305 30.4103L42.832 30.3419L42.8027 21.6896L42.7734 13.0274L42.5391 12.4415C42.2168 11.631 41.2402 10.6544 40.4297 10.3321L39.8438 10.0978L24.1992 10.0685L8.54492 10.0489V9.82432C8.54492 9.4044 9.21875 3.34971 9.28711 3.16416C9.48242 2.61729 10.2734 1.96299 10.7422 1.94346C10.8008 1.94346 18.8184 2.59776 28.5645 3.4083ZM39.5508 12.1095C40.0488 12.2462 40.625 12.8224 40.7617 13.3204C40.8203 13.5353 40.8691 14.1798 40.8691 14.756V15.8106H21.3867H1.9043V14.7071C1.9043 13.3888 1.99219 13.0177 2.43164 12.5978C3.07617 11.9728 1.80664 12.0118 21.3379 12.0021C34.0527 12.0021 39.2676 12.0313 39.5508 12.1095ZM40.8496 19.8341L40.8691 21.8653H21.3867H1.9043V19.8146V17.7638L21.3672 17.7833L40.8203 17.8126L40.8496 19.8341ZM40.8691 29.8927C40.8691 33.838 40.8301 36.1036 40.7617 36.3478C40.7129 36.5528 40.5273 36.8653 40.3711 37.0509C39.7656 37.7442 41.25 37.6954 21.1816 37.6661L3.11523 37.6368L2.76367 37.4024C2.57812 37.2755 2.31445 37.0118 2.1875 36.8263L1.95312 36.4747L1.92383 30.1466L1.9043 23.8185H21.3867H40.8691V29.8927Z" fill="black"/>
<path d="M26.6797 27.0216L26.416 27.295V30.7423V34.1895L26.6992 34.4728L26.9824 34.756H32.0312C35.3027 34.756 37.1387 34.7169 37.2656 34.6583C37.7148 34.4142 37.7441 34.1895 37.7441 30.752C37.7441 27.3145 37.7148 27.0899 37.2656 26.8458C37.1387 26.7872 35.293 26.7481 32.0117 26.7481H26.9434L26.6797 27.0216ZM35.791 30.752V32.8028H32.0801H28.3691V30.752V28.7013H32.0801H35.791V30.752Z" fill="black"/>
</svg>
