<svg width="65" height="65" viewBox="0 0 65 65" fill="none" xmlns="http://www.w3.org/2000/svg">
<path fill-rule="evenodd" clip-rule="evenodd" d="M8.125 17.6042C8.125 10.4942 8.20113 8.125 17.6042 8.125C27.0072 8.125 27.0833 10.4942 27.0833 17.6042C27.0833 24.7141 27.1133 27.0833 17.6042 27.0833C8.09501 27.0833 8.125 24.7141 8.125 17.6042Z" stroke="#EDF6FF" stroke-width="4.0625" stroke-linecap="round" stroke-linejoin="round"/>
<path fill-rule="evenodd" clip-rule="evenodd" d="M37.9165 17.6042C37.9165 10.4942 37.9926 8.125 47.3957 8.125C56.7987 8.125 56.8748 10.4942 56.8748 17.6042C56.8748 24.7141 56.9048 27.0833 47.3957 27.0833C37.8865 27.0833 37.9165 24.7141 37.9165 17.6042Z" stroke="#EDF6FF" stroke-width="4.0625" stroke-linecap="round" stroke-linejoin="round"/>
<path fill-rule="evenodd" clip-rule="evenodd" d="M8.125 47.3962C8.125 40.2862 8.20113 37.917 17.6042 37.917C27.0072 37.917 27.0833 40.2862 27.0833 47.3962C27.0833 54.5061 27.1133 56.8753 17.6042 56.8753C8.09501 56.8753 8.125 54.5061 8.125 47.3962Z" stroke="#EDF6FF" stroke-width="4.0625" stroke-linecap="round" stroke-linejoin="round"/>
<path fill-rule="evenodd" clip-rule="evenodd" d="M37.9165 47.3962C37.9165 40.2862 37.9926 37.917 47.3957 37.917C56.7987 37.917 56.8748 40.2862 56.8748 47.3962C56.8748 54.5061 56.9048 56.8753 47.3957 56.8753C37.8865 56.8753 37.9165 54.5061 37.9165 47.3962Z" stroke="#EDF6FF" stroke-width="4.0625" stroke-linecap="round" stroke-linejoin="round"/>
</svg>
