<svg width="65" height="66" viewBox="0 0 65 66" fill="none" xmlns="http://www.w3.org/2000/svg">
<rect x="9.77539" y="25.1367" width="45.4492" height="38.3398" rx="13.3301" fill="#132440" stroke="#EDF6FF" stroke-width="3.80859"/>
<rect x="55.3516" y="36.8164" width="7.74414" height="14.8535" rx="3.17383" fill="#132440" stroke="#EDF6FF" stroke-width="3.80859"/>
<rect x="1.9043" y="36.8164" width="7.74414" height="14.8535" rx="3.17383" fill="#132440" stroke="#EDF6FF" stroke-width="3.80859"/>
<line x1="6.0948" y1="36.5795" x2="5.96672" y2="22.2338" stroke="#EDF6FF" stroke-width="3.80859"/>
<circle cx="5.83984" cy="17.5195" r="3.93555" fill="#132440" stroke="#EDF6FF" stroke-width="3.80859"/>
<rect x="26.9141" y="49.8926" width="11.1719" height="3.68164" rx="1.84082" fill="#EDF6FF"/>
<rect x="21.2012" y="38.3398" width="3.68164" height="7.49023" rx="1.84082" fill="#EDF6FF"/>
<rect x="40.2441" y="38.3398" width="3.68164" height="7.49023" rx="1.84082" fill="#EDF6FF"/>
<path d="M26.6602 8.25195V32.627L35.166 28.501H56.748C60.2538 28.501 63.0957 25.659 63.0957 22.1533V8.25195C63.0957 4.74624 60.2538 1.9043 56.748 1.9043H33.0078C29.5021 1.9043 26.6602 4.74624 26.6602 8.25195Z" fill="#132440" stroke="#EDF6FF" stroke-width="3.80859"/>
<rect x="32.5" y="9.90234" width="24.6289" height="3.68164" rx="1.84082" fill="#EDF6FF"/>
<rect x="32.5" y="17.5195" width="24.6289" height="3.68164" rx="1.84082" fill="#EDF6FF"/>
</svg>
