<svg width="52" height="53" viewBox="0 0 52 53" fill="none" xmlns="http://www.w3.org/2000/svg">
<path d="M6.63602 20.3513V52.09H20.2163M45.0105 39.2814V52.09H20.2163M20.2163 52.09V30.4851M20.2163 20.3513V30.4851M45.0105 35.0118V30.4851M45.0105 20.3513V30.4851M20.2163 30.4851L14.1978 27.9645L17.6443 19.9398M20.2163 14.6414C19.1 16.7377 18.4935 17.8083 17.6443 19.9398M20.2163 14.6414H17.767C16.3738 15.8651 15.5188 16.272 13.9117 16.6991M20.2163 14.6414C20.4196 14.1678 21.9042 13.9283 23.3541 13.8071M45.0105 30.4851L50.6689 27.4501C50.6689 27.4501 45.885 15.5999 45.0105 14.6414C44.136 13.683 38.8207 13.683 38.8207 13.683M26.2862 13.683L28.0352 13.4069C29.0152 12.361 29.6168 11.8539 30.9159 11.2978C31.2568 10.7167 31.2869 10.3233 30.9159 9.44597C23.0969 5.6394 33.0764 -4.90587 37.0373 4.55914C36.0599 7.95421 34.3624 5.84516 33.3336 3.58177C32.7163 2.81018 30.5558 3.89043 30.9159 5.3822C32.2019 6.411 34.3624 8.36573 34.3624 11.2978C35.4664 11.8235 36.0534 12.2899 37.0373 13.4069L38.8207 13.683M26.2862 13.683C26.2862 13.683 24.8383 13.683 23.3541 13.8071M26.2862 13.683C26.4522 15.1466 26.6861 16.1057 27.1093 16.8543M38.8207 13.683C38.4563 14.9842 38.075 16.0265 37.6226 16.8543M31.8932 19.734C34.8611 19.6767 36.4721 18.9592 37.6226 16.8543M6.43026 30.2279L0.668945 27.9645L1.69775 25.6497M3.13808 22.0488C3.13808 22.0488 5.29857 15.4645 6.43026 14.6414C7.56195 13.8184 12.9632 13.683 12.9632 13.683M12.9632 13.683L14.8665 13.4069C15.8502 12.3281 16.4669 11.8879 17.6443 11.2978C17.9235 10.707 18.0088 10.3419 17.6443 9.44597C8.6422 5.07356 20.0619 -5.1631 23.7142 4.55914C22.7368 9.44597 20.6278 4.25051 19.6504 3.58177C18.6731 2.91304 17.2327 3.58177 17.2327 5.07354C17.767 7.23405 20.2163 6.20524 20.6278 11.2978C22.3083 12.097 22.8175 12.6723 23.3541 13.8071M12.9632 13.683C12.9849 14.472 13.2583 15.5818 13.9117 16.6991M17.6443 19.9398C15.7507 19.1102 14.65 17.9616 13.9117 16.6991M28.5496 18.3966C27.9071 17.9169 27.4477 17.4529 27.1093 16.8543M27.1093 16.8543C29.211 16.5279 30.0366 15.9892 31.1216 14.6414H33.7451C34.795 15.9805 35.7404 16.3664 37.6226 16.8543M36.0085 23.9007H42.2327V28.7875C40.061 31.2142 38.7501 31.6951 36.0085 28.7875V23.9007Z" stroke="black"/>
</svg>
