<svg width="50" height="50" viewBox="0 0 50 50" fill="none" xmlns="http://www.w3.org/2000/svg">
<path d="M12.6622 0.130413C11.176 0.540621 10.1689 1.65404 9.92444 3.18744C9.79732 3.93949 9.79732 11.333 9.92444 11.6553C10.0418 11.9776 10.4524 12.085 10.7067 11.8604C10.8827 11.7041 10.8924 11.4795 10.9218 7.37742C10.9511 3.48045 10.9707 3.03117 11.1271 2.67956C11.352 2.19122 11.9093 1.60521 12.4178 1.33174C12.7991 1.12663 12.9262 1.11687 16.5049 1.08757L20.1912 1.05826V2.14239V3.21674H16.6809C13.376 3.21674 13.1609 3.22651 12.9458 3.40231L12.7111 3.58788V9.64333C12.7111 16.0797 12.7111 16.0113 13.1707 16.0113C13.2782 16.0113 13.4445 15.9625 13.552 15.9137C13.728 15.816 13.7378 15.6402 13.7378 10.0535V4.2911H16.9547H20.1716L20.2792 4.57433C20.4356 4.94548 20.9441 5.41428 21.3547 5.55102C21.5698 5.61939 22.7334 5.65846 24.7574 5.65846C27.2996 5.65846 27.8863 5.62916 28.1796 5.51195C28.649 5.31662 28.8739 5.11151 29.0988 4.65247L29.2845 4.2911H32.7557H36.2268V12.925C36.2268 22.3403 36.1975 21.8226 36.7841 21.7542C37.3219 21.6956 37.3024 21.9691 37.273 12.4171L37.2535 3.58788L37.0188 3.40231C36.8037 3.22651 36.5886 3.21674 33.0392 3.21674H29.2845V2.14239V1.05826L33.225 1.08757C37.0384 1.11687 37.1655 1.12663 37.5468 1.33174C38.0553 1.60521 38.6126 2.19122 38.8375 2.67956C39.0037 3.0507 39.0135 3.76369 39.0428 15.103L39.0624 27.1455H37.2535H35.4446L35.2881 27.3897C35.0926 27.6827 35.1904 28.005 35.513 28.132C35.6499 28.1808 37.6055 28.2199 40.0793 28.2199C43.306 28.2199 44.4304 28.2492 44.5184 28.3371C44.5966 28.4152 44.6357 28.845 44.6357 29.6263L44.6455 30.8081L42.8366 32.5662C41.7122 33.66 40.9495 34.4902 40.8028 34.7637C40.5779 35.2032 40.5779 35.213 40.5779 38.8853V42.5772H31.465H22.3423V38.4751V34.373L22.0978 34.2168C21.8729 34.0703 21.8338 34.0703 21.6089 34.2168L21.3645 34.373V38.6509V42.919L20.4845 45.5561C20.0054 47.0016 19.6045 48.3006 19.6045 48.4471C19.6045 48.9061 20.0152 49.5312 20.4845 49.7754L20.9049 50H33.5086C43.9904 50 46.1611 49.9805 46.4251 49.8633C46.8651 49.6777 47.2366 49.2382 47.3637 48.7596C47.4713 48.3689 47.442 48.2224 46.8749 46.5132C46.5424 45.4975 46.2589 44.6282 46.2295 44.5696C46.21 44.511 46.5717 44.4329 47.2171 44.3743C48.0775 44.2864 48.3122 44.2278 48.7131 43.9836C49.2313 43.6613 49.7593 42.9581 49.9158 42.3721C49.9842 42.1181 50.0135 40.7606 49.994 38.5435L49.9647 35.1055L49.7007 34.6172C49.5149 34.2461 48.9673 33.6796 47.5886 32.4294L45.7211 30.73L45.6917 29.431C45.6624 27.9953 45.594 27.8195 44.9291 27.3604C44.6162 27.1553 44.5282 27.1455 42.3771 27.1455H40.1477L40.1184 15.0542L40.089 2.97257L39.8642 2.40609C39.561 1.66381 38.9939 0.970363 38.3779 0.589456C37.3708 -0.0356234 37.9477 -0.00632286 24.9334 0.003444C15.8498 0.003444 13.0045 0.0327446 12.6622 0.130413ZM28.209 2.63073C28.209 4.06646 28.1894 4.21296 28.0134 4.38876C27.8276 4.57433 27.6908 4.5841 24.7476 4.5841C21.8729 4.5841 21.6676 4.57433 21.4525 4.39853C21.2276 4.21296 21.2178 4.15436 21.1885 2.6405L21.1592 1.06803H24.6792H28.209V2.63073ZM47.2757 33.5819C49.0944 35.2423 48.938 34.7637 48.938 38.7583C48.938 41.9619 48.9282 42.1279 48.7326 42.4698C48.6251 42.6651 48.3806 42.9386 48.1851 43.0655L47.8233 43.3097H45.1637H42.4944L42.1913 43.0167C41.5948 42.46 41.6046 42.4991 41.6046 38.9146C41.6046 36.3264 41.6339 35.5743 41.7415 35.3204C41.8197 35.1446 42.4944 34.3926 43.2571 33.6405L44.6357 32.2731V33.1326C44.6357 33.7577 44.6064 33.9823 44.5086 33.9823C44.274 33.9823 43.6286 34.5977 43.4526 34.9981C43.1984 35.545 43.2179 36.0041 43.5211 36.5999C44.3522 38.2798 46.8749 37.811 47.0606 35.9455C47.0802 35.6818 47.0509 35.3204 46.9922 35.1251C46.8553 34.7344 46.2589 34.0996 45.9362 34.0214C45.7211 33.9628 45.7113 33.914 45.7113 33.0838C45.7113 32.0485 45.5255 31.9899 47.2757 33.5819ZM45.8091 35.2325C46.1122 35.6036 46.0633 36.0627 45.7015 36.3655C45.3104 36.6975 44.978 36.6878 44.626 36.3362C44.1762 35.8771 44.274 35.252 44.8508 35.0176C45.2322 34.8516 45.5744 34.9297 45.8091 35.2325ZM41.5655 43.9055C42.1131 44.3255 42.5335 44.4231 43.8535 44.4329H45.0757L45.7504 46.4351C46.386 48.3592 46.4055 48.4568 46.2589 48.6815L46.1024 48.9256H33.5672C22.0489 48.9256 21.0223 48.9159 20.8561 48.7596C20.7583 48.6717 20.68 48.535 20.68 48.4471C20.68 48.3201 21.9121 44.511 22.1956 43.7687C22.2249 43.6808 24.2294 43.6515 31.729 43.6515H41.2233L41.5655 43.9055Z" fill="black"/>
<path d="M25.3541 46.0444C25.2759 46.23 25.2759 46.3472 25.3541 46.5327L25.4714 46.7769H33.4795C40.6368 46.7769 41.5071 46.7573 41.6439 46.6206C41.7319 46.5425 41.8004 46.3862 41.8004 46.2886C41.8004 46.1909 41.7319 46.0347 41.6439 45.9565C41.5071 45.8198 40.6368 45.8003 33.4795 45.8003H25.4714L25.3541 46.0444Z" fill="black"/>
<path d="M3.23635 3.37273C3.00168 3.59734 3.02124 4.6032 3.25591 4.80828C3.50035 5.02312 3.72524 5.01335 3.95991 4.77898C4.20436 4.53484 4.22391 3.75359 3.99902 3.43132C3.82302 3.17742 3.45146 3.14812 3.23635 3.37273Z" fill="black"/>
<path d="M1.1831 5.42412C0.958207 5.63896 0.98754 6.01006 1.24176 6.18584C1.56443 6.41045 2.24888 6.39092 2.49333 6.14677C2.72799 5.9124 2.73777 5.77568 2.53244 5.48271C2.4151 5.30693 2.28799 5.26787 1.85777 5.26787C1.51554 5.26787 1.28087 5.3167 1.1831 5.42412Z" fill="black"/>
<path d="M4.7225 5.37555C4.46828 5.52204 4.49761 6.00055 4.76161 6.1861C4.9865 6.34235 5.57317 6.39118 5.86651 6.28376C6.13051 6.17633 6.23806 5.76618 6.06206 5.50251C5.93495 5.30719 5.82739 5.26813 5.39717 5.26813C5.12339 5.26813 4.8105 5.31696 4.7225 5.37555Z" fill="black"/>
<path d="M3.17786 6.91835C3.12897 7.02577 3.08008 7.3285 3.08008 7.60194C3.08008 8.0121 3.11919 8.11952 3.30497 8.23671C3.58853 8.43202 3.95031 8.33436 4.06764 8.03163C4.20453 7.6703 4.1752 7.19179 3.99919 6.94764C3.80364 6.67421 3.32452 6.65468 3.17786 6.91835Z" fill="black"/>
<path d="M24.4936 10.6202C21.2278 10.8057 18.402 12.7396 16.9255 15.8259C16.378 16.9589 16.0944 18.0137 16.0162 19.2443C15.9478 20.3968 16.0846 21.3833 16.5246 22.9362C16.8571 24.0789 16.8669 24.1473 16.8669 25.8955C16.8669 27.3996 16.8962 27.7317 17.0429 28.015C17.3264 28.5912 17.6491 28.7572 18.578 28.7963C19.3309 28.8256 19.3993 28.8451 19.4287 29.0307C19.4775 29.3921 19.8491 29.4897 21.2473 29.4897C22.4989 29.4897 22.5576 29.48 22.7825 29.2456L23.0269 29.0112V25.9737C23.0269 23.0729 23.0171 22.9362 22.8313 22.7506C22.6553 22.5748 22.5087 22.5553 21.2376 22.5553C19.7513 22.5553 19.4091 22.6432 19.4091 23.0436C19.4091 23.1999 19.3113 23.2292 18.578 23.2585L17.7371 23.2878L17.5513 22.6529C17.4535 22.3013 17.3166 21.8228 17.2482 21.5786C17.0526 20.8949 17.082 18.5509 17.2971 17.7695C18.0793 14.8883 20.2598 12.681 23.0758 11.8996C24.1416 11.6066 25.7745 11.6066 26.8891 11.8996C29.138 12.4954 30.9469 13.9995 32.0225 16.158C32.619 17.3691 32.795 18.0235 32.8732 19.3322C32.9318 20.4261 32.8047 21.3247 32.4234 22.6139L32.2278 23.2878L31.3869 23.2585C30.6536 23.2292 30.5558 23.1999 30.5558 23.0436C30.5558 22.6432 30.2136 22.5553 28.7274 22.5553C27.4563 22.5553 27.3096 22.5748 27.1336 22.7506C26.9478 22.9362 26.938 23.0729 26.938 25.9737V29.0112L27.1825 29.2456C27.4074 29.48 27.466 29.4897 28.7176 29.4897C30.1158 29.4897 30.4874 29.3921 30.5363 29.0307C30.5656 28.8451 30.6341 28.8256 31.3869 28.7963C32.3158 28.7572 32.6385 28.5912 32.9221 28.015C33.0687 27.7317 33.0981 27.3996 33.0981 25.8955C33.0981 24.1473 33.1078 24.0789 33.4403 22.9362C33.8901 21.3637 34.0172 20.4066 33.9487 19.1466C33.675 14.1948 29.402 10.3369 24.4936 10.6202ZM21.9513 26.0225V28.4154H21.218H20.4847V26.0225V23.6296H21.218H21.9513V26.0225ZM29.4803 26.0225V28.4154H28.7469H28.0136V26.0225V23.6296H28.7469H29.4803V26.0225ZM19.4091 26.0225V27.7317H18.7931C18.4411 27.7317 18.1282 27.6829 18.0598 27.6145C17.9327 27.4875 17.8838 24.4989 18.0109 24.3817C18.0402 24.3426 18.3727 24.3133 18.7442 24.3133H19.4091V26.0225ZM32.0029 25.9151C32.0225 26.9699 31.9932 27.5071 31.9149 27.595C31.8367 27.6829 31.5923 27.7317 31.1816 27.7317H30.5558V26.0225V24.3035L31.2696 24.3328L31.9736 24.3621L32.0029 25.9151Z" fill="black"/>
<path d="M9.92457 13.8628C9.52368 14.2632 9.85612 15.0347 10.433 15.0347C10.6677 15.0347 11.0979 14.605 11.0979 14.3706C11.0979 13.7944 10.3255 13.4624 9.92457 13.8628Z" fill="black"/>
<path d="M4.35114 17.0951C4.03824 17.2221 3.68624 17.5542 3.52002 17.8667C3.45157 18.0034 3.08002 19.5564 2.67913 21.3144L1.96534 24.5277L1.44712 24.7621C0.899561 25.0258 0.557336 25.3676 0.215112 26.0123L0 26.4127V33.4937V40.5746L0.293335 41.1021C0.596448 41.649 1.15378 42.1373 1.74045 42.3522C1.96534 42.4303 3.54935 42.4694 7.3236 42.4694C11.489 42.4792 12.5743 42.5085 12.5352 42.5964C12.5156 42.6647 12.193 44.0419 11.8312 45.6534C11.4596 47.304 11.1076 48.6616 11.0196 48.7495C10.8827 48.9058 10.5992 48.9253 7.77338 48.9253C5.29958 48.9253 4.64447 48.896 4.55647 48.7983C4.4978 48.7202 4.29247 47.9486 4.08713 47.0696C3.89158 46.2004 3.66669 45.419 3.58846 45.3506C3.40269 45.1553 3.04091 45.1846 2.84535 45.3995C2.67913 45.585 2.6889 45.6632 3.04091 47.2845C3.43202 49.0132 3.58846 49.3746 4.08713 49.7457C4.35114 49.9411 4.48802 49.9508 7.65604 49.9801C10.9218 50.0094 10.9512 49.9997 11.3912 49.7848C11.6258 49.6578 11.8996 49.4234 11.9974 49.2574C12.0952 49.0913 12.5058 47.4896 12.9067 45.7022C13.3076 43.9149 13.6499 42.4401 13.6694 42.4303C13.6792 42.4206 13.8747 42.3424 14.0996 42.2448C14.6276 42.0104 15.1361 41.483 15.4196 40.8676C15.625 40.4086 15.6445 40.2328 15.6739 37.9669L15.713 35.5447H16.5343C17.7565 35.5447 17.7468 35.5642 17.7468 33.4937C17.7468 31.4231 17.7565 31.4426 16.5343 31.4426H15.713L15.6641 29.0204C15.6348 27.3503 15.5859 26.4908 15.4979 26.2369C15.3023 25.6899 14.657 25.0063 14.0801 24.7426L13.5912 24.5082H8.34049C5.44625 24.5082 3.08002 24.4789 3.08002 24.43C3.08002 24.1663 4.46847 18.2964 4.55647 18.189C4.64447 18.0913 5.28981 18.062 7.7636 18.062C9.46494 18.062 10.9121 18.1011 10.9903 18.1499C11.0685 18.1988 11.3032 19.0192 11.5476 20.074C11.9583 21.8613 12.0854 22.1641 12.4178 22.1641C12.6232 22.1641 12.9556 21.8613 12.9556 21.666C12.9556 21.2656 12.1636 18.0132 11.9974 17.73C11.8996 17.5639 11.6454 17.3295 11.4303 17.2123C11.0587 16.9974 10.9903 16.9877 7.82227 16.9974C5.91559 16.9974 4.4978 17.0365 4.35114 17.0951ZM13.8356 25.8071C14.0214 25.9244 14.2561 26.1783 14.3636 26.3639C14.569 26.6959 14.569 26.8229 14.569 33.4937C14.569 40.1058 14.5592 40.2914 14.3734 40.6137C14.2659 40.7993 14.0507 41.0337 13.9041 41.1509C13.6303 41.356 13.5521 41.356 7.88093 41.3853L2.14135 41.4048L1.8089 41.1802C1.62312 41.063 1.3689 40.809 1.25156 40.6332L1.02667 40.3012V33.4937V26.6862L1.25156 26.3541C1.3689 26.1783 1.62312 25.9244 1.79912 25.8071L2.13157 25.5825H7.82227H13.513L13.8356 25.8071ZM16.6712 33.4937V34.4704H16.1823H15.6934V33.4937V32.517H16.1823H16.6712V33.4937Z" fill="black"/>
<path d="M6.4629 28.3661C5.14289 28.7274 3.84244 29.7237 3.19711 30.8664C2.03354 32.9272 2.38555 35.5154 4.05756 37.2051C6.15001 39.3147 9.41581 39.3049 11.5474 37.166C12.6034 36.1014 13.0532 35.0173 13.0532 33.4937C13.0532 31.9407 12.6132 30.8859 11.4985 29.7823C10.7065 28.9911 10.0611 28.62 9.09314 28.3661C8.39891 28.1903 7.11802 28.1903 6.4629 28.3661ZM9.54292 29.6553C11.2931 30.4659 12.2807 32.2923 11.9776 34.1285C11.7527 35.5154 10.8238 36.7265 9.53314 37.3418C8.38913 37.879 6.77579 37.8008 5.66112 37.1465C5.04512 36.7851 4.28245 35.9158 3.93044 35.1833C3.63711 34.568 3.61755 34.441 3.61755 33.4937C3.61755 32.517 3.63711 32.4291 3.96955 31.7356C4.48778 30.6515 5.32867 29.8897 6.45312 29.4697C6.83446 29.333 7.15713 29.2939 7.9198 29.3232C8.78025 29.3427 8.9758 29.3818 9.54292 29.6553Z" fill="black"/>
<path d="M6.20874 30.4673C6.02296 30.6528 6.01318 30.7896 6.01318 33.4946C6.01318 36.1997 6.02296 36.3364 6.20874 36.522C6.3163 36.6294 6.46296 36.7173 6.54119 36.7173C6.70741 36.7173 7.2843 36.3169 9.21053 34.8911C11.2248 33.3872 11.2541 33.6021 8.70209 31.7173C7.62653 30.9263 6.6683 30.272 6.5803 30.272C6.48252 30.272 6.3163 30.3599 6.20874 30.4673ZM8.22297 32.6841C8.78031 33.104 9.23987 33.4653 9.23987 33.4946C9.23987 33.5532 7.33319 34.9692 7.16697 35.0376C7.12786 35.0571 7.08874 34.3638 7.08874 33.5044C7.08874 32.6353 7.11808 31.9321 7.14741 31.9321C7.18652 31.9321 7.66564 32.2739 8.22297 32.6841Z" fill="black"/>
<path d="M45.9652 17.2032C45.7403 17.5255 45.7599 18.3067 46.0043 18.5509C46.2488 18.795 46.5128 18.8048 46.7181 18.5704C46.943 18.3262 46.943 17.3595 46.7279 17.1446C46.5128 16.92 46.1412 16.9493 45.9652 17.2032Z" fill="black"/>
<path d="M43.9023 19.2734C43.7947 19.4395 43.7752 19.5664 43.8436 19.7422C43.9512 20.0352 44.1272 20.1133 44.6259 20.1133C45.105 20.1133 45.4179 19.8887 45.4179 19.5273C45.4179 19.166 45.193 19.0391 44.5476 19.0391C44.137 19.0391 44.0294 19.0781 43.9023 19.2734Z" fill="black"/>
<path d="M47.4321 19.2539C47.2268 19.5469 47.2365 19.6836 47.4712 19.918C47.6081 20.0547 47.7939 20.1133 48.0872 20.1133C48.5859 20.1133 48.9379 19.8984 48.9379 19.5762C48.9379 19.1953 48.6934 19.0391 48.1068 19.0391C47.6765 19.0391 47.5494 19.0781 47.4321 19.2539Z" fill="black"/>
<path d="M45.9655 20.719C45.8775 20.8361 45.8091 21.0803 45.8091 21.2561C45.8091 21.9787 46.1806 22.3205 46.6402 22.0276C46.8455 21.8908 46.8846 21.7932 46.8846 21.3733C46.8846 21.0998 46.8358 20.7971 46.7869 20.6897C46.6402 20.426 46.1611 20.4455 45.9655 20.719Z" fill="black"/>
<path d="M36.4517 23.3362C36.0214 23.512 35.9041 24.0882 36.2268 24.4105C36.6277 24.8108 37.4001 24.5276 37.4001 23.9808C37.4001 23.5218 36.8819 23.1702 36.4517 23.3362Z" fill="black"/>
<path d="M21.5894 31.345C21.1591 31.5208 21.0418 32.097 21.3645 32.4192C21.7654 32.8196 22.5378 32.5364 22.5378 31.9896C22.5378 31.5306 22.0196 31.179 21.5894 31.345Z" fill="black"/>
</svg>
