<svg width="40" height="40" viewBox="0 0 40 40" fill="none" xmlns="http://www.w3.org/2000/svg">
<path d="M17.217 27.6548H6.71582" stroke="#CF366B" stroke-width="1.5" stroke-linecap="round" stroke-linejoin="round"/>
<path d="M21.9009 11.5005H32.4021" stroke="#CF366B" stroke-width="1.5" stroke-linecap="round" stroke-linejoin="round"/>
<path fill-rule="evenodd" clip-rule="evenodd" d="M14.5439 11.4104C14.5439 9.251 12.7803 7.5 10.6053 7.5C8.43035 7.5 6.66675 9.251 6.66675 11.4104C6.66675 13.5698 8.43035 15.3208 10.6053 15.3208C12.7803 15.3208 14.5439 13.5698 14.5439 11.4104Z" stroke="#CF366B" stroke-width="1.5" stroke-linecap="round" stroke-linejoin="round"/>
<path fill-rule="evenodd" clip-rule="evenodd" d="M33.3334 27.5896C33.3334 25.4302 31.5712 23.6792 29.3962 23.6792C27.2199 23.6792 25.4563 25.4302 25.4563 27.5896C25.4563 29.749 27.2199 31.5 29.3962 31.5C31.5712 31.5 33.3334 29.749 33.3334 27.5896Z" stroke="#CF366B" stroke-width="1.5" stroke-linecap="round" stroke-linejoin="round"/>
</svg>
