<svg width="49" height="50" viewBox="0 0 49 50" fill="none" xmlns="http://www.w3.org/2000/svg">
<path d="M36.3867 0.0563679C33.5547 0.505587 30.8984 2.15598 29.3555 4.4216L28.877 5.12473L28.1348 5.18332C23.7305 5.55441 20.1855 7.8884 18.3301 11.6286C17.5 13.3083 17.1777 14.6462 17.1289 16.6091L17.0996 17.9763L15.1172 19.1579C13.7891 19.9587 13.0664 20.447 12.9199 20.6521C12.8027 20.8181 12.6367 21.2868 12.5391 21.6872C12.4414 22.0876 12.334 22.4587 12.3047 22.5173C12.2559 22.5954 11.9531 22.5954 11.2402 22.5173C10.3027 22.4196 10.2148 22.4196 9.81445 22.615C9.32617 22.8493 9.05274 23.3083 8.86719 24.2068L8.75 24.7829L8.25195 24.7243C6.74805 24.5583 6.60156 24.5583 6.25 24.7341C5.79102 24.9685 5.52734 25.4079 5.32227 26.238L5.14648 26.9314L4.74609 26.8728C3.4668 26.697 2.93945 26.697 2.46094 26.8532C1.875 27.0486 1.16211 27.6443 0.927734 28.1521C0.732422 28.5622 0 32.5857 0 33.24C0 33.7282 0.263672 34.2361 0.605469 34.4118C1.13281 34.6853 5.54688 36.0915 5.88867 36.0915C6.09375 36.0915 6.35742 36.0427 6.47461 35.9841C6.5918 35.9157 10.0586 33.8552 14.1797 31.3943C18.3008 28.9236 21.709 26.9118 21.7578 26.9118C21.7969 26.9118 21.9824 27.2634 22.1582 27.6833L22.4805 28.4548L21.1426 30.2321C20.4102 31.2087 19.7461 32.1657 19.668 32.3513C19.541 32.6443 19.541 32.8298 19.6387 33.6111C19.707 34.1189 19.7363 34.5486 19.707 34.5779C19.6777 34.6071 19.2676 34.7439 18.7891 34.8904C17.7148 35.2029 17.4414 35.3884 17.2266 35.945C17.0801 36.3357 17.0801 36.4724 17.1777 37.1267C17.2461 37.5368 17.2852 37.8884 17.2559 37.9079C17.2363 37.9275 16.8262 38.0642 16.3477 38.2009C15.332 38.4939 15.0977 38.6208 14.8438 39.0505C14.6387 39.3825 14.5996 39.9782 14.7363 40.8083L14.8145 41.2673L14.1211 41.4626C12.5684 41.9118 12.0801 42.2243 11.6797 43.0154C11.2598 43.8454 11.2695 44.0505 11.8555 46.6775C12.4316 49.2654 12.5391 49.529 13.1445 49.8122C13.4766 49.9685 13.6426 49.9685 15.9082 49.822C18.6523 49.6364 18.8867 49.6071 19.209 49.4021C19.3359 49.3239 21.9238 45.9157 24.9609 41.8337L30.498 34.4216L31.1914 34.4997C32.3438 34.6267 34.1602 34.5779 35.0586 34.3923C39.668 33.445 43.0762 30.1052 44.209 25.4275C44.3457 24.8708 44.3848 24.3239 44.375 22.9079C44.375 21.2868 44.3457 21.0036 44.1211 20.1736C43.9746 19.6657 43.8379 19.1775 43.8086 19.0896C43.7598 18.9919 43.877 18.8454 44.1895 18.6208C46.1621 17.2048 47.7246 14.5583 48.1445 11.9411C48.3398 10.7595 48.2227 8.71848 47.9102 7.62473C47.3828 5.83762 46.6113 4.48996 45.332 3.16184C43.3789 1.13059 41.0352 0.0856647 38.2324 0.00753975C37.5391 -0.0119915 36.6992 0.00753975 36.3867 0.0563679ZM39.1211 1.72629C42.6563 2.21457 45.6348 4.98801 46.4258 8.52316C46.6699 9.62668 46.6406 11.3454 46.3477 12.488C45.957 14.0212 45.2051 15.3689 44.1211 16.4626C43.4277 17.156 43.0469 17.4392 42.9981 17.2829C42.8613 16.863 41.7773 15.4665 40.9766 14.6657C40.0879 13.7771 39.9805 13.6306 39.7754 13.0154C39.2481 11.4529 38.3887 10.0466 37.2168 8.81613C35.752 7.27316 33.75 6.08176 31.7969 5.57395C31.2598 5.43723 30.8105 5.31027 30.791 5.30051C30.7227 5.23215 31.7773 4.06027 32.2656 3.66965C34.2676 2.04856 36.6406 1.37473 39.1211 1.72629ZM30.7324 7.02902C32.9102 7.48801 34.9805 8.70871 36.3574 10.3591C36.9238 11.0427 37.6563 12.1462 37.5781 12.2146C37.5586 12.2341 37.168 12.1267 36.7188 11.9704C35.2051 11.4529 34.5606 11.3454 32.8125 11.3552C31.6699 11.3552 30.9961 11.404 30.4883 11.5114C25.7617 12.5857 22.3242 16.0427 21.3867 20.6618C21.1621 21.7556 21.1035 23.7966 21.2695 24.6853L21.3574 25.1443L13.6035 29.7927L5.84961 34.4411L3.75 33.7478C1.79688 33.0935 1.65039 33.0251 1.69922 32.8298C1.72852 32.7224 1.88477 31.8142 2.05078 30.8181C2.2168 29.822 2.42188 28.9138 2.5 28.7868C2.74414 28.4157 3.03711 28.3669 4.24805 28.4841C4.85352 28.5525 5.50781 28.572 5.69336 28.5329C6.12305 28.4548 6.5918 27.9372 6.73828 27.4001C6.78711 27.1853 6.875 26.8435 6.93359 26.6384L7.02149 26.2771L8.03711 26.365C9.25781 26.4724 9.51172 26.4138 9.92188 25.9743C10.166 25.7204 10.2832 25.4665 10.4004 24.9001L10.5664 24.1677L11.7188 24.2361C12.7832 24.2946 12.9004 24.2849 13.2031 24.0993C13.6426 23.8259 13.7598 23.5915 14.0234 22.5759C14.1406 22.0974 14.3066 21.6579 14.375 21.5896C14.4434 21.5212 15.4297 20.9157 16.5723 20.2321C17.7148 19.5486 18.6816 18.9431 18.7207 18.8747C18.7598 18.8064 18.7988 18.0056 18.8086 17.0974C18.8184 14.9099 19.0625 13.8357 19.9121 12.195C21.4258 9.31418 24.2383 7.35129 27.4902 6.90207C28.3398 6.78488 29.8438 6.84348 30.7324 7.02902ZM35.3027 13.279C37.1484 13.7575 39.1113 14.9587 40.3027 16.3357C40.791 16.8923 41.6016 18.0837 41.6016 18.2302C41.6016 18.3864 39.9512 18.904 39.0039 19.0407L38.6035 19.0993L38.4863 18.6794C37.7246 16.1111 34.2481 15.4861 32.666 17.6345C32.1484 18.3376 32.002 18.865 32.0508 19.8122C32.1191 21.0525 32.7344 22.0095 33.8379 22.5954C34.2773 22.8298 34.4336 22.8591 35.3027 22.8591C36.1719 22.8591 36.3379 22.8298 36.7676 22.5954C37.3242 22.3122 38.0762 21.5505 38.2617 21.1013C38.3789 20.8083 38.418 20.7986 39.4141 20.6325C39.9707 20.5446 40.8203 20.3396 41.2891 20.1736C41.7578 20.0075 42.1777 19.8611 42.2266 19.8513C42.2754 19.8415 42.4023 20.1345 42.5098 20.5154C42.666 21.072 42.7051 21.5212 42.7148 22.9079C42.7246 24.4118 42.6953 24.7146 42.5 25.447C41.5234 29.0212 38.8379 31.697 35.2832 32.6443C34.4629 32.8591 34.1211 32.8982 32.8613 32.8982C31.8359 32.9079 31.2109 32.8591 30.7715 32.7517C30.0781 32.5759 29.8535 32.6247 29.5215 32.9763C29.4141 33.1032 26.8457 36.531 23.8281 40.5837C20.8008 44.6364 18.3301 47.9665 18.3203 47.9665C18.2715 48.0251 14.0039 48.2595 13.9551 48.2107C13.916 48.1814 13.6914 47.2536 13.4473 46.1599C12.8418 43.4743 12.793 43.6013 14.7168 43.0251C16.3184 42.5466 16.6309 42.1267 16.416 40.7204C16.3574 40.3103 16.3184 39.9587 16.3281 39.9489C16.3477 39.9392 16.709 39.8318 17.1387 39.7146C18.2324 39.4021 18.5254 39.2458 18.7598 38.8552C18.9551 38.5427 18.9648 38.4353 18.9063 37.5661L18.8379 36.6091L19.7949 36.3259C20.8594 36.0134 21.3281 35.6521 21.4355 35.0857C21.4746 34.9001 21.4355 34.3435 21.3672 33.8357L21.2305 32.9177L22.7734 30.8279C23.7598 29.4997 24.3164 28.6696 24.3164 28.5134C24.3164 28.3864 24.1211 27.8982 23.8867 27.4294C23.0566 25.779 22.8027 24.5388 22.8711 22.5075C22.9199 21.365 22.9785 20.9353 23.1836 20.2224C24.3164 16.4333 27.4805 13.6404 31.2988 13.0446C32.334 12.8884 34.209 12.9958 35.3027 13.279ZM35.7715 18.0349C36.1328 18.1325 36.8164 18.7087 36.8164 18.9236C36.8164 19.0798 36.0352 18.9529 35.1367 18.6501C34.7168 18.5134 34.375 18.3571 34.375 18.3083C34.375 18.1911 34.9414 17.9372 35.2051 17.9275C35.3125 17.9275 35.5664 17.9763 35.7715 18.0349ZM35.3516 20.4568C35.8008 20.5642 36.2598 20.6618 36.3574 20.6618C36.5234 20.6618 36.5234 20.6814 36.416 20.8181C36.0254 21.2868 35.0195 21.404 34.4629 21.0232C34.1211 20.7888 33.6914 20.2321 33.6914 20.0173C33.6914 19.9196 33.7891 19.9294 34.1113 20.0661C34.3457 20.1638 34.9023 20.3396 35.3516 20.4568Z" fill="black"/>
<path d="M11.914 26.9214C8.23241 29.1284 5.12694 31.0229 5.00975 31.1401C4.51171 31.5894 4.89256 32.478 5.57616 32.478C5.8203 32.478 7.49022 31.521 12.6367 28.4351C16.3476 26.2183 19.4629 24.314 19.5605 24.2065C19.7851 23.9526 19.7754 23.4839 19.5215 23.1616C19.082 22.605 19.1894 22.5562 11.914 26.9214Z" fill="black"/>
<path d="M27.1776 30.5446C27.0701 30.6715 24.5701 34.0016 21.6209 37.9469C17.6854 43.2203 16.2596 45.2125 16.2303 45.4371C16.201 45.6911 16.2498 45.818 16.4842 46.0524C16.8553 46.4235 17.1971 46.4332 17.5682 46.0719C17.7342 45.9254 20.2635 42.5758 23.2127 38.6305C28.0955 32.068 28.5545 31.4235 28.5545 31.0719C28.5643 30.7985 28.4959 30.652 28.3299 30.5153C28.0076 30.2516 27.4315 30.2711 27.1776 30.5446Z" fill="black"/>
</svg>
