<svg width="331" height="62" viewBox="0 0 331 62" fill="none" xmlns="http://www.w3.org/2000/svg">
<path d="M4.31704 42.0459C4.28642 41.7398 4.28642 41.4336 4.31704 41.1274C5.35802 41.0356 6.10815 40.9437 6.56741 40.8519C7.02667 40.7294 7.30222 40.4998 7.39407 40.163C7.51654 39.8262 7.57778 39.2598 7.57778 38.4637V13.8015C7.57778 12.883 7.51654 12.2247 7.39407 11.8267C7.2716 11.4286 6.98074 11.1684 6.52148 11.0459C6.09284 10.8928 5.35802 10.7857 4.31704 10.7244C4.28642 10.4183 4.28642 10.1121 4.31704 9.80593C5.02123 9.80593 5.89383 9.82124 6.93481 9.85185C7.9758 9.88247 8.80247 9.89778 9.41481 9.89778C9.81284 9.89778 10.3333 9.89778 10.9763 9.89778C11.6193 9.86716 12.2622 9.85185 12.9052 9.85185C13.5788 9.82124 14.1299 9.80593 14.5585 9.80593C14.5891 10.1121 14.5891 10.4183 14.5585 10.7244C13.4869 10.8163 12.7215 10.9081 12.2622 11C11.803 11.0919 11.5121 11.3062 11.3896 11.643C11.2978 11.9798 11.2519 12.5615 11.2519 13.3881V37.8667C11.2519 38.6321 11.2519 39.2444 11.2519 39.7037C11.2519 40.1323 11.2672 40.4232 11.2978 40.5763H18.003C19.0746 40.5763 19.9472 40.4998 20.6207 40.3467C21.2943 40.1936 21.8301 39.8874 22.2281 39.4281C22.5649 39.0607 22.917 38.5249 23.2844 37.8207C23.6825 37.0859 24.0346 36.198 24.3407 35.157C24.6163 35.1264 24.8919 35.1264 25.1674 35.157C24.9225 36.5348 24.6928 37.836 24.4785 39.0607C24.2948 40.2854 24.1417 41.2652 24.0193 42C22.5802 42 21.0035 42 19.2889 42C17.6049 41.9694 15.9057 41.9541 14.1911 41.9541C12.5072 41.9541 10.9457 41.9541 9.50667 41.9541C9.07802 41.9541 8.54222 41.9694 7.89926 42C7.2563 42 6.61333 42 5.97037 42C5.32741 42.0306 4.7763 42.0459 4.31704 42.0459ZM61.6086 25.6963C61.6086 29.003 60.9197 31.9269 59.5419 34.4681C58.1641 36.9788 56.2199 38.9536 53.7093 40.3926C51.1987 41.8316 48.2288 42.5511 44.7997 42.5511C41.4011 42.5511 38.4772 41.8469 36.0278 40.4385C33.5784 39.0301 31.6955 37.1012 30.3789 34.6519C29.0624 32.1719 28.4041 29.3551 28.4041 26.2015C28.4041 22.9561 29.093 20.0627 30.4708 17.5215C31.8486 14.9802 33.7927 12.9901 36.3034 11.5511C38.8446 10.0815 41.8298 9.34667 45.2589 9.34667C48.6268 9.34667 51.5202 10.0509 53.9389 11.4593C56.3883 12.837 58.2713 14.7659 59.5878 17.2459C60.935 19.6953 61.6086 22.5121 61.6086 25.6963ZM57.5211 26.1556C57.5211 24.2267 57.2915 22.3437 56.8323 20.5067C56.373 18.6696 55.6535 17.0163 54.6737 15.5467C53.694 14.077 52.4081 12.9136 50.816 12.0563C49.2239 11.1684 47.295 10.7244 45.0293 10.7244C42.7636 10.7244 40.8347 11.1684 39.2426 12.0563C37.6505 12.9136 36.3646 14.077 35.3848 15.5467C34.4051 17.0163 33.6856 18.6543 33.2263 20.4607C32.7671 22.2365 32.5374 24.043 32.5374 25.88C32.5374 27.717 32.7671 29.5388 33.2263 31.3452C33.6856 33.1516 34.4204 34.8049 35.4308 36.3052C36.4411 37.8054 37.7577 38.9995 39.3804 39.8874C41.0031 40.7753 42.9626 41.2193 45.2589 41.2193C47.5246 41.2193 49.4382 40.7906 50.9997 39.9333C52.5918 39.076 53.8624 37.9432 54.8115 36.5348C55.7606 35.0958 56.4495 33.4731 56.8782 31.6667C57.3068 29.8602 57.5211 28.0232 57.5211 26.1556ZM68.0385 41.8622C68.0079 40.8825 67.9773 39.8109 67.9467 38.6474C67.9467 37.4533 67.9008 36.2133 67.8089 34.9274C67.962 34.8968 68.0998 34.8815 68.2222 34.8815C68.3753 34.8815 68.5284 34.8815 68.6815 34.8815C69.0183 36.9635 69.8756 38.5556 71.2534 39.6578C72.6617 40.7294 74.2692 41.2652 76.0756 41.2652C77.9738 41.2652 79.4282 40.7141 80.4385 39.6119C81.4489 38.5096 81.9541 37.0859 81.9541 35.3407C81.9541 33.963 81.6632 32.7995 81.0815 31.8504C80.4998 30.8706 79.6884 29.998 78.6474 29.2326C77.6371 28.4365 76.4889 27.6405 75.203 26.8444C74.0089 26.079 72.8455 25.283 71.7126 24.4563C70.6104 23.599 69.7072 22.6193 69.003 21.517C68.2988 20.4148 67.9467 19.083 67.9467 17.5215C67.9467 15.8988 68.3447 14.4751 69.1408 13.2504C69.9674 12.0257 71.085 11.0765 72.4934 10.403C73.9324 9.69877 75.5551 9.34667 77.3615 9.34667C77.9126 9.34667 78.4025 9.37728 78.8311 9.43852C79.2904 9.49975 79.8109 9.56099 80.3926 9.62222C80.9743 9.68346 81.4489 9.72938 81.8163 9.76C82.1837 9.79062 82.5205 9.80593 82.8267 9.80593C82.8879 9.80593 82.9951 9.80593 83.1482 9.80593C83.3013 9.80593 83.485 9.79062 83.6993 9.76L84.0667 16.2815C83.883 16.3121 83.7146 16.3427 83.5615 16.3733C83.439 16.3733 83.3013 16.3733 83.1482 16.3733C82.9951 15.3936 82.7195 14.521 82.3215 13.7556C81.9541 12.9901 81.5255 12.3931 81.0356 11.9644C80.5151 11.5052 79.8721 11.1684 79.1067 10.9541C78.3413 10.7398 77.5911 10.6326 76.8563 10.6326C75.2642 10.6326 73.9324 11.1072 72.8608 12.0563C71.8198 12.9748 71.2993 14.2914 71.2993 16.0059C71.2993 17.2612 71.5901 18.3481 72.1719 19.2667C72.7536 20.1546 73.5343 20.9812 74.5141 21.7467C75.4938 22.4815 76.5961 23.2469 77.8208 24.043C79.0148 24.8084 80.1783 25.6504 81.3111 26.5689C82.444 27.4568 83.3625 28.4978 84.0667 29.6919C84.8015 30.8553 85.1689 32.279 85.1689 33.963C85.1689 35.4632 84.8321 36.8716 84.1585 38.1881C83.485 39.4741 82.4593 40.5304 81.0815 41.357C79.7037 42.1531 77.9585 42.5511 75.8459 42.5511C75.3867 42.5511 74.8662 42.5205 74.2845 42.4593C73.7334 42.398 72.9067 42.3062 71.8045 42.1837C70.8859 42.0612 70.1511 41.9847 69.6 41.9541C69.0795 41.8928 68.559 41.8622 68.0385 41.8622ZM96.9622 42.0459C96.9316 41.7398 96.9316 41.4336 96.9622 41.1274C98.0644 41.0356 98.8451 40.9437 99.3044 40.8519C99.7943 40.76 100.085 40.5457 100.177 40.2089C100.299 39.8415 100.361 39.2598 100.361 38.4637V11.2296H94.5281C93.3034 11.2296 92.3849 11.3674 91.7726 11.643C91.1602 11.9185 90.6856 12.4084 90.3488 13.1126C90.0121 13.7862 89.66 14.7812 89.2926 16.0978C89.017 16.1284 88.7261 16.1284 88.42 16.0978C88.573 15.0262 88.7108 13.9393 88.8333 12.837C88.9558 11.7042 89.0629 10.6785 89.1548 9.76C90.5938 9.82124 92.3237 9.86716 94.3444 9.89778C96.3651 9.89778 98.9982 9.89778 102.244 9.89778C105.55 9.89778 108.199 9.89778 110.189 9.89778C112.179 9.86716 113.894 9.82124 115.333 9.76C115.394 10.6479 115.486 11.6583 115.608 12.7911C115.731 13.924 115.853 15.0262 115.976 16.0978C115.639 16.1284 115.333 16.1284 115.057 16.0978C114.659 14.7812 114.292 13.7709 113.955 13.0667C113.618 12.3625 113.143 11.8879 112.531 11.643C111.949 11.3674 111.046 11.2296 109.821 11.2296H104.035V38.0504C104.035 38.9689 104.081 39.6425 104.173 40.0711C104.295 40.4691 104.586 40.7294 105.045 40.8519C105.535 40.9437 106.331 41.0356 107.433 41.1274C107.464 41.4336 107.464 41.7398 107.433 42.0459C106.974 42.0459 106.408 42.0306 105.734 42C105.091 42 104.448 42 103.805 42C103.162 41.9694 102.626 41.9541 102.198 41.9541C101.555 41.9541 100.697 41.9694 99.6259 42C98.5543 42.0306 97.6664 42.0459 96.9622 42.0459ZM143.399 42.2296C142.572 42.2296 141.868 42.1072 141.286 41.8622C140.704 41.5867 140.153 41.1733 139.633 40.6222C139.143 40.0711 138.546 39.3363 137.842 38.4178C137.627 38.1422 137.413 37.8667 137.199 37.5911C135.79 39.2751 134.336 40.5304 132.836 41.357C131.335 42.1531 129.667 42.5511 127.83 42.5511C125.993 42.5511 124.324 42.1837 122.824 41.4489C121.354 40.6835 120.191 39.6578 119.333 38.3719C118.476 37.0553 118.048 35.5551 118.048 33.8711C118.048 32.2484 118.43 30.8094 119.196 29.5541C119.961 28.2988 120.926 27.2272 122.089 26.3393C123.253 25.4514 124.416 24.7165 125.579 24.1348C124.569 22.9714 123.742 21.8232 123.099 20.6904C122.456 19.5575 122.135 18.2869 122.135 16.8785C122.135 15.3477 122.518 14.0311 123.283 12.9289C124.049 11.7961 125.044 10.9235 126.268 10.3111C127.493 9.66815 128.794 9.34667 130.172 9.34667C131.305 9.34667 132.392 9.5763 133.433 10.0356C134.474 10.4948 135.331 11.199 136.005 12.1481C136.678 13.0667 137.015 14.2454 137.015 15.6844C137.015 17.3378 136.449 18.7921 135.316 20.0474C134.213 21.3027 132.3 22.5121 129.575 23.6756C129.636 23.7368 129.697 23.798 129.759 23.8593C131.075 25.2064 132.193 26.4005 133.111 27.4415C134.06 28.4825 134.948 29.4928 135.775 30.4726C136.602 31.4523 137.474 32.5393 138.393 33.7333C139.556 32.0494 140.49 30.5644 141.194 29.2785C141.898 27.962 142.251 26.9669 142.251 26.2933C142.251 25.7116 142.006 25.3595 141.516 25.237C141.056 25.084 140.352 25.0074 139.403 25.0074C139.373 24.7012 139.373 24.3951 139.403 24.0889C139.985 24.0889 140.643 24.1042 141.378 24.1348C142.143 24.1348 142.924 24.1348 143.72 24.1348C144.516 24.1348 145.22 24.1348 145.833 24.1348C146.476 24.1042 147.057 24.0889 147.578 24.0889C147.609 24.3644 147.609 24.6553 147.578 24.9615C146.904 24.9921 146.353 25.0533 145.925 25.1452C145.496 25.237 145.129 25.436 144.822 25.7422C144.761 25.8035 144.669 25.9259 144.547 26.1096C144.424 26.2627 144.225 26.5689 143.95 27.0281C143.705 27.4568 143.307 28.161 142.756 29.1407C142.694 29.2632 142.342 29.8909 141.699 31.0237C141.056 32.1565 140.245 33.4272 139.265 34.8356C139.51 35.1417 139.786 35.4938 140.092 35.8919C141.041 37.0859 141.807 38.0351 142.388 38.7393C142.97 39.4128 143.491 39.8874 143.95 40.163C144.44 40.4385 144.991 40.5763 145.603 40.5763C145.971 40.5763 146.384 40.5151 146.843 40.3926C147.333 40.2701 147.869 40.0252 148.451 39.6578C148.604 39.8721 148.711 40.117 148.772 40.3926C147.149 41.6173 145.358 42.2296 143.399 42.2296ZM136.418 36.5807C135.53 35.4173 134.719 34.3916 133.984 33.5037C133.249 32.5852 132.514 31.7126 131.779 30.8859C131.045 30.0286 130.249 29.1407 129.391 28.2222C128.565 27.3037 127.585 26.2474 126.452 25.0533C126.452 25.0533 126.437 25.038 126.406 25.0074C125.12 25.7116 123.987 26.6607 123.008 27.8548C122.058 29.0489 121.584 30.6104 121.584 32.5393C121.584 34.7743 122.273 36.6267 123.651 38.0963C125.059 39.5353 126.942 40.2548 129.299 40.2548C130.83 40.2548 132.132 39.9333 133.203 39.2904C134.305 38.6474 135.377 37.7442 136.418 36.5807ZM128.748 22.803C130.647 22.0069 132.009 21.0578 132.836 19.9556C133.662 18.8227 134.076 17.4143 134.076 15.7304C134.076 14.0464 133.693 12.7758 132.928 11.9185C132.193 11.0306 131.228 10.5867 130.034 10.5867C128.718 10.5867 127.615 11.0765 126.728 12.0563C125.84 13.0361 125.396 14.3679 125.396 16.0519C125.396 17.4296 125.702 18.639 126.314 19.68C126.957 20.6904 127.769 21.7314 128.748 22.803ZM152.991 42.0459C152.96 41.7398 152.96 41.4336 152.991 41.1274C154.063 41.0356 154.828 40.9437 155.287 40.8519C155.777 40.76 156.068 40.5457 156.16 40.2089C156.282 39.8415 156.344 39.2598 156.344 38.4637V13.8015C156.344 12.883 156.282 12.2247 156.16 11.8267C156.038 11.4286 155.747 11.1684 155.287 11.0459C154.859 10.8928 154.124 10.7857 153.083 10.7244C153.052 10.4183 153.052 10.1121 153.083 9.80593C153.818 9.80593 154.399 9.82124 154.828 9.85185C155.287 9.85185 155.854 9.86716 156.527 9.89778C157.201 9.89778 158.211 9.89778 159.558 9.89778C160.814 9.89778 162.192 9.89778 163.692 9.89778C165.192 9.86716 166.616 9.85185 167.963 9.85185C169.341 9.85185 170.474 9.85185 171.361 9.85185C172.249 9.82124 172.709 9.80593 172.739 9.80593C172.862 10.6632 172.984 11.5511 173.107 12.4696C173.229 13.3881 173.382 14.3526 173.566 15.363C173.229 15.3936 172.923 15.3936 172.647 15.363C172.341 14.5057 172.05 13.8474 171.775 13.3881C171.499 12.9289 171.178 12.5462 170.81 12.24C170.045 11.597 168.774 11.2756 166.998 11.2756H160.018V25.1452H165.299C166.371 25.1452 167.167 25.084 167.687 24.9615C168.208 24.839 168.575 24.5328 168.79 24.043C169.004 23.5225 169.188 22.6958 169.341 21.563C169.678 21.5323 169.999 21.5323 170.305 21.563C170.305 21.7773 170.29 22.3131 170.259 23.1704C170.229 23.997 170.213 24.9309 170.213 25.9719C170.213 26.921 170.229 27.8548 170.259 28.7733C170.29 29.6612 170.305 30.243 170.305 30.5185C170.03 30.5491 169.708 30.5491 169.341 30.5185C169.218 29.2326 169.05 28.3294 168.836 27.8089C168.621 27.2578 168.269 26.921 167.779 26.7985C167.289 26.676 166.555 26.6148 165.575 26.6148H160.018V38.0504C160.018 38.724 160.033 39.2598 160.064 39.6578C160.125 40.0252 160.263 40.316 160.477 40.5304C160.691 40.7447 161.028 40.8825 161.487 40.9437C161.947 41.0049 162.651 41.0662 163.6 41.1274C163.631 41.4336 163.631 41.7398 163.6 42.0459C163.141 42.0459 162.559 42.0306 161.855 42C161.181 42 160.492 42 159.788 42C159.115 41.9694 158.563 41.9541 158.135 41.9541C157.461 41.9541 156.604 41.9694 155.563 42C154.553 42.0306 153.695 42.0459 152.991 42.0459ZM211.675 25.6963C211.675 29.003 210.986 31.9269 209.608 34.4681C208.231 36.9788 206.286 38.9536 203.776 40.3926C201.265 41.8316 198.295 42.5511 194.866 42.5511C191.468 42.5511 188.544 41.8469 186.094 40.4385C183.645 39.0301 181.762 37.1012 180.445 34.6519C179.129 32.1719 178.471 29.3551 178.471 26.2015C178.471 22.9561 179.16 20.0627 180.537 17.5215C181.915 14.9802 183.859 12.9901 186.37 11.5511C188.911 10.0815 191.896 9.34667 195.325 9.34667C198.693 9.34667 201.587 10.0509 204.005 11.4593C206.455 12.837 208.338 14.7659 209.654 17.2459C211.002 19.6953 211.675 22.5121 211.675 25.6963ZM207.588 26.1556C207.588 24.2267 207.358 22.3437 206.899 20.5067C206.44 18.6696 205.72 17.0163 204.74 15.5467C203.761 14.077 202.475 12.9136 200.882 12.0563C199.29 11.1684 197.362 10.7244 195.096 10.7244C192.83 10.7244 190.901 11.1684 189.309 12.0563C187.717 12.9136 186.431 14.077 185.451 15.5467C184.472 17.0163 183.752 18.6543 183.293 20.4607C182.834 22.2365 182.604 24.043 182.604 25.88C182.604 27.717 182.834 29.5388 183.293 31.3452C183.752 33.1516 184.487 34.8049 185.497 36.3052C186.508 37.8054 187.824 38.9995 189.447 39.8874C191.07 40.7753 193.029 41.2193 195.325 41.2193C197.591 41.2193 199.505 40.7906 201.066 39.9333C202.658 39.076 203.929 37.9432 204.878 36.5348C205.827 35.0958 206.516 33.4731 206.945 31.6667C207.373 29.8602 207.588 28.0232 207.588 26.1556ZM217.324 9.80593C217.998 9.80593 218.855 9.82124 219.896 9.85185C220.937 9.88247 221.779 9.89778 222.422 9.89778C223.065 9.89778 223.907 9.88247 224.948 9.85185C226.02 9.82124 226.892 9.80593 227.566 9.80593C227.596 10.0815 227.596 10.3723 227.566 10.6785C226.555 10.7704 225.821 10.8775 225.361 11C224.902 11.0919 224.611 11.3062 224.489 11.643C224.366 11.9798 224.305 12.5462 224.305 13.3422V29.8296C224.305 33.4119 225.086 36.1368 226.647 38.0044C228.239 39.8415 230.551 40.76 233.582 40.76C236.766 40.76 239.154 39.7496 240.747 37.7289C242.369 35.7081 243.181 32.7536 243.181 28.8652V14.123C243.181 13.082 243.119 12.3472 242.997 11.9185C242.874 11.4899 242.568 11.2143 242.078 11.0919C241.589 10.9388 240.777 10.8163 239.644 10.7244C239.614 10.4183 239.614 10.1274 239.644 9.85185C240.257 9.85185 240.991 9.86716 241.849 9.89778C242.737 9.89778 243.441 9.89778 243.961 9.89778C244.512 9.89778 245.201 9.89778 246.028 9.89778C246.855 9.86716 247.574 9.85185 248.187 9.85185C248.217 10.1274 248.217 10.4183 248.187 10.7244C247.146 10.8163 246.395 10.9235 245.936 11.0459C245.477 11.1684 245.186 11.4133 245.064 11.7807C244.941 12.1481 244.88 12.7911 244.88 13.7096V29.5541C244.88 33.5037 243.885 36.6573 241.895 39.0148C239.905 41.3723 236.828 42.5511 232.664 42.5511C229.02 42.5511 226.096 41.556 223.892 39.5659C221.718 37.5758 220.631 34.6672 220.631 30.84V13.7556C220.631 12.837 220.57 12.1788 220.447 11.7807C220.355 11.3827 220.08 11.1225 219.621 11C219.161 10.8775 218.396 10.7704 217.324 10.6785C217.294 10.403 217.294 10.1121 217.324 9.80593ZM281.7 42.2296L259.885 13.9852V37.2237C259.885 38.081 259.901 38.7393 259.931 39.1985C259.993 39.6272 260.13 39.964 260.345 40.2089C260.59 40.4232 260.942 40.6222 261.401 40.8059C261.86 40.959 262.519 41.0662 263.376 41.1274C263.406 41.4336 263.406 41.7398 263.376 42.0459C262.702 42.0459 261.952 42.0306 261.125 42C260.329 41.9694 259.656 41.9541 259.105 41.9541C258.554 41.9541 257.865 41.9694 257.038 42C256.242 42.0306 255.523 42.0459 254.88 42.0459C254.849 41.7398 254.849 41.4336 254.88 41.1274C255.951 41.0049 256.717 40.8672 257.176 40.7141C257.635 40.561 257.911 40.2701 258.003 39.8415C258.125 39.3822 258.186 38.6474 258.186 37.637V14.8119C258.186 13.6178 258.125 12.7605 258.003 12.24C257.88 11.6889 257.559 11.3215 257.038 11.1378C256.548 10.9541 255.737 10.801 254.604 10.6785C254.573 10.403 254.573 10.1121 254.604 9.80593C255.308 9.80593 256.043 9.82124 256.808 9.85185C257.604 9.88247 258.385 9.89778 259.151 9.89778C259.243 9.89778 259.533 9.89778 260.023 9.89778C260.544 9.89778 261.003 9.88247 261.401 9.85185L281.884 36.443V14.6741C281.884 13.8474 281.869 13.2044 281.838 12.7452C281.807 12.2553 281.67 11.9032 281.425 11.6889C280.965 11.1684 279.833 10.8469 278.026 10.7244C277.996 10.4183 277.996 10.1274 278.026 9.85185C278.669 9.85185 279.465 9.86716 280.414 9.89778C281.363 9.89778 282.114 9.89778 282.665 9.89778C283.216 9.89778 283.889 9.89778 284.685 9.89778C285.512 9.86716 286.262 9.85185 286.936 9.85185C286.966 10.1274 286.966 10.4183 286.936 10.7244C285.864 10.8469 285.083 11 284.594 11.1837C284.134 11.3368 283.843 11.643 283.721 12.1022C283.629 12.5309 283.583 13.2504 283.583 14.2607V42.0459C283.369 42.1072 283.063 42.1531 282.665 42.1837C282.297 42.2143 281.976 42.2296 281.7 42.2296ZM299.687 9.89778C300.269 9.89778 300.958 9.89778 301.754 9.89778C302.581 9.86716 303.407 9.85185 304.234 9.85185C305.061 9.82124 305.75 9.80593 306.301 9.80593C312.639 9.80593 317.507 11.1684 320.905 13.8933C324.334 16.6183 326.049 20.5985 326.049 25.8341C326.049 28.6815 325.559 31.1462 324.579 33.2281C323.6 35.2795 322.237 36.9788 320.492 38.3259C318.747 39.6425 316.695 40.6222 314.338 41.2652C312.011 41.8775 309.485 42.1837 306.76 42.1837C305.597 42.1837 304.326 42.1378 302.948 42.0459C301.601 41.9847 300.468 41.9541 299.55 41.9541C299.152 41.9541 298.616 41.9694 297.942 42C297.299 42 296.641 42 295.967 42C295.324 42.0306 294.773 42.0459 294.314 42.0459C294.283 41.7398 294.283 41.4336 294.314 41.1274C295.355 41.0356 296.105 40.9437 296.564 40.8519C297.024 40.76 297.299 40.5457 297.391 40.2089C297.514 39.8415 297.575 39.2598 297.575 38.4637V13.8015C297.575 12.883 297.498 12.2247 297.345 11.8267C297.223 11.4286 296.932 11.1684 296.473 11.0459C296.013 10.8928 295.263 10.7857 294.222 10.7244C294.192 10.4183 294.192 10.1121 294.222 9.80593C294.988 9.80593 295.876 9.82124 296.886 9.85185C297.896 9.88247 298.83 9.89778 299.687 9.89778ZM301.249 11.3674V40.2548C302.229 40.4385 303.208 40.5763 304.188 40.6681C305.199 40.76 306.163 40.8059 307.082 40.8059C312.072 40.8059 315.823 39.5353 318.333 36.9941C320.844 34.4528 322.099 30.9625 322.099 26.523C322.099 21.7773 320.691 18.042 317.874 15.317C315.057 12.5615 310.955 11.1837 305.566 11.1837C304.739 11.1837 303.897 11.2143 303.04 11.2756C302.213 11.3062 301.616 11.3368 301.249 11.3674Z" fill="url(#paint0_linear_169_276)"/>
<path d="M50.9909 17.6894L48.6486 29.4454L42.5643 26.2147L50.9909 17.6894Z" fill="url(#paint1_linear_169_276)"/>
<path d="M40.268 37.8889L48.6947 29.3636L42.6103 26.1329L40.268 37.8889Z" fill="url(#paint2_linear_169_276)"/>
<rect x="202.074" y="44.4346" width="5.04321" height="17.8785" rx="2.52161" transform="rotate(-37.9493 202.074 44.4346)" fill="#C1D3DF"/>
<defs>
<linearGradient id="paint0_linear_169_276" x1="164.5" y1="0" x2="164.5" y2="61" gradientUnits="userSpaceOnUse">
<stop stop-color="#FFDDE9"/>
<stop offset="1" stop-color="#80AFD0"/>
</linearGradient>
<linearGradient id="paint1_linear_169_276" x1="50.9915" y1="17.6894" x2="45.607" y2="27.83" gradientUnits="userSpaceOnUse">
<stop stop-color="#16476A"/>
<stop offset="1" stop-color="#60A2D2"/>
</linearGradient>
<linearGradient id="paint2_linear_169_276" x1="46.3984" y1="26.07" x2="41.0139" y2="36.2106" gradientUnits="userSpaceOnUse">
<stop stop-color="#FF9DBE"/>
<stop offset="1" stop-color="#CF366B"/>
</linearGradient>
</defs>
</svg>
