<svg width="31" height="31" viewBox="0 0 31 31" fill="none" xmlns="http://www.w3.org/2000/svg">
<g clip-path="url(#clip0_447_735)">
<path d="M19.3189 1.2022C19.5542 1.38839 19.7778 1.58599 19.9994 1.78833C20.0411 1.82572 20.0827 1.8631 20.1257 1.90162C21.2351 2.94832 21.8915 4.54589 21.9539 6.05594C21.9916 7.60666 21.6197 9.0655 20.9076 10.4465C20.9689 10.4116 21.0303 10.3766 21.0935 10.3406C21.1753 10.2951 21.2571 10.2497 21.339 10.2043C21.3793 10.1812 21.4195 10.1581 21.461 10.1343C21.5207 10.1016 21.5207 10.1016 21.5817 10.0681C21.6178 10.0478 21.6539 10.0275 21.6912 10.0066C21.9171 9.92603 22.1095 9.93488 22.3316 10.0219C22.3817 10.0499 22.4318 10.0779 22.4835 10.1067C22.5407 10.1381 22.5979 10.1696 22.6568 10.202C22.7177 10.2365 22.7786 10.271 22.8413 10.3065C22.9055 10.3421 22.9697 10.3777 23.0359 10.4144C23.2351 10.5252 23.4337 10.6371 23.6322 10.7493C23.7481 10.8145 23.864 10.8797 23.9799 10.9449C24.208 11.0735 24.4359 11.2027 24.6636 11.332C25.0502 11.5513 25.4385 11.7673 25.827 11.9829C25.8944 12.0204 25.9618 12.0579 26.0312 12.0965C26.354 12.2758 26.677 12.4544 27.0013 12.6309C27.1516 12.7128 27.3017 12.795 27.4518 12.8773C27.5575 12.9351 27.6635 12.9922 27.7696 13.0494C28.5408 13.4727 28.5408 13.4727 28.6475 13.8196C28.695 14.024 28.7325 14.2282 28.7673 14.4351C28.7804 14.5052 28.7935 14.5754 28.807 14.6477C28.9301 15.3317 28.9301 15.3317 28.8998 15.6536C28.7517 15.8583 28.6641 15.9423 28.4154 15.9941C28.1616 15.9413 28.0908 15.8588 27.931 15.6536C27.8603 15.4325 27.8253 15.2091 27.791 14.98C27.7757 14.889 27.7757 14.889 27.7602 14.7962C27.6888 14.3625 27.6888 14.3625 27.6888 14.1399C27.6339 14.1224 27.579 14.1049 27.5223 14.0869C27.3256 14.0188 27.3256 14.0188 27.2154 13.95C27.0272 13.8755 26.9072 13.9164 26.7113 13.9618C26.5986 13.9872 26.5986 13.9872 26.4836 14.0132C26.4019 14.0326 26.3202 14.0519 26.2386 14.0713C26.1548 14.0906 26.0709 14.1097 25.9871 14.1288C25.7668 14.1793 25.5466 14.2307 25.3266 14.2823C25.1019 14.3349 24.8769 14.3865 24.652 14.4381C24.211 14.5396 23.7701 14.6422 23.3295 14.7454C23.4569 14.9633 23.5884 15.1433 23.7609 15.3281C23.9562 15.5412 24.1434 15.7577 24.3247 15.9828C24.5109 16.2131 24.7031 16.4347 24.9037 16.6526C25.1528 16.9232 25.3863 17.203 25.6172 17.4891C25.7487 17.6484 25.8847 17.8017 26.0238 17.9543C26.2112 18.16 26.3902 18.3698 26.5649 18.5863C26.7987 18.8754 27.0455 19.1492 27.2972 19.4226C27.4433 19.5853 27.5818 19.752 27.7191 19.9221C27.956 20.2157 28.206 20.4945 28.4613 20.7721C28.6131 20.9388 28.7578 21.1093 28.8998 21.2844C28.8636 20.8434 28.7966 20.4135 28.7141 19.9789C28.6895 19.8457 28.6648 19.7124 28.6402 19.5792C28.6016 19.3719 28.5629 19.1646 28.5238 18.9575C28.4859 18.7556 28.4486 18.5537 28.4114 18.3517C28.3997 18.2905 28.3879 18.2293 28.3758 18.1662C28.2 17.2045 28.2 17.2045 28.3889 16.8872C28.5947 16.7711 28.7278 16.7707 28.9603 16.804C29.1731 16.9438 29.2255 17.094 29.2797 17.3322C29.3029 17.4533 29.3251 17.5746 29.3465 17.696C29.359 17.7626 29.3715 17.8292 29.3843 17.8979C29.4114 18.0427 29.438 18.1876 29.4642 18.3326C29.5053 18.56 29.5476 18.7872 29.5901 19.0144C29.6834 19.514 29.7748 20.014 29.8659 20.5141C29.8825 20.6051 29.8991 20.696 29.9157 20.787C29.9934 21.2131 30.071 21.6393 30.1485 22.0656C30.2371 22.5537 30.3263 23.0417 30.4157 23.5296C30.4855 23.9103 30.5549 24.2911 30.624 24.672C30.665 24.8981 30.7062 25.1241 30.7478 25.3501C30.7868 25.5618 30.8253 25.7736 30.8634 25.9855C30.884 26.0992 30.9051 26.2129 30.9262 26.3265C31.1115 27.3652 31.1115 27.3652 30.9243 27.6797C30.7198 27.7951 30.5868 27.7807 30.3529 27.7629C30.1836 27.7111 30.0268 27.6385 29.8669 27.5629C29.797 27.531 29.797 27.531 29.7258 27.4985C29.5725 27.4285 29.4197 27.3573 29.2668 27.2861C29.1589 27.2366 29.051 27.1872 28.943 27.1378C28.7181 27.0349 28.4935 26.9317 28.2689 26.8282C27.7909 26.6083 27.3109 26.393 26.8309 26.1777C26.5796 26.0649 26.3283 25.9518 26.077 25.8387C25.9806 25.7953 25.8842 25.752 25.7878 25.7086C25.6067 25.6271 25.4256 25.5456 25.2445 25.4641C25.0418 25.3728 24.8391 25.2816 24.6364 25.1905C24.5303 25.1428 24.4242 25.0949 24.3182 25.0471C24.1908 24.9899 24.0629 24.9339 23.9344 24.8792C23.7533 24.7961 23.7533 24.7961 23.5844 24.6908C23.3586 24.5623 23.1686 24.4656 22.9037 24.5175C22.5459 24.6301 22.2145 24.8024 21.8801 24.9702C21.7715 25.0223 21.6627 25.0742 21.5537 25.1257C21.3364 25.229 21.1196 25.3334 20.9034 25.4389C20.5153 25.6276 20.1217 25.8027 19.7269 25.9768C19.5889 26.0385 19.451 26.1003 19.313 26.1622C19.2047 26.2108 19.2047 26.2108 19.0941 26.2604C18.5859 26.4884 18.0779 26.717 17.5699 26.9456C17.5178 26.969 17.4656 26.9925 17.4118 27.0167C17.3101 27.0624 17.2085 27.1082 17.1069 27.154C17.0102 27.1974 16.9135 27.2408 16.8168 27.284C16.6179 27.3731 16.4206 27.4634 16.225 27.5595C16.1682 27.5873 16.1114 27.6151 16.053 27.6437C16.0071 27.6672 15.9612 27.6906 15.9139 27.7148C15.4927 27.8475 15.1758 27.7487 14.7969 27.5633C14.7523 27.5425 14.7077 27.5216 14.6618 27.5001C14.517 27.4321 14.3728 27.3629 14.2285 27.2937C14.127 27.2459 14.0254 27.1981 13.9237 27.1505C13.7706 27.0787 13.6176 27.0069 13.4646 26.9347C13.0558 26.7418 12.6443 26.5561 12.2305 26.3741C11.7523 26.1632 11.2751 25.9504 10.7989 25.7351C10.7192 25.6991 10.7192 25.6991 10.6378 25.6624C10.209 25.4687 10.209 25.4687 9.9989 25.3734C9.94919 25.3508 9.89948 25.3282 9.84826 25.305C9.79921 25.2828 9.75016 25.2605 9.69963 25.2376C9.55404 25.1721 9.40783 25.1082 9.26155 25.0443C9.07421 24.9619 8.89355 24.8727 8.71331 24.7758C8.22955 24.5236 8.22955 24.5236 7.69983 24.5386C7.43112 24.6324 7.18559 24.7661 6.9364 24.9021C6.84355 24.9491 6.75049 24.9958 6.65725 25.042C6.46911 25.1357 6.28194 25.231 6.09534 25.3278C5.72786 25.5168 5.35093 25.6824 4.97241 25.8481C4.83124 25.9111 4.69013 25.9742 4.54906 26.0374C4.51264 26.0536 4.47623 26.0699 4.43871 26.0867C4.11288 26.2323 3.78745 26.3789 3.46205 26.5255C3.40866 26.5496 3.35526 26.5736 3.30025 26.5984C3.08724 26.6944 2.87424 26.7904 2.66128 26.8864C2.41793 26.9962 2.17448 27.1058 1.93073 27.2146C1.74666 27.2969 1.56345 27.3808 1.38067 27.4659C1.29485 27.5052 1.20902 27.5444 1.12319 27.5837C1.08501 27.6019 1.04683 27.6201 1.00748 27.6388C0.749551 27.7554 0.542709 27.7868 0.26111 27.7629C0.113527 27.6797 0.113527 27.6797 0.0189224 27.5208C-0.0461692 27.0329 0.0703859 26.5333 0.160829 26.0551C0.185582 25.923 0.208711 25.7907 0.231783 25.6582C0.247453 25.5735 0.263217 25.4887 0.279085 25.404C0.300012 25.2899 0.300012 25.2899 0.321361 25.1735C0.38763 24.9603 0.450049 24.8718 0.624391 24.7356C0.802248 24.6751 0.802248 24.6751 0.987672 24.6751C1.15796 24.7659 1.15796 24.7659 1.29041 24.9172C1.37096 25.2607 1.33211 25.5436 1.26392 25.8822C1.25498 25.9294 1.24604 25.9766 1.23684 26.0252C1.21493 26.1404 1.19221 26.2554 1.16931 26.3704C1.67558 26.182 2.16816 25.9766 2.6565 25.746C3.25813 25.4651 3.86256 25.1914 4.46964 24.9225C4.60903 24.8605 4.74811 24.7979 4.88714 24.735C5.29043 24.5534 5.69274 24.3753 6.10758 24.2215C6.27288 24.16 6.4369 24.0954 6.60092 24.0306C6.71344 23.9877 6.82775 23.9495 6.94203 23.9116C7.16227 23.8236 7.29625 23.751 7.46619 23.5852C7.50869 23.4114 7.53051 23.2707 7.54112 23.0949C7.5452 23.0467 7.54929 22.9986 7.5535 22.949C7.56607 22.7979 7.57668 22.6467 7.58728 22.4954C7.59486 22.4034 7.60261 22.3115 7.61054 22.2196C7.63026 21.9879 7.64822 21.756 7.66551 21.5241C7.6768 21.3729 7.68833 21.2217 7.69993 21.0704C7.72857 20.6962 7.75683 20.3219 7.78506 19.9475C7.80916 19.6282 7.83342 19.3088 7.85792 18.9895C7.86925 18.8409 7.88034 18.6922 7.89142 18.5436C7.89836 18.4528 7.9053 18.3621 7.91226 18.2714C7.92119 18.1529 7.92119 18.1529 7.93031 18.032C7.94607 17.8773 7.96696 17.7395 8.01111 17.5911C6.65498 18.2854 6.65498 18.2854 5.31394 19.0083C4.70732 19.3419 4.09037 19.6555 3.47324 19.969C3.36096 20.0268 3.2498 20.0865 3.13855 20.1462C2.92517 20.2551 2.92517 20.2551 2.71712 20.3316C2.45751 20.4402 2.25941 20.5362 2.1444 20.8063C2.02622 21.1995 1.97602 21.6049 1.92236 22.011C1.8953 22.1939 1.86733 22.3767 1.83897 22.5594C1.8217 22.6727 1.80533 22.7861 1.79003 22.8997C1.68536 23.6404 1.68536 23.6404 1.42285 23.8577C1.2335 23.9009 1.11275 23.8854 0.927126 23.8274C0.779543 23.7101 0.779543 23.7101 0.684938 23.5247C0.679053 23.027 0.811083 22.5166 0.899542 22.029C0.915381 21.9408 0.9312 21.8525 0.947002 21.7642C0.989686 21.5261 1.03267 21.2881 1.07575 21.0501C1.10269 20.9011 1.12956 20.7522 1.15642 20.6032C1.25021 20.0829 1.34425 19.5626 1.43852 19.0424C1.52623 18.5584 1.61338 18.0742 1.70028 17.59C1.7751 17.1733 1.8503 16.7566 1.92582 16.34C1.97083 16.0917 2.01569 15.8432 2.06014 15.5948C2.10194 15.3612 2.14422 15.1278 2.18687 14.8945C2.2024 14.8091 2.21776 14.7236 2.23292 14.6381C2.41852 13.5935 2.41852 13.5935 2.69552 13.3624C2.74758 13.3349 2.79964 13.3073 2.85327 13.279C2.91254 13.2468 2.97181 13.2146 3.03287 13.1814C3.09723 13.1481 3.1616 13.1147 3.22791 13.0803C3.3662 13.0058 3.50448 12.9313 3.64275 12.8568C3.71504 12.8184 3.78736 12.78 3.85969 12.7416C4.20439 12.5581 4.54452 12.3664 4.88538 12.1759C5.02237 12.0998 5.15939 12.0237 5.29643 11.9477C5.36459 11.9098 5.43275 11.872 5.50297 11.8331C5.71129 11.7175 5.91965 11.602 6.12801 11.4865C6.85875 11.0812 7.5883 10.674 8.31509 10.2617C8.36908 10.231 8.42307 10.2004 8.47869 10.1689C8.526 10.142 8.5733 10.1151 8.62203 10.0874C8.84181 9.96443 8.96584 9.9386 9.22205 9.96216C9.39859 10.0291 9.56282 10.1153 9.72913 10.2043C9.79598 10.239 9.79598 10.239 9.86418 10.2744C9.97339 10.3311 10.0821 10.3887 10.1908 10.4465C10.174 10.4104 10.1573 10.3742 10.14 10.337C9.77363 9.53944 9.46419 8.76327 9.28259 7.90357C9.26784 7.83847 9.25309 7.77338 9.23789 7.70632C8.91719 6.03518 9.26566 4.28792 10.1802 2.86079C10.399 2.54165 10.6568 2.25513 10.9174 1.96997C10.9578 1.92455 10.9982 1.87912 11.0399 1.83232C13.1121 -0.379799 16.9306 -0.587824 19.3189 1.2022ZM11.4377 2.85547C11.126 3.22113 10.8855 3.59745 10.6752 4.02857C10.6478 4.08281 10.6204 4.13705 10.5922 4.19294C9.90016 5.62417 10.0486 7.18913 10.5049 8.66419C10.9581 9.93462 11.6536 11.0887 12.4916 12.1418C12.5363 12.1982 12.581 12.2545 12.6271 12.3126C12.8883 12.6365 13.1592 12.9499 13.44 13.257C13.5552 13.3843 13.6677 13.5132 13.7799 13.6432C14.0052 13.9012 14.243 14.1444 14.4858 14.3859C14.5261 14.4263 14.5663 14.4668 14.6078 14.5085C14.7286 14.6291 14.8509 14.7481 14.974 14.8665C15.0383 14.9291 15.0383 14.9291 15.1039 14.993C15.146 15.0323 15.1881 15.0717 15.2316 15.1122C15.2693 15.1479 15.307 15.1836 15.3459 15.2204C15.4537 15.3025 15.4537 15.3025 15.5807 15.2822C15.7169 15.2226 15.8009 15.1554 15.9085 15.0528C15.9474 15.0161 15.9863 14.9793 16.0264 14.9414C16.0675 14.9017 16.1085 14.862 16.1509 14.821C16.1936 14.7803 16.2363 14.7396 16.2802 14.6977C16.4105 14.5729 16.5401 14.4474 16.6693 14.3215C16.7073 14.2845 16.7454 14.2475 16.7846 14.2093C16.8891 14.1071 16.9932 14.0045 17.0969 13.9015C17.1271 13.8716 17.1573 13.8417 17.1884 13.8108C17.9633 13.0325 18.6754 12.1543 19.2728 11.2336C19.3129 11.1718 19.3531 11.11 19.3944 11.0463C20.4627 9.35373 21.2705 7.41019 20.8962 5.37195C20.6644 4.35924 20.2079 3.46914 19.515 2.69654C19.4816 2.65814 19.4482 2.61974 19.4138 2.58017C18.5898 1.69096 17.2556 1.0588 16.0472 0.993818C14.2144 0.933982 12.6931 1.48597 11.4377 2.85547ZM9.46424 11.2336C9.37273 12.0607 9.31432 12.8846 9.28259 13.7161C9.6942 13.8129 10.1049 13.8837 10.5233 13.9438C10.588 13.9532 10.6526 13.9626 10.7192 13.9722C10.8549 13.9918 10.9905 14.0113 11.1262 14.0307C11.3343 14.0605 11.5423 14.091 11.7504 14.1216C11.8825 14.1406 12.0146 14.1595 12.1467 14.1784C12.2401 14.1923 12.2401 14.1923 12.3354 14.2063C12.393 14.2144 12.4506 14.2225 12.51 14.2309C12.586 14.2418 12.586 14.2418 12.6635 14.253C12.8054 14.2698 12.8054 14.2698 12.976 14.2004C12.9241 14.1462 12.9241 14.1462 12.8712 14.0909C12.4396 13.6292 12.0577 13.137 11.6804 12.6303C11.6484 12.589 11.6164 12.5477 11.5834 12.5051C11.5382 12.4451 11.493 12.3851 11.4465 12.3233C11.284 12.1301 11.0937 12.0179 10.8691 11.9077C10.8307 11.8881 10.7923 11.8684 10.7527 11.8482C10.6314 11.7863 10.5095 11.7257 10.3876 11.665C10.3048 11.623 10.2221 11.5809 10.1395 11.5387C9.81263 11.3362 9.81263 11.3362 9.46424 11.2336ZM19.7417 12.1928C19.5555 12.3791 19.4054 12.5795 19.2728 12.8079C19.2928 12.8478 19.3128 12.8878 19.3334 12.929C19.652 12.798 19.9698 12.6656 20.2872 12.5317C20.3952 12.4864 20.5035 12.4414 20.6119 12.3969C20.7676 12.3329 20.9227 12.2675 21.0776 12.2017C21.1263 12.1821 21.175 12.1624 21.2252 12.1422C21.4895 12.0369 21.4895 12.0369 21.6365 11.8082C21.6335 11.6128 21.6075 11.4259 21.5736 11.2336C21.0966 11.2336 20.1151 11.8881 19.7417 12.1928ZM8.03594 11.5347C8.0016 11.5537 7.96726 11.5728 7.93187 11.5924C7.81814 11.6555 7.7046 11.7189 7.59107 11.7824C7.51147 11.8266 7.43187 11.8708 7.35225 11.915C7.18798 12.0062 7.0238 12.0976 6.85968 12.1891C6.63718 12.3132 6.41444 12.4368 6.19163 12.5602C5.43851 12.9777 4.6866 13.3974 3.93573 13.8189C3.87627 13.8522 3.81682 13.8856 3.75556 13.9199C3.677 13.9641 3.677 13.9641 3.59685 14.0091C3.51515 14.0544 3.43256 14.0981 3.349 14.1399C3.3053 14.2811 3.3053 14.2811 3.27521 14.4535C3.26249 14.5186 3.24977 14.5837 3.23666 14.6508C3.21734 14.7538 3.21734 14.7538 3.19763 14.8589C3.18476 14.9252 3.17188 14.9916 3.15861 15.0599C3.12042 15.2577 3.0833 15.4556 3.04627 15.6536C3.02824 15.7464 3.02824 15.7464 3.00984 15.8412C2.99876 15.8993 2.98768 15.9574 2.97626 16.0173C2.96639 16.0685 2.95651 16.1196 2.94634 16.1723C2.92449 16.3243 2.92148 16.4689 2.92517 16.6223C3.17543 16.5444 3.40234 16.4505 3.63471 16.3295C3.70039 16.2954 3.76608 16.2613 3.83376 16.2262C3.93847 16.1713 3.93847 16.1713 4.04529 16.1152C4.11918 16.0767 4.19308 16.0382 4.26699 15.9997C4.75514 15.7446 5.23911 15.4824 5.72125 15.2162C6.34255 14.8753 6.97417 14.5543 7.60529 14.2321C7.64776 14.2103 7.69024 14.1886 7.734 14.1662C7.81455 14.125 7.89515 14.0839 7.97581 14.0429C8.1567 13.9574 8.1567 13.9574 8.31384 13.8372C8.33222 13.654 8.34704 13.4718 8.35949 13.2882C8.36344 13.2332 8.36738 13.1782 8.37145 13.1215C8.38404 12.9451 8.39625 12.7686 8.40845 12.5922C8.4169 12.4728 8.42537 12.3535 8.43387 12.2342C8.4547 11.9411 8.47518 11.6479 8.49549 11.3547C8.3122 11.3547 8.19544 11.4459 8.03594 11.5347ZM22.5424 11.3547C22.5623 11.4347 22.5823 11.5146 22.6029 11.5969C22.7028 11.5769 22.8027 11.557 22.9056 11.5364C22.7438 11.3945 22.7438 11.3945 22.5424 11.3547ZM23.2765 12.4143C23.0742 12.4643 22.8719 12.5142 22.6635 12.5657C22.6834 12.9853 22.7034 13.4049 22.724 13.8372C23.3835 13.7381 24.0278 13.5882 24.6766 13.436C24.7871 13.4103 24.8975 13.3846 25.008 13.3589C25.276 13.2966 25.544 13.2339 25.8119 13.1711C25.5272 12.936 25.2294 12.7595 24.9075 12.5808C24.8541 12.5501 24.8008 12.5195 24.7458 12.4879C24.2052 12.1874 23.8579 12.2686 23.2765 12.4143ZM21.3974 13.0315C21.3469 13.054 21.2965 13.0764 21.2445 13.0996C21.1892 13.1244 21.1339 13.1492 21.0769 13.1747C20.9909 13.2131 20.9909 13.2131 20.9031 13.2522C20.7178 13.3348 20.5327 13.4176 20.3475 13.5004C20.1675 13.5809 19.9874 13.6613 19.8072 13.7417C19.6872 13.7952 19.5671 13.8489 19.4472 13.9027C19.151 14.035 18.854 14.1637 18.5533 14.2855C18.4963 14.3089 18.4393 14.3322 18.3805 14.3563C18.2741 14.3997 18.1674 14.4422 18.0602 14.4837C17.537 14.6981 17.2011 15.0736 16.8298 15.4871C16.5989 15.7318 16.3287 15.9317 16.0638 16.1379C15.9781 16.2096 15.9781 16.2096 15.9995 16.4142C16.0008 16.4829 16.002 16.5516 16.0033 16.6223C16.3885 16.5015 16.7566 16.357 17.1253 16.193C17.1783 16.1697 17.2314 16.1463 17.286 16.1223C17.4539 16.0482 17.6217 15.9739 17.7894 15.8995C17.9019 15.8499 18.0144 15.8003 18.1269 15.7507C18.3345 15.6591 18.5421 15.5674 18.7495 15.4755C18.796 15.455 18.8424 15.4345 18.8903 15.4134C18.9868 15.3704 19.083 15.3266 19.179 15.2823C19.2267 15.2604 19.2745 15.2385 19.3237 15.2159C19.3662 15.1962 19.4087 15.1764 19.4525 15.1561C19.6757 15.0701 19.8207 15.0733 20.0599 15.1086C20.2303 15.1943 20.3711 15.3055 20.5178 15.4265C20.5588 15.4588 20.5998 15.491 20.642 15.5243C20.7718 15.6268 20.9002 15.731 21.0287 15.8352C21.1168 15.9053 21.205 15.9753 21.2933 16.0452C21.5089 16.2162 21.7232 16.3886 21.9369 16.5618C21.9956 16.3698 21.9989 16.213 21.983 16.0134C21.9784 15.9526 21.9737 15.8918 21.9689 15.8291C21.9635 15.7638 21.9581 15.6984 21.9525 15.6311C21.9472 15.5636 21.9419 15.4961 21.9364 15.4266C21.9251 15.2839 21.9135 15.1413 21.9019 14.9987C21.884 14.7805 21.8668 14.5623 21.8496 14.3441C21.8385 14.2055 21.8274 14.0668 21.8163 13.9282C21.8085 13.8304 21.8085 13.8304 21.8006 13.7306C21.7955 13.6696 21.7905 13.6085 21.7853 13.5457C21.781 13.4922 21.7766 13.4388 21.7721 13.3837C21.755 13.2295 21.7274 13.0805 21.6947 12.929C21.5873 12.929 21.4942 12.9882 21.3974 13.0315ZM9.22205 14.6848C8.95818 14.9487 8.97794 15.7035 8.97466 16.0708C8.9984 16.9773 9.65321 17.688 10.1774 18.3789C10.5257 18.8384 10.8405 19.3168 11.1533 19.8009C11.3098 20.0424 11.4682 20.2825 11.6264 20.5229C11.6899 20.6195 11.7533 20.7161 11.8168 20.8127C11.8482 20.8606 11.8796 20.9084 11.912 20.9577C12.0072 21.1028 12.0072 21.1028 12.1024 21.2478C12.8129 22.3299 13.524 23.4116 14.2403 24.4897C14.3053 24.5876 14.3702 24.6855 14.4351 24.7835C14.5243 24.9182 14.6138 25.0528 14.7034 25.1873C14.7301 25.2277 14.7568 25.2681 14.7842 25.3097C14.8459 25.4019 14.9097 25.4928 14.974 25.5833C14.994 25.5833 15.014 25.5833 15.0345 25.5833C15.1247 24.358 15.1799 23.4332 14.3554 22.448C14.1781 22.2275 14.035 21.9873 13.8879 21.7461C13.8283 21.6509 13.7684 21.5558 13.7084 21.4609C13.6781 21.4126 13.6477 21.3644 13.6165 21.3148C13.4441 21.0418 13.2705 20.7696 13.097 20.4973C12.8045 20.0381 12.5129 19.5783 12.2227 19.1176C12.0559 18.853 11.8881 18.5892 11.7194 18.3259C11.681 18.266 11.6426 18.206 11.6031 18.1443C11.5287 18.028 11.4541 17.9119 11.3794 17.7959C10.9127 17.0666 10.9127 17.0666 10.9287 16.7888C10.9779 16.6223 10.9779 16.6223 11.099 16.5012C11.8955 16.3984 12.7542 16.5852 13.5436 16.6829C13.6885 16.7004 13.8334 16.7179 13.9783 16.7354C14.3304 16.7779 14.6825 16.821 15.0345 16.8645C15.0379 16.7473 15.0403 16.63 15.0423 16.5127C15.0437 16.4474 15.0452 16.3821 15.0467 16.3148C15.0485 16.1256 15.0485 16.1256 14.9106 15.9542C14.8296 15.8934 14.8296 15.8934 14.747 15.8314C14.6936 15.7895 14.6402 15.7476 14.5852 15.7044C14.5337 15.6677 14.4822 15.6309 14.4291 15.593C14.3919 15.562 14.3547 15.531 14.3164 15.4991C14.1702 15.4001 14.0698 15.3757 13.896 15.3498C13.8378 15.3408 13.7797 15.3318 13.7198 15.3226C13.6567 15.3136 13.5935 15.3045 13.5284 15.2953C13.4619 15.2852 13.3954 15.2752 13.3269 15.2648C13.1091 15.2322 12.8912 15.2006 12.6732 15.1692C12.5244 15.1473 12.3755 15.1254 12.2267 15.1035C11.8472 15.0481 11.4676 14.994 11.0879 14.9406C10.8519 14.9074 10.6161 14.8736 10.3802 14.8398C10.2301 14.8186 10.0799 14.7975 9.92969 14.7763C9.85926 14.7662 9.78883 14.7561 9.71627 14.7456C9.61996 14.7322 9.61996 14.7322 9.52171 14.7186C9.4651 14.7106 9.40849 14.7025 9.35016 14.6943C9.30788 14.6912 9.26561 14.688 9.22205 14.6848ZM7.81717 15.1543C7.71627 15.2088 7.71627 15.2088 7.61333 15.2643C7.57709 15.2839 7.54086 15.3035 7.50353 15.3237C6.85132 15.6766 6.19583 16.0223 5.53626 16.3612C4.85178 16.7131 4.17154 17.0723 3.50004 17.4485C3.39086 17.5078 3.28007 17.5641 3.16839 17.6185C2.81675 17.7845 2.81675 17.7845 2.58034 18.078C2.57175 18.1409 2.56317 18.2037 2.55432 18.2684C2.54379 18.3363 2.53325 18.4042 2.52239 18.4742C2.51545 18.5424 2.5085 18.6106 2.50134 18.6809C2.49377 18.7466 2.4862 18.8123 2.4784 18.8801C2.46252 19.0357 2.44987 19.1908 2.4408 19.3469C2.72533 19.2612 2.98036 19.1418 3.24092 19.0011C3.28232 18.9791 3.32372 18.957 3.36638 18.9343C3.50074 18.8627 3.63489 18.7907 3.76904 18.7188C3.90922 18.6439 4.04946 18.5692 4.18969 18.4945C4.28302 18.4447 4.37633 18.395 4.46962 18.3452C4.8465 18.1441 5.22506 17.9464 5.60437 17.75C6.12079 17.482 6.63258 17.2063 7.14211 16.9254C7.19341 16.8972 7.2447 16.869 7.29756 16.8399C7.34625 16.8131 7.39494 16.7862 7.44511 16.7585C7.58286 16.6852 7.72251 16.6186 7.86376 16.5523C8.08733 16.4629 8.08733 16.4629 8.1322 16.259C8.14111 16.1606 8.14717 16.0619 8.15136 15.9632C8.1539 15.9064 8.15643 15.8496 8.15905 15.7911C8.16143 15.732 8.16381 15.6729 8.16626 15.6119C8.17018 15.5222 8.17018 15.5222 8.17418 15.4307C8.18061 15.283 8.18679 15.1353 8.19275 14.9876C8.06361 14.9876 7.92585 15.0954 7.81717 15.1543ZM22.9056 15.8958C22.9142 16.0787 22.9231 16.2616 22.9321 16.4445C22.9345 16.4958 22.9369 16.5471 22.9393 16.6C22.9468 16.7488 22.9563 16.8974 22.9662 17.0461C22.97 17.1201 22.9738 17.194 22.9778 17.2701C23.0433 17.5378 23.1747 17.6805 23.3597 17.8787C23.4266 17.9533 23.4934 18.0279 23.5601 18.1026C23.5931 18.1391 23.6261 18.1756 23.6601 18.2132C23.788 18.3565 23.9089 18.5049 24.0295 18.6544C24.2272 18.8979 24.4281 19.1382 24.6312 19.3772C24.9732 19.7799 25.3074 20.1886 25.6407 20.5985C25.8866 20.9003 26.1351 21.1996 26.3871 21.4963C26.7291 21.899 27.0633 22.3077 27.3965 22.7177C27.6425 23.0195 27.891 23.3188 28.1429 23.6155C28.6726 24.2396 29.1831 24.8777 29.6869 25.5227C29.7936 25.2025 29.6846 24.863 29.6267 24.5362C29.6115 24.4481 29.5972 24.3599 29.5838 24.2716C29.4851 23.6207 29.3148 23.2183 28.8392 22.7376C28.7835 22.6753 28.7279 22.6129 28.6727 22.5502C28.6278 22.5022 28.5828 22.4541 28.5365 22.4045C28.2874 22.1339 28.0539 21.8541 27.8229 21.568C27.6915 21.4087 27.5555 21.2554 27.4164 21.1028C27.229 20.8972 27.05 20.6873 26.8752 20.4708C26.689 20.2405 26.4968 20.0189 26.2963 19.801C26.0472 19.5304 25.8137 19.2506 25.5827 18.9645C25.4513 18.8052 25.3153 18.6519 25.1761 18.4993C24.9887 18.2937 24.8097 18.0838 24.635 17.8673C24.4016 17.5787 24.1553 17.3053 23.904 17.0324C23.706 16.8118 23.5204 16.5823 23.3359 16.3503C23.2006 16.1893 23.0562 16.0424 22.9056 15.8958ZM19.1822 16.2988C19.13 16.3218 19.0778 16.3449 19.0241 16.3686C18.8559 16.4429 18.6878 16.5174 18.5198 16.592C18.3017 16.6887 18.0835 16.7852 17.8654 16.8815C17.7847 16.9172 17.7847 16.9172 17.7025 16.9536C17.2745 17.1423 16.8441 17.3247 16.4118 17.5033C16.1916 17.5819 16.1916 17.5819 16.0033 17.7122C15.9904 17.8782 15.9816 18.0429 15.9753 18.2092C15.9731 18.2614 15.971 18.3136 15.9688 18.3674C15.9498 18.8538 15.9384 19.3403 15.9293 19.827C15.9231 20.1534 15.9144 20.4793 15.8995 20.8054C15.761 22.4195 15.761 22.4195 16.3767 23.8391C16.6188 24.0895 16.8921 24.2974 17.1774 24.4964C17.4078 24.6687 17.5798 24.876 17.7592 25.0989C17.8375 25.1807 17.9166 25.2618 17.9976 25.3411C18.0594 25.4016 18.1212 25.4622 18.183 25.5227C18.5664 25.4032 18.9301 25.2584 19.2948 25.0908C19.374 25.0549 19.374 25.0549 19.4548 25.0182C19.6226 24.9419 19.7902 24.8652 19.9578 24.7886C20.1223 24.7136 20.2869 24.6387 20.4515 24.5639C20.5606 24.5142 20.6696 24.4643 20.7785 24.4142C21.0576 24.2861 21.3377 24.1616 21.6208 24.0424C21.7049 24.0065 21.7049 24.0065 21.7907 23.9697C21.8976 23.9241 22.005 23.8794 22.1127 23.8357C22.1604 23.8152 22.2081 23.7946 22.2572 23.7735C22.3203 23.7473 22.3203 23.7473 22.3846 23.7207C22.4927 23.6513 22.4927 23.6513 22.5272 23.519C22.5474 23.2849 22.5385 23.0551 22.5257 22.8209C22.5231 22.769 22.5206 22.7171 22.5179 22.6636C22.4934 22.1846 22.4634 21.706 22.4317 21.2275C22.4106 20.9066 22.3912 20.5859 22.376 20.2647C22.3613 19.9531 22.342 19.642 22.3197 19.3309C22.312 19.213 22.3058 19.095 22.3013 18.9769C22.2765 18.2477 22.2765 18.2477 21.9009 17.6488C21.6993 17.474 21.4861 17.322 21.2613 17.1784C21.1198 17.0874 20.9881 16.9857 20.856 16.8815C20.78 16.8252 20.7039 16.769 20.6276 16.7131C20.4061 16.5501 20.1875 16.3875 19.9791 16.2079C19.6932 15.9766 19.4853 16.1636 19.1822 16.2988ZM12.3705 17.5305C12.6233 18.0244 12.9159 18.4851 13.2193 18.9489C13.3997 19.2248 13.5761 19.5031 13.7517 19.7821C13.8118 19.8773 13.8719 19.9726 13.9319 20.0678C14.0347 20.2308 14.1374 20.3938 14.24 20.5569C14.3571 20.7428 14.4744 20.9285 14.5918 21.1141C14.6474 21.2027 14.6474 21.2027 14.7042 21.2931C14.7385 21.3473 14.7728 21.4015 14.8082 21.4573C14.8388 21.5058 14.8693 21.5543 14.9008 21.6042C14.925 21.6386 14.9491 21.6729 14.974 21.7083C14.994 21.7083 15.014 21.7083 15.0345 21.7083C15.0345 20.4295 15.0345 19.1508 15.0345 17.8333C14.5541 17.7459 14.0838 17.6712 13.6003 17.6138C13.5352 17.6057 13.4701 17.5975 13.403 17.5892C13.056 17.5475 12.7199 17.5212 12.3705 17.5305ZM8.91931 18.1965C8.75021 19.9907 8.62278 21.7877 8.49549 23.5852C9.18804 23.939 9.8894 24.2673 10.5995 24.5842C10.7043 24.6312 10.8091 24.6782 10.9139 24.7252C11.2378 24.8703 11.5619 25.0149 11.8861 25.1594C11.9666 25.1953 11.9666 25.1953 12.0488 25.2319C12.7208 25.5314 13.3931 25.8301 14.0658 26.1282C14.0658 25.8601 13.9115 25.6896 13.7668 25.4735C13.7326 25.4216 13.6983 25.3697 13.663 25.3162C13.5823 25.1939 13.5015 25.0717 13.4204 24.9496C13.2619 24.7105 13.1044 24.4707 12.9469 24.2309C12.4484 23.4721 11.9489 22.714 11.4495 21.9558C11.3442 21.796 11.2389 21.6362 11.1336 21.4764C10.9955 21.2666 10.8573 21.0569 10.719 20.8472C10.4028 20.3674 10.0872 19.8871 9.77359 19.4056C9.71911 19.322 9.66462 19.2385 9.61013 19.1549C9.51018 19.0016 9.41051 18.8481 9.31101 18.6945C9.24613 18.5949 9.24613 18.5949 9.17995 18.4934C9.12374 18.4067 9.12374 18.4067 9.06639 18.3183C9.03784 18.2781 9.00928 18.2379 8.97986 18.1965C8.95988 18.1965 8.9399 18.1965 8.91931 18.1965ZM23.1478 19.1653C23.1962 19.8482 23.2448 20.5312 23.2941 21.214C23.3181 21.5476 23.3414 21.8812 23.3642 22.2149C23.3741 22.3538 23.3839 22.4927 23.3938 22.6316C23.3978 22.6937 23.4019 22.7557 23.4061 22.8197C23.4123 22.905 23.4123 22.905 23.4186 22.992C23.4219 23.0399 23.4252 23.0878 23.4286 23.1371C23.4577 23.3294 23.484 23.4697 23.5717 23.6458C23.7236 23.7573 23.89 23.826 24.0631 23.8988C24.1135 23.9212 24.164 23.9437 24.2159 23.9668C24.3816 24.0401 24.548 24.1116 24.7145 24.1831C24.8291 24.2335 24.9437 24.284 25.0583 24.3346C25.2935 24.4383 25.529 24.5413 25.7648 24.6437C26.2466 24.8532 26.7262 25.0675 27.206 25.2815C27.3462 25.3439 27.4865 25.4061 27.6268 25.4682C27.6703 25.4874 27.7137 25.5066 27.7585 25.5264C27.8388 25.5619 27.9191 25.5974 27.9995 25.6329C28.1461 25.6977 28.2898 25.7624 28.4297 25.8407C28.5475 25.9046 28.5475 25.9046 28.7181 25.8254C27.8119 24.7151 27.8119 24.7151 26.8912 23.6169C26.6799 23.3679 26.4725 23.116 26.2662 22.8629C25.7933 22.283 25.3179 21.7054 24.8333 21.1352C24.57 20.8251 24.3127 20.5102 24.056 20.1946C23.9152 20.0221 23.7743 19.8498 23.6332 19.6776C23.5592 19.5872 23.4853 19.4968 23.4118 19.4061C23.3453 19.3247 23.2771 19.2447 23.2084 19.1653C23.1884 19.1653 23.1684 19.1653 23.1478 19.1653ZM28.9603 21.345C29.0209 21.4661 29.0209 21.4661 29.0209 21.4661L28.9603 21.345ZM16.0033 24.6751C16.0033 25.2745 16.0033 25.8739 16.0033 26.4915C16.2163 26.4489 16.358 26.417 16.5475 26.3323C16.5902 26.3134 16.633 26.2944 16.677 26.2749C16.7207 26.2552 16.7643 26.2355 16.8093 26.2152C16.8542 26.1953 16.899 26.1753 16.9452 26.1548C17.0552 26.1058 17.165 26.0565 17.2748 26.0071C17.0134 25.6984 16.7447 25.3984 16.4688 25.1027C16.4305 25.0613 16.3922 25.0199 16.3527 24.9772C16.3163 24.9381 16.2799 24.8991 16.2424 24.8588C16.2095 24.8235 16.1766 24.7881 16.1428 24.7517C16.0749 24.668 16.0749 24.668 16.0033 24.6751Z" fill="#3B9797"/>
<path d="M16.8928 5.50979C16.938 5.53531 16.9833 5.56083 17.03 5.58713C17.6631 5.97586 18.0526 6.5227 18.292 7.21882C18.4814 8.02143 18.3752 8.81281 17.9599 9.52102C17.5027 10.1999 16.9549 10.5592 16.1788 10.8128C15.3887 10.9611 14.5801 10.8291 13.9139 10.3739C13.8599 10.3338 13.8599 10.3338 13.8049 10.293C13.75 10.253 13.75 10.253 13.694 10.2121C13.1654 9.79528 12.9228 9.22091 12.715 8.59768C12.6327 7.61373 12.7645 6.83876 13.4139 6.0644C13.581 5.90269 13.6736 5.87307 13.9071 5.87307C14.1924 5.95921 14.1924 5.95921 14.2893 6.11525C14.3604 6.35294 14.3641 6.44905 14.254 6.67555C14.2095 6.74166 14.1649 6.80776 14.119 6.87587C13.7658 7.4066 13.6879 7.77672 13.7443 8.41604C13.8807 8.96798 14.1625 9.32632 14.6428 9.62224C15.1021 9.85144 15.5993 9.8908 16.0969 9.76486C16.6135 9.57181 16.9482 9.27491 17.1955 8.77932C17.3816 8.30234 17.3955 7.78665 17.2182 7.30349C16.9499 6.7318 16.5743 6.46048 15.9846 6.23635C15.8091 6.19787 15.6349 6.17019 15.4572 6.14458C15.3186 6.11525 15.3186 6.11525 15.1596 6.00173C15.073 5.86784 15.0255 5.79005 15.0158 5.63088C15.0732 5.44548 15.1201 5.34497 15.258 5.20705C15.7537 5.01307 16.452 5.25872 16.8928 5.50979Z" fill="#3B9797"/>
</g>
<defs>
<clipPath id="clip0_447_735">
<rect width="31" height="31" fill="white"/>
</clipPath>
</defs>
</svg>
