<svg width="50" height="13" viewBox="0 0 50 13" fill="none" xmlns="http://www.w3.org/2000/svg">
<path d="M4.87915 0.147569C3.79517 0.372179 2.69165 0.987413 1.84204 1.83702C-0.609129 4.29796 -0.618895 8.18468 1.84204 10.6359C4.31275 13.0968 8.19947 13.1066 10.6409 10.6456C13.1116 8.16515 13.1116 4.31749 10.6409 1.83702C9.1272 0.313585 6.98853 -0.311415 4.87915 0.147569Z" fill="black"/>
<path d="M23.6292 0.147569C22.5452 0.372179 21.4417 0.987413 20.592 1.83702C18.1409 4.29796 18.1311 8.18468 20.592 10.6359C23.0627 13.0968 26.9495 13.1066 29.3909 10.6456C31.8616 8.16515 31.8616 4.31749 29.3909 1.83702C27.8772 0.313585 25.7385 -0.311415 23.6292 0.147569Z" fill="black"/>
<path d="M42.3792 0.147569C41.2952 0.372179 40.1917 0.987413 39.342 1.83702C36.8909 4.29796 36.8811 8.18468 39.342 10.6359C41.8127 13.0968 45.6995 13.1066 48.1409 10.6456C50.6116 8.16515 50.6116 4.31749 48.1409 1.83702C46.6272 0.313585 44.4885 -0.311415 42.3792 0.147569Z" fill="black"/>
</svg>
