<svg width="56" height="60" viewBox="0 0 56 60" fill="none" xmlns="http://www.w3.org/2000/svg">
<path d="M24.2891 1.16844C23.7266 1.91844 23.4453 2.94969 23.8203 3.51219C24.1016 3.98094 23.8203 4.44969 23.1641 4.44969C22.3203 4.44969 22.3203 4.73094 23.3516 5.38719C24.5703 6.13719 24.4766 6.32469 23.1641 6.32469C22.2266 6.32469 21.4766 6.69969 21.4766 7.26219C21.4766 7.73094 22.2266 8.19969 23.1641 8.19969C24.4766 8.19969 24.5703 8.38719 23.3516 9.13719C22.6016 9.60594 22.4141 10.0747 22.8828 10.0747C24.1953 10.0747 24.5703 18.2309 23.3516 18.9809C22.7891 19.2622 22.4141 23.1059 22.4141 27.7934C22.4141 32.2934 22.1328 36.3247 21.7578 36.6059C20.6328 37.8247 18.5703 32.1059 18.0078 26.1059C17.3516 19.2622 14.9141 15.6997 10.8828 15.6997C8.7266 15.6997 8.63285 15.9809 7.9766 23.8559C7.69535 28.4497 7.13285 33.5122 6.8516 35.1059C6.4766 37.0747 6.6641 38.1997 7.32035 38.1997C7.88285 38.1997 8.3516 37.5434 8.3516 36.7934C8.3516 35.6684 9.57035 35.3872 13.5078 35.3872C18.9453 35.3872 20.1641 36.6997 17.1641 39.2309C16.0391 40.1684 15.7578 42.1372 15.9453 48.8872C16.2266 57.1372 16.2266 57.4184 14.0703 57.6997C12.1953 57.9809 12.1016 57.7934 13.0391 56.1059C13.6016 54.9809 13.9766 50.9497 13.7891 46.8247L13.5078 39.6059H6.94535H0.382846L0.101596 47.3872C-0.179654 54.5122 0.00784582 55.2622 2.1641 57.4184C4.32035 59.5747 4.9766 59.6684 10.4141 59.1997C13.6953 58.9184 18.6641 58.8247 21.4766 58.9184C33.8516 59.6684 44.5391 59.1059 47.9141 57.6997L51.2891 56.1997L51.1953 37.0747C51.1016 18.1372 51.1016 18.0434 53.7266 12.2309C55.2266 9.04344 56.0703 5.76219 55.7891 4.73094C54.4766 0.512188 44.8203 -1.55031 39.2891 1.35594C35.1641 3.51219 34.8828 5.48094 37.8828 12.2309C39.5703 16.0747 40.2266 19.2622 40.2266 23.1997C40.2266 26.2934 40.6016 28.8247 41.1641 28.8247C41.7266 28.8247 42.1016 27.9809 42.1016 26.9497C42.1016 25.3559 42.7578 25.0747 45.8516 25.0747C49.3203 25.0747 49.6016 25.2622 49.6016 27.6059C49.6016 32.6684 48.3828 37.2622 47.1641 37.2622C46.5078 37.2622 44.5391 35.5747 42.9453 33.5122C41.2578 31.4497 39.1016 29.7622 38.0703 29.7622C36.6641 29.7622 36.3828 29.2934 36.8516 27.8872C37.1328 26.8559 37.6953 25.1684 37.9766 24.1372C38.7266 21.7934 37.4141 21.7934 33.4766 24.1372C31.7891 25.1684 30.1016 26.0122 29.7266 26.0122C29.4453 26.0122 28.8828 24.3247 28.5078 22.2622C28.1328 20.1997 27.4766 18.5122 27.0078 18.5122C25.7891 18.5122 25.9766 13.1684 27.1953 12.3247C27.9453 11.9497 27.8516 11.4809 27.0078 10.9184C25.9766 10.2622 25.9766 10.0747 26.9141 10.0747C27.5703 10.0747 27.8516 9.60594 27.5703 9.13719C27.2891 8.57469 27.6641 8.19969 28.4141 8.19969C29.2578 8.19969 29.9141 7.73094 29.9141 7.26219C29.9141 6.69969 28.9766 6.32469 27.8516 6.32469C26.0703 6.32469 25.9766 6.13719 27.1016 5.38719C28.3203 4.54344 28.3203 4.44969 27.1016 4.44969C25.8828 4.44969 25.8828 4.26219 27.0078 3.60594C28.1328 2.85594 28.1328 2.48094 26.9141 1.26219C25.6016 0.043438 25.2266 0.043438 24.2891 1.16844ZM51.4766 2.85594C52.7891 3.51219 53.9141 4.63719 54.1016 5.48094C54.3828 7.16844 50.7266 15.6997 49.6953 15.6997C49.2266 15.6997 49.1328 13.7309 49.4141 11.1997C49.8828 6.13719 48.6641 6.41844 47.8203 11.6684C46.9766 16.8247 44.3516 16.9184 43.6953 11.9497C43.4141 9.79344 42.9453 7.82469 42.6641 7.54344C41.5391 6.32469 41.2578 7.91844 42.1016 11.4809C42.5703 13.5434 42.7578 15.4184 42.4766 15.6997C41.6328 16.4497 39.2891 12.7934 38.1641 8.76219C37.1328 5.38719 37.2266 5.01219 39.1953 3.41844C41.7266 1.35594 47.9141 1.07469 51.4766 2.85594ZM14.9141 19.3559C15.3828 20.3872 15.8516 22.9184 15.8516 24.9809C15.8516 28.6372 15.6641 28.8247 13.0391 28.8247H10.2266V23.1997C10.2266 18.2309 10.4141 17.5747 12.1016 17.5747C13.0391 17.5747 14.3516 18.4184 14.9141 19.3559ZM49.6016 20.3872C49.6016 23.0122 49.4141 23.1997 45.8516 23.1997C42.2891 23.1997 42.1016 23.0122 42.1016 20.3872C42.1016 17.7622 42.2891 17.5747 45.8516 17.5747C49.4141 17.5747 49.6016 17.7622 49.6016 20.3872ZM27.1016 27.6997C27.1016 31.8247 25.9766 34.4497 24.1016 34.4497C23.1641 34.4497 23.0703 24.6997 24.0078 23.8559C25.8828 21.8872 27.1016 23.4809 27.1016 27.6997ZM35.1641 28.0747C35.0703 30.7934 35.3516 31.1684 37.6953 31.4497C41.6328 31.9184 40.6953 33.5122 36.5703 33.5122C30.2891 33.5122 31.2266 35.2934 37.6016 35.5747L43.5078 35.8559L43.7891 39.7934L44.0703 43.6372L38.8203 44.2934C35.9141 44.6684 31.3203 44.6684 28.6953 44.1997C24.2891 43.4497 23.8203 43.0747 23.5391 40.7309C23.1641 37.2622 24.7578 35.3872 28.1328 35.3872C31.1328 35.3872 31.7891 33.8872 29.2578 33.2309C27.8516 32.8559 27.9453 32.6684 29.8203 32.1059C31.8828 31.3559 31.9766 31.2622 30.3828 30.1372C28.8828 29.0122 28.9766 28.7309 31.8828 27.0434C33.6641 25.9184 35.1641 25.0747 35.1641 25.0747C35.2578 25.0747 35.2578 26.4809 35.1641 28.0747ZM17.7266 32.1059C17.7266 33.1372 16.6016 33.5122 13.5078 33.5122C10.4141 33.5122 9.2891 33.1372 9.2891 32.1059C9.2891 31.0747 10.4141 30.6997 13.5078 30.6997C16.6016 30.6997 17.7266 31.0747 17.7266 32.1059ZM49.6016 40.9184C49.6016 41.6684 47.4453 42.8872 46.2266 42.8872C46.0391 42.8872 45.8516 41.8559 45.8516 40.5434C45.8516 38.3872 46.0391 38.2934 47.7266 39.1372C48.7578 39.6997 49.6016 40.5434 49.6016 40.9184ZM22.4141 41.0122C22.4141 42.9809 20.9141 43.4497 18.7578 42.0434C17.0703 41.0122 18.2891 39.1372 20.6328 39.1372C21.7578 39.1372 22.4141 39.7934 22.4141 41.0122ZM12.1016 45.6997V50.3872H6.94535H1.7891V45.6997V41.0122H6.94535H12.1016V45.6997ZM33.6641 45.2309C39.5703 45.2309 45.5703 44.9497 47.0703 44.4809L49.6016 43.8247V49.3559C49.6016 54.2309 49.3203 55.1684 47.5391 56.1059C44.2578 57.8872 27.4766 58.2622 22.4141 56.7622L18.1953 55.4497L17.9141 49.6372L17.6328 43.7309L20.2578 44.4809C21.6641 44.8559 27.7578 45.2309 33.6641 45.2309ZM12.1016 53.3872C12.1016 55.1684 9.1016 57.8872 7.13285 57.8872C4.88285 57.8872 1.7891 55.3559 1.7891 53.4809C1.7891 52.6372 3.2891 52.2622 6.94535 52.2622C10.2266 52.2622 12.1016 52.6372 12.1016 53.3872Z" fill="black"/>
<path d="M28.5078 49.4497C28.1328 50.0122 30.1015 50.3872 33.664 50.3872C37.2265 50.3872 39.1953 50.0122 38.8203 49.4497C38.539 48.8872 36.1953 48.5122 33.664 48.5122C31.1328 48.5122 28.789 48.8872 28.5078 49.4497Z" fill="black"/>
<path d="M30.664 52.9185C32.2577 53.106 35.0702 53.106 36.7577 52.9185C38.3515 52.731 37.039 52.5435 33.664 52.5435C30.289 52.5435 28.9765 52.731 30.664 52.9185Z" fill="black"/>
</svg>
