<svg width="50" height="43" viewBox="0 0 50 43" fill="none" xmlns="http://www.w3.org/2000/svg">
<path d="M27.9297 0.146484C27.041 0.625 26.9043 0.976562 26.9043 2.7832C26.9043 4.17969 26.9043 4.20898 27.1582 4.46289C27.3535 4.6582 27.4609 4.69727 27.7148 4.64844C28.2715 4.53125 28.3203 4.42383 28.3691 2.90039L28.418 1.51367L29.5801 1.48438C30.3418 1.46484 30.7812 1.49414 30.8691 1.57227C30.9766 1.66016 31.0059 2.12891 31.0059 3.94531C31.0059 6.45508 31.0742 6.92383 31.6211 7.94922C32.0215 8.7207 33.125 9.82422 33.8965 10.2344C35.4297 11.0352 37.4219 11.0352 38.9551 10.2344C39.7461 9.81445 40.8594 8.71094 41.2305 7.95898C41.8164 6.79688 41.875 6.50391 41.9336 3.90625L41.9922 1.51367L43.1543 1.48438C43.8965 1.46484 44.3555 1.49414 44.4238 1.5625C44.4922 1.63086 44.5508 2.87109 44.5801 5.25391L44.6289 8.83789L44.8926 9.39453C45.4004 10.4785 46.5039 11.3379 47.5879 11.4746C48.584 11.6016 48.4863 11.416 48.4863 13.2227V14.8145L42.4707 17.7051L36.4551 20.5957L31.5625 18.252C28.8672 16.9531 26.1426 15.6543 25.5176 15.3516L24.3652 14.8145V13.2812C24.3652 12.168 24.3945 11.7188 24.4922 11.6406C24.5508 11.5918 24.834 11.5234 25.0977 11.5039C25.8887 11.4355 26.7383 10.9863 27.334 10.3418C28.0469 9.58008 28.2812 8.93555 28.3496 7.64648C28.3887 6.67969 28.3887 6.65039 28.1445 6.40625C27.8223 6.08398 27.4023 6.07422 27.1289 6.36719C26.9629 6.55273 26.9141 6.75781 26.8848 7.51953C26.8359 8.53516 26.6602 9.01367 26.1523 9.49219C25.8301 9.80469 25.2539 10.0586 24.9023 10.0586C23.9941 10.0586 23.2031 10.6055 23.0078 11.377C22.9297 11.6699 22.9004 14.2578 22.9004 19.6582V27.5L21.0547 28.6035L19.209 29.6973L18.6133 29.4922C18.0762 29.3164 17.7832 29.2969 15.5273 29.2969H13.0371V22.959V16.6113L15.7031 16.582L18.3594 16.5527L18.8965 16.2793C19.6387 15.8984 20.293 15.2246 20.6152 14.5117C20.8496 14.0137 20.8887 13.7793 20.8984 13.0859C20.8984 12.3438 20.8691 12.1875 20.5859 11.6113C19.9707 10.3711 18.916 9.6875 17.4805 9.59961L16.6699 9.54102L16.6309 8.7793C16.5723 7.7832 16.2109 7.04102 15.5371 6.5332C15 6.12305 14.502 5.95703 13.6523 5.87891L13.0371 5.83008V4.93164C13.0371 4.16016 13.0078 3.98438 12.8223 3.71094C12.3438 3.01758 12.2266 2.97852 10.4492 2.97852C8.67188 2.97852 8.55469 3.01758 8.07617 3.71094C7.89062 3.98438 7.86133 4.16016 7.86133 4.93164V5.83008L7.10938 5.89844C5.36133 6.04492 4.36523 7.06055 4.26758 8.75977L4.21875 9.57031H3.62305C2.51953 9.57031 2.00195 9.85352 2.00195 10.459C2.00195 10.5957 2.08984 10.791 2.1875 10.8789C2.36328 11.0352 2.89062 11.0547 10 11.0352C15.2832 11.0352 17.7539 11.0645 18.0273 11.1328C18.5742 11.2793 19.209 11.9336 19.375 12.5195C19.6484 13.4766 19.209 14.4629 18.3105 14.9121L17.8809 15.1367H10.4785C2.38281 15.1367 2.68555 15.1562 2.06055 14.5703C1.64062 14.1699 1.41602 13.6133 1.41602 12.9102C1.41602 12.4414 1.37695 12.2656 1.2207 12.1094C0.976562 11.8652 0.527344 11.8555 0.234375 12.0996C0.0195312 12.2754 0 12.3633 0 13.1055C0 14.1602 0.322266 14.9023 1.08398 15.625C2.02148 16.5137 2.13867 16.543 5.20508 16.582L7.86133 16.6113V22.9492V29.2871L5.19531 29.3164C2.54883 29.3457 2.53906 29.3457 1.98242 29.6094C1.28906 29.9316 0.634766 30.5957 0.273438 31.3281C0.0488281 31.8066 0.00976562 32.0117 0 32.7637C0 33.5156 0.0390625 33.7207 0.253906 34.1895C0.898438 35.5566 2.14844 36.3184 3.74023 36.3281H4.24805V36.9629C4.24805 38.125 4.78516 39.082 5.73242 39.5996C6.14258 39.8242 6.41602 39.8926 7.03125 39.9414L7.8125 39.9902L7.86133 40.9863C7.91992 42.0898 8.03711 42.3633 8.65234 42.7246C8.94531 42.9004 9.16016 42.9199 10.4492 42.9199C11.7383 42.9199 11.9531 42.9004 12.2461 42.7246C12.8613 42.3633 12.9883 42.0898 13.0176 41.0059L13.0566 40.0391L13.6426 40.5762C13.9648 40.8789 14.4824 41.25 14.8047 41.4062C16.0156 42.0215 15.2832 42.002 30.4883 41.9727L44.3359 41.9434L44.8535 41.6504C45.4297 41.3379 45.7422 41.0059 46.0742 40.3906C46.2793 40.0098 46.2891 39.8535 46.3184 37.4414L46.3477 34.8926L46.9824 34.834C47.3242 34.7949 47.8027 34.6875 48.0469 34.5801C48.6523 34.3066 49.3164 33.6621 49.6289 33.0176L49.9023 32.4707L49.9316 22.0215C49.9512 12.627 49.9414 11.5332 49.8047 11.1621C49.541 10.4785 48.8672 10.0586 48.0371 10.0586C47.4121 10.0586 46.709 9.62891 46.3184 9.00391C46.0938 8.64258 46.0938 8.60352 46.0449 4.98047L45.9961 1.31836L45.752 0.888672C45.5859 0.595703 45.3613 0.380859 45.0781 0.224609C44.6875 0.0195312 44.5215 0 43.252 0C41.7578 0 41.4648 0.0585938 41.0352 0.46875C40.5371 0.9375 40.5273 0.986328 40.4688 3.66211C40.4199 5.9668 40.4004 6.25 40.2051 6.73828C39.7559 7.88086 38.75 8.83789 37.6562 9.17969C35.7031 9.79492 33.7109 8.91602 32.7832 7.03125C32.5195 6.49414 32.5195 6.47461 32.4707 3.90625C32.4121 0.966797 32.373 0.78125 31.6602 0.3125C31.2793 0.0585938 31.2012 0.0488281 29.7461 0.0195312C28.4961 0 28.1738 0.0195312 27.9297 0.146484ZM11.5723 5.12695V5.85938H10.4492H9.32617V5.12695V4.39453H10.4492H11.5723V5.12695ZM14.4727 7.55859C14.9219 7.83203 15.1855 8.36914 15.1855 9.02344V9.57031H10.4492H5.71289V9.02344C5.71289 8.1543 6.05469 7.64648 6.77734 7.41211C6.91406 7.37305 8.63281 7.34375 10.5957 7.35352C13.916 7.37305 14.1797 7.38281 14.4727 7.55859ZM30.332 19.2871C33.5254 20.8203 36.2207 22.0996 36.3379 22.1289C36.4746 22.168 38.4668 21.2598 42.4609 19.3457C45.7227 17.7832 48.4082 16.5039 48.4375 16.5039C48.4668 16.5039 48.4863 19.9805 48.4863 24.2188C48.4863 32.4609 48.4961 32.3145 48.0176 32.8516C47.7734 33.125 47.1289 33.3984 46.709 33.3984H46.3477L46.3184 29.8535C46.2891 26.4258 46.2793 26.3086 46.0742 25.918C45.7324 25.2734 45.3906 24.9316 44.8047 24.6484C44.3359 24.4141 44.1309 24.375 43.4668 24.375C42.168 24.3848 41.7383 24.6875 41.0742 26.1035C40.3711 27.5879 39.2383 28.457 37.6758 28.7305C35.7617 29.0527 33.7988 27.9883 32.9297 26.1523C32.1875 24.5996 31.7578 24.3652 29.6875 24.3652C28.0762 24.375 28.1934 24.3359 26.0352 25.6348C25.1758 26.1426 24.4531 26.5625 24.4238 26.5625C24.3945 26.5625 24.3652 24.2969 24.3652 21.5332C24.3652 18.7695 24.4043 16.5039 24.4531 16.5039C24.4922 16.5039 27.1387 17.7539 30.332 19.2871ZM11.5723 22.9492V29.2969H10.4492H9.32617V22.9492V16.6016H10.4492H11.5723V22.9492ZM30.8984 25.8887C31.1523 25.9766 31.2793 26.1426 31.6406 26.8555C32.6367 28.8379 34.4727 30.0781 36.6406 30.2344C38.0566 30.3418 39.8047 29.7559 40.8984 28.7988C41.4844 28.291 42.1777 27.3242 42.4707 26.5918C42.7441 25.918 42.9883 25.752 43.584 25.8203C44.1699 25.8984 44.5312 26.1133 44.7168 26.5039C44.8535 26.7969 44.873 27.3926 44.873 31.582V36.3281H39.8145H34.7559L33.4961 34.5117C32.8027 33.5059 32.1387 32.6465 32.0117 32.5879C31.4746 32.3438 30.8594 32.9297 31.0645 33.4668C31.123 33.6133 31.5527 34.2871 32.0117 34.9512C32.4805 35.6152 32.8613 36.2012 32.8613 36.2402C32.8613 36.2891 32.4902 36.3281 32.041 36.3281H31.2207L29.0234 33.1641C27.8027 31.4258 26.8066 29.9512 26.7871 29.8828C26.7578 29.7754 27.7148 29.1016 27.8906 29.1016C27.9199 29.1016 28.3105 29.6289 28.7598 30.2734C29.5801 31.4453 29.7559 31.6016 30.2246 31.5234C30.5371 31.4844 30.8496 31.0352 30.7812 30.7422C30.7422 30.625 30.3711 30.0098 29.9316 29.3945C29.502 28.7891 29.1504 28.2324 29.1504 28.1641C29.1504 28.1055 29.209 27.998 29.2871 27.9395C29.5117 27.7441 29.7363 26.9629 29.7363 26.3477V25.7812H30.166C30.3906 25.7812 30.7227 25.8301 30.8984 25.8887ZM28.125 27.002C28.0078 27.2363 27.0703 27.8418 23.916 29.7363C21.6797 31.0742 19.7363 32.1875 19.5898 32.207C19.2676 32.2559 18.6719 31.9727 18.7305 31.8066C18.75 31.7383 20.8984 30.4102 23.4961 28.8477L28.2227 26.0156L28.252 26.3574C28.2715 26.5527 28.2227 26.8359 28.125 27.002ZM27.4316 33.4473C28.4863 34.9512 29.3457 36.2109 29.3457 36.25C29.3457 36.2988 28.9844 36.3281 28.5352 36.3281H27.7246L25.9863 33.8281C24.7461 32.041 24.2773 31.2988 24.3555 31.2207C24.5605 31.0156 25.3906 30.5762 25.459 30.6445C25.498 30.6836 26.3867 31.9434 27.4316 33.4473ZM17.2852 30.8496C17.2266 30.8887 16.4746 31.3477 15.6152 31.8652C14.3848 32.5977 13.9062 32.9492 13.4473 33.4375C12.8125 34.1211 12.3535 34.9609 12.1582 35.8301C12.041 36.3477 12.0703 37.7832 12.2168 38.252L12.2754 38.4766H9.44336H6.61133L6.29883 38.2227C5.86914 37.8613 5.71289 37.4902 5.71289 36.8652V36.3281H7.8125C10.0293 36.3281 10.3027 36.2793 10.4883 35.8691C10.6348 35.5371 10.625 35.4102 10.4102 35.1465L10.2246 34.9121L6.57227 34.8633L2.92969 34.8145L2.49023 34.5703C1.29883 33.8965 1.06445 32.2852 2.03125 31.377C2.70508 30.7324 2.20703 30.7715 10.1562 30.7617C14.1504 30.7617 17.334 30.8008 17.2852 30.8496ZM24.4043 34.1211C25.1855 35.2441 25.8301 36.2012 25.8301 36.25C25.8301 36.2891 25.459 36.3281 25.0098 36.3281H24.1895L22.9492 34.5605C22.2754 33.5938 21.7285 32.7832 21.748 32.7637C21.8262 32.6855 22.9395 32.041 22.959 32.0605C22.9688 32.0703 23.623 32.998 24.4043 34.1211ZM18.3398 33.4082C18.8184 33.6523 19.6094 33.75 20.0879 33.6133L20.4395 33.5156L21.377 34.8633C21.8945 35.6055 22.3145 36.2402 22.3145 36.2695C22.3145 36.2988 20.3613 36.3281 17.9688 36.3281H13.623V36.1035C13.623 35.7422 14.1602 34.7559 14.5703 34.3555C14.7754 34.1602 15.4883 33.6621 16.1426 33.2617L17.3535 32.5293L17.6562 32.8711C17.8125 33.0566 18.125 33.3008 18.3398 33.4082ZM44.8535 38.7695L44.8242 39.7461L44.4531 40.1074L44.0918 40.4785H30.1465H16.2109L15.6543 40.2148C14.7754 39.8047 13.9453 38.877 13.6816 38.0078L13.6133 37.793H29.248H44.8926L44.8535 38.7695ZM11.5723 40.7227V41.5039H10.4492H9.32617V40.7227V39.9414H10.4492H11.5723V40.7227Z" fill="black"/>
<path d="M34.8437 13.0078C34.2871 13.2812 34.375 14.1211 34.9902 14.3066L35.3027 14.3945V15.6445C35.3027 16.709 35.2832 16.8945 35.1562 16.8945C34.9121 16.8945 34.5215 17.3535 34.5215 17.627C34.5215 17.7637 34.6289 17.9883 34.7656 18.1152C34.9902 18.3496 35.0683 18.3594 36.084 18.3594C37.0996 18.3594 37.1777 18.3496 37.4023 18.1152C37.539 17.9883 37.6465 17.7637 37.6465 17.627C37.6465 17.3242 37.2461 16.8945 36.9629 16.8945C36.7773 16.8945 36.7676 16.8457 36.7676 15.2539C36.7676 13.4668 36.7285 13.3203 36.1816 13.0371C35.8594 12.8711 35.1562 12.8516 34.8437 13.0078Z" fill="black"/>
</svg>
