<svg width="37" height="50" viewBox="0 0 37 50" fill="none" xmlns="http://www.w3.org/2000/svg">
<path d="M19.9219 0.09375C19.3457 0.279297 18.8184 0.728516 18.5645 1.24609C18.3887 1.60742 18.3594 1.85156 18.3594 2.83789V4.00977L18.0664 4.29297C17.6172 4.72266 17.2266 5.39648 17.041 6.04102C16.875 6.59766 16.8848 6.83203 17.1289 11.6074C17.3242 15.2891 17.4316 16.6855 17.5293 16.9199C17.6367 17.1641 17.6758 17.6719 17.6758 18.9902V20.748H17.2559H16.8359L15.4688 15.6406C14.2578 11.1289 14.1113 10.5039 14.1895 10.1719C14.3066 9.71289 14.1602 9.16602 13.8379 8.81445C13.6621 8.61914 13.6328 8.51172 13.6914 8.23828C13.7793 7.80859 13.6328 7.26172 13.3301 6.90039C13.125 6.65625 13.0957 6.53906 13.1445 6.1875C13.1934 5.86523 13.1152 5.43555 12.8418 4.43945C12.4707 3.07227 12.2266 2.60352 11.7383 2.34961C11.123 2.03711 10.8887 2.05664 8.22266 2.7793C6.80664 3.16016 5.52734 3.53125 5.39063 3.59961C4.81445 3.90234 4.49219 4.42969 4.49219 5.07422C4.49219 5.98242 5.2832 8.44336 5.57617 8.44336C5.60547 8.44336 5.625 8.76562 5.625 9.14648C5.61523 9.75195 5.6543 9.9082 5.85938 10.2012C6.05469 10.4746 6.10352 10.6602 6.10352 11.1484C6.10352 11.6855 6.14258 11.793 6.43555 12.1543C6.72852 12.5156 6.86524 12.9648 7.82227 16.5293C8.4082 18.7168 8.88672 20.5527 8.88672 20.6113C8.88672 20.6895 8.62305 20.7383 8.17383 20.7676C7.33399 20.8066 6.875 21.0508 6.54297 21.6562C6.34766 21.9883 6.33789 22.1445 6.36719 23.3359C6.39648 24.4785 6.42578 24.6738 6.60156 24.918C6.86524 25.2695 7.39258 25.6309 7.65625 25.6309C7.77344 25.6309 7.91016 25.6699 7.97852 25.709C8.06641 25.7676 8.88672 31.1387 8.88672 31.6758C8.88672 31.7539 8.21289 31.7832 6.51367 31.7832C3.93555 31.7832 3.4082 31.8516 2.51953 32.3398C1.96289 32.6426 1.17188 33.4434 0.888672 34.0098C0.478516 34.8203 0.390625 35.416 0.390625 37.5449C0.390625 39.3613 0.371094 39.5957 0.195313 39.9375C0.00976563 40.2988 0 40.5137 0 44.0488C0 46.4512 0.0390625 47.8867 0.107422 48.0625C0.244141 48.4336 0.664063 48.873 1.04492 49.0293C1.30859 49.1465 3.61328 49.166 14.8438 49.166C28.0859 49.166 28.3301 49.166 28.7109 48.9707C29.082 48.7852 29.3945 48.4336 29.5313 48.043C29.5703 47.9355 30.0879 44.3223 30.6738 40.0059C31.4258 34.4688 31.709 32.1055 31.6406 31.9883C31.4648 31.6465 30.9766 31.5879 30.7324 31.8613C30.6055 31.998 30.3223 33.8828 29.502 39.8691C28.8867 44.4102 28.3887 47.7598 28.3203 47.8477C28.2129 47.9746 27.2461 47.9941 20.8594 47.9941H13.5254L13.5547 44.293C13.584 40.9922 13.5645 40.5527 13.418 40.1719C13.2813 39.8301 13.2324 39.2637 13.1836 37.4473C13.1348 35.6211 13.0859 35.0547 12.9492 34.6641C12.5586 33.5508 11.7383 32.6523 10.6934 32.1738L10.1074 31.9004L9.72656 29.0781C9.52149 27.5352 9.33594 26.1484 9.30664 25.9922L9.25781 25.7285H20.3516H31.4453L31.3965 25.9922C31.1621 27.4082 31.1523 27.7109 31.2988 27.9355C31.4453 28.1699 31.748 28.2383 32.0703 28.1113C32.2461 28.043 32.373 27.6035 32.4707 26.8027C32.5879 25.7578 32.5977 25.7383 33.0371 25.6211C33.5938 25.4746 33.9551 25.2012 34.1797 24.752C34.3457 24.4395 34.375 24.1758 34.375 23.2383C34.375 21.9883 34.2773 21.6465 33.8281 21.2168C33.457 20.875 33.1055 20.748 32.5 20.748C32.1191 20.748 32.0215 20.7188 32.0605 20.6113C32.0898 20.543 33.0469 17.0078 34.1797 12.7793C36.4551 4.29297 36.4356 4.41016 35.8984 3.7168C35.752 3.52148 35.5176 3.30664 35.3711 3.22852C35 3.0332 31.7773 2.19336 31.416 2.19336C30.957 2.19336 30.293 2.56445 30.0391 2.96484C29.8828 3.19922 29.043 6.19727 27.4805 12.0273L25.1563 20.748H24.3457H23.5352V18.9414C23.5352 17.8281 23.5742 17.0566 23.6426 16.9102L23.75 16.666L24.209 16.9004C24.9414 17.2715 25.1465 17.291 25.4395 16.998C25.8105 16.627 25.6445 16.1484 25.1172 16.0117C24.6191 15.8848 24.1992 15.5527 24.0039 15.1133C23.7109 14.4395 23.8086 14.2246 24.9512 13.082C25.752 12.2812 26.0254 11.9297 26.3281 11.3145C26.6797 10.6016 26.709 10.5039 26.709 9.66406C26.709 8.83398 26.6895 8.73633 26.4258 8.36523C26.0449 7.81836 25.459 7.53516 24.7656 7.58398L24.2383 7.61328L24.1992 6.7832C24.1504 5.81641 23.8672 5.13281 23.2422 4.48828L22.8711 4.09766L22.832 2.87695C22.793 1.56836 22.6953 1.25586 22.1777 0.699219C21.6211 0.09375 20.6934 -0.150391 19.9219 0.09375ZM21.1914 1.40234C21.5625 1.67578 21.6797 1.97852 21.6797 2.75977C21.6797 3.44336 21.6699 3.47266 21.4746 3.41406C21.2012 3.32617 20.0195 3.31641 19.7461 3.4043C19.5313 3.47266 19.5313 3.46289 19.5313 2.66211C19.5313 1.74414 19.6484 1.48047 20.1563 1.25586C20.5078 1.09961 20.8398 1.14844 21.1914 1.40234ZM11.2109 3.43359C11.4551 3.63867 12.0605 5.79688 11.9629 6.09961C11.9238 6.20703 11.8262 6.33398 11.7383 6.38281C11.377 6.57812 6.70899 7.75977 6.5332 7.71094C6.28906 7.63281 6.2207 7.48633 5.91797 6.33398C5.625 5.20117 5.60547 4.89844 5.82031 4.72266C5.94727 4.61523 10.5859 3.29688 10.8984 3.27734C10.9668 3.26758 11.1035 3.3457 11.2109 3.43359ZM33.1836 3.80469C34.0625 4.03906 34.8438 4.2832 34.9219 4.35156C35 4.41016 35.0586 4.57617 35.0586 4.71289C35.0586 4.84961 34.1016 8.51172 32.9395 12.8574L30.8301 20.748H28.5938C27.373 20.748 26.3672 20.7383 26.3672 20.7188C26.3672 20.6016 26.6797 19.6738 26.7188 19.6738C26.748 19.6738 27.0508 19.7422 27.3926 19.8301C27.9785 19.9766 28.0469 19.9766 28.2715 19.8301C28.7109 19.5469 28.5352 18.9219 27.9785 18.7656C27.8711 18.7363 27.5977 18.6582 27.3828 18.5996L26.9727 18.502L27.168 17.7402C27.2754 17.3301 27.373 16.9785 27.3828 16.959C27.4023 16.9492 27.8223 17.0469 28.3301 17.1836C28.8379 17.3203 29.3555 17.4277 29.4824 17.4277C29.7949 17.4277 30.0781 17.1641 30.0781 16.8809C30.0781 16.5391 29.707 16.3242 28.6719 16.0605L27.7246 15.8164L27.7832 15.5137C27.8125 15.3379 27.9004 14.9766 27.9883 14.7031L28.125 14.2148L28.5938 14.3516C29.1992 14.5371 29.5801 14.5371 29.8047 14.332C30.2539 13.9316 29.873 13.4434 28.9648 13.2383C28.5254 13.1406 28.418 13.082 28.457 12.9551C28.4863 12.8672 28.5742 12.5156 28.6719 12.1738C28.7598 11.8418 28.8867 11.5684 28.9453 11.5684C29.0039 11.5684 29.4434 11.6758 29.9316 11.8125C30.4102 11.9492 30.8887 12.0566 30.9766 12.0566C31.2012 12.0566 31.543 11.7148 31.543 11.4902C31.543 11.1289 31.2891 10.9727 30.2734 10.6992C29.6387 10.5332 29.2383 10.377 29.2188 10.2891C29.209 10.2109 29.2773 9.86914 29.375 9.51758C29.5703 8.81445 29.5117 8.84375 30.459 9.03906C31.0645 9.16602 31.084 9.16602 31.2598 8.94141C31.6602 8.45312 31.3965 8.0625 30.5371 7.86719C30.2344 7.79883 29.9609 7.71094 29.9316 7.67188C29.8926 7.59375 30.2051 6.33398 30.293 6.24609C30.3125 6.22656 30.7813 6.32422 31.3281 6.46094C32.5488 6.7832 32.8418 6.73438 32.8906 6.1875C32.9297 5.72852 32.8223 5.65039 31.7188 5.35742C31.2207 5.23047 30.7617 5.10352 30.6934 5.07422C30.5371 5.02539 30.8984 3.64844 31.123 3.49219C31.3574 3.30664 31.4258 3.31641 33.1836 3.80469ZM21.5527 4.69336C22.0117 4.85938 22.6953 5.54297 22.9102 6.05078C22.9883 6.23633 23.0469 6.66602 23.0469 6.99805C23.0566 7.79883 22.6563 15.5527 22.5977 15.8359C22.5586 16.0605 22.5488 16.0605 20.5664 16.0605H18.584L18.5156 15.2988C18.4863 14.8887 18.3691 12.7891 18.252 10.6406C18.0273 6.31445 18.0273 6.22656 18.584 5.49414C19.2871 4.57617 20.3809 4.2832 21.5527 4.69336ZM12.5 7.75C12.627 8.00391 12.5488 8.16016 12.1777 8.39453C11.7578 8.6582 11.709 9.0293 12.0703 9.3125C12.2363 9.43945 12.4023 9.49805 12.5488 9.45898C12.7832 9.40039 13.0859 9.625 13.0859 9.85938C13.0859 9.9375 12.9883 10.0645 12.8711 10.1426C12.627 10.2891 7.94922 11.5684 7.63672 11.5684C7.33399 11.5684 7.17774 11.3145 7.30469 11.0312C7.37305 10.8945 7.48047 10.7871 7.55859 10.7871C7.72461 10.7871 8.00781 10.4258 8.00781 10.2207C8.00781 9.98633 7.5293 9.5957 7.32422 9.66406C6.92383 9.79102 6.60156 9.40039 6.81641 9.04883C6.9043 8.92188 11.6797 7.59375 12.1289 7.57422C12.2949 7.56445 12.4316 7.63281 12.5 7.75ZM25.4004 8.94141C25.5859 9.12695 25.6055 9.23438 25.5664 9.75195C25.498 10.5039 25.166 11.1777 24.5215 11.8711L24.0332 12.3984V11.5684C24.043 10.0742 24.1504 9.16602 24.3555 8.94141C24.5996 8.66797 25.127 8.66797 25.4004 8.94141ZM14.375 16.0703C15.0586 18.6191 15.625 20.709 15.625 20.7188C15.625 20.7383 15.1465 20.748 14.5508 20.748C13.9648 20.748 13.4766 20.7285 13.4766 20.6992C13.4766 20.6699 12.9492 18.6875 12.3047 16.2852C11.6602 13.8828 11.1426 11.9102 11.1621 11.9004C11.2207 11.8418 12.9492 11.3926 13.0371 11.4121C13.0859 11.4219 13.6914 13.5215 14.375 16.0703ZM11.1426 16.4707L12.2754 20.6992L11.25 20.7285C10.6934 20.7383 10.2051 20.7383 10.1855 20.709C10.1172 20.6504 8.02734 12.7891 8.06641 12.75C8.125 12.6914 9.60938 12.2715 9.81445 12.2617C10 12.252 10.1172 12.6426 11.1426 16.4707ZM22.3633 18.9902V20.748H20.6055H18.8477V18.9902V17.2324H20.6055H22.3633V18.9902ZM33.0273 22.0859C33.1738 22.2129 33.2031 22.3984 33.2031 23.1895C33.2031 23.8438 33.1641 24.1855 33.0664 24.3223C32.9297 24.5078 32.6758 24.5078 20.4492 24.5371C9.375 24.5566 7.94922 24.5469 7.74414 24.4102C7.5293 24.2637 7.51953 24.2051 7.51953 23.2383C7.51953 22.4473 7.54883 22.1934 7.67578 22.0762C7.8125 21.9395 9.0918 21.9199 20.332 21.9199C31.8359 21.9199 32.8613 21.9297 33.0273 22.0859ZM10.166 33.209C10.8203 33.5117 11.377 34.0586 11.6895 34.6934C11.9531 35.2402 11.9629 35.2793 11.9629 37.1055V38.9609L6.75781 38.9902L1.54297 39.0098L1.58203 37.0859C1.61133 35.2891 1.63086 35.123 1.8457 34.7129C2.25586 33.9219 2.97852 33.3066 3.80859 33.043C3.94531 33.0039 5.33203 32.9746 6.88477 32.9844C9.55078 33.0039 9.74609 33.0137 10.166 33.209ZM12.2461 40.3965C12.4805 40.7285 12.4805 47.4473 12.2461 47.7793L12.0996 47.9941H6.81641C2.03125 47.9941 1.51367 47.9746 1.34766 47.8281C1.18164 47.6816 1.17188 47.4375 1.17188 44.1074C1.17188 40.9238 1.19141 40.5234 1.33789 40.3574C1.48438 40.1914 1.78711 40.1816 6.79688 40.1816H12.0996L12.2461 40.3965Z" fill="black"/>
<path d="M31.0546 29.5369C30.8105 29.781 30.8007 30.1423 31.0351 30.3474C31.4159 30.6892 32.0312 30.4353 32.0312 29.947C32.0312 29.6736 31.6991 29.3416 31.4452 29.3416C31.3378 29.3416 31.162 29.4295 31.0546 29.5369Z" fill="black"/>
<path d="M16.1915 30.5332C15.6836 30.6699 15.1661 31.2656 15.0879 31.8027C15.0586 32.0371 15.0391 34.0488 15.0586 36.2754C15.0879 40.7676 15.0782 40.6992 15.7422 41.1777C16.0645 41.4023 16.1036 41.4023 19.0333 41.4316L22.0118 41.4609L24.043 39.4297L26.0743 37.3984V34.5371C26.0743 31.3047 26.045 31.1484 25.3223 30.6992L24.9512 30.4648L20.752 30.4453C18.1836 30.4355 16.4161 30.4746 16.1915 30.5332ZM24.7168 31.6855C24.8926 31.7832 24.9024 31.9199 24.9024 34.1758V36.5684H23.2422C21.045 36.5684 21.1915 36.4219 21.1915 38.6191V40.2793H18.7989C16.543 40.2793 16.4063 40.2695 16.3086 40.0938C16.25 39.9668 16.211 38.4727 16.211 35.8945V31.8906L16.4258 31.7441C16.6114 31.6074 17.1778 31.5879 20.586 31.5879C23.1153 31.5879 24.5899 31.627 24.7168 31.6855ZM24.0235 37.7695C24.0235 37.7793 23.6524 38.1602 23.1934 38.6191L22.3633 39.4492V38.5898V37.7402H23.1934C23.6524 37.7402 24.0235 37.75 24.0235 37.7695Z" fill="black"/>
</svg>
