<svg width="307" height="255" viewBox="0 0 307 255" fill="none" xmlns="http://www.w3.org/2000/svg">
<g filter="url(#filter0_d_309_1672)">
<path d="M267.344 84.0441C263.455 89.8651 262.006 92.6229 258.33 100.729L247.59 181.853L142.302 241.113L70.5756 181.853L45.4523 90.5647C35.4709 73.902 29.2104 51.0126 15.3425 37.2494C61.0948 19.6451 87.5088 11.327 136.932 1.19442C143.835 -0.265729 152.73 18.1128 167.234 45.6878L230.33 79.1461C234.873 77.3121 239.597 75.5241 244.522 73.758C248.957 72.1671 253.556 70.5939 258.33 69.0208C267.825 65.8922 278.017 62.7636 289.015 59.496C281.692 65.3823 275.433 72.7777 270.77 79.1461C269.507 80.8709 268.362 82.5203 267.344 84.0441Z" fill="#1868A2"/>
<path d="M258.33 100.729C262.006 92.6229 263.455 89.8651 267.344 84.0441C268.362 82.5203 269.507 80.8709 270.77 79.1461C275.433 72.7777 281.692 65.3823 289.015 59.496C278.017 62.7636 267.825 65.8922 258.33 69.0208C253.556 70.5939 248.957 72.1671 244.522 73.758C239.597 75.5241 234.873 77.3121 230.33 79.1461M258.33 100.729L142.302 150.401M258.33 100.729L247.59 181.853L142.302 241.113M230.33 79.1461L167.234 45.6878M230.33 79.1461C210.094 87.3148 196.788 95.1481 182.06 107.283M167.234 45.6878C152.73 18.1128 143.835 -0.265729 136.932 1.19442C87.5087 11.327 61.0948 19.6451 15.3425 37.2494C29.2104 51.0126 35.4709 73.902 45.4523 90.5647M167.234 45.6878L104.935 68.7751M142.302 150.401V241.113M142.302 150.401C94.8239 118.339 44.2517 86.8804 45.4523 90.5647M142.302 150.401C153.705 132.913 168.772 118.231 182.06 107.283M45.4523 90.5647L70.5756 181.853L142.302 241.113M45.4523 90.5647L104.935 68.7751M104.935 68.7751C142.302 64.6964 156.846 114.012 182.06 107.283" stroke="#6893BD" stroke-width="2.22476"/>
</g>
<path d="M99.8859 189.892C99.9651 188.862 100.054 187.736 100.151 186.514C100.272 185.262 100.368 183.958 100.438 182.604C100.542 182.581 100.634 182.574 100.714 182.582C100.815 182.592 100.915 182.601 101.016 182.611C101.187 185.275 100.779 186.261 101.811 187.525C103.11 188.271 105.245 188.932 106.432 189.046C107.788 189.003 108.577 188.381 109.608 187.525C110.798 186.538 112.229 185.4 113.098 183.69C114.043 182.161 114.371 179.685 114.085 178.653C113.802 177.588 112.758 175.812 112.03 174.829C111.048 173.833 110.053 172.608 109.099 171.607C108.366 170.762 107.165 169 106.432 168.155C105.623 167.222 105.07 166.121 104.304 165.087C103.561 164.084 103.278 163.05 103.179 162.483C103.225 160.528 102.987 160.182 104.138 158.456C104.905 157.497 107.014 157.497 107.014 157.497C107.392 157.431 108.554 157.425 110.083 157.881C110.494 158.003 111.14 158.449 111.617 158.95C111.872 159.295 112.192 159.717 112.384 160.101C112.576 160.101 112.845 160.317 112.934 159.717C113.024 159.117 113.008 159.252 113.098 158.652C113.12 158.503 113.276 157.453 113.399 157.042C113.47 156.819 113.855 156.942 113.992 156.931L113.013 164.081C112.889 164.101 112.775 164.123 112.672 164.145C112.591 164.137 112.501 164.128 112.4 164.119C112.399 163.081 112.214 162.298 112.03 161.469C111.742 160.936 111.44 160.426 111.04 159.983C110.64 159.54 110.64 159.54 110.22 159.298C109.689 158.991 109.381 158.813 108.723 158.749C107.677 158.648 107.467 158.765 106.432 159.538C105.655 160.435 104.604 161.778 105.78 163.578C106.579 164.801 106.947 165.768 107.679 166.613C108.522 167.585 109.512 168.752 110.307 169.404C111.039 170.249 111.772 171.094 112.551 171.846C113.49 172.935 114.255 173.969 114.899 174.829C115.727 175.937 116.213 177.519 116.412 178.653C116.725 180.441 116.05 183.536 114.855 185.157C113.581 186.938 112.77 187.859 111.774 189.046C110.234 190.056 109.701 190.344 108.449 190.816C106.934 191.219 106.336 191.244 104.947 191.11C104.645 191.081 104.306 191.016 103.93 190.915C103.574 190.815 103.04 190.666 102.328 190.468C101.737 190.281 101.262 190.154 100.903 190.087C100.567 189.99 100.228 189.925 99.8859 189.892Z" fill="#D1E6FD"/>
<path d="M79.3977 125.468L72.11 123.934C72.8873 125.71 73.7976 127.208 74.0279 128.345C74.0279 128.345 76.7128 160.948 76.9046 161.332C77.0964 161.715 74.0279 162.29 74.0279 162.29L99.1513 176.29V169.578C99.1513 169.578 97.0417 171.496 96.4663 171.496C95.891 171.496 80.3567 162.29 80.3567 162.29C80.3567 162.29 77.7353 129.101 77.8635 128.345C77.9917 127.589 78.6929 126.674 79.3977 125.468Z" fill="#D1E6FD" stroke="#CEE6FF" stroke-width="0.383563"/>
<path d="M100.967 159.031C99.7083 161.922 96.2744 163.633 90.9045 161.332C85.5346 158.647 84.5576 155.018 85.8166 152.127C87.0755 149.235 90.8029 147.332 95.981 149.633C101.543 152.51 101.836 156.538 100.967 159.031ZM87.7385 153.037C86.6396 155.561 87.9803 158.705 91.3316 160.164C94.6828 161.624 97.8604 160.596 98.9593 158.072C100.058 155.548 98.475 152.627 95.1237 151.168C91.7724 149.708 88.8375 150.513 87.7385 153.037Z" fill="#D1E6FD"/>
<path d="M121.735 205.37C122.051 205.079 121.782 159.414 121.782 159.414L124.467 159.99C124.467 159.99 124.765 205.492 124.872 205.861C124.925 206.045 127.46 207.908 127.46 207.908L118.603 206.275C118.603 206.275 121.42 205.661 121.735 205.37Z" fill="#D1E6FD"/>
<path d="M121.974 159.413C121.846 159.414 121.718 159.415 121.59 159.415C121.6 161.196 121.61 163.097 121.619 164.918C121.665 178.334 121.792 192.088 121.605 205.229C120.777 205.614 119.591 205.845 118.562 206.088L118.569 206.464C121.521 207.008 124.473 207.552 127.425 208.096L127.573 207.753C126.721 207.123 125.71 206.368 125.056 205.808C124.844 191.553 124.786 177.096 124.677 162.734C124.671 161.843 124.664 160.85 124.659 159.988L124.658 159.834L124.507 159.802C123.612 159.61 122.717 159.418 121.822 159.227C121.795 159.352 121.768 159.477 121.742 159.602C122.637 159.794 123.532 159.985 124.427 160.177L124.275 159.991C124.281 160.852 124.287 161.845 124.293 162.737C124.407 177.132 124.444 191.442 124.688 205.914C125.61 206.88 126.449 207.367 127.346 208.062L127.494 207.719C124.542 207.175 121.59 206.631 118.638 206.086L118.644 206.462C119.724 206.192 120.735 206.073 121.865 205.511C122.313 191.777 122.008 178.426 122.003 164.916C121.994 163.095 121.984 161.194 121.974 159.413ZM121.59 159.415L121.974 159.413L121.742 159.602L121.822 159.227L121.589 159.177L121.59 159.415Z" fill="#CEE6FF"/>
<path d="M132.138 158.455L115.644 155.195L115.644 160.757C115.644 160.757 116.987 158.072 119.48 158.839C120.439 159.031 126.192 160.181 127.343 160.757C128.877 161.907 130.603 164.401 130.603 164.401L132.138 158.455Z" fill="#D1E6FD" stroke="#CEE6FF" stroke-width="0.383563"/>
<path d="M167.712 159.464C165.577 158.247 162.864 159.784 162.864 159.784L160.581 161.096L161.49 178.166C161.49 178.166 164.286 179.519 165.981 178.224C167.105 177.366 166.952 174.403 166.952 174.403L167.592 182.461C167.592 182.461 167.214 179.74 166.29 179.57C164.054 179.157 161.729 182.002 161.729 182.002C161.729 182.002 162.185 202.899 162.52 203.287C162.51 203.67 165.976 203.332 165.976 203.332L156.325 208.573C156.325 208.573 160.928 204.608 161.117 204.035C161.646 203.659 159.313 163.188 158.492 161.644C158.173 160.682 154.372 160.632 154.372 160.632L167.803 156.207L170.904 162.763C170.904 162.763 169.338 160.39 167.712 159.464Z" fill="#D1E6FD"/>
<path d="M161.49 178.166L160.581 161.096L162.864 159.784C162.864 159.784 165.577 158.247 167.712 159.464C169.338 160.39 170.904 162.763 170.904 162.763L167.803 156.207L154.372 160.632C154.372 160.632 158.173 160.682 158.492 161.644C159.313 163.188 161.646 203.659 161.117 204.035C160.928 204.608 156.325 208.573 156.325 208.573L165.976 203.332C165.976 203.332 162.51 203.67 162.52 203.287C162.185 202.899 161.729 182.002 161.729 182.002M161.49 178.166C161.49 178.166 164.286 179.519 165.981 178.224C167.105 177.366 166.952 174.403 166.952 174.403L167.592 182.461C167.592 182.461 167.214 179.74 166.29 179.57C164.054 179.157 161.729 182.002 161.729 182.002M161.49 178.166L161.729 182.002" stroke="#CEE6FF" stroke-width="0.383563"/>
<path d="M183.99 186.333C183.468 192.028 179.881 196.355 175.978 195.998C172.076 195.64 169.335 190.732 169.858 185.037C170.38 179.341 173.967 175.014 177.87 175.372C181.772 175.73 184.513 180.637 183.99 186.333ZM172.777 185.304C172.423 189.161 174.074 193.897 176.136 194.279C179.215 194.849 182.16 189.246 182.04 184.806C181.92 180.365 178.908 177.2 177.695 177.281C175.966 177.123 173.13 181.447 172.777 185.304Z" fill="#D1E6FD"/>
<path d="M190.64 164.217L184.249 166.712L187.164 168.52L189.307 167.561L190.64 164.217Z" fill="#D1E6FD" stroke="#CEE6FF" stroke-width="0.383563"/>
<path d="M201.225 161.443L194.537 163.005L197.254 165.223L199.509 164.577L201.225 161.443Z" fill="#D1E6FD" stroke="#CEE6FF" stroke-width="0.383563"/>
<path d="M194.362 185.918C188.572 185.13 189.318 167.596 189.318 167.596L187.16 168.563C187.16 168.563 186.939 186.014 193.826 188.005C196.426 187.855 197.039 188.688 199.15 186.357C202.739 181.057 199.281 164.239 199.281 164.239L197.277 165.414C197.277 165.414 199.691 182.33 198.265 184.723C196.756 186.138 195.895 186.127 194.362 185.918Z" fill="#D1E6FD" stroke="#CEE6FF" stroke-width="0.383563"/>
<path d="M211.151 180.386L204.616 183.602C204.616 183.602 207.403 181.568 207.455 181.001C207.85 180.464 204.163 150.745 203.166 150.272C203.012 150.067 200.433 149.831 200.433 149.831L205.3 147.797L217.416 170.658C217.416 170.658 215.081 146.977 214.755 146.756C214.618 146.362 213.106 145.842 213.106 145.842L218.298 144.028C218.298 144.028 216.974 145.242 216.75 145.794C216.062 145.731 218.821 176.128 218.821 176.128L205.126 149.689C205.126 149.689 208.264 179.739 209.088 180.196C209.397 180.606 211.151 180.386 211.151 180.386Z" fill="#D1E6FD" stroke="#CEE6FF" stroke-width="0.383563"/>
<path d="M223.551 145.128C223.049 144.146 220.896 144.003 220.896 144.003C220.896 144.003 228.732 139.456 233.553 141.45C238.795 143.617 241.168 145.886 241.97 152.974C241.67 159.651 240.37 164.186 236.495 168.412C231.211 172.894 222.542 173.66 222.542 173.66C222.542 173.66 224.178 171.92 224.364 170.83C225.437 169.444 224.053 146.111 223.551 145.128Z" fill="#D1E6FD" stroke="#CEE6FF" stroke-width="0.383563"/>
<path d="M229.179 169.579C226.64 169.908 225.753 149.941 226.11 144.264C226.632 142.039 238.451 143.822 240.11 152.318C240.322 155.569 237.966 168.438 229.179 169.579Z" fill="#1868A2" stroke="#CEE6FF" stroke-width="0.383563"/>
<defs>
<filter id="filter0_d_309_1672" x="6.28161" y="0" width="284.351" height="254.501" filterUnits="userSpaceOnUse" color-interpolation-filters="sRGB">
<feFlood flood-opacity="0" result="BackgroundImageFix"/>
<feColorMatrix in="SourceAlpha" type="matrix" values="0 0 0 0 0 0 0 0 0 0 0 0 0 0 0 0 0 0 127 0" result="hardAlpha"/>
<feOffset dx="-3.06851" dy="8.05483"/>
<feGaussianBlur stdDeviation="1.99453"/>
<feComposite in2="hardAlpha" operator="out"/>
<feColorMatrix type="matrix" values="0 0 0 0 0.636904 0 0 0 0 0.728117 0 0 0 0 0.793269 0 0 0 0.21 0"/>
<feBlend mode="normal" in2="BackgroundImageFix" result="effect1_dropShadow_309_1672"/>
<feBlend mode="normal" in="SourceGraphic" in2="effect1_dropShadow_309_1672" result="shape"/>
</filter>
</defs>
</svg>
