<svg width="254" height="173" viewBox="0 0 254 173" fill="none" xmlns="http://www.w3.org/2000/svg">
<g filter="url(#filter0_d_309_1337)">
<path d="M214.958 45.6375L206.066 112.805L118.892 161.87L59.5055 112.805L38.7044 37.2218C38.6058 36.9191 38.8376 36.8443 39.3823 36.9866L126.328 6.8208L168.081 23.3989L214.958 45.6375Z" fill="#1868A2"/>
<path d="M118.892 161.87V86.7634M118.892 161.87L206.066 112.805L214.958 45.6375M118.892 161.87L59.5055 112.805L38.7044 37.2218M118.892 86.7634L214.958 45.6375M118.892 86.7634C106.297 78.2585 89.1417 67.0556 77.5152 59.5936M214.958 45.6375L168.081 23.3989M38.7044 37.2218L126.328 6.8208L168.081 23.3989M38.7044 37.2218C38.0289 35.1487 52.8535 43.7655 77.5152 59.5936M77.5152 59.5936C118.892 59.5936 130.827 27.7693 168.081 23.3989" stroke="#6893BD" stroke-width="1.84201"/>
</g>
<path d="M83.7731 119.46C83.8387 118.608 83.912 117.676 83.993 116.664C84.0932 115.627 84.1723 114.548 84.2302 113.426C84.3161 113.408 84.3924 113.401 84.459 113.408C84.5423 113.416 84.6256 113.424 84.7089 113.432C84.8503 115.638 84.5127 116.454 85.3669 117.501C86.4425 118.118 88.2103 118.665 89.1932 118.76C90.3155 118.725 90.9693 118.209 91.8226 117.501C92.8076 116.683 93.993 115.741 94.7119 114.325C95.4947 113.059 95.7662 111.01 95.5293 110.155C95.295 109.273 94.4311 107.803 93.8282 106.989C93.0152 106.164 92.1911 105.15 91.4009 104.322C90.7945 103.622 89.7996 102.163 89.1932 101.463C88.5232 100.69 88.065 99.7789 87.4312 98.9228C86.8161 98.0921 86.5818 97.2365 86.4995 96.7673C86.5378 95.1484 86.3407 94.8618 87.2934 93.4327C87.9285 92.6388 89.6752 92.6388 89.6752 92.6388C89.988 92.5841 90.9498 92.5787 92.2158 92.9564C92.556 93.0579 93.091 93.4273 93.4861 93.8416C93.6974 94.127 93.9625 94.4768 94.1212 94.7943C94.28 94.7943 94.5025 94.9734 94.5766 94.4768C94.6507 93.9801 94.6378 94.092 94.7119 93.5953C94.7303 93.4718 94.86 92.602 94.9615 92.2617C95.0201 92.0776 95.3386 92.1791 95.4526 92.1704L94.6418 98.0897C94.5393 98.1067 94.4451 98.1244 94.3592 98.1429C94.2926 98.1365 94.2176 98.1292 94.1343 98.1212C94.1332 97.2624 93.9805 96.6133 93.8282 95.9277C93.5895 95.4859 93.3394 95.0635 93.0081 94.697C92.6768 94.3305 92.6768 94.3305 92.3295 94.1296C91.89 93.8755 91.6349 93.728 91.0899 93.6753C90.2236 93.5916 90.0499 93.6887 89.1932 94.3283C88.5497 95.0711 87.6799 96.1832 88.6533 97.6736C89.3145 98.6861 89.6193 99.4863 90.2257 100.186C90.9233 100.991 91.7433 101.958 92.4013 102.497C93.0077 103.197 93.6141 103.897 94.259 104.519C95.0366 105.42 95.6704 106.276 96.2031 106.989C96.8888 107.906 97.2911 109.216 97.4558 110.155C97.7156 111.636 97.1563 114.198 96.167 115.54C95.1125 117.014 94.4403 117.777 93.6159 118.76C92.3413 119.596 91.8995 119.835 90.8626 120.226C89.6084 120.559 89.1132 120.58 87.9636 120.469C87.7137 120.445 87.4331 120.391 87.1217 120.307C86.8269 120.225 86.3848 120.102 85.7953 119.937C85.3058 119.783 84.9124 119.678 84.6151 119.622C84.337 119.541 84.0563 119.487 83.7731 119.46Z" fill="#D1E6FD"/>
<path d="M66.8098 66.1209L60.7759 64.8506C61.4194 66.3212 62.1731 67.5614 62.3638 68.5027C62.3638 68.5027 64.5868 95.4965 64.7456 95.8141C64.9043 96.1317 62.3638 96.6081 62.3638 96.6081L83.1649 108.2V102.642C83.1649 102.642 81.4182 104.23 80.9419 104.23C80.4655 104.23 67.6037 96.6081 67.6037 96.6081C67.6037 96.6081 65.4333 69.1283 65.5395 68.5027C65.6457 67.8771 66.2262 67.1194 66.8098 66.1209Z" fill="#D1E6FD" stroke="#CEE6FF" stroke-width="0.317575"/>
<path d="M84.6688 93.9087C83.6264 96.3027 80.7832 97.7195 76.3372 95.8141C71.8911 93.591 71.0822 90.5864 72.1246 88.1923C73.167 85.7983 76.2531 84.2227 80.5403 86.1281C85.1451 88.5099 85.3881 91.8444 84.6688 93.9087ZM73.7159 88.9464C72.806 91.0362 73.9161 93.6392 76.6908 94.8473C79.4655 96.0555 82.0963 95.2045 83.0063 93.1147C83.9162 91.0249 82.6052 88.6064 79.8305 87.3983C77.0558 86.1902 74.6258 86.8565 73.7159 88.9464Z" fill="#D1E6FD"/>
<path d="M101.864 132.276C102.125 132.035 101.902 94.2264 101.902 94.2264L104.125 94.7028C104.125 94.7028 104.372 132.377 104.46 132.682C104.504 132.835 106.603 134.377 106.603 134.377L99.2704 133.025C99.2704 133.025 101.603 132.517 101.864 132.276Z" fill="#D1E6FD"/>
<path d="M102.061 94.2255C101.955 94.2261 101.849 94.2267 101.743 94.2273C101.752 95.7016 101.76 97.2757 101.767 98.7834C101.806 109.891 101.91 121.279 101.756 132.159C101.07 132.478 100.088 132.669 99.2365 132.87L99.2416 133.181C101.686 133.632 104.13 134.083 106.574 134.533L106.697 134.249C105.991 133.727 105.154 133.102 104.613 132.638C104.437 120.836 104.389 108.866 104.299 96.9751C104.294 96.2371 104.289 95.415 104.284 94.7018L104.283 94.5743L104.158 94.5475C103.417 94.3887 102.676 94.2299 101.935 94.0711C101.913 94.1746 101.891 94.2782 101.869 94.3817C102.61 94.5405 103.351 94.6993 104.092 94.8581L103.966 94.7038C103.971 95.4171 103.976 96.2392 103.981 96.9772C104.076 108.896 104.106 120.744 104.308 132.726C105.072 133.526 105.767 133.929 106.509 134.505L106.632 134.221C104.188 133.77 101.743 133.32 99.2991 132.869L99.3042 133.18C100.199 132.956 101.035 132.858 101.971 132.393C102.342 121.022 102.089 109.967 102.085 98.7818C102.078 97.2741 102.069 95.6999 102.061 94.2255ZM101.743 94.2273L102.061 94.2255L101.869 94.3817L101.935 94.0711L101.742 94.0297L101.743 94.2273Z" fill="#CEE6FF"/>
<path d="M110.477 93.4325L96.8209 90.7331L96.8208 95.338C96.8208 95.338 97.9323 93.115 99.9966 93.7501L99.9966 93.7501C100.791 93.9089 105.554 94.8616 106.507 95.338C107.777 96.2907 109.206 98.3549 109.206 98.3549L110.477 93.4325Z" fill="#D1E6FD" stroke="#CEE6FF" stroke-width="0.317575"/>
<path d="M139.93 94.2673C138.163 93.2599 135.916 94.5326 135.916 94.5326L134.026 95.6189L134.778 109.752C134.778 109.752 137.094 110.872 138.497 109.8C139.428 109.089 139.301 106.637 139.301 106.637L139.831 113.308C139.831 113.308 139.518 111.055 138.753 110.914C136.902 110.573 134.976 112.928 134.976 112.928C134.976 112.928 135.354 130.23 135.632 130.551C135.623 130.868 138.493 130.588 138.493 130.588L130.502 134.928C130.502 134.928 134.313 131.645 134.47 131.171C134.908 130.859 132.976 97.3508 132.296 96.0725C132.032 95.2757 128.885 95.2349 128.885 95.2349L140.005 91.5706L142.573 96.9992C142.573 96.9992 141.276 95.0343 139.93 94.2673Z" fill="#D1E6FD"/>
<path d="M134.778 109.752L134.026 95.6189L135.916 94.5326C135.916 94.5326 138.163 93.2599 139.93 94.2673C141.276 95.0343 142.573 96.9992 142.573 96.9992L140.005 91.5706L128.885 95.2349C128.885 95.2349 132.032 95.2757 132.296 96.0725C132.976 97.3508 134.908 130.859 134.47 131.171C134.313 131.645 130.502 134.928 130.502 134.928L138.493 130.588C138.493 130.588 135.623 130.868 135.632 130.551C135.354 130.23 134.976 112.928 134.976 112.928M134.778 109.752C134.778 109.752 137.094 110.872 138.497 109.8C139.428 109.089 139.301 106.637 139.301 106.637L139.831 113.308C139.831 113.308 139.518 111.055 138.753 110.914C136.902 110.573 134.976 112.928 134.976 112.928M134.778 109.752L134.976 112.928" stroke="#CEE6FF" stroke-width="0.317575"/>
<path d="M153.408 116.514C152.976 121.229 150.006 124.812 146.775 124.516C143.543 124.219 141.275 120.156 141.707 115.441C142.14 110.725 145.11 107.142 148.341 107.438C151.572 107.735 153.841 111.798 153.408 116.514ZM144.124 115.662C143.831 118.856 145.198 122.777 146.905 123.093C149.455 123.565 151.893 118.926 151.793 115.249C151.694 111.573 149.2 108.952 148.196 109.02C146.765 108.888 144.417 112.469 144.124 115.662Z" fill="#D1E6FD"/>
<path d="M158.914 98.2028L153.622 100.269L156.036 101.766L157.81 100.972L158.914 98.2028Z" fill="#D1E6FD" stroke="#CEE6FF" stroke-width="0.317575"/>
<path d="M167.677 95.906L162.14 97.1999L164.389 99.0356L166.257 98.5009L167.677 95.906Z" fill="#D1E6FD" stroke="#CEE6FF" stroke-width="0.317575"/>
<path d="M161.996 116.171C157.202 115.518 157.819 101.001 157.819 101.001L156.033 101.801C156.033 101.801 155.85 116.25 161.552 117.898C163.705 117.774 164.212 118.464 165.96 116.534C168.932 112.146 166.069 98.2212 166.069 98.2212L164.409 99.1941C164.409 99.1941 166.408 113.2 165.227 115.181C163.978 116.353 163.265 116.344 161.996 116.171Z" fill="#D1E6FD" stroke="#CEE6FF" stroke-width="0.317575"/>
<path d="M175.896 111.589L170.486 114.253C170.486 114.253 172.793 112.569 172.836 112.099C173.164 111.655 170.11 87.0484 169.285 86.6568C169.157 86.4871 167.023 86.2913 167.023 86.2913L171.052 84.6073L181.084 103.535C181.084 103.535 179.15 83.9283 178.88 83.7456C178.767 83.4192 177.514 82.9885 177.514 82.9885L181.814 81.4872C181.814 81.4872 180.717 82.4924 180.532 82.9493C179.963 82.8971 182.247 108.065 182.247 108.065L170.908 86.1738C170.908 86.1738 173.506 111.054 174.188 111.433C174.444 111.772 175.896 111.589 175.896 111.589Z" fill="#D1E6FD" stroke="#CEE6FF" stroke-width="0.317575"/>
<path d="M186.163 82.3984C185.747 81.585 183.965 81.4671 183.965 81.4671C183.965 81.4671 190.453 77.7023 194.444 79.3529C198.784 81.1475 200.749 83.026 201.413 88.8947C201.165 94.4223 200.088 98.1777 196.88 101.676C192.505 105.387 185.328 106.021 185.328 106.021C185.328 106.021 186.682 104.581 186.836 103.679C187.724 102.531 186.579 83.2118 186.163 82.3984Z" fill="#D1E6FD" stroke="#CEE6FF" stroke-width="0.317575"/>
<path d="M190.823 102.642C188.721 102.915 187.986 86.3829 188.282 81.6824C188.714 79.8405 198.499 81.3163 199.873 88.3515C200.049 91.0425 198.098 101.698 190.823 102.642Z" fill="#1868A2" stroke="#CEE6FF" stroke-width="0.317575"/>
<defs>
<filter id="filter0_d_309_1337" x="31.9178" y="5.83838" width="184.804" height="167.116" filterUnits="userSpaceOnUse" color-interpolation-filters="sRGB">
<feFlood flood-opacity="0" result="BackgroundImageFix"/>
<feColorMatrix in="SourceAlpha" type="matrix" values="0 0 0 0 0 0 0 0 0 0 0 0 0 0 0 0 0 0 127 0" result="hardAlpha"/>
<feOffset dx="-2.5406" dy="6.66907"/>
<feGaussianBlur stdDeviation="1.65139"/>
<feComposite in2="hardAlpha" operator="out"/>
<feColorMatrix type="matrix" values="0 0 0 0 0.636904 0 0 0 0 0.728117 0 0 0 0 0.793269 0 0 0 0.21 0"/>
<feBlend mode="normal" in2="BackgroundImageFix" result="effect1_dropShadow_309_1337"/>
<feBlend mode="normal" in="SourceGraphic" in2="effect1_dropShadow_309_1337" result="shape"/>
</filter>
</defs>
</svg>
