<svg width="202" height="550" viewBox="0 0 202 550" fill="none" xmlns="http://www.w3.org/2000/svg">
<path d="M182.601 264.696C184.018 266.553 185.4 268.472 186.145 270.679C186.842 272.899 186.724 275.512 185.243 277.334C183.552 279.321 180.555 279.832 178.096 278.999C175.637 278.167 173.642 276.272 172.061 274.205C169.543 270.863 167.844 266.613 168.601 262.475C169.118 259.643 171.886 254.971 175.331 255.826C178.048 256.48 181.068 262.615 182.601 264.696Z" fill="#FFC3B1"/>
<path d="M121.476 169.763C118.274 160.328 115.391 150.703 114.44 140.668C113.49 130.633 114.617 120.127 119.184 110.509C121.605 105.415 122.146 99.5796 127.999 100.253C133.262 100.253 139.955 106.88 141.055 111.693C145.893 133.485 148.847 155.666 151.538 177.901C152.643 187.078 153.678 196.227 155.714 205.186C160.322 225.883 169.827 245.102 181.696 262.766C178.456 265.083 174.128 267.514 170.813 265.837C168.086 264.482 167.78 261.435 166.017 259.393C163.86 256.949 161.714 255.35 159.939 252.463C156.051 246.149 152.357 239.755 148.905 233.259C141.872 220.095 135.613 206.607 130.081 192.816C126.944 185.168 124.089 177.516 121.476 169.763Z" fill="#666666"/>
<path d="M43.0551 549.833C55.5578 550.128 68.1253 549.981 80.628 549.784C115.531 549.292 150.5 548.75 185.403 548.258C190.808 548.16 197.841 547.274 198.232 544.076C198.557 541.221 193.087 539.401 188.399 538.564C171.663 535.513 154.082 534.923 136.76 534.431C111.234 533.692 85.6424 533.102 60.1161 532.61C44.1621 532.315 27.7523 532.118 12.9054 535.267C4.76564 536.989 -7.216 544.322 5.67739 547.865C9.25889 548.849 16.487 548.406 20.329 548.652C27.8176 549.193 35.4363 549.636 43.0551 549.833Z" fill="black"/>
<path d="M105.815 416.228C107.159 378.895 84.8659 326.805 85.1148 289.224C84.2188 276.182 85.6624 262.941 89.2464 250.696C89.4455 249.95 89.6943 249.153 90.1423 248.556C91.5361 246.764 93.8756 247.71 95.7174 248.655C113.289 257.864 134.046 255.674 150.074 242.682C153.26 248.805 154.156 256.321 154.902 263.589C156.147 275.336 157.54 287.034 157.889 298.831V298.881C157.939 301.419 157.988 303.958 157.939 306.496C157.74 321.181 155.499 335.666 153.757 350.151C152.612 359.608 151.617 369.116 151.518 378.673C151.418 386.488 152.314 393.656 150.92 401.322C148.686 420.175 148.686 442.982 148.686 462.281C148.686 483.772 149.125 500.877 150.441 521.491C150.391 522.337 143.034 522.399 142.985 523.246C142.188 523.544 135.528 525.623 135.528 521.491C131.581 481.579 129.317 443.679 128.271 403.509C127.873 386.585 125.755 334.11 122.371 317.982C120.977 318.181 121.307 419.737 120.616 424.561C117.223 448.246 90.353 457.895 53.0723 485.526C47.8091 488.596 38.4061 489.069 35.967 492.105C33.5279 495.142 27.0148 488.012 26.3179 483.333C58.774 462.281 86.4056 447.368 105.815 416.228Z" fill="#272826"/>
<path d="M133.46 526.018C133.535 525.552 133.554 525.045 133.63 524.579C134.181 518.337 133.962 512.018 132.966 505.877C132.512 503.076 131.902 500.25 132.095 497.395C135.689 496.862 145.609 494.597 149.204 494.065C149.499 494.017 149.843 493.961 150.12 494.118C150.398 494.275 150.552 494.602 150.657 494.938C153.608 503.184 149.832 513.479 153.16 521.562C154.496 524.825 157.84 525.543 161.018 526.792C163.771 527.909 169.331 530.789 172.329 530.303C174.16 530.712 176.089 531.105 177.59 532.273C179.091 533.442 179.949 535.623 179.001 537.239C178.168 538.634 176.325 539.085 174.711 539.397C162.255 541.569 149.599 542.512 136.957 542.294C136.196 542.266 135.386 542.246 134.758 541.793C134.244 541.423 133.952 540.865 133.717 540.348C131.407 535.125 132.857 531.007 133.46 526.018Z" fill="#494949"/>
<path d="M21.6751 482.532C22.9987 482.07 24.4514 482.13 25.7636 481.738C27.1454 481.357 28.3741 480.167 29.546 479.324C34.8399 475.517 40.1742 471.68 45.439 467.832C47.0554 466.67 49.0305 465.495 50.8673 466.258C52.1015 466.781 52.7828 468.069 53.3654 469.305C55.078 472.795 56.7904 476.284 58.4625 479.803C58.9225 480.698 59.3891 481.773 59.0218 482.712C58.6545 483.651 57.6782 484.169 56.7537 484.588C50.9934 487.321 45.5188 490.706 40.451 494.657C38.9849 495.773 37.5768 496.97 36.0057 497.854C35.5211 503.66 35.7428 509.509 36.7335 515.235C37.0283 516.924 37.3521 518.653 36.9408 520.297C36.5295 521.942 34.9661 523.434 33.2583 523.191C31.7589 522.982 30.7999 521.648 30.0088 520.378C23.9481 510.757 18.7651 500.566 14.6455 489.979C14.3889 489.366 14.1438 488.684 14.3267 488.001C14.4466 487.486 14.8039 487.045 15.1903 486.644C16.9202 484.787 19.2186 483.379 21.6751 482.532Z" fill="#494949"/>
<path d="M97.4588 102.909C104.776 103.457 112.143 102.013 119.261 100.271C121.053 99.8231 122.994 99.3752 124.786 99.9228C127.624 100.819 128.868 103.805 129.665 106.444C142.756 147.311 153.408 188.874 161.721 230.787C174.414 294.899 181.682 359.859 183.324 425.017C146.589 434.275 107.713 432.434 69.6336 430.592C55.4471 429.895 41.1114 429.198 27.3729 425.863C25.7302 425.465 23.9382 424.967 22.8928 423.723C21.6484 422.329 21.6485 420.338 21.7481 418.496C22.644 402.119 26.0786 385.992 29.4136 369.914C45.4418 292.311 58.8319 214.261 70.5295 136.061C71.9233 126.553 70.9277 111.471 75.4574 102.959C80.1862 93.9992 89.3451 102.312 97.4588 102.909Z" fill="#EBEFEB"/>
<path d="M86.1596 73.3912C86.3588 76.8258 86.6077 80.3103 87.7525 83.4463C90.2912 90.5146 96.6626 94.447 102.636 97.5829C107.215 99.9722 112.492 102.312 117.121 100.022C121.103 98.0807 123.393 93.3519 126.429 89.7679C128.719 87.0799 131.556 84.9893 133.747 82.152C138.674 75.8303 139.869 66.6714 139.919 58.1098C139.969 47.3081 138.027 35.4611 130.909 28.4923C127.176 24.8586 122.397 22.967 117.569 21.8719C113.089 20.8266 108.36 20.4285 103.93 21.8222C98.4546 23.5644 93.8253 28.0443 90.54 33.47C82.8246 46.4619 85.2637 58.6074 86.1596 73.3912Z" fill="#FFC3B1"/>
<path d="M146.141 42.3304C145.344 38.7464 144.648 35.0629 143.055 31.7777C142.607 30.8319 141.91 29.8363 141.163 28.8905C141.263 28.1438 141.362 27.3475 141.312 26.3021C141.063 19.2338 137.281 12.2651 131.258 8.48202C121.252 2.16033 108.161 4.89803 96.6625 2.06074C93.6758 1.31408 90.739 0.169191 87.6528 0.0198597C81.0325 -0.32858 74.9099 3.95227 71.1268 9.37797C67.3437 14.8037 65.4521 21.2747 63.5108 27.5964C60.6735 36.6558 57.2887 45.9143 50.519 52.5346C44.944 58.0101 37.0792 61.8928 34.6401 69.3096C31.4046 79.1157 39.5184 89.5688 37.6269 99.7233C36.4323 106.045 31.6536 110.923 27.8705 116.1C21.8475 124.363 18.2138 136.061 23.8884 144.523C25.9292 147.609 28.9657 149.849 31.7034 152.387C35.0883 155.523 38.0251 159.207 40.3646 163.189C42.8037 167.37 44.6453 172.199 43.6497 176.928C42.6542 181.656 37.8757 185.788 33.1967 184.544C37.8259 187.032 43.6995 187.032 48.3288 184.593C52.9581 182.104 56.2434 177.226 56.7411 172C56.99 169.212 56.6416 166.126 58.2842 163.886C60.9224 160.352 67.1446 161.098 69.5339 157.365C71.7241 153.98 69.1358 149.7 68.0905 145.767C67.2443 142.581 67.5427 139.197 67.8912 135.862C68.4885 130.287 69.2851 124.662 70.2807 119.136C70.9278 115.552 71.7241 111.819 73.9143 108.882C78.0458 103.307 85.9105 102.162 92.8295 102.76C96.2144 103.058 100.197 103.407 102.337 100.769C102.835 100.122 103.183 99.3748 103.332 98.5784C107.165 104.303 108.061 112.068 107.364 119.136C111.098 112.765 111.197 104.701 108.908 97.7323C106.568 90.7137 102.038 84.6409 96.9113 79.3645C94.1238 76.4775 91.0872 73.7895 88.698 70.5042C86.3086 67.2687 84.6164 63.3363 84.8653 59.3044C85.0147 57.2635 85.6616 55.372 86.5576 53.5302C87.2047 52.1862 89.8431 49.6476 89.8929 48.2539C89.8929 48.1045 89.8928 48.0049 89.843 47.9054C89.9426 47.8556 90.0421 47.8059 90.1417 47.8059C89.843 50.7427 90.2909 53.8289 91.2366 56.6662C92.7797 61.2457 95.5672 65.2775 98.6534 69.0108C94.5219 62.6393 96.1646 53.7791 100.943 47.9054C105.722 42.0317 112.989 38.7464 120.307 36.8549C123.741 35.9589 126.827 35.063 129.266 33.3706C130.461 35.0132 132.054 36.5562 133.149 37.7508C141.263 46.3622 142.507 59.9017 137.53 70.4544C134.145 77.6721 128.022 84.2924 128.619 92.2069C130.909 82.6995 142.358 78.4188 146.887 69.7576C151.218 61.4946 148.182 51.4894 146.141 42.3304Z" fill="#736357"/>
<path d="M112.813 263.803C113.944 265.846 115.033 267.945 115.448 270.237C115.815 272.536 115.319 275.103 113.589 276.691C111.627 278.411 108.587 278.48 106.275 277.299C103.963 276.118 102.265 273.953 101.002 271.678C98.9968 268.006 97.9336 263.554 99.2839 259.569C100.208 256.843 103.625 252.623 106.909 253.97C109.502 255.012 111.598 261.521 112.813 263.803Z" fill="#FFC3B1"/>
<path d="M70.7113 164.264C69.2223 155.12 68.0489 145.853 68.6822 136.522C69.3155 127.191 71.8954 117.763 77.451 109.701C80.395 105.432 85.6568 101.182 90.8433 102.74C95.6695 104.231 96.7513 109.724 97.0298 114.304C98.1595 135.013 97.5295 155.776 96.655 176.545C96.2878 185.117 95.8627 193.651 96.3697 202.172C97.4546 221.843 103.182 240.951 111.277 259.017C108.006 260.615 103.736 262.142 100.99 260.075C98.7289 258.396 98.9055 255.56 97.6171 253.408C96.0315 250.826 94.3307 249.019 93.1572 246.092C90.5843 239.692 88.1982 233.249 86.0459 226.753C81.6505 213.581 78.0029 200.237 75.056 186.734C73.3593 179.234 71.9186 171.776 70.7113 164.264Z" fill="#666666"/>
</svg>
