<svg width="427" height="480" viewBox="0 0 427 480" fill="none" xmlns="http://www.w3.org/2000/svg">
<path d="M94.1089 479.825C103.986 480.134 113.914 479.98 123.791 479.774C151.364 479.259 178.989 478.694 206.562 478.179C210.832 478.076 216.388 477.15 216.696 473.807C216.954 470.823 212.632 468.92 208.929 468.045C195.708 464.856 181.818 464.238 168.135 463.724C147.969 462.952 127.752 462.335 107.587 461.82C94.9834 461.512 82.0199 461.306 70.2911 464.598C63.8607 466.399 54.3954 474.064 64.581 477.768C67.4104 478.796 73.1205 478.333 76.1556 478.591C82.0715 479.157 88.0902 479.619 94.1089 479.825Z" fill="black"/>
<path d="M309.216 172.999C302.831 180.19 295.008 185.915 287.677 192.161C277.562 200.833 268.233 210.738 261.952 222.504C255.651 234.223 252.475 247.992 254.882 261.132C255.207 263.001 255.713 264.907 255.484 266.781C255.042 270.302 252.224 273.187 248.903 274.443C238.627 245.572 241.405 212.328 256.304 185.553C262.544 174.36 270.725 164.371 279.332 154.874C284.802 148.838 290.854 142.73 298.694 140.558C305.381 138.694 316.728 141.254 319.582 148.591C322.652 156.45 313.967 167.649 309.216 172.999Z" fill="#666666"/>
<path d="M100.874 327.273C102.263 288.691 99.3818 249.338 99.639 210.499C98.7131 197.021 101.131 191.735 104.835 179.081C105.041 178.309 107.077 171.04 107.54 170.423C108.98 168.571 108.693 167.596 110.596 168.573C128.756 178.09 150.207 175.826 166.771 162.4C170.064 168.727 170.99 176.495 171.762 184.006C173.048 196.146 174.488 208.235 174.848 220.427V220.479C174.899 223.102 174.951 225.726 174.899 228.349C174.694 243.525 172.379 258.494 170.578 273.464C169.395 283.238 168.366 293.064 168.263 302.941C168.161 311.017 169.086 318.425 167.646 326.347C164.148 345.844 164.148 367.141 162.656 387.101C161.061 408.449 159.518 429.798 158.181 451.198C158.129 452.072 158.078 452.895 158.026 453.77C157.203 454.079 144.24 457.834 144.24 453.564C143.211 412.05 142.182 370.536 141.102 329.022C140.69 311.532 141.668 252.527 138.169 235.86C136.729 236.066 135.289 236.22 133.848 236.426C125.978 291.366 116.615 387.615 108.693 442.556C107.973 447.391 107.149 452.587 104.629 455.725C102.108 458.863 97.427 457.988 96.7068 453.153C99.1246 411.227 99.3818 369.25 100.874 327.273Z" fill="#272826"/>
<path d="M138.478 453.412C138.633 452.949 138.736 452.434 138.89 451.971C140.485 445.695 141.307 439.214 141.307 432.783C141.307 429.851 141.153 426.868 141.822 423.987C145.577 424.038 156.072 423.369 159.827 423.421C160.136 423.421 160.496 423.421 160.753 423.627C161.01 423.832 161.113 424.192 161.165 424.553C162.811 433.452 157.255 443.329 159.312 452.126C160.135 455.675 163.428 456.961 166.463 458.762C169.086 460.356 174.282 464.215 177.42 464.215C179.221 464.935 181.124 465.655 182.461 467.096C183.799 468.536 184.313 470.902 183.079 472.394C181.998 473.68 180.044 473.834 178.346 473.886C165.28 474.04 152.213 472.909 139.353 470.594C138.581 470.439 137.758 470.285 137.192 469.719C136.729 469.256 136.524 468.639 136.369 468.073C134.877 462.363 137.038 458.402 138.478 453.412Z" fill="#494949"/>
<path d="M90.8936 456.857C91.3052 455.468 92.2313 454.285 92.6943 452.948C93.2087 451.559 92.9514 449.81 92.9514 448.318C92.9514 441.579 92.9514 434.788 92.9 428.049C92.9 425.992 93.1057 423.626 94.8548 422.545C96.038 421.825 97.5297 422.031 98.9186 422.288C102.88 422.957 106.841 423.626 110.802 424.346C111.831 424.5 113.014 424.757 113.58 425.632C114.146 426.506 113.991 427.638 113.786 428.667C112.602 435.149 112.139 441.785 112.397 448.421C112.448 450.324 112.602 452.228 112.397 454.08C116.975 457.989 122.017 461.333 127.418 463.956C129.013 464.728 130.659 465.5 131.79 466.837C132.922 468.175 133.231 470.387 131.996 471.673C130.916 472.804 129.218 472.805 127.675 472.702C115.946 471.981 104.269 470.181 92.9 467.249C92.2312 467.094 91.5111 466.889 91.0481 466.323C90.688 465.911 90.5337 465.345 90.4308 464.779C89.9164 462.207 90.122 459.429 90.8936 456.857Z" fill="#494949"/>
<path d="M307.637 113.507C309.994 120.715 314.272 127.187 318.738 133.303C319.872 134.84 321.063 136.518 321.245 138.446C321.506 141.51 319.141 143.875 316.934 145.674C283.033 174.266 247.506 200.801 210.726 225.238C174.239 301.201 190.187 321.706 174.239 386.412C134.595 379.577 148.267 381.401 105.889 371.832C89.4907 368.129 84.4713 363.63 63.5101 347.681C63.5101 328.087 78.5479 227.838 84.4713 211.433C90.3947 195.029 105.433 167.233 127.305 145.674C144.621 133.304 177.613 118.881 194.289 115.741C228.465 109.306 229.832 109.705 265.361 100.819C274.994 98.4097 289.015 91.5232 298.932 92.5022C309.355 93.4952 305.015 105.519 307.637 113.507Z" fill="#EBEFEB"/>
<path d="M331.399 91.0954C328.196 92.6372 324.964 94.2463 322.418 96.5744C316.662 101.782 315.412 109.418 314.765 116.36C314.284 121.676 314.125 127.639 318.135 131.162C321.557 134.203 326.977 134.53 331.597 136.022C335.066 137.152 338.181 139.041 341.754 140.017C349.734 142.239 358.956 139.776 367.158 136.454C377.499 132.251 388.056 125.734 391.915 116.19C393.918 111.192 393.845 105.882 392.992 100.837C392.228 96.1442 390.747 91.4687 387.672 87.7836C383.852 83.2368 377.75 80.576 371.272 79.5717C355.821 77.3112 345.174 84.4215 331.399 91.0954Z" fill="#FFC3B1"/>
<path d="M263.905 272.104C265.575 273.864 267.218 275.691 268.233 277.887C269.202 280.103 269.372 282.815 268.046 284.863C266.521 287.104 263.483 287.966 260.85 287.382C258.217 286.797 255.944 285.062 254.081 283.103C251.106 279.933 248.876 275.734 249.195 271.374C249.413 268.391 251.749 263.257 255.404 263.754C258.283 264.127 262.089 270.126 263.905 272.104Z" fill="#FFC3B1"/>
<path d="M250.772 109.165C248.053 110.396 245.372 111.723 243.07 113.561C240.084 115.903 237.784 118.964 235.686 122.11C219.673 146.451 217.416 179.203 229.929 205.538C230.486 206.755 231.312 208.084 232.613 208.272C233.321 208.37 234.034 208.076 234.7 207.802C236.869 206.853 238.979 205.761 240.982 204.547C239.177 197.056 237.772 189.457 236.72 181.768C234.912 168.326 234.948 153.012 244.355 143.297C248.599 138.878 254.285 136.203 259.847 133.634C268.063 129.806 276.392 125.987 285.33 124.587C289.46 123.944 293.69 123.815 297.633 122.581C309.944 118.568 309.608 99.5127 295.822 99.404C280.718 99.3373 264.505 103.065 250.772 109.165Z" fill="#666666"/>
<path d="M384.684 136.191C387.796 134.02 391.042 131.904 393.554 129.089C394.282 128.289 394.959 127.231 395.569 126.145C396.321 125.947 397.122 125.728 398.101 125.269C404.758 122.25 409.928 115.893 411.173 108.649C413.277 96.5999 405.509 85.167 403.696 73.0625C403.234 69.9146 403.172 66.6576 402.101 63.6497C399.828 57.1862 393.328 53.0199 386.655 51.5399C379.981 50.0599 373.053 50.7987 366.248 51.4313C356.474 52.285 346.295 52.6938 337.304 48.8299C329.878 45.657 323.073 39.6693 315.026 40.2572C304.382 41.0242 297.586 52.8912 287.137 55.0797C280.626 56.4257 274.084 53.7788 267.649 52.2009C257.382 49.6969 244.774 50.8277 238.921 59.5803C236.775 62.745 235.829 66.5281 234.481 70.1433C232.816 74.6119 230.451 78.8679 227.567 82.6706C224.531 86.6468 220.641 90.3067 215.731 91.2162C210.82 92.1257 204.992 89.1852 204.34 84.2242C203.783 89.6274 206.094 95.2401 210.247 98.7041C214.447 102.148 220.401 103.368 225.592 101.787C228.353 100.928 231.165 99.3807 233.952 100.069C238.368 101.199 240.103 107.439 244.611 108.253C248.707 109.014 251.779 104.856 255.126 102.31C257.837 100.247 261.189 99.2007 264.513 98.2213C270.076 96.5982 275.764 95.146 281.436 93.9231C285.116 93.1311 288.996 92.423 292.665 93.3602C299.618 95.1144 303.807 102.179 305.959 109.026C307.006 112.378 308.24 116.321 311.603 117.328C312.417 117.549 313.268 117.588 314.088 117.418C310.126 123.333 303.058 127.245 296.029 129.36C303.587 130.421 311.332 127.343 317.09 122.412C322.877 117.415 326.897 110.696 329.922 103.721C331.584 99.9207 332.957 95.9612 335.157 92.3852C337.308 88.8287 340.4 85.6642 344.351 84.3154C346.36 83.6549 348.422 83.5288 350.535 83.6603C352.074 83.7497 355.538 85.272 356.889 84.7711C357.032 84.7124 357.127 84.6731 357.203 84.5864C357.29 84.6619 357.376 84.7375 357.415 84.8326C354.491 85.7029 351.718 87.3453 349.379 89.3656C345.61 92.6423 342.854 96.8926 340.501 101.311C344.964 94.8556 354.078 92.9387 361.571 95.1938C369.064 97.4488 375.064 103.101 379.751 109.349C381.958 112.278 384.029 114.875 386.606 116.54C385.506 118.328 384.659 120.457 383.948 121.974C378.912 133.116 366.463 139.633 354.42 139.029C346.191 138.635 337.455 135.389 330.127 139.074C340.113 137.521 348.709 146.777 358.769 147.697C368.369 148.584 376.735 141.745 384.684 136.191Z" fill="#736357"/>
<path d="M222.106 282.863C222.699 283.898 223.407 284.942 224.453 285.457C225.5 285.971 226.703 285.921 227.82 285.795C234.653 285.095 244.289 282.963 252.622 281.312C260.182 279.812 266.881 277.165 274.533 276.294C288.865 274.62 294.876 273.815 304.333 270.031C304.856 269.816 305.427 269.581 305.805 269.147C306.362 268.473 306.314 267.546 306.239 266.687C305.917 262.258 305.156 257.843 304.394 253.427C302.668 243.29 300.874 233.124 299.147 222.987C298.386 218.572 297.247 213.644 293.422 211.381C290.039 209.38 285.805 210.178 282.003 211.076C270.908 213.586 259.814 216.096 248.739 218.654C243.202 219.933 237.645 221.164 232.107 222.443C227.837 223.423 218.984 223.675 215.523 226.213C211.986 228.837 211.228 232.265 212.263 236.401C213.478 241.241 214.035 246.241 214.687 251.202C215.851 260.515 217.301 274.438 222.106 282.863Z" fill="#EAEAEA"/>
<path d="M245.226 205.804C249.135 207.866 252.529 210.974 254.907 214.724C256.15 216.66 257.196 219.066 256.502 221.299C255.781 223.599 253.531 225.026 251.402 226.07C249.558 226.996 247.694 227.875 245.772 228.611C245.201 228.846 244.515 229.073 243.931 228.868C243.461 228.673 243.122 228.256 242.851 227.867C238.936 222.413 235.732 216.389 233.309 210.099C232.886 208.938 232.472 207.662 232.967 206.568C233.322 205.81 234.053 205.286 234.688 204.802C239.109 201.758 240.76 203.47 245.226 205.804Z" fill="#FFC3B1"/>
<path d="M253.983 258.276C258.284 254.669 263.788 251.957 269.082 250.222C270.12 249.906 269.924 248.485 269.098 248.101C263.885 245.575 258.412 243.767 252.81 242.458C252.284 241.45 251.003 241.311 250.11 241.845C250.11 241.845 250.11 241.845 250.063 241.865C249.699 241.792 249.464 242.167 249.553 242.519C249.394 242.808 249.302 243.124 249.363 243.543C250.021 248.113 250.603 252.769 251.538 257.335C251.787 258.345 253.026 259.059 253.983 258.276ZM265.746 249.148C261.798 250.774 258.11 252.626 254.358 254.727C254.064 251.177 253.588 247.589 253.18 244.03C257.427 245.563 261.619 247.231 265.746 249.148Z" fill="white"/>
</svg>
