<svg width="217" height="550" viewBox="0 0 217 550" fill="none" xmlns="http://www.w3.org/2000/svg">
<path d="M58.709 549.831C68.2662 550.13 77.8729 549.98 87.4301 549.781C114.111 549.283 140.841 548.736 167.522 548.238C171.653 548.139 177.029 547.243 177.328 544.007C177.577 541.12 173.395 539.278 169.811 538.432C157.019 535.346 143.579 534.749 130.338 534.251C110.826 533.504 91.2632 532.907 71.7505 532.409C59.5552 532.11 47.0113 531.911 35.6622 535.097C29.44 536.839 20.2811 544.256 30.137 547.84C32.8747 548.835 38.4 548.387 41.3368 548.636C47.0612 549.184 52.8851 549.632 58.709 549.831Z" fill="black"/>
<path d="M130.214 123.416C134.295 131.779 136.536 140.888 139.423 149.748C143.455 161.993 148.88 173.99 157.093 183.945C165.257 193.9 176.407 201.815 189.05 204.503C190.842 204.901 192.734 205.15 194.327 206.046C197.313 207.738 198.856 211.322 198.757 214.757C169.139 213.313 140.418 198.579 121.951 175.383C114.235 165.677 108.312 154.676 102.986 143.476C99.6009 136.358 96.3653 128.692 97.3111 120.877C98.1075 114.207 104.579 104.998 112.194 105.148C120.358 105.297 127.177 117.194 130.214 123.416Z" fill="#666666"/>
<path d="M65.2546 402.218C66.5986 364.885 63.8111 326.805 64.06 289.224C63.164 276.182 64.6076 262.941 68.1916 250.696C68.3907 249.95 68.6395 249.153 69.0875 248.556C70.4813 246.764 72.8208 247.71 74.6625 248.655C92.2338 257.864 112.991 255.674 129.019 242.682C132.205 248.805 133.101 256.321 133.848 263.589C135.092 275.336 136.486 287.034 136.834 298.831V298.88C136.884 301.419 136.934 303.958 136.884 306.496C136.685 321.181 134.445 335.666 132.702 350.151C131.558 359.608 130.562 369.116 130.463 378.673C130.363 386.488 131.259 393.656 129.865 401.322C126.48 420.187 126.48 440.795 125.037 460.108C123.494 480.766 122.001 501.423 120.706 522.131C120.657 522.977 120.607 523.773 120.557 524.619C119.76 524.918 107.217 528.552 107.217 524.42C106.221 484.25 105.226 444.08 104.18 403.91C103.782 386.986 104.728 329.892 101.343 313.764C99.9492 313.963 98.5556 314.112 97.1619 314.311C89.546 367.473 80.4865 460.606 72.8208 513.768C72.1239 518.447 71.3273 523.475 68.8882 526.511C66.4491 529.547 61.9195 528.701 61.2227 524.022C63.5622 483.454 63.8111 442.836 65.2546 402.218Z" fill="#272826"/>
<path d="M101.641 524.273C101.791 523.825 101.89 523.327 102.04 522.879C103.583 516.806 104.379 510.534 104.379 504.312C104.379 501.475 104.23 498.588 104.877 495.8C108.511 495.85 118.665 495.203 122.299 495.253C122.598 495.253 122.946 495.253 123.195 495.452C123.444 495.651 123.544 495.999 123.593 496.348C125.186 504.959 119.81 514.517 121.801 523.028C122.598 526.463 125.783 527.707 128.72 529.45C131.259 530.993 136.286 534.726 139.323 534.726C141.065 535.423 142.907 536.12 144.201 537.514C145.495 538.907 145.993 541.197 144.798 542.641C143.753 543.885 141.861 544.034 140.219 544.084C127.575 544.233 114.932 543.138 102.488 540.898C101.741 540.749 100.945 540.6 100.397 540.052C99.949 539.604 99.75 539.007 99.6007 538.459C98.1572 532.934 100.248 529.101 101.641 524.273Z" fill="#494949"/>
<path d="M55.5977 527.606C55.996 526.262 56.8921 525.117 57.3401 523.823C57.8379 522.479 57.5889 520.786 57.5889 519.343C57.5889 512.822 57.5889 506.252 57.5391 499.731C57.5391 497.74 57.7383 495.45 59.4307 494.405C60.5755 493.708 62.019 493.907 63.363 494.156C67.1958 494.803 71.0286 495.45 74.8614 496.147C75.857 496.296 77.0021 496.545 77.5496 497.391C78.0972 498.238 77.9477 499.333 77.7486 500.328C76.6037 506.6 76.1556 513.021 76.4045 519.443C76.4543 521.284 76.6036 523.126 76.4045 524.918C80.8347 528.701 85.7131 531.937 90.9397 534.475C92.4827 535.222 94.0755 535.968 95.1706 537.263C96.2657 538.557 96.5642 540.697 95.3696 541.942C94.3243 543.037 92.6818 543.037 91.1885 542.937C79.8393 542.24 68.5399 540.498 57.5391 537.661C56.892 537.512 56.1952 537.312 55.7472 536.765C55.3988 536.367 55.2495 535.819 55.1499 535.272C54.6521 532.783 54.8511 530.095 55.5977 527.606Z" fill="#494949"/>
<path d="M76.4046 102.909C83.7218 103.457 91.0889 102.013 98.207 100.271C99.999 99.8231 101.94 99.3752 103.732 99.9228C106.569 100.819 107.814 103.805 108.611 106.444C121.702 147.311 132.354 188.874 140.667 230.787C153.36 294.899 160.627 359.859 162.27 425.017C125.535 434.275 86.6589 432.434 48.5794 430.592C34.3929 429.895 20.0572 429.198 6.31869 425.863C4.67605 425.465 2.88395 424.967 1.83863 423.723C0.594206 422.329 0.594303 420.338 0.693857 418.496C1.58984 402.119 5.02435 385.992 8.35942 369.914C24.3876 292.311 37.7777 214.261 49.4753 136.061C50.8691 126.553 49.8735 111.471 54.4032 102.959C59.132 93.9992 68.2909 102.312 76.4046 102.909Z" fill="#EBEFEB"/>
<path d="M65.1054 73.3912C65.3046 76.8258 65.5535 80.3103 66.6983 83.4463C69.237 90.5146 75.6084 94.447 81.5816 97.5829C86.1611 99.9722 91.4374 102.312 96.0666 100.022C100.049 98.0807 102.339 93.3519 105.375 89.7679C107.665 87.0799 110.502 84.9893 112.692 82.152C117.62 75.8303 118.815 66.6714 118.865 58.1098C118.914 47.3081 116.973 35.4611 109.855 28.4923C106.122 24.8586 101.343 22.967 96.5148 21.8719C92.0348 20.8266 87.3061 20.4285 82.8759 21.8222C77.4004 23.5644 72.7711 28.0443 69.4859 33.47C61.7704 46.4619 64.2095 58.6074 65.1054 73.3912Z" fill="#FFC3B1"/>
<path d="M202.191 200.473C204.381 199.627 206.621 198.831 208.961 198.731C211.3 198.681 213.789 199.527 215.133 201.469C216.577 203.659 216.228 206.695 214.735 208.836C213.242 210.976 210.852 212.37 208.413 213.316C204.481 214.809 199.902 215.257 196.119 213.365C193.53 212.071 189.797 208.089 191.589 205.003C192.982 202.564 199.752 201.369 202.191 200.473Z" fill="#FFC3B1"/>
<path d="M51.566 152.188C51.6656 155.075 51.8649 157.962 52.6613 160.7C53.6568 164.234 55.5483 167.42 57.5892 170.456C73.4681 193.752 101.941 207.839 130.114 206.346C131.409 206.296 132.902 206.047 133.549 204.952C133.897 204.354 133.898 203.608 133.898 202.911C133.848 200.621 133.648 198.331 133.3 196.091C125.933 194.946 118.616 193.403 111.348 191.512C98.6552 188.177 84.9666 182.502 79.74 170.506C77.3507 165.08 77.0519 159.007 76.8031 153.084C76.4048 144.323 76.0564 135.463 78.0973 126.951C79.0431 123.019 80.4865 119.186 80.835 115.204C81.7808 102.71 64.6077 95.9897 59.4309 108.285C53.8061 121.774 51.1678 137.653 51.566 152.188Z" fill="#666666"/>
<path d="M125.087 42.3304C124.29 38.7464 123.593 35.0629 122.001 31.7777C121.553 30.8319 120.856 29.8363 120.109 28.8905C120.209 28.1438 120.308 27.3475 120.258 26.3021C120.009 19.2338 116.226 12.2651 110.203 8.48202C100.198 2.16033 87.1068 4.89803 75.6083 2.06074C72.6216 1.31408 69.6848 0.169191 66.5986 0.0198597C59.9783 -0.32858 53.8557 3.95227 50.0726 9.37797C46.2895 14.8037 44.3979 21.2747 42.4566 27.5964C39.6193 36.6558 36.2345 45.9143 29.4648 52.5346C23.8898 58.0101 16.025 61.8928 13.5859 69.3096C10.3504 79.1157 18.4642 89.5688 16.5727 99.7233C15.3781 106.045 10.5994 110.923 6.81629 116.1C0.793265 124.363 -2.8404 136.061 2.83419 144.523C4.87505 147.609 7.91148 149.849 10.6492 152.387C14.0341 155.523 16.9709 159.207 19.3104 163.189C21.7495 167.37 23.5911 172.199 22.5955 176.928C21.6 181.656 16.8215 185.788 12.1425 184.544C16.7717 187.032 22.6453 187.032 27.2746 184.593C31.9039 182.104 35.1892 177.226 35.6869 172C35.9358 169.212 35.5874 166.126 37.23 163.886C39.8682 160.352 46.0904 161.098 48.4797 157.365C50.6699 153.98 48.0816 149.7 47.0363 145.767C46.1901 142.581 46.4885 139.197 46.837 135.862C47.4343 130.287 48.2309 124.662 49.2265 119.136C49.8736 115.552 50.6699 111.819 52.8601 108.882C56.9916 103.307 64.8563 102.162 71.7753 102.76C75.1602 103.058 79.1425 103.407 81.2829 100.769C81.7807 100.122 82.1289 99.3748 82.2782 98.5784C86.1111 104.303 87.007 112.068 86.3102 119.136C90.0434 112.765 90.1433 104.701 87.8535 97.7323C85.514 90.7137 80.9841 84.6409 75.8571 79.3645C73.0696 76.4775 70.0331 73.7895 67.6438 70.5042C65.2544 67.2687 63.5622 63.3363 63.8111 59.3044C63.9605 57.2635 64.6074 55.372 65.5034 53.5302C66.1505 52.1862 68.7889 49.6476 68.8387 48.2539C68.8387 48.1045 68.8386 48.0049 68.7888 47.9054C68.8884 47.8556 68.9879 47.8059 69.0875 47.8059C68.7888 50.7427 69.2367 53.8289 70.1824 56.6662C71.7255 61.2457 74.513 65.2775 77.5992 69.0108C73.4677 62.6393 75.1104 53.7791 79.889 47.9054C84.6676 42.0317 91.9352 38.7464 99.2524 36.8549C102.687 35.9589 105.773 35.063 108.212 33.3706C109.407 35.0132 111 36.5562 112.095 37.7508C120.209 46.3622 121.453 59.9017 116.475 70.4544C113.091 77.6721 106.968 84.2924 107.565 92.2069C109.855 82.6995 121.303 78.4188 125.833 69.7576C130.164 61.4946 127.128 51.4894 125.087 42.3304Z" fill="#736357"/>
<path d="M196.417 241.836C197.562 241.687 198.757 241.438 199.603 240.691C200.449 239.945 200.847 238.85 201.146 237.804C203.037 231.433 204.68 222.025 206.273 213.961C207.717 206.644 207.816 199.675 209.857 192.507C213.64 179.067 215.133 173.393 215.233 163.537C215.233 162.989 215.233 162.392 214.984 161.894C214.586 161.148 213.74 160.849 212.943 160.6C208.861 159.256 204.631 158.31 200.399 157.364C190.693 155.174 180.937 153.034 171.23 150.844C166.999 149.898 162.171 149.102 158.736 151.69C155.7 153.98 154.853 158.061 154.256 161.795C152.414 172.646 150.573 183.498 148.781 194.349C147.885 199.775 146.939 205.2 146.043 210.626C145.346 214.807 142.309 222.821 143.305 226.853C144.35 230.985 147.138 232.926 151.22 233.523C155.998 234.22 160.677 235.564 165.356 236.809C174.117 239.198 187.109 243.031 196.417 241.836Z" fill="#EAEAEA"/>
<path d="M135.988 192.757C139.273 190.02 143.305 188.128 147.536 187.381C149.727 186.983 152.265 186.933 154.007 188.377C155.799 189.87 156.247 192.409 156.397 194.699C156.546 196.69 156.646 198.681 156.596 200.672C156.596 201.269 156.546 201.966 156.148 202.414C155.799 202.763 155.301 202.912 154.853 203.011C148.532 204.505 141.961 205.152 135.441 205.002C134.246 204.953 132.952 204.853 132.155 204.007C131.608 203.41 131.408 202.563 131.209 201.817C130.114 196.74 132.255 195.893 135.988 192.757Z" fill="#FFC3B1"/>
<path d="M186.163 204.255C184.521 199.078 184.122 193.155 184.521 187.779C184.62 186.733 183.276 186.385 182.629 186.982C178.448 190.716 174.814 194.947 171.578 199.476C170.483 199.576 169.886 200.671 170.035 201.667C170.035 201.667 170.035 201.666 170.035 201.716C169.836 202.015 170.085 202.363 170.434 202.413C170.633 202.662 170.882 202.861 171.28 202.961C175.61 204.056 179.991 205.25 184.421 206.097C185.417 206.246 186.512 205.4 186.163 204.255ZM182.33 190.367C182.33 194.499 182.629 198.481 183.127 202.612C179.841 201.567 176.457 200.671 173.122 199.725C176.058 196.49 179.095 193.354 182.33 190.367Z" fill="white"/>
</svg>
