<svg width="178" height="550" viewBox="0 0 178 550" fill="none" xmlns="http://www.w3.org/2000/svg">
<path d="M155.6 149.486C153.857 137.733 150.271 126.229 144.991 115.572C139.662 104.765 132.639 94.8546 125.666 85.0439C123.972 82.6535 122.279 80.2631 120.585 77.8727C120.187 77.3249 119.739 76.6775 119.041 76.5779C118.543 76.4783 118.045 76.7273 117.547 76.9265C116.202 77.5241 114.907 78.2213 113.612 78.9185C113.014 79.2173 112.417 79.5659 112.068 80.1137C111.072 81.4583 111.669 83.3009 112.317 84.8447C118.742 100.432 125.367 116.02 129.501 132.354C129.85 133.749 130.198 135.193 130.547 136.637L129.75 134.496C125.815 125.283 120.834 116.518 114.857 108.5C113.363 106.458 111.719 104.416 109.528 103.121C107.336 101.827 104.448 101.478 102.306 102.823C99.3175 104.665 98.9683 108.849 99.317 112.335C100.612 124.237 107.038 134.844 113.463 144.904C119.34 154.117 125.915 163.679 135.926 168.011C141.106 170.253 147.731 170.651 151.964 166.866C154.256 164.824 155.55 161.786 155.999 158.699C156.397 155.661 156.049 152.573 155.6 149.486Z" fill="#666666"/>
<path d="M122.666 96.6003C123.413 96.1521 124.16 95.6043 124.509 94.8074C124.857 94.0604 124.858 93.2138 124.808 92.417C124.708 87.3374 124.608 82.2079 124.509 77.1283C124.409 72.945 124.359 68.7618 123.563 64.6782C123.214 62.7858 122.616 60.7439 121.072 59.5487C119.478 58.3037 117.336 58.2539 115.294 58.2539C112.605 58.2539 109.816 58.2539 107.375 59.2997C106.927 59.4989 106.478 59.6981 106.179 60.0965C105.88 60.4949 105.731 61.0427 105.631 61.5407C105.283 63.5328 105.333 65.5746 105.382 67.6164C105.482 71.8992 105.532 76.2319 105.831 80.5147C106.179 85.8434 106.876 91.3214 109.466 96.0027C110.712 98.2437 113.053 98.0943 115.394 98.2935C117.884 98.4927 120.474 97.8951 122.666 96.6003Z" fill="#BFBFBF"/>
<path d="M111.111 92.6649C111.161 92.9637 111.211 93.2625 111.41 93.5115C111.709 93.9099 112.307 94.0095 112.855 94.0593C114.349 94.1589 115.843 94.0593 117.337 93.7605C118.881 93.4617 120.475 92.8641 121.322 91.6191C122.119 90.4238 122.169 88.8302 122.119 87.386C122.019 79.8164 121.82 72.2965 120.874 64.7766C120.824 64.3782 120.724 63.93 120.475 63.6312C120.226 63.3822 119.827 63.2826 119.479 63.2328C117.885 62.9838 116.291 63.1332 114.697 63.2826C112.904 63.432 110.962 63.681 109.816 65.0754C108.97 66.1212 108.82 67.5654 108.77 68.9598C108.322 77.0773 109.717 84.6968 111.111 92.6649Z" fill="white"/>
<path d="M116.34 95.2553C116.888 94.9565 117.935 94.5581 118.532 94.9067C118.981 95.2055 118.881 95.6039 118.482 95.8529C118.034 96.102 117.336 96.1518 116.838 96.2016C116.141 96.2016 115.444 95.7035 116.34 95.2553Z" fill="white"/>
<path d="M58.7092 549.831C68.2664 550.13 77.8732 549.98 87.4304 549.781C114.111 549.283 140.841 548.736 167.522 548.238C171.653 548.139 177.029 547.243 177.328 544.007C177.577 541.12 173.396 539.278 169.812 538.432C157.019 535.346 143.579 534.749 130.339 534.251C110.826 533.504 91.2634 532.907 71.7508 532.409C59.5554 532.11 47.0116 531.911 35.6624 535.097C29.4403 536.839 20.2814 544.256 30.1372 547.84C32.875 548.835 38.4002 548.387 41.3371 548.636C47.0614 549.184 52.8853 549.632 58.7092 549.831Z" fill="black"/>
<path d="M65.2546 402.218C66.5986 364.885 63.8111 326.805 64.06 289.224C63.164 276.182 64.6076 262.941 68.1916 250.696C68.3907 249.95 68.6395 249.153 69.0875 248.556C70.4813 246.764 72.8208 247.71 74.6625 248.655C92.2338 257.864 112.991 255.674 129.019 242.682C132.205 248.805 133.101 256.321 133.848 263.589C135.092 275.336 136.486 287.034 136.834 298.831V298.88C136.884 301.419 136.934 303.958 136.884 306.496C136.685 321.181 134.445 335.666 132.702 350.151C131.558 359.608 130.562 369.116 130.463 378.673C130.363 386.488 131.259 393.656 129.865 401.322C126.48 420.187 126.48 440.795 125.037 460.108C123.494 480.766 122.001 501.423 120.706 522.131C120.657 522.977 120.607 523.773 120.557 524.619C119.76 524.918 107.217 528.552 107.217 524.42C106.221 484.25 105.226 444.08 104.18 403.91C103.782 386.986 104.728 329.892 101.343 313.764C99.9492 313.963 98.5556 314.112 97.1619 314.311C89.546 367.473 80.4865 460.606 72.8208 513.768C72.1239 518.447 71.3273 523.475 68.8882 526.511C66.4491 529.547 61.9195 528.701 61.2227 524.022C63.5622 483.454 63.8111 442.836 65.2546 402.218Z" fill="#272826"/>
<path d="M101.642 524.273C101.791 523.825 101.891 523.327 102.04 522.879C103.583 516.806 104.379 510.534 104.379 504.312C104.379 501.475 104.23 498.588 104.877 495.8C108.511 495.85 118.666 495.203 122.299 495.253C122.598 495.253 122.946 495.253 123.195 495.452C123.444 495.651 123.544 495.999 123.594 496.348C125.186 504.959 119.81 514.517 121.801 523.028C122.598 526.463 125.784 527.707 128.72 529.45C131.259 530.993 136.287 534.726 139.323 534.726C141.065 535.423 142.907 536.12 144.201 537.514C145.495 538.907 145.993 541.197 144.798 542.641C143.753 543.885 141.862 544.034 140.219 544.084C127.576 544.233 114.932 543.138 102.488 540.898C101.741 540.749 100.945 540.6 100.397 540.052C99.9492 539.604 99.7503 539.007 99.6009 538.459C98.1574 532.934 100.248 529.101 101.642 524.273Z" fill="#494949"/>
<path d="M55.5977 527.606C55.996 526.262 56.8921 525.117 57.3401 523.823C57.8379 522.479 57.5889 520.786 57.5889 519.343C57.5889 512.822 57.5889 506.252 57.5391 499.731C57.5391 497.74 57.7383 495.45 59.4307 494.405C60.5755 493.708 62.019 493.907 63.363 494.156C67.1958 494.803 71.0286 495.45 74.8614 496.147C75.857 496.296 77.0021 496.545 77.5496 497.391C78.0972 498.238 77.9477 499.333 77.7486 500.328C76.6037 506.6 76.1556 513.021 76.4045 519.443C76.4543 521.284 76.6036 523.126 76.4045 524.918C80.8347 528.701 85.7131 531.937 90.9397 534.475C92.4827 535.222 94.0755 535.968 95.1706 537.263C96.2657 538.557 96.5642 540.697 95.3696 541.942C94.3243 543.037 92.6818 543.037 91.1885 542.937C79.8393 542.24 68.5399 540.498 57.5391 537.661C56.892 537.512 56.1952 537.312 55.7472 536.765C55.3988 536.367 55.2495 535.819 55.1499 535.272C54.6521 532.783 54.8511 530.095 55.5977 527.606Z" fill="#494949"/>
<path d="M76.4046 102.909C83.7218 103.457 91.0889 102.013 98.207 100.271C99.999 99.8231 101.94 99.3752 103.732 99.9228C106.569 100.819 107.814 103.805 108.611 106.444C121.702 147.311 132.354 188.874 140.667 230.787C153.36 294.899 160.627 359.859 162.27 425.017C125.535 434.275 86.6589 432.434 48.5794 430.592C34.3929 429.895 20.0572 429.198 6.31869 425.863C4.67605 425.465 2.88395 424.967 1.83863 423.723C0.594206 422.329 0.594303 420.338 0.693857 418.496C1.58984 402.119 5.02435 385.992 8.35942 369.914C24.3876 292.311 37.7777 214.261 49.4753 136.061C50.8691 126.553 49.8735 111.471 54.4032 102.959C59.132 93.9992 68.2909 102.312 76.4046 102.909Z" fill="#EBEFEB"/>
<path d="M65.1054 73.3912C65.3046 76.8258 65.5535 80.3103 66.6983 83.4463C69.237 90.5146 75.6084 94.447 81.5816 97.5829C86.1611 99.9722 91.4374 102.312 96.0666 100.022C100.049 98.0807 102.339 93.3519 105.375 89.7679C107.665 87.0799 110.502 84.9893 112.692 82.152C117.62 75.8303 118.815 66.6714 118.865 58.1098C118.914 47.3081 116.973 35.4611 109.855 28.4923C106.122 24.8586 101.343 22.967 96.5148 21.8719C92.0348 20.8266 87.3061 20.4285 82.8759 21.8222C77.4004 23.5644 72.7711 28.0443 69.4859 33.47C61.7704 46.4619 64.2095 58.6074 65.1054 73.3912Z" fill="#FFC3B1"/>
<path d="M125.087 42.3304C124.29 38.7464 123.593 35.0629 122.001 31.7777C121.553 30.8319 120.856 29.8363 120.109 28.8905C120.209 28.1438 120.308 27.3475 120.258 26.3021C120.009 19.2338 116.226 12.2651 110.203 8.48202C100.198 2.16033 87.1068 4.89803 75.6083 2.06074C72.6216 1.31408 69.6848 0.169191 66.5986 0.0198597C59.9783 -0.32858 53.8557 3.95227 50.0726 9.37797C46.2895 14.8037 44.3979 21.2747 42.4566 27.5964C39.6193 36.6558 36.2345 45.9143 29.4648 52.5346C23.8898 58.0101 16.025 61.8928 13.5859 69.3096C10.3504 79.1157 18.4642 89.5688 16.5727 99.7233C15.3781 106.045 10.5994 110.923 6.81629 116.1C0.793265 124.363 -2.8404 136.061 2.83419 144.523C4.87505 147.609 7.91148 149.849 10.6492 152.387C14.0341 155.523 16.9709 159.207 19.3104 163.189C21.7495 167.37 23.5911 172.199 22.5955 176.928C21.6 181.656 16.8215 185.788 12.1425 184.544C16.7717 187.032 22.6453 187.032 27.2746 184.593C31.9039 182.104 35.1892 177.226 35.6869 172C35.9358 169.212 35.5874 166.126 37.23 163.886C39.8682 160.352 46.0904 161.098 48.4797 157.365C50.6699 153.98 48.0816 149.7 47.0363 145.767C46.1901 142.581 46.4885 139.197 46.837 135.862C47.4343 130.287 48.2309 124.662 49.2265 119.136C49.8736 115.552 50.6699 111.819 52.8601 108.882C56.9916 103.307 64.8563 102.162 71.7753 102.76C75.1602 103.058 79.1425 103.407 81.2829 100.769C81.7807 100.122 82.1289 99.3748 82.2782 98.5784C86.1111 104.303 87.007 112.068 86.3102 119.136C90.0434 112.765 90.1433 104.701 87.8535 97.7323C85.514 90.7137 80.9841 84.6409 75.8571 79.3645C73.0696 76.4775 70.0331 73.7895 67.6438 70.5042C65.2544 67.2687 63.5622 63.3363 63.8111 59.3044C63.9605 57.2635 64.6074 55.372 65.5034 53.5302C66.1505 52.1862 68.7889 49.6476 68.8387 48.2539C68.8387 48.1045 68.8386 48.0049 68.7888 47.9054C68.8884 47.8556 68.9879 47.8059 69.0875 47.8059C68.7888 50.7427 69.2367 53.8289 70.1824 56.6662C71.7255 61.2457 74.513 65.2775 77.5992 69.0108C73.4677 62.6393 75.1104 53.7791 79.889 47.9054C84.6676 42.0317 91.9352 38.7464 99.2524 36.8549C102.687 35.9589 105.773 35.063 108.212 33.3706C109.407 35.0132 111 36.5562 112.095 37.7508C120.209 46.3622 121.453 59.9017 116.475 70.4544C113.091 77.6721 106.968 84.2924 107.565 92.2069C109.855 82.6995 121.303 78.4188 125.833 69.7576C130.164 61.4946 127.128 51.4894 125.087 42.3304Z" fill="#736357"/>
<path d="M91.7579 263.803C92.8891 265.846 93.978 267.945 94.3937 270.237C94.7604 272.536 94.2646 275.103 92.5341 276.691C90.5719 278.411 87.5324 278.48 85.2205 277.299C82.9085 276.118 81.2107 273.953 79.9476 271.678C77.9421 268.006 76.8789 263.554 78.2292 259.569C79.153 256.843 82.5701 252.623 85.8546 253.97C88.4473 255.012 90.5438 261.521 91.7579 263.803Z" fill="#FFC3B1"/>
<path d="M49.6571 164.264C48.1681 155.12 46.9947 145.853 47.628 136.522C48.2613 127.191 50.8412 117.763 56.3968 109.701C59.3408 105.432 64.6026 101.182 69.7891 102.74C74.6153 104.231 75.6971 109.724 75.9756 114.304C77.1053 135.013 76.4753 155.776 75.6008 176.545C75.2336 185.117 74.8085 193.651 75.3155 202.172C76.4004 221.843 82.1283 240.951 90.2226 259.017C86.9522 260.615 82.6814 262.142 79.936 260.075C77.6747 258.396 77.8513 255.56 76.5629 253.408C74.9773 250.826 73.2765 249.019 72.103 246.092C69.5301 239.692 67.144 233.249 64.9917 226.753C60.5963 213.581 56.9487 200.237 54.0018 186.734C52.3051 179.234 50.8644 171.776 49.6571 164.264Z" fill="#666666"/>
</svg>
