<svg width="194" height="550" viewBox="0 0 194 550" fill="none" xmlns="http://www.w3.org/2000/svg">
<path d="M40.0816 549.833C51.6438 550.128 63.266 549.981 74.8282 549.784C107.106 549.292 139.444 548.75 171.722 548.258C176.72 548.16 183.224 547.274 183.586 544.076C183.887 541.221 178.828 539.401 174.492 538.564C159.016 535.513 142.757 534.923 126.738 534.431C103.132 533.692 79.4654 533.102 55.8592 532.61C41.1053 532.315 25.9299 532.118 12.1998 535.267C4.6723 536.989 -6.40806 544.322 5.51547 547.865C8.82756 548.849 15.512 548.406 19.0649 548.652C25.9902 549.193 33.0359 549.636 40.0816 549.833Z" fill="black"/>
<path d="M167.953 264.696C169.369 266.553 170.752 268.472 171.496 270.679C172.193 272.899 172.076 275.512 170.595 277.334C168.903 279.321 165.906 279.832 163.447 278.999C160.988 278.167 158.994 276.272 157.413 274.205C154.895 270.863 153.196 266.613 153.952 262.475C154.47 259.643 157.237 254.971 160.683 255.826C163.399 256.48 166.42 262.615 167.953 264.696Z" fill="#FFC3B1"/>
<path d="M106.828 169.763C103.626 160.328 100.743 150.703 99.7919 140.668C98.8413 130.633 99.9683 120.127 104.536 110.509C106.957 105.415 107.498 99.5796 113.351 100.253C118.614 100.253 125.306 106.88 126.407 111.693C131.245 133.485 134.198 155.666 136.89 177.901C137.994 187.078 139.029 196.227 141.065 205.186C145.673 225.883 155.178 245.102 167.047 262.766C163.808 265.083 159.48 267.514 156.164 265.837C153.438 264.482 153.131 261.435 151.369 259.393C149.211 256.949 147.065 255.35 145.291 252.463C141.403 246.149 137.709 239.755 134.257 233.259C127.223 220.095 120.965 206.607 115.432 192.816C112.295 185.168 109.44 177.516 106.828 169.763Z" fill="#666666"/>
<path d="M55.0898 392.105C56.4338 354.772 70.2171 326.805 70.4659 289.224C69.57 276.182 71.0136 262.941 74.5975 250.696C74.7966 249.95 75.0455 249.153 75.4935 248.556C76.8872 246.764 79.2267 247.71 81.0685 248.655C98.6398 257.864 119.397 255.674 135.425 242.682C138.611 248.805 139.507 256.321 140.254 263.589C141.498 275.336 142.892 287.034 143.24 298.831V298.881C143.29 301.419 143.34 303.958 143.29 306.496C143.091 321.181 140.851 335.666 139.108 350.151C137.964 359.608 136.968 369.116 136.869 378.673C136.769 386.488 126.22 393.65 124.826 401.316C134.914 424.561 138.423 439.474 142.809 458.772C147.944 481.365 150.704 492.544 157.283 514.035C157.233 514.881 163.911 533.364 163.862 534.21C163.065 534.509 152.019 541.412 152.019 537.281C135.791 496.053 114.3 432.895 110.586 403.91C110.188 386.986 111.134 329.892 107.749 313.764C106.355 313.963 104.962 314.112 103.568 314.311C107.721 436.842 50.7039 490.297 27.0197 522.807C23.9495 527.021 22.6337 526.926 17.3705 525C13.713 523.661 11.9269 518.275 11.23 513.596C45.4405 466.667 71.7563 431.579 55.0898 392.105Z" fill="#272826"/>
<path d="M144.974 530.004C144.943 529.532 144.848 529.034 144.818 528.562C143.959 522.356 142.333 516.246 139.988 510.483C138.919 507.855 137.693 505.237 137.242 502.411C140.626 501.088 149.789 496.662 153.173 495.338C153.45 495.226 153.773 495.095 154.078 495.185C154.384 495.276 154.607 495.561 154.785 495.865C159.505 503.241 158.127 514.12 163.179 521.254C165.211 524.136 168.63 524.088 172.007 524.595C174.94 525.067 181.004 526.631 183.817 525.487C185.693 525.476 187.661 525.428 189.385 526.231C191.109 527.034 192.433 528.968 191.871 530.755C191.371 532.301 189.676 533.152 188.173 533.818C176.518 538.72 164.394 542.47 152.023 545.085C151.275 545.228 150.481 545.389 149.767 545.089C149.183 544.842 148.774 544.364 148.429 543.913C145.01 539.339 145.502 535.001 144.974 530.004Z" fill="#494949"/>
<path d="M9.07312 513.783C10.146 512.88 11.5246 512.419 12.6116 511.586C13.7676 510.739 14.4925 509.189 15.2879 507.984C18.881 502.543 22.5016 497.06 26.0532 491.591C27.1503 489.929 28.5782 488.128 30.5665 488.189C31.9058 488.238 33.0007 489.199 33.9851 490.148C36.827 492.8 39.6688 495.452 42.4832 498.145C43.2317 498.818 44.0501 499.657 44.0407 500.665C44.0314 501.673 43.3032 502.504 42.5885 503.225C38.1771 507.828 34.2649 512.94 30.9343 518.435C29.961 520 29.0708 521.619 27.9172 523.005C29.5295 528.603 31.8177 533.991 34.7803 538.989C35.6566 540.463 36.5743 541.963 36.775 543.647C36.9757 545.33 36.0454 547.281 34.3628 547.661C32.887 547.999 31.5164 547.094 30.3251 546.188C21.2383 539.353 12.7691 531.673 5.15255 523.243C4.69484 522.762 4.22314 522.212 4.15101 521.508C4.07967 520.984 4.25676 520.445 4.47539 519.933C5.43144 517.582 7.07862 515.448 9.07312 513.783Z" fill="#494949"/>
<path d="M82.8104 102.909C90.1276 103.457 97.4946 102.013 104.613 100.271C106.405 99.8231 108.346 99.3752 110.138 99.9228C112.975 100.819 114.22 103.805 115.016 106.444C128.108 147.311 138.76 188.874 147.073 230.787C159.766 294.899 167.033 359.859 168.676 425.017C131.94 434.275 93.0646 432.434 54.9851 430.592C40.7987 429.895 26.4629 429.198 12.7245 425.863C11.0818 425.465 9.28971 424.967 8.24439 423.723C6.99997 422.329 7.00006 420.338 7.09962 418.496C7.99561 402.119 11.4301 385.992 14.7652 369.914C30.7934 292.311 44.1835 214.261 55.8811 136.061C57.2749 126.553 56.2793 111.471 60.809 102.959C65.5378 93.9992 74.6967 102.312 82.8104 102.909Z" fill="#EBEFEB"/>
<path d="M71.5117 73.3912C71.7108 76.8258 71.9597 80.3103 73.1046 83.4463C75.6432 90.5146 82.0146 94.447 87.9879 97.5829C92.5674 99.9722 97.8436 102.312 102.473 100.022C106.455 98.0807 108.745 93.3519 111.781 89.7679C114.071 87.0799 116.908 84.9893 119.099 82.152C124.026 75.8303 125.221 66.6714 125.271 58.1098C125.321 47.3081 123.379 35.4611 116.261 28.4923C112.528 24.8586 107.749 22.967 102.921 21.8719C98.4411 20.8266 93.7123 20.4285 89.2821 21.8222C83.8067 23.5644 79.1774 28.0443 75.8921 33.47C68.1767 46.4619 70.6157 58.6074 71.5117 73.3912Z" fill="#FFC3B1"/>
<path d="M131.492 42.3304C130.696 38.7464 129.999 35.0629 128.406 31.7777C127.958 30.8319 127.261 29.8363 126.515 28.8905C126.614 28.1438 126.714 27.3475 126.664 26.3021C126.415 19.2338 122.632 12.2651 116.609 8.48202C106.604 2.16033 93.5125 4.89803 82.014 2.06074C79.0274 1.31408 76.0906 0.169191 73.0044 0.0198597C66.384 -0.32858 60.2614 3.95227 56.4784 9.37797C52.6953 14.8037 50.8036 21.2747 48.8623 27.5964C46.025 36.6558 42.6403 45.9143 35.8706 52.5346C30.2955 58.0101 22.4307 61.8928 19.9917 69.3096C16.7562 79.1157 24.87 89.5688 22.9785 99.7233C21.7838 106.045 17.0051 110.923 13.2221 116.1C7.19903 124.363 3.56536 136.061 9.23995 144.523C11.2808 147.609 14.3172 149.849 17.055 152.387C20.4398 155.523 23.3766 159.207 25.7162 163.189C28.1552 167.37 29.9968 172.199 29.0013 176.928C28.0058 181.656 23.2273 185.788 18.5482 184.544C23.1775 187.032 29.0511 187.032 33.6804 184.593C38.3096 182.104 41.5949 177.226 42.0927 172C42.3416 169.212 41.9931 166.126 43.6358 163.886C46.274 160.352 52.4962 161.098 54.8855 157.365C57.0756 153.98 54.4873 149.7 53.442 145.767C52.5958 142.581 52.8943 139.197 53.2427 135.862C53.84 130.287 54.6367 124.662 55.6322 119.136C56.2793 115.552 57.0757 111.819 59.2659 108.882C63.3974 103.307 71.2621 102.162 78.1811 102.76C81.5659 103.058 85.5483 103.407 87.6887 100.769C88.1865 100.122 88.5347 99.3748 88.684 98.5784C92.5168 104.303 93.4128 112.068 92.7159 119.136C96.4492 112.765 96.549 104.701 94.2593 97.7323C91.9198 90.7137 87.3899 84.6409 82.2629 79.3645C79.4753 76.4775 76.4388 73.7895 74.0495 70.5042C71.6602 67.2687 69.968 63.3363 70.2169 59.3044C70.3662 57.2635 71.0131 55.372 71.9091 53.5302C72.5562 52.1862 75.1946 49.6476 75.2444 48.2539C75.2444 48.1045 75.2444 48.0049 75.1946 47.9054C75.2941 47.8556 75.3937 47.8059 75.4932 47.8059C75.1946 50.7427 75.6424 53.8289 76.5882 56.6662C78.1313 61.2457 80.9187 65.2775 84.0049 69.0108C79.8734 62.6393 81.5162 53.7791 86.2948 47.9054C91.0734 42.0317 98.3409 38.7464 105.658 36.8549C109.093 35.9589 112.179 35.063 114.618 33.3706C115.813 35.0132 117.406 36.5562 118.501 37.7508C126.614 46.3622 127.859 59.9017 122.881 70.4544C119.496 77.6721 113.374 84.2924 113.971 92.2069C116.261 82.6995 127.709 78.4188 132.239 69.7576C136.57 61.4946 133.533 51.4894 131.492 42.3304Z" fill="#736357"/>
<path d="M98.1641 263.803C99.2954 265.846 100.384 267.945 100.8 270.237C101.167 272.536 100.671 275.103 98.9403 276.691C96.9781 278.411 93.9387 278.48 91.6267 277.299C89.3148 276.118 87.617 273.953 86.3538 271.678C84.3483 268.006 83.2852 263.554 84.6354 259.569C85.5593 256.843 88.9764 252.623 92.2608 253.97C94.8536 255.012 96.95 261.521 98.1641 263.803Z" fill="#FFC3B1"/>
<path d="M56.0633 164.264C54.5743 155.12 53.4009 145.853 54.0342 136.522C54.6675 127.191 57.2475 117.763 62.8031 109.701C65.747 105.432 71.0089 101.182 76.1953 102.74C81.0215 104.231 82.1034 109.724 82.3819 114.304C83.5115 135.013 82.8816 155.776 82.007 176.545C81.6398 185.117 81.2148 193.651 81.7218 202.172C82.8066 221.843 88.5345 240.951 96.6289 259.017C93.3584 260.615 89.0877 262.142 86.3422 260.075C84.081 258.396 84.2575 255.56 82.9691 253.408C81.3835 250.826 79.6827 249.019 78.5092 246.092C75.9364 239.692 73.5503 233.249 71.398 226.753C67.0025 213.581 63.3549 200.237 60.4081 186.734C58.7114 179.234 57.2707 171.776 56.0633 164.264Z" fill="#666666"/>
</svg>
