<svg width="427" height="480" viewBox="0 0 427 480" fill="none" xmlns="http://www.w3.org/2000/svg">
<path d="M309.026 299.443C309.815 301.738 310.55 304.082 310.562 306.502C310.523 308.92 309.552 311.457 307.495 312.77C305.178 314.176 302.055 313.698 299.903 312.073C297.75 310.448 296.404 307.926 295.522 305.37C294.132 301.251 293.847 296.505 295.947 292.671C297.384 290.048 301.642 286.347 304.759 288.318C307.224 289.852 308.195 296.889 309.026 299.443Z" fill="#FFC3B1"/>
<path d="M283.904 190.005C284.03 180.38 284.501 170.687 286.832 161.254C289.163 151.821 293.503 142.64 300.641 135.393C304.423 131.557 310.574 128.157 315.599 130.687C320.268 133.082 316.14 139.714 315.599 144.45C313.02 165.843 310.671 184.176 305.759 206.422C303.838 215.125 302.114 224.536 302.114 234.218C303.025 254.723 303.295 274.325 308.319 294.269C304.684 295.314 300.039 296.106 297.603 293.496C295.592 291.371 296.284 288.5 295.354 286.067C294.197 283.139 292.783 280.983 292.11 277.777C290.632 270.765 289.353 263.742 288.323 256.707C286.201 242.437 284.876 228.127 284.296 213.779C283.913 205.799 283.784 197.908 283.904 190.005Z" fill="#666666"/>
<path d="M94.1089 479.825C103.986 480.134 113.914 479.98 123.791 479.774C151.364 479.259 178.989 478.694 206.562 478.179C210.832 478.076 216.388 477.15 216.696 473.807C216.954 470.823 212.632 468.92 208.929 468.045C195.708 464.856 181.818 464.238 168.135 463.724C147.969 462.952 127.752 462.335 107.587 461.82C94.9834 461.512 82.0199 461.306 70.2911 464.598C63.8607 466.399 54.3954 474.064 64.581 477.768C67.4104 478.796 73.1205 478.333 76.1556 478.591C82.0715 479.157 88.0902 479.619 94.1089 479.825Z" fill="black"/>
<path d="M100.874 327.273C102.263 288.691 99.3818 249.338 99.639 210.499C98.7131 197.021 101.131 191.735 104.835 179.081C105.041 178.309 107.077 171.04 107.54 170.423C108.98 168.571 108.693 167.596 110.596 168.573C128.756 178.09 150.207 175.826 166.771 162.4C170.064 168.727 170.99 176.495 171.762 184.006C173.048 196.146 174.488 208.235 174.848 220.427V220.479C174.899 223.102 174.951 225.726 174.899 228.349C174.694 243.525 172.379 258.494 170.578 273.464C169.395 283.238 168.366 293.064 168.263 302.941C168.161 311.017 169.086 318.425 167.646 326.347C164.148 345.844 164.148 367.141 162.656 387.101C161.061 408.449 159.518 429.798 158.181 451.198C158.129 452.072 158.078 452.895 158.026 453.77C157.203 454.079 144.24 457.834 144.24 453.564C143.211 412.05 142.182 370.536 141.102 329.022C140.69 311.532 141.668 252.527 138.169 235.86C136.729 236.066 135.289 236.22 133.848 236.426C125.978 291.366 116.615 387.615 108.693 442.556C107.973 447.391 107.149 452.587 104.629 455.725C102.108 458.863 97.427 457.988 96.7068 453.153C99.1246 411.227 99.3818 369.25 100.874 327.273Z" fill="#272826"/>
<path d="M138.478 453.412C138.633 452.949 138.736 452.434 138.89 451.971C140.485 445.695 141.307 439.214 141.307 432.783C141.307 429.851 141.153 426.868 141.822 423.987C145.577 424.038 156.072 423.369 159.827 423.421C160.136 423.421 160.496 423.421 160.753 423.627C161.01 423.832 161.113 424.192 161.165 424.553C162.811 433.452 157.255 443.329 159.312 452.126C160.135 455.675 163.428 456.961 166.463 458.762C169.086 460.356 174.282 464.215 177.42 464.215C179.221 464.935 181.124 465.655 182.461 467.096C183.799 468.536 184.313 470.902 183.079 472.394C181.998 473.68 180.044 473.834 178.346 473.886C165.28 474.04 152.213 472.909 139.353 470.594C138.581 470.439 137.758 470.285 137.192 469.719C136.729 469.256 136.524 468.639 136.369 468.073C134.877 462.363 137.038 458.402 138.478 453.412Z" fill="#494949"/>
<path d="M90.8936 456.857C91.3052 455.468 92.2313 454.285 92.6943 452.948C93.2087 451.559 92.9514 449.81 92.9514 448.318C92.9514 441.579 92.9514 434.788 92.9 428.049C92.9 425.992 93.1057 423.626 94.8548 422.545C96.038 421.825 97.5297 422.031 98.9186 422.288C102.88 422.957 106.841 423.626 110.802 424.346C111.831 424.5 113.014 424.757 113.58 425.632C114.146 426.506 113.991 427.638 113.786 428.667C112.602 435.149 112.139 441.785 112.397 448.421C112.448 450.324 112.602 452.228 112.397 454.08C116.975 457.989 122.017 461.333 127.418 463.956C129.013 464.728 130.659 465.5 131.79 466.837C132.922 468.175 133.231 470.387 131.996 471.673C130.916 472.804 129.218 472.805 127.675 472.702C115.946 471.981 104.269 470.181 92.9 467.249C92.2312 467.094 91.5111 466.889 91.0481 466.323C90.688 465.911 90.5337 465.345 90.4308 464.779C89.9164 462.207 90.122 459.429 90.8936 456.857Z" fill="#494949"/>
<path d="M307.637 113.507C309.993 120.715 314.272 127.187 318.738 133.303C319.871 134.84 321.063 136.518 321.245 138.446C321.505 141.51 319.141 143.875 316.933 145.674C283.032 174.266 247.506 200.801 210.725 225.238C174.238 301.201 190.187 321.706 174.238 386.412C134.595 379.577 148.266 381.401 105.888 371.832C89.4904 368.129 84.471 363.63 63.5098 347.681C63.5098 328.087 78.5476 227.838 84.471 211.433C90.3944 195.029 105.433 167.233 127.305 145.674C144.621 133.304 177.613 118.881 194.289 115.741C228.465 109.306 229.832 109.705 265.36 100.819C274.994 98.4097 289.015 91.5232 298.932 92.5022C309.355 93.4952 305.015 105.519 307.637 113.507Z" fill="#EBEFEB"/>
<path d="M331.399 91.0954C328.195 92.6372 324.963 94.2463 322.417 96.5744C316.661 101.782 315.411 109.418 314.765 116.36C314.284 121.676 314.124 127.639 318.134 131.162C321.556 134.203 326.976 134.53 331.596 136.022C335.065 137.152 338.18 139.041 341.753 140.017C349.733 142.239 358.956 139.776 367.157 136.454C377.499 132.251 388.056 125.734 391.914 116.19C393.917 111.192 393.844 105.882 392.991 100.837C392.227 96.1442 390.746 91.4687 387.671 87.7836C383.852 83.2368 377.749 80.576 371.271 79.5717C355.82 77.3112 345.174 84.4215 331.399 91.0954Z" fill="#FFC3B1"/>
<path d="M273.285 267.437C273.872 269.792 274.401 272.191 274.202 274.603C273.953 277.008 272.766 279.452 270.602 280.581C268.171 281.78 265.102 281.033 263.099 279.227C261.096 277.42 259.973 274.791 259.317 272.169C258.29 267.944 258.419 263.191 260.844 259.555C262.504 257.066 267.067 253.749 270.001 255.983C272.323 257.725 272.679 264.821 273.285 267.437Z" fill="#FFC3B1"/>
<path d="M384.683 136.191C387.795 134.02 391.041 131.904 393.553 129.089C394.281 128.289 394.958 127.231 395.568 126.145C396.32 125.947 397.121 125.728 398.1 125.269C404.757 122.25 409.927 115.893 411.172 108.649C413.276 96.5999 405.508 85.167 403.695 73.0625C403.233 69.9146 403.171 66.6576 402.1 63.6497C399.827 57.1862 393.327 53.0199 386.654 51.5399C379.98 50.0599 373.052 50.7987 366.247 51.4313C356.473 52.285 346.294 52.6938 337.303 48.8299C329.877 45.657 323.072 39.6693 315.025 40.2572C304.381 41.0242 297.585 52.8912 287.137 55.0797C280.625 56.4257 274.083 53.7788 267.648 52.2009C257.381 49.6969 244.773 50.8277 238.92 59.5803C236.774 62.745 235.828 66.5281 234.48 70.1433C232.815 74.6119 230.45 78.8679 227.566 82.6706C224.53 86.6468 220.641 90.3067 215.73 91.2162C210.819 92.1257 204.991 89.1852 204.339 84.2242C203.782 89.6274 206.093 95.2401 210.246 98.7041C214.446 102.148 220.4 103.368 225.591 101.787C228.353 100.928 231.164 99.3807 233.951 100.069C238.367 101.199 240.102 107.439 244.61 108.253C248.706 109.014 251.778 104.856 255.125 102.31C257.836 100.247 261.188 99.2007 264.512 98.2213C270.075 96.5982 275.763 95.146 281.435 93.9231C285.115 93.1311 288.996 92.423 292.664 93.3602C299.617 95.1144 303.806 102.179 305.958 109.026C307.005 112.378 308.239 116.321 311.602 117.328C312.416 117.549 313.267 117.588 314.087 117.418C310.125 123.333 303.057 127.245 296.028 129.36C303.586 130.421 311.331 127.343 317.089 122.412C322.876 117.415 326.896 110.696 329.921 103.721C331.583 99.9207 332.956 95.9612 335.156 92.3852C337.307 88.8287 340.399 85.6642 344.35 84.3154C346.359 83.6549 348.421 83.5288 350.534 83.6603C352.073 83.7497 355.537 85.272 356.888 84.7711C357.031 84.7124 357.126 84.6731 357.202 84.5864C357.289 84.6619 357.375 84.7375 357.414 84.8326C354.49 85.7029 351.718 87.3453 349.378 89.3656C345.609 92.6423 342.853 96.8926 340.5 101.311C344.963 94.8556 354.077 92.9387 361.57 95.1938C369.063 97.4488 375.063 103.101 379.75 109.349C381.957 112.278 384.028 114.875 386.605 116.54C385.505 118.328 384.658 120.457 383.947 121.974C378.911 133.116 366.462 139.633 354.419 139.029C346.19 138.635 337.454 135.389 330.126 139.074C340.113 137.521 348.708 146.777 358.768 147.697C368.368 148.584 376.734 141.745 384.683 136.191Z" fill="#736357"/>
<path d="M257.767 156.23C258.729 146.652 260.04 137.037 263.182 127.842C266.324 118.647 271.445 109.878 279.186 103.279C283.287 99.7858 289.71 96.9333 294.497 99.8901C298.94 102.683 298.55 108.487 297.6 113.157C293.171 134.245 286.962 154.914 280.506 175.524C277.835 184.027 275.116 192.479 273.337 201.167C269.142 221.201 269.758 241.916 273.03 262.222C269.318 262.947 264.622 263.332 262.422 260.52C260.603 258.228 261.542 255.429 260.827 252.924C259.929 249.906 258.708 247.636 258.316 244.383C257.453 237.269 256.788 230.162 256.373 223.063C255.5 208.663 255.423 194.292 256.092 179.948C256.404 171.965 256.961 164.093 257.767 156.23Z" fill="#666666"/>
</svg>
