<svg width="202" height="550" viewBox="0 0 202 550" fill="none" xmlns="http://www.w3.org/2000/svg">
<path d="M182.601 264.696C184.017 266.553 185.4 268.472 186.144 270.679C186.841 272.899 186.724 275.512 185.243 277.334C183.552 279.321 180.555 279.832 178.095 278.999C175.636 278.167 173.642 276.272 172.061 274.205C169.543 270.863 167.844 266.613 168.6 262.475C169.118 259.643 171.885 254.971 175.331 255.826C178.047 256.48 181.068 262.615 182.601 264.696Z" fill="#FFC3B1"/>
<path d="M121.476 169.763C118.274 160.328 115.391 150.703 114.44 140.668C113.489 130.633 114.617 120.127 119.184 110.509C121.605 105.415 122.146 99.5796 127.999 100.253C133.262 100.253 139.955 106.88 141.055 111.693C145.893 133.485 148.847 155.666 151.538 177.901C152.642 187.078 153.678 196.227 155.714 205.186C160.321 225.883 169.826 245.102 181.696 262.766C178.456 265.083 174.128 267.514 170.812 265.837C168.086 264.482 167.78 261.435 166.017 259.393C163.859 256.949 161.713 255.35 159.939 252.463C156.051 246.149 152.357 239.755 148.905 233.259C141.872 220.095 135.613 206.607 130.081 192.816C126.943 185.168 124.089 177.516 121.476 169.763Z" fill="#666666"/>
<path d="M43.0551 549.833C55.5578 550.128 68.1253 549.981 80.628 549.784C115.531 549.292 150.5 548.75 185.403 548.258C190.808 548.16 197.841 547.274 198.232 544.076C198.557 541.221 193.087 539.401 188.399 538.564C171.663 535.513 154.082 534.923 136.76 534.431C111.234 533.692 85.6424 533.102 60.1161 532.61C44.1621 532.315 27.7523 532.118 12.9054 535.267C4.76564 536.989 -7.216 544.322 5.67739 547.865C9.25889 548.849 16.487 548.406 20.329 548.652C27.8176 549.193 35.4363 549.636 43.0551 549.833Z" fill="black"/>
<path d="M105.815 416.228C107.159 378.895 84.8657 326.805 85.1146 289.224C84.2186 276.182 85.6622 262.941 89.2461 250.696C89.4453 249.95 89.6941 249.153 90.1421 248.556C91.5359 246.764 93.8754 247.71 95.7171 248.655C113.288 257.864 134.045 255.674 150.074 242.682C153.259 248.805 154.155 256.321 154.902 263.589C156.147 275.336 157.54 287.034 157.889 298.831V298.881C157.938 301.419 157.988 303.958 157.938 306.496C157.739 321.181 155.499 335.666 153.757 350.151C152.612 359.608 151.617 369.116 151.517 378.673C151.418 386.488 152.313 393.656 150.92 401.322C148.686 420.175 148.686 442.982 148.686 462.281C148.686 483.772 149.125 500.877 150.44 521.491C150.391 522.337 143.034 522.399 142.984 523.246C142.188 523.544 135.528 525.623 135.528 521.491C131.581 481.579 129.317 443.679 128.271 403.509C127.873 386.585 125.755 334.11 122.37 317.982C120.977 318.181 121.307 419.737 120.616 424.561C117.223 448.246 90.3527 457.895 53.072 485.526C47.8089 488.596 38.4058 489.069 35.9668 492.105C33.5277 495.142 27.0145 488.012 26.3176 483.333C58.7738 462.281 86.4053 447.368 105.815 416.228Z" fill="#272826"/>
<path d="M133.46 526.018C133.536 525.552 133.554 525.045 133.63 524.579C134.181 518.337 133.963 512.018 132.966 505.877C132.512 503.076 131.902 500.25 132.095 497.395C135.69 496.862 145.61 494.597 149.204 494.065C149.499 494.017 149.843 493.961 150.121 494.118C150.398 494.275 150.552 494.602 150.657 494.938C153.608 503.184 149.832 513.479 153.16 521.562C154.496 524.825 157.84 525.543 161.018 526.792C163.771 527.909 169.332 530.789 172.329 530.303C174.16 530.712 176.09 531.105 177.59 532.273C179.091 533.442 179.949 535.623 179.001 537.239C178.168 538.634 176.325 539.085 174.712 539.397C162.255 541.569 149.6 542.512 136.957 542.294C136.196 542.266 135.386 542.246 134.758 541.793C134.244 541.423 133.952 540.865 133.717 540.348C131.407 535.125 132.857 531.007 133.46 526.018Z" fill="#494949"/>
<path d="M21.6751 482.532C22.9987 482.07 24.4514 482.13 25.7636 481.738C27.1454 481.357 28.3741 480.167 29.546 479.324C34.8399 475.517 40.1742 471.68 45.439 467.832C47.0554 466.67 49.0305 465.495 50.8673 466.258C52.1015 466.781 52.7828 468.069 53.3654 469.305C55.078 472.795 56.7904 476.284 58.4625 479.803C58.9225 480.698 59.3891 481.773 59.0218 482.712C58.6545 483.651 57.6782 484.169 56.7537 484.588C50.9934 487.321 45.5188 490.706 40.451 494.657C38.9849 495.773 37.5768 496.97 36.0057 497.854C35.5211 503.66 35.7428 509.509 36.7335 515.235C37.0283 516.924 37.3521 518.653 36.9408 520.297C36.5295 521.942 34.9661 523.434 33.2583 523.191C31.7589 522.982 30.7999 521.648 30.0088 520.378C23.9481 510.757 18.7651 500.566 14.6455 489.979C14.3889 489.366 14.1438 488.684 14.3267 488.001C14.4466 487.486 14.8039 487.045 15.1903 486.644C16.9202 484.787 19.2186 483.379 21.6751 482.532Z" fill="#494949"/>
<path d="M97.4588 102.909C104.776 103.457 112.143 102.013 119.261 100.271C121.053 99.8231 122.994 99.3752 124.786 99.9228C127.624 100.819 128.868 103.805 129.665 106.444C142.756 147.311 153.408 188.874 161.721 230.787C174.414 294.899 181.682 359.859 183.324 425.017C146.589 434.275 107.713 432.434 69.6336 430.592C55.4471 429.895 41.1114 429.198 27.3729 425.863C25.7302 425.465 23.9382 424.967 22.8928 423.723C21.6484 422.329 21.6485 420.338 21.7481 418.496C22.644 402.119 26.0786 385.992 29.4136 369.914C45.4418 292.311 58.8319 214.261 70.5295 136.061C71.9233 126.553 70.9277 111.471 75.4574 102.959C80.1862 93.9992 89.3451 102.312 97.4588 102.909Z" fill="#EBEFEB"/>
<path d="M86.1599 73.3912C86.359 76.8258 86.6079 80.3103 87.7528 83.4463C90.2914 90.5146 96.6628 94.447 102.636 97.5829C107.216 99.9722 112.492 102.312 117.121 100.022C121.103 98.0807 123.393 93.3519 126.429 89.7679C128.719 87.0799 131.557 84.9893 133.747 82.152C138.675 75.8303 139.869 66.6714 139.919 58.1098C139.969 47.3081 138.028 35.4611 130.909 28.4923C127.176 24.8586 122.398 22.967 117.569 21.8719C113.089 20.8266 108.361 20.4285 103.93 21.8222C98.4549 23.5644 93.8256 28.0443 90.5403 33.47C82.8248 46.4619 85.2639 58.6074 86.1599 73.3912Z" fill="#FFC3B1"/>
<path d="M146.141 42.3304C145.345 38.7464 144.648 35.0629 143.055 31.7777C142.607 30.8319 141.91 29.8363 141.163 28.8905C141.263 28.1438 141.362 27.3475 141.313 26.3021C141.064 19.2338 137.281 12.2651 131.258 8.48202C121.253 2.16033 108.161 4.89803 96.6627 2.06074C93.6761 1.31408 90.7393 0.169191 87.6531 0.0198597C81.0327 -0.32858 74.9101 3.95227 71.127 9.37797C67.344 14.8037 65.4523 21.2747 63.511 27.5964C60.6737 36.6558 57.2889 45.9143 50.5192 52.5346C44.9442 58.0101 37.0794 61.8928 34.6403 69.3096C31.4048 79.1157 39.5187 89.5688 37.6272 99.7233C36.4325 106.045 31.6538 110.923 27.8707 116.1C21.8477 124.363 18.214 136.061 23.8886 144.523C25.9295 147.609 28.9659 149.849 31.7037 152.387C35.0885 155.523 38.0253 159.207 40.3648 163.189C42.8039 167.37 44.6455 172.199 43.65 176.928C42.6544 181.656 37.876 185.788 33.1969 184.544C37.8262 187.032 43.6998 187.032 48.329 184.593C52.9583 182.104 56.2436 177.226 56.7414 172C56.9903 169.212 56.6418 166.126 58.2845 163.886C60.9226 160.352 67.1448 161.098 69.5341 157.365C71.7243 153.98 69.136 149.7 68.0907 145.767C67.2445 142.581 67.543 139.197 67.8914 135.862C68.4887 130.287 69.2854 124.662 70.2809 119.136C70.928 115.552 71.7244 111.819 73.9145 108.882C78.046 103.307 85.9108 102.162 92.8298 102.76C96.2146 103.058 100.197 103.407 102.337 100.769C102.835 100.122 103.183 99.3748 103.333 98.5784C107.166 104.303 108.061 112.068 107.365 119.136C111.098 112.765 111.198 104.701 108.908 97.7323C106.568 90.7137 102.039 84.6409 96.9115 79.3645C94.124 76.4775 91.0875 73.7895 88.6982 70.5042C86.3089 67.2687 84.6167 63.3363 84.8656 59.3044C85.0149 57.2635 85.6618 55.372 86.5578 53.5302C87.2049 52.1862 89.8433 49.6476 89.8931 48.2539C89.8931 48.1045 89.8931 48.0049 89.8433 47.9054C89.9428 47.8556 90.0424 47.8059 90.1419 47.8059C89.8433 50.7427 90.2911 53.8289 91.2369 56.6662C92.78 61.2457 95.5674 65.2775 98.6536 69.0108C94.5221 62.6393 96.1649 53.7791 100.943 47.9054C105.722 42.0317 112.99 38.7464 120.307 36.8549C123.741 35.9589 126.828 35.063 129.267 33.3706C130.461 35.0132 132.054 36.5562 133.149 37.7508C141.263 46.3622 142.508 59.9017 137.53 70.4544C134.145 77.6721 128.022 84.2924 128.62 92.2069C130.909 82.6995 142.358 78.4188 146.888 69.7576C151.218 61.4946 148.182 51.4894 146.141 42.3304Z" fill="#736357"/>
<path d="M112.812 263.803C113.944 265.846 115.032 267.945 115.448 270.237C115.815 272.536 115.319 275.103 113.589 276.691C111.626 278.411 108.587 278.48 106.275 277.299C103.963 276.118 102.265 273.953 101.002 271.678C98.9965 268.006 97.9334 263.554 99.2836 259.569C100.207 256.843 103.625 252.623 106.909 253.97C109.502 255.012 111.598 261.521 112.812 263.803Z" fill="#FFC3B1"/>
<path d="M70.7115 164.264C69.2225 155.12 68.0491 145.853 68.6824 136.522C69.3157 127.191 71.8957 117.763 77.4513 109.701C80.3952 105.432 85.6571 101.182 90.8435 102.74C95.6697 104.231 96.7516 109.724 97.0301 114.304C98.1597 135.013 97.5298 155.776 96.6552 176.545C96.288 185.117 95.8629 193.651 96.37 202.172C97.4548 221.843 103.183 240.951 111.277 259.017C108.007 260.615 103.736 262.142 100.99 260.075C98.7292 258.396 98.9057 255.56 97.6173 253.408C96.0317 250.826 94.3309 249.019 93.1574 246.092C90.5846 239.692 88.1985 233.249 86.0462 226.753C81.6507 213.581 78.0031 200.237 75.0563 186.734C73.3596 179.234 71.9189 171.776 70.7115 164.264Z" fill="#666666"/>
</svg>
