<svg width="181" height="550" viewBox="0 0 181 550" fill="none" xmlns="http://www.w3.org/2000/svg">
<path d="M161.547 264.696C162.963 266.553 164.346 268.472 165.09 270.679C165.787 272.899 165.67 275.512 164.189 277.334C162.497 279.321 159.5 279.832 157.041 278.999C154.582 278.167 152.588 276.272 151.007 274.205C148.489 270.863 146.79 266.613 147.546 262.475C148.064 259.643 150.831 254.971 154.277 255.826C156.993 256.48 160.014 262.615 161.547 264.696Z" fill="#FFC3B1"/>
<path d="M100.422 169.763C97.2199 160.328 94.3366 150.703 93.3859 140.668C92.4353 130.633 93.5623 120.127 98.1298 110.509C100.551 105.415 101.092 99.5796 106.945 100.253C112.208 100.253 118.9 106.88 120.001 111.693C124.839 133.485 127.792 155.666 130.484 177.901C131.588 187.078 132.623 196.227 134.659 205.186C139.267 225.883 148.772 245.102 160.641 262.766C157.402 265.083 153.074 267.514 149.758 265.837C147.032 264.482 146.725 261.435 144.963 259.393C142.805 256.949 140.659 255.35 138.885 252.463C134.997 246.149 131.303 239.755 127.851 233.259C120.817 220.095 114.559 206.607 109.026 192.816C105.889 185.168 103.034 177.516 100.422 169.763Z" fill="#666666"/>
<path d="M58.7092 549.831C68.2664 550.13 77.8732 549.98 87.4304 549.781C114.111 549.283 140.841 548.736 167.522 548.238C171.653 548.139 177.029 547.243 177.328 544.007C177.577 541.12 173.396 539.278 169.812 538.432C157.019 535.346 143.579 534.749 130.339 534.251C110.826 533.504 91.2634 532.907 71.7508 532.409C59.5554 532.11 47.0116 531.911 35.6624 535.097C29.4403 536.839 20.2814 544.256 30.1372 547.84C32.875 548.835 38.4002 548.387 41.3371 548.636C47.0614 549.184 52.8853 549.632 58.7092 549.831Z" fill="black"/>
<path d="M65.2548 402.218C66.5988 364.885 63.8113 326.805 64.0602 289.224C63.1642 276.182 64.6079 262.941 68.1918 250.696C68.3909 249.95 68.6398 249.153 69.0878 248.556C70.4815 246.764 72.821 247.71 74.6628 248.655C92.2341 257.864 112.991 255.674 129.019 242.682C132.205 248.805 133.101 256.321 133.848 263.589C135.092 275.336 136.486 287.034 136.834 298.831V298.88C136.884 301.419 136.934 303.958 136.884 306.496C136.685 321.181 134.445 335.666 132.703 350.151C131.558 359.608 130.563 369.116 130.463 378.673C130.363 386.488 131.259 393.656 129.865 401.322C126.481 420.187 126.481 440.795 125.037 460.108C123.494 480.766 122.001 501.423 120.707 522.131C120.657 522.977 120.607 523.773 120.557 524.619C119.761 524.918 107.217 528.552 107.217 524.42C106.221 484.25 105.226 444.08 104.181 403.91C103.782 386.986 104.728 329.892 101.343 313.764C99.9495 313.963 98.5559 314.112 97.1621 314.311C89.5462 367.473 80.4867 460.606 72.821 513.768C72.1242 518.447 71.3275 523.475 68.8885 526.511C66.4494 529.547 61.9198 528.701 61.2229 524.022C63.5624 483.454 63.8113 442.836 65.2548 402.218Z" fill="#272826"/>
<path d="M101.642 524.273C101.791 523.825 101.891 523.327 102.04 522.879C103.583 516.806 104.379 510.534 104.379 504.312C104.379 501.475 104.23 498.588 104.877 495.8C108.511 495.85 118.666 495.203 122.299 495.253C122.598 495.253 122.946 495.253 123.195 495.452C123.444 495.651 123.544 495.999 123.594 496.348C125.186 504.959 119.81 514.517 121.801 523.028C122.598 526.463 125.784 527.707 128.72 529.45C131.259 530.993 136.287 534.726 139.323 534.726C141.065 535.423 142.907 536.12 144.201 537.514C145.495 538.907 145.993 541.197 144.798 542.641C143.753 543.885 141.862 544.034 140.219 544.084C127.576 544.233 114.932 543.138 102.488 540.898C101.741 540.749 100.945 540.6 100.397 540.052C99.9492 539.604 99.7503 539.007 99.6009 538.459C98.1574 532.934 100.248 529.101 101.642 524.273Z" fill="#494949"/>
<path d="M55.598 527.606C55.9962 526.262 56.8924 525.117 57.3404 523.823C57.8381 522.479 57.5892 520.786 57.5892 519.343C57.5892 512.822 57.5891 506.252 57.5394 499.731C57.5394 497.74 57.7385 495.45 59.4309 494.405C60.5758 493.708 62.0192 493.907 63.3632 494.156C67.196 494.803 71.0289 495.45 74.8617 496.147C75.8572 496.296 77.0023 496.545 77.5498 497.391C78.0974 498.238 77.948 499.333 77.7488 500.328C76.604 506.6 76.1559 513.021 76.4048 519.443C76.4545 521.284 76.6039 523.126 76.4048 524.918C80.8349 528.701 85.7133 531.937 90.9399 534.475C92.483 535.222 94.0757 535.968 95.1708 537.263C96.2659 538.557 96.5645 540.697 95.3698 541.942C94.3245 543.037 92.682 543.037 91.1887 542.937C79.8395 542.24 68.5401 540.498 57.5394 537.661C56.8923 537.512 56.1955 537.312 55.7475 536.765C55.399 536.367 55.2497 535.819 55.1502 535.272C54.6524 532.783 54.8513 530.095 55.598 527.606Z" fill="#494949"/>
<path d="M76.4046 102.909C83.7218 103.457 91.0889 102.013 98.207 100.271C99.999 99.8231 101.94 99.3752 103.732 99.9228C106.569 100.819 107.814 103.805 108.611 106.444C121.702 147.311 132.354 188.874 140.667 230.787C153.36 294.899 160.627 359.859 162.27 425.017C125.535 434.275 86.6589 432.434 48.5794 430.592C34.3929 429.895 20.0572 429.198 6.31869 425.863C4.67605 425.465 2.88395 424.967 1.83863 423.723C0.594206 422.329 0.594303 420.338 0.693857 418.496C1.58984 402.119 5.02435 385.992 8.35942 369.914C24.3876 292.311 37.7777 214.261 49.4753 136.061C50.8691 126.553 49.8735 111.471 54.4032 102.959C59.132 93.9992 68.2909 102.312 76.4046 102.909Z" fill="#EBEFEB"/>
<path d="M65.1057 73.3912C65.3048 76.8258 65.5537 80.3103 66.6986 83.4463C69.2372 90.5146 75.6086 94.447 81.5819 97.5829C86.1614 99.9722 91.4376 102.312 96.0669 100.022C100.049 98.0807 102.339 93.3519 105.375 89.7679C107.665 87.0799 110.502 84.9893 112.693 82.152C117.62 75.8303 118.815 66.6714 118.865 58.1098C118.915 47.3081 116.973 35.4611 109.855 28.4923C106.122 24.8586 101.343 22.967 96.515 21.8719C92.0351 20.8266 87.3063 20.4285 82.8761 21.8222C77.4007 23.5644 72.7714 28.0443 69.4861 33.47C61.7706 46.4619 64.2097 58.6074 65.1057 73.3912Z" fill="#FFC3B1"/>
<path d="M125.087 42.3304C124.29 38.7464 123.593 35.0629 122.001 31.7777C121.553 30.8319 120.856 29.8363 120.109 28.8905C120.209 28.1438 120.308 27.3475 120.258 26.3021C120.009 19.2338 116.226 12.2651 110.203 8.48202C100.198 2.16033 87.1068 4.89803 75.6083 2.06074C72.6216 1.31408 69.6848 0.169191 66.5986 0.0198597C59.9783 -0.32858 53.8557 3.95227 50.0726 9.37797C46.2895 14.8037 44.3979 21.2747 42.4566 27.5964C39.6193 36.6558 36.2345 45.9143 29.4648 52.5346C23.8898 58.0101 16.025 61.8928 13.5859 69.3096C10.3504 79.1157 18.4642 89.5688 16.5727 99.7233C15.3781 106.045 10.5994 110.923 6.81629 116.1C0.793265 124.363 -2.8404 136.061 2.83419 144.523C4.87505 147.609 7.91148 149.849 10.6492 152.387C14.0341 155.523 16.9709 159.207 19.3104 163.189C21.7495 167.37 23.5911 172.199 22.5955 176.928C21.6 181.656 16.8215 185.788 12.1425 184.544C16.7717 187.032 22.6453 187.032 27.2746 184.593C31.9039 182.104 35.1892 177.226 35.6869 172C35.9358 169.212 35.5874 166.126 37.23 163.886C39.8682 160.352 46.0904 161.098 48.4797 157.365C50.6699 153.98 48.0816 149.7 47.0363 145.767C46.1901 142.581 46.4885 139.197 46.837 135.862C47.4343 130.287 48.2309 124.662 49.2265 119.136C49.8736 115.552 50.6699 111.819 52.8601 108.882C56.9916 103.307 64.8563 102.162 71.7753 102.76C75.1602 103.058 79.1425 103.407 81.2829 100.769C81.7807 100.122 82.1289 99.3748 82.2782 98.5784C86.1111 104.303 87.007 112.068 86.3102 119.136C90.0434 112.765 90.1433 104.701 87.8535 97.7323C85.514 90.7137 80.9841 84.6409 75.8571 79.3645C73.0696 76.4775 70.0331 73.7895 67.6438 70.5042C65.2544 67.2687 63.5622 63.3363 63.8111 59.3044C63.9605 57.2635 64.6074 55.372 65.5034 53.5302C66.1505 52.1862 68.7889 49.6476 68.8387 48.2539C68.8387 48.1045 68.8386 48.0049 68.7888 47.9054C68.8884 47.8556 68.9879 47.8059 69.0875 47.8059C68.7888 50.7427 69.2367 53.8289 70.1824 56.6662C71.7255 61.2457 74.513 65.2775 77.5992 69.0108C73.4677 62.6393 75.1104 53.7791 79.889 47.9054C84.6676 42.0317 91.9352 38.7464 99.2524 36.8549C102.687 35.9589 105.773 35.063 108.212 33.3706C109.407 35.0132 111 36.5562 112.095 37.7508C120.209 46.3622 121.453 59.9017 116.475 70.4544C113.091 77.6721 106.968 84.2924 107.565 92.2069C109.855 82.6995 121.303 78.4188 125.833 69.7576C130.164 61.4946 127.128 51.4894 125.087 42.3304Z" fill="#736357"/>
<path d="M91.7581 263.803C92.8894 265.846 93.9782 267.945 94.394 270.237C94.7607 272.536 94.2648 275.103 92.5343 276.691C90.5721 278.411 87.5327 278.48 85.2207 277.299C82.9088 276.118 81.2109 273.953 79.9478 271.678C77.9423 268.006 76.8792 263.554 78.2294 259.569C79.1533 256.843 82.5703 252.623 85.8548 253.97C88.4476 255.012 90.544 261.521 91.7581 263.803Z" fill="#FFC3B1"/>
<path d="M49.6573 164.264C48.1683 155.12 46.9949 145.853 47.6282 136.522C48.2615 127.191 50.8415 117.763 56.3971 109.701C59.341 105.432 64.6029 101.182 69.7893 102.74C74.6155 104.231 75.6974 109.724 75.9759 114.304C77.1055 135.013 76.4756 155.776 75.601 176.545C75.2338 185.117 74.8088 193.651 75.3158 202.172C76.4006 221.843 82.1285 240.951 90.2229 259.017C86.9524 260.615 82.6817 262.142 79.9362 260.075C77.675 258.396 77.8515 255.56 76.5631 253.408C74.9775 250.826 73.2767 249.019 72.1032 246.092C69.5304 239.692 67.1443 233.249 64.992 226.753C60.5965 213.581 56.9489 200.237 54.0021 186.734C52.3054 179.234 50.8647 171.776 49.6573 164.264Z" fill="#666666"/>
</svg>
