<svg width="200" height="550" viewBox="0 0 200 550" fill="none" xmlns="http://www.w3.org/2000/svg">
<path d="M43.2456 549.833C55.8036 550.128 68.4268 549.981 80.9848 549.784C116.043 549.292 151.166 548.75 186.224 548.258C191.652 548.16 198.716 547.274 199.109 544.076C199.436 541.221 193.942 539.401 189.232 538.564C172.423 535.513 154.763 534.923 137.365 534.431C111.726 533.692 86.0213 533.102 60.3821 532.61C44.3575 532.315 27.8751 532.118 12.9625 535.267C4.78673 536.989 -7.24792 544.322 5.70251 547.865C9.29986 548.849 16.56 548.406 20.4189 548.652C27.9406 549.193 35.5931 549.636 43.2456 549.833Z" fill="black"/>
<path d="M167.953 264.696C169.369 266.553 170.751 268.472 171.496 270.679C172.193 272.899 172.076 275.512 170.594 277.334C168.903 279.321 165.906 279.832 163.447 278.999C160.988 278.167 158.993 276.272 157.413 274.205C154.895 270.863 153.196 266.613 153.952 262.475C154.47 259.643 157.237 254.971 160.682 255.826C163.399 256.48 166.42 262.615 167.953 264.696Z" fill="#FFC3B1"/>
<path d="M106.827 169.763C103.626 160.328 100.742 150.703 99.7917 140.668C98.841 130.633 99.9681 120.127 104.536 110.509C106.957 105.415 107.497 99.5796 113.35 100.253C118.614 100.253 125.306 106.88 126.407 111.693C131.244 133.485 134.198 155.666 136.89 177.901C137.994 187.078 139.029 196.227 141.065 205.186C145.673 225.883 155.178 245.102 167.047 262.766C163.808 265.083 159.48 267.514 156.164 265.837C153.437 264.482 153.131 261.435 151.369 259.393C149.211 256.949 147.065 255.35 145.29 252.463C141.403 246.149 137.708 239.755 134.256 233.259C127.223 220.095 120.965 206.607 115.432 192.816C112.295 185.168 109.44 177.516 106.827 169.763Z" fill="#666666"/>
<path d="M64.9124 393.421C66.2564 356.088 70.2172 326.805 70.4661 289.224C69.5701 276.182 71.0137 262.941 74.5977 250.696C74.7968 249.95 75.0456 249.153 75.4936 248.556C76.8874 246.764 79.2269 247.71 81.0686 248.655C98.64 257.864 119.397 255.674 135.425 242.682C138.611 248.805 139.507 256.321 140.254 263.589C141.498 275.336 142.892 287.034 143.24 298.831V298.881C143.29 301.419 143.34 303.958 143.29 306.496C143.091 321.181 140.851 335.666 139.109 350.151C137.964 359.608 136.968 369.116 136.869 378.673C136.769 386.488 130.78 393.211 129.386 400.877C139.474 424.123 140.79 439.501 142.809 460.088C145.176 484.21 148.39 495.614 145.176 517.982C142.717 535.088 142.859 537.312 142.809 538.158C142.013 538.457 135.526 538.342 135.526 534.21C132.018 491.667 119.737 433.333 110.586 403.91C110.188 386.986 111.134 329.892 107.749 313.764C106.355 313.963 104.962 314.112 103.568 314.311C102.632 411.403 75.8773 482.017 60.965 522.368C59.1576 527.259 56.5791 533.066 51.3159 531.14C47.6584 529.802 47.6268 523.1 46.9299 518.421C62.7194 466.667 70.4661 429.386 64.9124 393.421Z" fill="#272826"/>
<path d="M131.247 525.39C131.33 524.926 131.357 524.419 131.44 523.954C132.092 517.722 131.975 511.401 131.078 505.244C130.669 502.436 130.105 499.601 130.344 496.749C133.947 496.274 143.902 494.17 147.505 493.695C147.8 493.652 148.145 493.602 148.42 493.763C148.695 493.924 148.844 494.255 148.944 494.592C151.761 502.884 147.819 513.117 151.017 521.252C152.3 524.536 155.632 525.308 158.789 526.609C161.524 527.77 167.037 530.739 170.042 530.302C171.866 530.74 173.789 531.164 175.271 532.357C176.752 533.549 177.575 535.743 176.601 537.344C175.746 538.726 173.896 539.147 172.278 539.433C159.788 541.403 147.119 542.143 134.481 541.72C133.721 541.68 132.911 541.647 132.291 541.184C131.783 540.805 131.5 540.243 131.273 539.723C129.048 534.463 130.564 530.369 131.247 525.39Z" fill="#494949"/>
<path d="M42.1339 523.523C42.8509 522.318 44.0015 521.43 44.7545 520.286C45.568 519.106 45.7436 517.404 46.0992 516.005C47.7055 509.685 49.324 503.317 50.882 496.985C51.3725 495.055 52.1295 492.885 54.0272 492.289C55.3085 491.895 56.6584 492.444 57.8997 493.016C61.455 494.587 65.0103 496.159 68.5533 497.778C69.4814 498.168 70.5299 498.692 70.8521 499.647C71.1744 500.602 70.7598 501.626 70.3216 502.542C67.667 508.339 65.651 514.452 64.3105 520.736C63.905 522.534 63.5961 524.355 62.9617 526.043C66.3234 530.801 70.2545 535.138 74.6947 538.886C76.0063 539.99 77.3661 541.106 78.1086 542.63C78.8512 544.154 78.6133 546.302 77.1489 547.214C75.866 548.018 74.2742 547.613 72.8514 547.149C62.0236 543.678 51.5015 539.206 41.5386 533.746C40.9482 533.442 40.322 533.077 40.0227 532.436C39.7831 531.965 39.7732 531.397 39.8116 530.842C39.9423 528.307 40.7972 525.751 42.1339 523.523Z" fill="#494949"/>
<path d="M82.8104 102.909C90.1276 103.457 97.4946 102.013 104.613 100.271C106.405 99.8231 108.346 99.3752 110.138 99.9228C112.975 100.819 114.22 103.805 115.016 106.444C128.108 147.311 138.76 188.874 147.073 230.787C159.766 294.899 167.033 359.859 168.676 425.017C131.94 434.275 93.0646 432.434 54.9851 430.592C40.7987 429.895 26.4629 429.198 12.7245 425.863C11.0818 425.465 9.28971 424.967 8.24439 423.723C6.99997 422.329 7.00006 420.338 7.09962 418.496C7.99561 402.119 11.4301 385.992 14.7652 369.914C30.7934 292.311 44.1835 214.261 55.8811 136.061C57.2749 126.553 56.2793 111.471 60.809 102.959C65.5378 93.9992 74.6967 102.312 82.8104 102.909Z" fill="#EBEFEB"/>
<path d="M71.5114 73.3912C71.7106 76.8258 71.9595 80.3103 73.1044 83.4463C75.643 90.5146 82.0144 94.447 87.9876 97.5829C92.5671 99.9722 97.8434 102.312 102.473 100.022C106.455 98.0807 108.745 93.3519 111.781 89.7679C114.071 87.0799 116.908 84.9893 119.098 82.152C124.026 75.8303 125.221 66.6714 125.271 58.1098C125.32 47.3081 123.379 35.4611 116.261 28.4923C112.528 24.8586 107.749 22.967 102.921 21.8719C98.4408 20.8266 93.7121 20.4285 89.2819 21.8222C83.8064 23.5644 79.1771 28.0443 75.8919 33.47C68.1764 46.4619 70.6155 58.6074 71.5114 73.3912Z" fill="#FFC3B1"/>
<path d="M131.492 42.3304C130.696 38.7464 129.999 35.0629 128.406 31.7777C127.958 30.8319 127.261 29.8363 126.515 28.8905C126.614 28.1438 126.714 27.3475 126.664 26.3021C126.415 19.2338 122.632 12.2651 116.609 8.48202C106.604 2.16033 93.5125 4.89803 82.014 2.06074C79.0274 1.31408 76.0906 0.169191 73.0044 0.0198597C66.384 -0.32858 60.2614 3.95227 56.4784 9.37797C52.6953 14.8037 50.8036 21.2747 48.8623 27.5964C46.025 36.6558 42.6403 45.9143 35.8706 52.5346C30.2955 58.0101 22.4307 61.8928 19.9917 69.3096C16.7562 79.1157 24.87 89.5688 22.9785 99.7233C21.7838 106.045 17.0051 110.923 13.2221 116.1C7.19903 124.363 3.56536 136.061 9.23995 144.523C11.2808 147.609 14.3172 149.849 17.055 152.387C20.4398 155.523 23.3766 159.207 25.7162 163.189C28.1552 167.37 29.9968 172.199 29.0013 176.928C28.0058 181.656 23.2273 185.788 18.5482 184.544C23.1775 187.032 29.0511 187.032 33.6804 184.593C38.3096 182.104 41.5949 177.226 42.0927 172C42.3416 169.212 41.9931 166.126 43.6358 163.886C46.274 160.352 52.4962 161.098 54.8855 157.365C57.0756 153.98 54.4873 149.7 53.442 145.767C52.5958 142.581 52.8943 139.197 53.2427 135.862C53.84 130.287 54.6367 124.662 55.6322 119.136C56.2793 115.552 57.0757 111.819 59.2659 108.882C63.3974 103.307 71.2621 102.162 78.1811 102.76C81.5659 103.058 85.5483 103.407 87.6887 100.769C88.1865 100.122 88.5347 99.3748 88.684 98.5784C92.5168 104.303 93.4128 112.068 92.7159 119.136C96.4492 112.765 96.549 104.701 94.2593 97.7323C91.9198 90.7137 87.3899 84.6409 82.2629 79.3645C79.4753 76.4775 76.4388 73.7895 74.0495 70.5042C71.6602 67.2687 69.968 63.3363 70.2169 59.3044C70.3662 57.2635 71.0131 55.372 71.9091 53.5302C72.5562 52.1862 75.1946 49.6476 75.2444 48.2539C75.2444 48.1045 75.2444 48.0049 75.1946 47.9054C75.2941 47.8556 75.3937 47.8059 75.4932 47.8059C75.1946 50.7427 75.6424 53.8289 76.5882 56.6662C78.1313 61.2457 80.9187 65.2775 84.0049 69.0108C79.8734 62.6393 81.5162 53.7791 86.2948 47.9054C91.0734 42.0317 98.3409 38.7464 105.658 36.8549C109.093 35.9589 112.179 35.063 114.618 33.3706C115.813 35.0132 117.406 36.5562 118.501 37.7508C126.614 46.3622 127.859 59.9017 122.881 70.4544C119.496 77.6721 113.374 84.2924 113.971 92.2069C116.261 82.6995 127.709 78.4188 132.239 69.7576C136.57 61.4946 133.533 51.4894 131.492 42.3304Z" fill="#736357"/>
<path d="M98.1639 263.803C99.2951 265.846 100.384 267.945 100.8 270.237C101.166 272.536 100.671 275.103 98.9401 276.691C96.9779 278.411 93.9384 278.48 91.6265 277.299C89.3145 276.118 87.6167 273.953 86.3536 271.678C84.3481 268.006 83.2849 263.554 84.6352 259.569C85.559 256.843 88.9761 252.623 92.2606 253.97C94.8533 255.012 96.9498 261.521 98.1639 263.803Z" fill="#FFC3B1"/>
<path d="M56.0631 164.264C54.5741 155.12 53.4007 145.853 54.034 136.522C54.6673 127.191 57.2472 117.763 62.8028 109.701C65.7468 105.432 71.0086 101.182 76.1951 102.74C81.0213 104.231 82.1031 109.724 82.3816 114.304C83.5113 135.013 82.8813 155.776 82.0068 176.545C81.6396 185.117 81.2145 193.651 81.7215 202.172C82.8064 221.843 88.5343 240.951 96.6286 259.017C93.3582 260.615 89.0874 262.142 86.342 260.075C84.0807 258.396 84.2573 255.56 82.9689 253.408C81.3833 250.826 79.6825 249.019 78.509 246.092C75.9361 239.692 73.55 233.249 71.3978 226.753C67.0023 213.581 63.3547 200.237 60.4078 186.734C58.7112 179.234 57.2704 171.776 56.0631 164.264Z" fill="#666666"/>
</svg>
