<svg width="199" height="550" viewBox="0 0 199 550" fill="none" xmlns="http://www.w3.org/2000/svg">
<path d="M179.967 264.696C181.384 266.553 182.766 268.472 183.511 270.679C184.208 272.899 184.091 275.512 182.609 277.334C180.918 279.321 177.921 279.832 175.462 278.999C173.003 278.167 171.008 276.272 169.428 274.205C166.91 270.863 165.21 266.613 165.967 262.475C166.485 259.643 169.252 254.971 172.697 255.826C175.414 256.48 178.434 262.615 179.967 264.696Z" fill="#FFC3B1"/>
<path d="M118.842 169.763C115.64 160.328 112.757 150.703 111.806 140.668C110.855 130.633 111.982 120.127 116.55 110.509C118.971 105.415 119.512 99.5796 125.365 100.253C130.628 100.253 137.32 106.88 138.421 111.693C143.259 133.485 146.213 155.666 148.904 177.901C150.008 187.078 151.044 196.227 153.08 205.186C157.687 225.883 167.192 245.102 179.061 262.766C175.822 265.083 171.494 267.514 168.178 265.837C165.452 264.482 165.146 261.435 163.383 259.393C161.225 256.949 159.079 255.35 157.305 252.463C153.417 246.149 149.723 239.755 146.271 233.259C139.238 220.095 132.979 206.607 127.447 192.816C124.309 185.168 121.455 177.516 118.842 169.763Z" fill="#666666"/>
<path d="M42.4836 549.833C54.8203 550.128 67.221 549.981 79.5577 549.784C113.998 549.292 148.502 548.75 182.942 548.258C188.275 548.16 195.215 547.274 195.6 544.076C195.922 541.221 190.524 539.401 185.898 538.564C169.385 535.513 152.036 534.923 134.945 534.431C109.757 533.692 84.5055 533.102 59.3181 532.61C43.5759 532.315 27.3839 532.118 12.7341 535.267C4.70238 536.989 -7.12021 544.322 5.60203 547.865C9.13598 548.849 16.2681 548.406 20.0591 548.652C27.4483 549.193 34.9659 549.636 42.4836 549.833Z" fill="black"/>
<path d="M119.298 444.298C104.981 409.318 57.7066 325.711 59.2108 288.158C58.7509 275.094 46.9808 265.213 50.9718 253.094C51.1958 252.355 51.4711 251.567 51.9388 250.985C53.3916 249.241 55.6982 250.264 57.5074 251.271C74.7612 261.062 95.5798 259.566 112.033 247.117C115.012 253.342 115.657 260.885 116.16 268.173C117.012 279.955 118.014 291.693 117.968 303.495L117.966 303.545C117.931 306.084 117.896 308.623 117.762 311.158C117.072 325.828 114.35 340.23 112.124 354.649C110.664 364.063 109.352 373.532 108.933 383.08C108.573 390.887 109.228 398.081 107.579 405.696C104.717 424.465 103.955 447.259 103.31 466.546C102.593 488.026 102.459 505.136 103.086 525.782C103.008 526.627 95.6533 526.443 95.5753 527.287C94.7693 527.559 88.0439 529.413 88.1819 525.284C85.5701 485.262 84.5732 447.308 84.8703 407.125C85.0377 390.197 98.4195 335.969 95.5753 319.737C94.1757 319.89 145.176 436.404 142.983 448.684C142.983 456.141 104.146 478.07 88.1819 485.526C82.8192 488.419 50.3463 498.801 47.8072 501.755C45.268 504.708 29.9263 499.437 29.3861 494.737C53.0702 478.071 89.9125 468.421 119.298 444.298Z" fill="#272826"/>
<path d="M84.0211 521.852C84.1443 521.396 84.2151 520.894 84.3383 520.438C85.5288 514.286 85.9622 507.979 85.6035 501.767C85.4399 498.934 85.1246 496.061 85.6099 493.241C89.2404 493.081 99.3408 491.849 102.971 491.69C103.269 491.672 103.617 491.652 103.877 491.837C104.137 492.021 104.257 492.363 104.327 492.708C106.413 501.214 101.597 511.065 104.075 519.448C105.069 522.831 108.321 523.889 111.353 525.459C113.977 526.854 119.211 530.291 122.242 530.116C124.022 530.711 125.901 531.301 127.273 532.618C128.645 533.934 129.274 536.192 128.165 537.702C127.193 539.004 125.313 539.262 123.676 539.407C111.062 540.285 98.3769 539.92 85.8242 538.401C85.0702 538.295 84.2666 538.192 83.6883 537.677C83.2153 537.256 82.9822 536.671 82.8016 536.133C81.0419 530.7 82.908 526.753 84.0211 521.852Z" fill="#494949"/>
<path d="M32.4451 488.644C33.8171 488.357 35.25 488.603 36.6019 488.383C38.0211 488.184 39.393 487.162 40.6638 486.477C46.4042 483.384 52.1884 480.267 57.9052 477.13C59.6579 476.185 61.768 475.274 63.4911 476.268C64.6477 476.946 65.1572 478.311 65.5757 479.612C66.8242 483.293 68.0727 486.974 69.2774 490.679C69.6182 491.626 69.9423 492.752 69.4571 493.636C68.9719 494.519 67.937 494.907 66.9662 495.204C60.9018 497.171 55.0365 499.823 49.5018 503.088C47.9041 504.006 46.3536 505.011 44.6816 505.686C43.4529 511.38 42.9189 517.21 43.1635 523.015C43.2382 524.728 43.3365 526.484 42.7166 528.062C42.0968 529.64 40.3542 530.918 38.692 530.457C37.2321 530.056 36.4529 528.61 35.8321 527.248C31.0617 516.927 27.2352 506.153 24.5144 495.123C24.3389 494.483 24.1837 493.775 24.4532 493.121C24.6385 492.625 25.0496 492.234 25.4844 491.886C27.4392 490.268 29.8999 489.168 32.4451 488.644Z" fill="#494949"/>
<path d="M94.825 102.909C102.142 103.457 109.509 102.013 116.627 100.271C118.419 99.8231 120.361 99.3752 122.153 99.9228C124.99 100.819 126.234 103.805 127.031 106.444C140.122 147.311 150.775 188.874 159.087 230.787C171.781 294.899 179.048 359.859 180.69 425.017C143.955 434.275 105.079 432.434 66.9998 430.592C52.8133 429.895 38.4776 429.198 24.7391 425.863C23.0965 425.465 21.3044 424.967 20.259 423.723C19.0146 422.329 19.0147 420.338 19.1143 418.496C20.0103 402.119 23.4448 385.992 26.7798 369.914C42.808 292.311 56.1981 214.261 67.8957 136.061C69.2895 126.553 68.2939 111.471 72.8236 102.959C77.5524 93.9992 86.7113 102.312 94.825 102.909Z" fill="#EBEFEB"/>
<path d="M83.5259 73.3912C83.725 76.8258 83.9739 80.3103 85.1188 83.4463C87.6574 90.5146 94.0288 94.447 100.002 97.5829C104.582 99.9722 109.858 102.312 114.487 100.022C118.469 98.0807 120.759 93.3519 123.795 89.7679C126.085 87.0799 128.923 84.9893 131.113 82.152C136.041 75.8303 137.235 66.6714 137.285 58.1098C137.335 47.3081 135.394 35.4611 128.275 28.4923C124.542 24.8586 119.764 22.967 114.935 21.8719C110.455 20.8266 105.726 20.4285 101.296 21.8222C95.8208 23.5644 91.1915 28.0443 87.9063 33.47C80.1908 46.4619 82.6299 58.6074 83.5259 73.3912Z" fill="#FFC3B1"/>
<path d="M143.507 42.3304C142.711 38.7464 142.014 35.0629 140.421 31.7777C139.973 30.8319 139.276 29.8363 138.529 28.8905C138.629 28.1438 138.728 27.3475 138.679 26.3021C138.43 19.2338 134.647 12.2651 128.624 8.48202C118.619 2.16033 105.527 4.89803 94.0287 2.06074C91.0421 1.31408 88.1052 0.169191 85.019 0.0198597C78.3987 -0.32858 72.2761 3.95227 68.493 9.37797C64.7099 14.8037 62.8183 21.2747 60.877 27.5964C58.0397 36.6558 54.6549 45.9143 47.8852 52.5346C42.3102 58.0101 34.4454 61.8928 32.0063 69.3096C28.7708 79.1157 36.8846 89.5688 34.9931 99.7233C33.7985 106.045 29.0198 110.923 25.2367 116.1C19.2137 124.363 15.58 136.061 21.2546 144.523C23.2955 147.609 26.3319 149.849 29.0696 152.387C32.4545 155.523 35.3913 159.207 37.7308 163.189C40.1699 167.37 42.0115 172.199 41.016 176.928C40.0204 181.656 35.2419 185.788 30.5629 184.544C35.1922 187.032 41.0657 187.032 45.695 184.593C50.3243 182.104 53.6096 177.226 54.1074 172C54.3562 169.212 54.0078 166.126 55.6504 163.886C58.2886 160.352 64.5108 161.098 66.9001 157.365C69.0903 153.98 66.502 149.7 65.4567 145.767C64.6105 142.581 64.9089 139.197 65.2574 135.862C65.8547 130.287 66.6513 124.662 67.6469 119.136C68.294 115.552 69.0903 111.819 71.2805 108.882C75.412 103.307 83.2767 102.162 90.1957 102.76C93.5806 103.058 97.5629 103.407 99.7033 100.769C100.201 100.122 100.549 99.3748 100.699 98.5784C104.531 104.303 105.427 112.068 104.731 119.136C108.464 112.765 108.564 104.701 106.274 97.7323C103.934 90.7137 99.4045 84.6409 94.2775 79.3645C91.49 76.4775 88.4535 73.7895 86.0642 70.5042C83.6749 67.2687 81.9826 63.3363 82.2315 59.3044C82.3809 57.2635 83.0278 55.372 83.9238 53.5302C84.5709 52.1862 87.2093 49.6476 87.2591 48.2539C87.2591 48.1045 87.259 48.0049 87.2092 47.9054C87.3088 47.8556 87.4083 47.8059 87.5079 47.8059C87.2092 50.7427 87.6571 53.8289 88.6028 56.6662C90.1459 61.2457 92.9334 65.2775 96.0196 69.0108C91.8881 62.6393 93.5308 53.7791 98.3094 47.9054C103.088 42.0317 110.356 38.7464 117.673 36.8549C121.107 35.9589 124.194 35.063 126.633 33.3706C127.827 35.0132 129.42 36.5562 130.515 37.7508C138.629 46.3622 139.873 59.9017 134.896 70.4544C131.511 77.6721 125.388 84.2924 125.985 92.2069C128.275 82.6995 139.724 78.4188 144.254 69.7576C148.584 61.4946 145.548 51.4894 143.507 42.3304Z" fill="#736357"/>
<path d="M110.178 263.803C111.31 265.846 112.398 267.945 112.814 270.237C113.181 272.536 112.685 275.103 110.955 276.691C108.992 278.411 105.953 278.48 103.641 277.299C101.329 276.118 99.6311 273.953 98.368 271.678C96.3625 268.006 95.2993 263.554 96.6496 259.569C97.5734 256.843 100.991 252.623 104.275 253.97C106.868 255.012 108.964 261.521 110.178 263.803Z" fill="#FFC3B1"/>
<path d="M68.0775 164.264C66.5885 155.12 65.4151 145.853 66.0484 136.522C66.6817 127.191 69.2616 117.763 74.8172 109.701C77.7612 105.432 83.023 101.182 88.2095 102.74C93.0357 104.231 94.1175 109.724 94.396 114.304C95.5257 135.013 94.8957 155.776 94.0212 176.545C93.654 185.117 93.2289 193.651 93.7359 202.172C94.8208 221.843 100.549 240.951 108.643 259.017C105.373 260.615 101.102 262.142 98.3564 260.075C96.0951 258.396 96.2717 255.56 94.9833 253.408C93.3977 250.826 91.6969 249.019 90.5234 246.092C87.9505 239.692 85.5645 233.249 83.4122 226.753C79.0167 213.581 75.3691 200.237 72.4223 186.734C70.7256 179.234 69.2848 171.776 68.0775 164.264Z" fill="#666666"/>
</svg>
