<svg width="288" height="480" viewBox="0 0 288 480" fill="none" xmlns="http://www.w3.org/2000/svg">
<path d="M69.0475 242.112C68.4193 242.516 67.808 242.986 67.4439 243.603C67.0797 244.219 66.9965 245.112 67.5099 245.748C67.7254 246.041 68.0717 246.301 68.132 246.669C68.1415 246.841 68.0615 247.071 67.9886 247.194C67.0978 248.608 65.153 249.453 65.0109 251.198C64.9225 252.476 65.908 253.724 66.9811 254.635C68.3182 255.758 69.8664 256.618 71.5677 257.124C72.7019 257.462 73.9745 257.66 75.0705 257.31C76.8454 256.752 77.7829 254.978 78.4752 253.337C79.7722 250.39 81.1104 247.468 82.4317 244.48C82.8591 243.568 83.243 242.354 82.5965 241.473C82.2817 241.066 81.8531 240.757 81.3345 240.506C79.8517 239.63 75.7376 236.81 74.1878 237.834C73.5596 238.239 73.2971 239.247 72.5961 239.775C71.4051 240.568 70.1973 241.295 69.0475 242.112Z" fill="#F9E9DE"/>
<path d="M127.448 155.752C130.367 147.147 132.997 138.37 133.864 129.218C134.731 120.066 133.703 110.484 129.538 101.712C127.33 97.0673 125.338 91.3852 120 91.9997C115.026 92.6111 110.595 98.4026 109.591 102.792C105.179 122.666 102.485 142.896 100.031 163.174C99.0237 171.544 98.0794 179.888 96.2227 188.058C92.0203 206.934 83.3518 224.461 72.5271 240.571C75.4815 242.684 79.4287 244.901 82.4525 243.372C84.9392 242.136 85.2184 239.357 86.8258 237.494C88.7937 235.266 90.7509 233.808 92.3692 231.175C95.9148 225.417 99.284 219.585 102.432 213.661C108.847 201.655 114.554 189.354 119.6 176.777C122.461 169.802 125.065 162.823 127.448 155.752Z" fill="#303030"/>
<path d="M78.2914 470.323C63.938 470.458 47.5091 469.963 38.3437 462.309C36.2109 460.508 34.5393 458.257 34.8852 455.916C35.6346 450.918 44.2812 448.757 51.429 447.901C93.0481 443.039 135.59 444.975 177.727 446.866C204.013 448.036 230.644 449.297 255.719 454.88C268.805 457.806 279.181 465.371 262.695 468.747C246.727 471.989 222.228 468.882 205.512 469.063C163.086 469.468 120.717 469.918 78.2914 470.323Z" fill="url(#paint0_linear_287_775)"/>
<path d="M103.5 318.196C101.236 327.641 101.698 355.208 101.695 358.985C101.221 360.402 104.702 375.922 104.981 384.009C105.631 403.164 104.945 422.254 103.387 440.91C103.48 443.846 103.845 447.234 106.742 449.17C108.054 450.07 109.728 450.518 111.357 450.966C115.067 451.951 120.224 452.436 121.443 449.632C121.849 448.682 121.622 447.598 121.395 446.559C118.079 430.664 121.367 415.385 120.764 399.437C120.486 391.531 121.243 383.741 122.141 375.968C122.172 341.504 124.139 346.042 135.299 313.928C142.849 292.204 151.414 293.79 149.044 274.73C148.543 270.845 147.344 258.374 144.808 254.901C141.366 250.211 148.892 241.191 142.378 240.304C106.924 251.618 114.314 263.405 111.52 274.752C107.419 291.433 107.511 301.469 103.5 318.196Z" fill="#F9E9DE"/>
<path d="M76.5465 455.52C76.8038 456.525 77.6049 457.309 78.4999 457.775C79.395 458.241 80.4282 458.436 81.4175 458.584C92.1628 460.304 103.176 458.701 114.075 459.01C115.651 459.074 117.317 459.139 118.723 458.472C120.173 457.806 121.321 456.179 120.845 454.67C120.757 454.441 120.67 454.212 120.446 454.118C120.311 454.071 120.176 454.069 120.041 454.068C107.518 453.922 94.939 454.686 82.4801 453.083C80.0968 452.736 75.3879 451.041 76.5465 455.52Z" fill="white"/>
<path d="M77.338 446.692C78.9337 445.174 81.0161 444.294 83.0961 443.595C86.6685 442.372 90.3716 441.466 94.1601 440.923C96.3702 440.588 98.7593 440.345 100.399 438.872C102.222 437.221 102.663 434.558 102.965 432.12C103.519 427.651 104.119 423.137 103.999 418.614C103.919 414.498 104.423 410.435 104.027 406.316C103.352 399.526 103.423 394.146 102.903 385.866C102.683 382.065 102.875 378.252 102.339 374.538C101.677 370.145 100.467 365.852 101.515 361.524C101.658 360.938 101.846 360.352 102.345 360.042C102.663 359.82 103.068 359.824 103.474 359.784C110.504 359.234 117.615 359.319 124.626 360.125C123.711 364.681 124.013 369.07 124.087 373.683C124.189 379.562 124.695 385.491 124.887 391.371C125.015 395.306 124.423 399.233 124.416 403.167C124.389 408.547 123.486 422.372 123.865 427.711C124.705 439.07 124.846 441.965 123.121 453.248C122.926 454.422 122.638 455.775 121.595 456.35C121.096 456.616 120.511 456.654 119.97 456.693C113.123 457.063 106.231 457.434 99.3835 457.805C94.9241 458.023 90.4186 458.286 86.0192 457.375C80.9033 456.184 70.4081 453.302 77.338 446.692Z" fill="#333333"/>
<path d="M153.626 343.344C153.626 346.177 152.684 357.567 171.987 369.317C179.329 372.531 189.021 377.35 196.696 379.871C214.872 385.764 233.025 391.697 251.201 397.59C254.006 398.482 257.257 399.312 260.088 397.271C261.379 396.337 262.369 394.924 263.336 393.55C265.529 390.43 267.748 385.774 265.482 383.631C264.747 382.911 263.644 382.762 262.603 382.595C246.57 380.275 233.318 372.008 218.183 367.138C210.706 364.727 204.096 361.048 197.109 357.567C156.451 349.955 184.699 317.844 173.655 309.343C161.778 294.037 167.894 290.589 149.184 286.311C145.351 285.415 150.511 283.171 146.384 284.386C140.826 286.044 144.006 286.244 143.089 284.343C133.485 302.512 154.701 294.742 151.743 305.093C153.917 315.01 153.626 325.846 153.626 343.344Z" fill="#F9E9DE"/>
<path d="M256.851 431.529C257.872 431.664 258.898 431.172 259.613 430.494C260.328 429.817 260.896 428.947 261.425 428.054C266.834 418.56 269.23 407.691 273.43 397.583C274.041 396.107 274.675 394.593 274.606 393.028C274.536 391.463 273.422 389.801 271.814 389.683C271.574 389.645 271.327 389.708 271.135 389.856C271.027 389.95 270.997 390.089 270.928 390.206C266.372 401.889 262.576 413.973 256.687 425.073C255.546 427.178 252.342 430.996 256.851 431.529Z" fill="white"/>
<path d="M249.547 427.628C248.703 425.601 245.91 421.732 245.968 419.508C246.081 415.689 246.572 411.938 247.364 408.209C247.864 406.039 248.455 403.712 247.656 401.608C246.772 399.296 244.424 397.949 242.224 396.796C239.11 395.151 235.835 393.778 232.507 392.583C228.707 391.211 225.182 389.374 221.299 388.32C214.738 386.565 209.768 384.602 201.806 382.116C198.208 381.023 194.788 379.983 191.091 379.145C186.775 378.202 182.235 377.283 178.576 374.788C178.095 374.449 178.185 374.586 178.105 374.013C178.01 373.641 179.045 369.765 179.045 369.765C179.045 369.765 181.092 361.95 183.347 356.992C184.401 354.679 187.116 353.723 189.447 354.744C192.188 355.957 194.989 356.891 197.884 357.933C203.418 359.917 209.12 361.529 214.677 363.474C218.384 364.737 221.839 366.691 225.478 368.071C230.47 369.995 243.046 375.755 248.168 377.284C259.047 380.509 261.81 381.42 271.711 387.004C272.742 387.566 273.897 388.359 274.057 389.504C274.137 390.077 273.977 390.613 273.779 391.125C271.672 397.694 269.565 404.263 267.496 410.856C266.119 415.129 264.758 419.465 262.366 423.239C259.684 427.68 253.277 436.467 249.547 427.628Z" fill="#333333"/>
<path d="M81.3224 304.728C81.1873 307.258 84.206 308.749 86.7289 308.975C89.2517 309.247 92.1798 309.156 93.8467 311.054C95.018 312.41 95.1984 314.353 96.3247 315.753C97.9015 317.651 100.74 317.832 103.173 317.425C105.605 317.019 108.083 316.205 110.516 316.793C113.985 317.606 116.372 320.995 119.796 321.808C123.941 322.803 128.086 319.775 132.365 319.865C138.267 320.046 143.808 326.056 149.169 323.616C151.377 322.622 152.954 320.272 155.341 319.82C158.9 319.142 161.964 322.848 165.568 322.803C170.614 322.757 173.001 315.889 177.867 314.624C180.885 313.81 183.994 315.392 187.102 315.708C190.211 315.979 194.175 313.539 193.049 310.602C195.707 310.557 198.41 311.054 200.888 312.138C201.248 308.433 201.518 304.321 199.131 301.474C196.608 298.447 192.148 298.176 188.229 298.311C173.677 298.899 159.396 302.559 144.934 304.366C130.473 306.174 115.156 305.993 102.136 299.351C98.0813 297.317 93.937 294.154 89.5671 296.504C87.4046 297.679 81.4576 302.243 81.3224 304.728Z" fill="#EAEAEA"/>
<path d="M200.662 293.929C199.536 282.497 194.535 272.827 193.409 261.395C189.895 239.976 184.399 220.185 180.66 199.579C175.569 171.744 174.893 157.872 170.028 129.947C168.226 119.508 167.866 108.709 163.901 98.8581C163.225 97.1862 162.369 95.5143 160.837 94.6105C159.756 93.9779 158.45 93.8875 157.189 93.7972C150.611 93.3001 144.034 92.8031 137.456 92.306C132.501 91.9445 127.545 91.583 122.589 91.583C121.373 91.583 120.021 91.6734 119.075 92.4416C118.399 92.9838 117.994 93.752 117.679 94.5653C114.165 102.563 114.255 111.601 113.85 120.367C113.399 130.127 112.182 139.797 110.56 149.422C109.699 162.447 107.344 177.086 106.874 191.253L103.578 203.059L102.166 213.448C102.166 219.587 96.5158 250.282 84.6116 289.998C84.6116 293.254 84.4313 296.008 86.1883 298.313C87.3596 299.849 89.1168 300.753 90.8287 301.566C122.995 316.749 161.649 317.562 194.401 303.735C196.743 302.741 199.221 301.521 200.257 299.216C201.023 297.635 200.842 295.737 200.662 293.929Z" fill="#4A4A4A"/>
<path d="M125.202 80.917C126.283 83.4022 137.411 88.8247 139.933 88.8699C147.052 89.0054 154.89 87.3335 159.576 78.6576C163.9 70.7499 164.396 59.2273 164.621 48.6084C164.666 45.0387 162.774 41.3334 161.918 38.0799C160.206 31.7538 157.548 29.0877 153.449 27.5062C146.241 24.7046 138.537 23.1231 131.554 27.1899C114.93 36.8599 115.291 57.9621 125.202 80.917Z" fill="#F9E9DE"/>
<path d="M140.655 95.197C140.7 94.6548 140.744 94.0673 141.015 93.6155C141.42 92.9377 142.186 92.6666 142.907 92.3954C146.421 91.1302 149.89 89.9101 153.404 88.6449C153.854 88.4642 154.35 88.3286 154.846 88.3286C156.107 88.3286 157.098 89.4131 157.864 90.4524C158.089 90.7687 158.315 91.085 158.36 91.4917C158.45 92.2599 157.819 92.8925 157.233 93.3895C153.449 96.7786 149.62 100.122 145.835 103.511C144.304 104.867 141.376 107.081 140.385 104.054C139.574 101.523 140.474 97.8178 140.655 95.197Z" fill="#EAEAEA"/>
<path d="M134.348 90.9044C135.158 91.2659 136.015 91.4918 136.78 91.9437C137.546 92.3956 138.222 93.0734 138.357 93.9319C138.492 94.7001 138.222 95.4231 137.907 96.1461C136.826 98.7217 135.519 101.162 133.942 103.466C133.672 103.873 133.266 104.325 132.816 104.189C132.456 104.099 132.275 103.783 132.14 103.466C130.969 101.207 129.797 98.9025 128.626 96.6431C127.41 94.2482 126.149 91.5822 126.869 89.0066C127.005 88.5095 127.23 88.0125 127.68 87.8317C127.905 87.7413 128.176 87.7413 128.446 87.7865C129.978 87.8769 130.158 87.8317 131.239 88.8258C131.96 89.4584 133.356 90.9044 134.348 90.9044Z" fill="#EAEAEA"/>
<path d="M153.584 254.027C152.413 254.253 151.151 254.479 150.025 253.982C148.583 253.35 147.863 251.768 147.277 250.277C139.573 230.169 137.321 208.434 135.924 186.925C140.474 185.118 145.43 184.711 150.341 184.349C163.586 183.31 176.875 182.316 190.12 181.277C197.914 180.689 205.798 180.102 213.502 181.503C214.448 203.328 215.394 225.153 216.34 246.978C216.43 248.424 158.72 253.079 153.584 254.027Z" fill="#E2E2E2"/>
<path d="M188.318 222.351C183.813 222.622 179.353 223.029 174.893 223.571C173.767 223.707 173.587 222.216 174.398 221.673C174.398 221.583 174.398 221.538 174.398 221.447C176.064 215.799 177.911 210.241 179.894 204.683C180.209 203.779 181.651 203.599 181.921 204.683C183.408 210.512 185.841 215.844 189.174 220.77C189.67 221.493 189.039 222.306 188.318 222.351ZM180.84 208.343C179.353 212.636 177.957 216.929 176.65 221.267C179.939 220.905 183.183 220.589 186.471 220.363C184.129 216.612 182.237 212.591 180.84 208.343Z" fill="white"/>
<path d="M194.49 144.632C193.904 136.046 193.004 127.416 190.436 119.101C187.868 110.787 183.498 102.789 176.695 96.6434C173.091 93.3899 167.369 90.6335 162.954 93.1188C158.855 95.4685 159.035 100.665 159.756 104.867C163.135 123.846 168.136 142.508 173.361 161.125C175.524 168.807 177.731 176.443 179.083 184.261C182.282 202.29 181.11 220.771 177.551 238.801C180.885 239.569 185.119 240.066 187.192 237.626C188.904 235.638 188.138 233.107 188.859 230.893C189.76 228.227 190.931 226.239 191.382 223.347C192.373 217.021 193.184 210.695 193.77 204.369C194.986 191.536 195.481 178.703 195.301 165.87C195.256 158.73 194.986 151.681 194.49 144.632Z" fill="#303030"/>
<path d="M131.149 45.8082C128.671 46.486 126.014 46.0794 123.446 45.9438C120.878 45.8082 118.04 46.0794 116.148 47.8416C113.715 50.0558 113.579 53.7611 113.084 57.0146C112.723 59.3191 112.093 61.6236 110.696 63.4763C109.299 65.3289 107.047 66.6393 104.704 66.4134C102.407 66.1875 100.289 64.0637 100.514 61.7592C101.37 63.0244 103.263 63.2051 104.614 62.5273C105.966 61.8495 106.822 60.4488 107.362 59.0028C109.525 52.8122 106.011 45.4467 108.984 39.6176C111.282 35.1893 117.003 33.2463 121.823 34.4664C123.31 34.8279 124.707 35.4605 126.104 36.0479C128.356 37.042 133.762 38.2169 135.159 40.2503C136.826 42.6 133.132 45.266 131.149 45.8082Z" fill="#AA4A4D"/>
<path d="M153.133 53.2195C153.809 53.6714 154.575 53.9425 155.206 54.4395C157.008 55.8855 156.962 58.5967 156.782 60.9012C158.134 59.5004 159.485 58.0997 160.792 56.6989C162.143 58.6419 162.053 61.1724 161.918 63.5673C161.783 65.917 161.648 68.2215 161.513 70.5712C161.423 71.8816 161.378 73.192 160.972 74.4573C160.567 75.7677 159.846 76.9877 159.17 78.2078C157.683 81.0546 156.648 84.1272 156.152 87.2903C155.837 89.1882 155.746 91.1312 156.017 93.0742C156.738 98.3611 160.206 102.97 160.792 108.257C160.927 109.296 161.017 110.562 161.918 111.104C162.504 111.465 163.27 111.375 163.991 111.239C165.342 111.013 166.829 110.742 167.775 109.703C168.721 108.618 168.811 107.082 169.171 105.681C170.883 98.8581 179.128 95.3787 181.29 88.6459C182.191 85.7992 181.876 82.6361 183.047 79.8345C184.128 77.2137 186.381 75.1803 187.237 72.4691C188.093 69.803 187.462 66.8659 186.471 64.2902C185.48 61.6694 184.083 59.1841 183.407 56.4729C182.777 54.0328 182.732 51.4572 182.236 49.0171C181.74 46.5319 180.794 44.0014 178.767 42.465C177.461 41.4709 175.839 40.9739 174.262 40.6124C169.126 39.3923 163.765 38.9405 158.494 39.3923C156.737 39.5279 154.98 39.799 153.448 40.5672C148.763 42.8717 148.763 50.4179 153.133 53.2195Z" fill="#AA4A4D"/>
<path d="M194.31 32.2067C190.706 28.7725 186.066 26.6487 181.336 25.022C180.299 24.6605 179.263 24.3894 178.227 24.0731C178.767 21.2263 179.218 18.3343 179.038 15.3972C178.948 13.8609 178.632 12.2793 177.731 11.0141C176.56 9.43256 174.533 8.66437 172.686 7.98657C163.72 4.77831 154.53 1.93155 145.069 0.666317C135.609 -0.598913 125.788 -0.19223 116.777 3.01603C115.876 3.33234 114.976 3.69383 114.39 4.46201C113.894 5.09462 113.759 5.90798 113.579 6.72135C113.173 8.9355 112.903 11.1496 112.588 13.3638C107.137 11.5563 101.551 10.1555 95.8291 10.517C93.036 10.6978 90.1978 11.3304 87.9452 13.0023C85.6927 14.6742 84.1605 17.521 84.656 20.2774C85.1516 23.1241 87.5846 25.2027 89.9723 26.7391C93.9818 29.3147 98.4418 31.077 102.902 32.7037C124.031 40.5662 146.016 46.3502 168.406 48.971C172.235 49.4229 176.109 49.7843 179.939 49.1969C185.705 48.3384 191.112 45.4012 194.941 40.9729C195.887 39.8433 196.788 38.578 196.878 37.0869C196.968 35.189 195.662 33.5171 194.31 32.2067Z" fill="#333333"/>
<path d="M162.73 108.843C161.739 109.069 160.793 109.43 160.072 110.153C159.036 111.238 158.901 112.955 158.946 114.446C159.036 116.479 159.306 118.468 159.756 120.456C159.846 120.908 159.981 121.405 160.342 121.721C160.747 122.128 161.288 122.218 161.828 122.309C163.315 122.58 164.802 122.806 166.244 122.625C167.73 122.444 169.217 121.811 170.073 120.591C170.794 119.642 171.064 118.422 171.244 117.248C171.425 115.937 171.469 114.627 171.514 113.271C171.785 107.487 167.235 107.758 162.73 108.843Z" fill="#D9924E"/>
<path d="M158.9 125.02C158.765 127.55 159.351 130.081 159.666 132.611C159.981 135.142 159.936 137.853 158.675 140.067C157.414 142.281 154.53 143.727 152.232 142.688C154.215 143.953 156.693 144.45 158.99 144.089C159.396 147.432 155.431 150.369 156.332 153.623C156.873 155.566 158.945 156.605 160.567 157.825C164.937 160.988 167.235 166.863 166.154 172.149C169.352 170.884 168.001 165.552 170.478 163.202C171.56 162.163 173.136 161.937 174.488 161.305C177.146 159.994 178.767 156.741 178.137 153.849C177.461 150.641 174.533 148.155 174.308 144.857C174.082 141.422 177.191 138.395 180.615 137.988C177.867 137.039 174.713 135.684 173.947 132.882C173.722 132.024 173.722 131.12 173.362 130.307C172.821 129.041 171.559 128.273 170.884 127.098C170.298 126.104 170.253 124.884 169.848 123.8C168 118.648 159.216 119.145 158.9 125.02Z" fill="#AA4A4D"/>
<path d="M176.786 245.035C176.47 245.668 176.2 246.346 176.2 247.024C176.2 247.702 176.56 248.47 177.281 248.741C177.596 248.876 178.002 248.922 178.227 249.193C178.317 249.328 178.362 249.554 178.362 249.69C178.317 251.271 177.146 252.898 177.867 254.389C178.407 255.474 179.804 256.016 181.11 256.242C182.732 256.513 184.399 256.468 186.021 256.061C187.102 255.79 188.228 255.338 188.949 254.525C190.12 253.214 190.031 251.316 189.805 249.645C189.445 246.617 189.13 243.59 188.769 240.517C188.679 239.568 188.409 238.393 187.463 237.986C187.012 237.806 186.517 237.76 185.976 237.806C184.354 237.806 179.669 237.489 178.903 239.071C178.587 239.703 178.858 240.652 178.543 241.421C177.957 242.641 177.326 243.815 176.786 245.035Z" fill="#F9E9DE"/>
<defs>
<linearGradient id="paint0_linear_287_775" x1="271.212" y1="457.599" x2="34.8875" y2="457.599" gradientUnits="userSpaceOnUse">
<stop/>
<stop offset="1"/>
</linearGradient>
</defs>
</svg>
