<svg width="288" height="480" viewBox="0 0 288 480" fill="none" xmlns="http://www.w3.org/2000/svg">
<path d="M70.0036 248.109C69.4372 248.597 68.8964 249.147 68.6206 249.807C68.3448 250.467 68.3853 251.363 68.9814 251.922C69.2353 252.184 69.614 252.394 69.7245 252.75C69.7576 252.919 69.7099 253.157 69.6548 253.29C68.967 254.812 67.1572 255.918 67.2568 257.666C67.3453 258.943 68.4931 260.043 69.6815 260.798C71.1606 261.726 72.8123 262.364 74.5672 262.632C75.7371 262.81 77.0249 262.831 78.0622 262.334C79.7434 261.536 80.4277 259.65 80.8873 257.929C81.7661 254.832 82.6892 251.753 83.5864 248.612C83.8842 247.65 84.0973 246.395 83.3356 245.611C82.9677 245.251 82.5006 245.004 81.9524 244.827C80.363 244.163 75.8999 241.937 74.5058 243.165C73.9393 243.652 73.8182 244.687 73.1966 245.307C72.1262 246.256 71.0299 247.142 70.0036 248.109Z" fill="#F9E9DE"/>
<path d="M129.011 159.108C131.93 150.503 134.56 141.726 135.427 132.574C136.294 123.422 135.266 113.84 131.101 105.068C128.893 100.423 123.738 96.586 118.4 97.2005C113.426 97.8119 112.158 101.759 111.154 106.148C106.742 126.022 104.048 146.252 101.594 166.53C100.587 174.9 99.6425 183.244 97.7858 191.414C93.5834 210.29 84.9148 227.817 74.0902 243.927C77.0446 246.04 80.9918 248.258 84.0155 246.728C86.5023 245.492 86.7815 242.713 88.3889 240.851C90.3567 238.622 92.3139 237.164 93.9323 234.531C97.4779 228.773 100.847 222.941 103.995 217.017C110.41 205.011 116.117 192.71 121.163 180.133C124.024 173.158 126.628 166.179 129.011 159.108Z" fill="#303030"/>
<path d="M52.9482 479.66C35.4578 479.802 15.4384 479.279 4.26984 471.198C1.67087 469.296 -0.365997 466.919 0.055481 464.447C0.968628 459.17 11.5049 456.888 20.215 455.984C70.9299 450.85 122.769 452.894 174.116 454.891C206.147 456.127 238.598 457.458 269.153 463.353C285.098 466.443 297.743 474.43 277.653 477.996C258.196 481.419 228.343 478.138 207.973 478.329C156.274 478.756 104.647 479.232 52.9482 479.66Z" fill="url(#paint0_linear_287_667)"/>
<path d="M153.861 323.845C159.418 337.397 164.253 351.576 172.079 363.997C176.59 371.19 182.659 377.393 187.877 384.181C200.28 400.19 212.64 416.22 225.043 432.228C226.968 434.683 229.32 437.351 233.022 437.267C234.712 437.225 236.425 436.586 238.094 435.968C241.882 434.561 246.612 431.832 245.907 428.61C245.693 427.543 244.816 426.753 244.003 425.984C231.341 414.371 224.673 399.24 214.322 385.942C209.211 379.368 205.619 372.209 201.579 364.995C190.033 344.506 182.297 322.427 180.831 298.358C179.578 277.916 178.368 256.172 164.53 241.251C161.707 238.177 158.306 235.445 153.963 234.035C148.102 232.154 140.698 232.962 134.535 236.139C115.252 246.223 128.768 261.784 133.363 273.202C140.096 290.168 146.936 307.028 153.861 323.845Z" fill="#F9E9DE"/>
<path d="M217.397 471.128C218.223 471.84 219.419 472.002 220.449 471.822C221.478 471.641 222.488 471.204 223.478 470.724C233.809 465.502 242.27 457.318 251.888 450.852C253.29 449.907 254.734 448.941 255.585 447.521C256.436 446.101 256.418 443.99 255.061 442.952C254.87 442.779 254.614 442.691 254.357 442.71C254.207 442.729 254.099 442.835 253.97 442.897C243.119 450.545 232.708 458.986 221.016 465.344C218.777 466.536 213.71 468.038 217.397 471.128Z" fill="white"/>
<path d="M212.59 463.051C213.023 460.772 212.803 455.734 214.153 453.807C216.482 450.502 219.107 447.479 221.987 444.651C223.697 443.026 225.579 441.317 226.098 438.997C226.663 436.442 225.366 433.889 224.087 431.592C222.284 428.329 220.18 425.212 217.924 422.222C215.353 418.802 213.298 415.131 210.467 411.942C205.67 406.577 202.406 401.955 196.792 395.13C194.237 392.073 191.809 389.166 189.017 386.277C185.739 382.934 182.247 379.482 180.457 375.153C180.228 374.574 180.021 373.932 180.285 373.38C180.417 372.997 180.763 372.723 181.066 372.47C185.476 368.74 190.182 365.291 195.077 362.228C197.363 360.801 200.329 361.537 201.801 363.794C203.526 366.458 205.467 368.911 207.427 371.514C211.179 376.484 215.298 381.223 219.093 386.171C221.645 389.442 223.571 393.176 225.994 396.509C229.301 401.111 237.098 413.507 240.751 417.836C248.521 427.009 250.441 429.42 255.968 440.106C256.554 441.2 257.116 442.572 256.59 443.676C256.326 444.228 255.872 444.607 255.397 444.944C249.693 449.513 243.989 454.083 238.306 458.695C234.589 461.665 230.851 464.697 226.526 466.636C221.554 468.994 210.74 473.018 212.59 463.051Z" fill="#333333"/>
<path d="M104.898 318.535C95.2357 329.847 86.9483 341.739 80.4956 354.932C76.7807 362.592 75.735 371.873 72.7546 379.885C65.6855 398.859 57.3935 417.203 50.2983 436.114C49.2081 439.02 48.2022 442.476 50.2559 445.532C51.1772 446.94 52.6341 448.051 54.0466 449.143C57.2781 451.597 62.1259 454.145 64.4456 451.895C65.2249 451.131 65.4387 449.981 65.6344 448.875C68.7856 432.013 78.147 418.41 83.9728 402.589C86.8807 394.754 90.7546 387.448 94.7592 380.216C106.062 359.62 121.115 341.864 140.75 327.92C157.472 316.034 175.345 303.484 180.695 283.911C181.768 279.915 182.319 275.551 181.236 271.139C179.757 265.173 175.132 259.313 169.119 255.826C150.356 244.862 144.259 264.491 136.962 274.452C126.242 289.099 115.548 303.808 104.898 318.535Z" fill="#F9E9DE"/>
<path d="M78.3645 321.761C78.221 324.433 81.4269 326.008 84.1062 326.246C86.7854 326.533 89.8951 326.437 91.6653 328.441C92.9093 329.873 93.1009 331.924 94.297 333.403C95.9715 335.407 98.9858 335.598 101.569 335.169C104.153 334.739 106.784 333.88 109.368 334.501C113.052 335.36 115.587 338.938 119.224 339.797C123.625 340.846 128.027 337.65 132.572 337.745C138.84 337.936 144.725 344.282 150.418 341.705C152.762 340.656 154.437 338.175 156.973 337.697C160.752 336.982 164.006 340.894 167.833 340.846C173.192 340.799 175.728 333.546 180.895 332.21C184.1 331.352 187.402 333.022 190.703 333.356C194.004 333.642 198.214 331.065 197.018 327.964C199.841 327.916 202.712 328.441 205.343 329.586C205.726 325.674 206.013 321.332 203.477 318.326C200.798 315.129 196.062 314.843 191.899 314.986C176.445 315.606 161.278 319.471 145.92 321.38C130.562 323.288 114.295 323.097 100.468 316.084C96.1625 313.937 91.7612 310.597 87.1204 313.078C84.8238 314.318 78.508 319.137 78.3645 321.761Z" fill="#EAEAEA"/>
<path d="M205.103 310.36C203.907 298.288 198.597 288.078 197.401 276.007C193.669 253.391 187.832 232.493 183.861 210.736C178.454 181.345 177.737 166.697 172.57 137.211C170.656 126.189 170.273 114.786 166.063 104.384C165.345 102.619 164.436 100.854 162.809 99.8994C161.661 99.2314 160.274 99.136 158.934 99.0406C151.949 98.5157 144.964 97.9909 137.979 97.466C132.716 97.0843 127.453 96.7026 122.19 96.7026C120.898 96.7026 119.462 96.7981 118.458 97.6092C117.74 98.1817 117.31 98.9928 116.975 99.8517C113.243 108.297 113.339 117.839 112.908 127.096C112.43 137.401 111.138 147.612 109.415 157.775C108.5 171.528 106 186.985 105.5 201.944L102 214.409L100.5 225.379C100.5 231.861 94.4997 264.272 81.8575 306.209C81.8575 309.647 81.666 312.554 83.5319 314.988C84.7758 316.61 86.6419 317.564 88.46 318.423C122.621 334.454 163.671 335.313 198.454 320.713C200.941 319.664 203.573 318.375 204.673 315.942C205.486 314.272 205.295 312.268 205.103 310.36Z" fill="#4A4A4A"/>
<path d="M124.965 85.4408C126.113 88.0649 137.931 93.7905 140.61 93.8382C148.169 93.9813 156.494 92.2159 161.47 83.0551C166.063 74.7054 166.589 62.5387 166.828 51.3263C166.876 47.557 164.867 43.6445 163.958 40.2092C162.14 33.5295 159.317 30.7144 154.963 29.0445C147.308 26.0863 139.127 24.4164 131.711 28.7105C114.056 38.921 114.439 61.2028 124.965 85.4408Z" fill="#F9E9DE"/>
<path d="M141.375 100.519C141.423 99.9464 141.471 99.3261 141.758 98.849C142.188 98.1333 143.002 97.847 143.767 97.5607C147.499 96.2248 151.183 94.9365 154.915 93.6006C155.394 93.4097 155.92 93.2666 156.446 93.2666C157.786 93.2666 158.838 94.4117 159.652 95.5091C159.891 95.8431 160.131 96.1771 160.179 96.6065C160.274 97.4176 159.604 98.0856 158.982 98.6104C154.963 102.189 150.896 105.72 146.877 109.298C145.251 110.729 142.141 113.067 141.088 109.871C140.227 107.199 141.184 103.286 141.375 100.519Z" fill="#EAEAEA"/>
<path d="M134.677 95.9861C135.538 96.3678 136.448 96.6064 137.261 97.0835C138.074 97.5606 138.792 98.2763 138.935 99.1828C139.079 99.994 138.792 100.757 138.457 101.521C137.309 104.24 135.921 106.817 134.247 109.25C133.96 109.68 133.529 110.157 133.051 110.014C132.668 109.918 132.476 109.584 132.333 109.25C131.089 106.865 129.845 104.431 128.601 102.046C127.309 99.5168 125.97 96.7018 126.735 93.9822C126.879 93.4573 127.118 92.9325 127.596 92.7417C127.835 92.6462 128.123 92.6462 128.41 92.6939C130.036 92.7894 130.228 92.7416 131.376 93.7913C132.142 94.4593 133.625 95.9861 134.677 95.9861Z" fill="#EAEAEA"/>
<path d="M11.4783 449.25C11.3198 450.327 11.7834 451.414 12.4686 452.234C13.1538 453.053 14.085 453.667 14.992 454.219C24.7988 460.316 36.2237 463.318 46.7561 468.118C48.2713 468.83 49.8743 469.581 51.5207 469.518C53.211 469.474 54.9971 468.378 55.1472 466.725C55.1554 466.468 55.1631 466.211 54.9823 466.028C54.8699 465.927 54.7385 465.87 54.607 465.813C42.4198 460.5 29.8056 456.042 18.2754 449.35C16.086 448.031 12.1725 444.45 11.4783 449.25Z" fill="white"/>
<path d="M15.891 440.968C18.077 440.15 20.477 440.155 22.8002 440.335C26.8002 440.621 30.7973 441.269 34.7291 442.306C37.0306 442.893 39.4691 443.644 41.6797 442.889C44.1424 442.036 45.6677 439.629 46.9656 437.383C49.3449 433.265 51.787 429.122 53.5279 424.674C55.1402 420.639 57.3036 416.895 58.609 412.726C60.7381 405.843 63.0182 400.641 65.9112 392.373C67.2578 388.586 69.9638 385.392 70.9652 381.558C72.1225 377.012 71.7506 371.903 74.5547 368.127C74.9354 367.616 75.3601 367.124 75.9765 367.028C76.3792 366.943 76.7737 367.115 77.1874 367.244C84.2949 369.613 91.2215 372.632 97.754 376.313C94.9856 380.366 93.4777 384.759 91.6547 389.276C89.3389 395.035 87.3984 401.011 85.1703 406.809C83.6785 410.689 81.485 414.263 79.8617 418.085C77.6252 423.307 71.0603 436.378 69.2375 441.728C65.3922 453.122 64.3408 455.996 58.0157 466.256C57.3421 467.317 56.5044 468.514 55.2469 468.642C54.6497 468.694 54.0607 468.49 53.5154 468.304C46.66 465.836 39.761 463.35 32.9056 460.882C28.4505 459.252 23.9318 457.647 19.9996 454.944C15.4808 451.672 6.39118 444.533 15.891 440.968Z" fill="#333333"/>
<path d="M155.107 268.228C153.863 268.467 152.523 268.705 151.327 268.181C149.796 267.513 149.03 265.843 148.408 264.268C140.227 243.036 137.835 220.086 136.352 197.375C141.184 195.467 146.447 195.037 151.662 194.656C165.728 193.558 179.842 192.508 193.908 191.411C202.185 190.791 210.558 190.171 218.74 191.65C219.744 214.695 220.749 237.74 221.754 260.785C221.849 262.312 160.561 267.226 155.107 268.228Z" fill="#E2E2E2"/>
<path d="M191.994 234.78C187.21 235.067 182.473 235.496 177.736 236.069C176.54 236.212 176.349 234.637 177.21 234.065C177.21 233.969 177.21 233.922 177.21 233.826C178.98 227.862 180.942 221.993 183.047 216.125C183.382 215.171 184.913 214.98 185.2 216.125C186.779 222.28 189.363 227.91 192.903 233.111C193.43 233.874 192.76 234.733 191.994 234.78ZM184.052 219.99C182.473 224.522 180.99 229.055 179.602 233.635C183.095 233.254 186.54 232.92 190.033 232.681C187.545 228.721 185.535 224.475 184.052 219.99Z" fill="white"/>
<path d="M178.222 258.062C177.887 258.73 177.6 259.445 177.6 260.161C177.6 260.877 177.982 261.688 178.748 261.974C179.083 262.117 179.513 262.165 179.753 262.451C179.848 262.594 179.896 262.833 179.896 262.976C179.848 264.646 178.604 266.364 179.37 267.938C179.944 269.083 181.427 269.656 182.815 269.894C184.537 270.181 186.307 270.133 188.03 269.704C189.178 269.417 190.374 268.94 191.14 268.081C192.384 266.698 192.288 264.694 192.049 262.928C191.666 259.732 191.332 256.535 190.949 253.29C190.853 252.288 190.566 251.048 189.561 250.619C189.083 250.428 188.557 250.38 187.982 250.428C186.26 250.428 181.284 250.094 180.47 251.764C180.135 252.432 180.423 253.434 180.088 254.245C179.466 255.533 178.796 256.773 178.222 258.062Z" fill="#F9E9DE"/>
<path d="M198.549 152.716C197.927 143.651 196.97 134.538 194.243 125.759C191.516 116.979 186.875 108.534 179.65 102.045C175.823 98.6101 169.746 95.6996 165.058 98.3238C160.704 100.805 160.895 106.292 161.661 110.729C165.249 130.768 170.56 150.474 176.11 170.131C178.407 178.242 180.751 186.306 182.186 194.56C185.583 213.597 184.339 233.112 180.56 252.149C184.1 252.96 188.597 253.485 190.798 250.909C192.616 248.809 191.803 246.137 192.568 243.799C193.525 240.984 194.769 238.885 195.248 235.831C196.3 229.152 197.162 222.472 197.784 215.792C199.075 202.242 199.601 188.691 199.41 175.141C199.362 167.603 199.075 160.159 198.549 152.716Z" fill="#303030"/>
<path d="M131.281 48.369C128.649 49.0846 125.827 48.6552 123.099 48.5121C120.372 48.369 117.358 48.6552 115.349 50.516C112.765 52.8539 112.621 56.7664 112.095 60.2017C111.712 62.635 111.042 65.0684 109.559 67.0246C108.076 68.9808 105.684 70.3645 103.196 70.1259C100.756 69.8873 98.5072 67.6448 98.7464 65.2115C99.6554 66.5475 101.665 66.7383 103.1 66.0226C104.536 65.3069 105.445 63.8278 106.019 62.301C108.315 55.7644 104.583 47.9873 107.741 41.8323C110.181 37.1565 116.257 35.1049 121.377 36.3931C122.955 36.7748 124.439 37.4428 125.922 38.063C128.314 39.1127 134.056 40.3532 135.539 42.5003C137.309 44.9814 133.386 47.7964 131.281 48.369Z" fill="#AA4A4D"/>
<path d="M154.628 56.1949C155.346 56.672 156.159 56.9582 156.829 57.4831C158.743 59.0099 158.695 61.8726 158.503 64.306C159.939 62.8269 161.374 61.3478 162.762 59.8687C164.197 61.9203 164.101 64.5923 163.958 67.121C163.814 69.6021 163.671 72.0354 163.527 74.5165C163.431 75.9001 163.384 77.2838 162.953 78.6197C162.522 80.0034 161.757 81.2917 161.039 82.5799C159.46 85.5858 158.36 88.8302 157.834 92.1701C157.499 94.174 157.403 96.2257 157.69 98.2773C158.456 103.86 162.14 108.726 162.762 114.309C162.905 115.406 163.001 116.742 163.958 117.315C164.58 117.696 165.393 117.601 166.159 117.458C167.594 117.219 169.173 116.933 170.178 115.836C171.182 114.69 171.278 113.068 171.66 111.589C173.479 104.385 182.234 100.711 184.531 93.6015C185.488 90.5956 185.153 87.2557 186.397 84.2976C187.545 81.5302 189.937 79.3832 190.846 76.5204C191.755 73.7054 191.086 70.604 190.033 67.8844C188.98 65.1171 187.497 62.4929 186.779 59.6301C186.11 57.0537 186.062 54.3341 185.535 51.7576C185.009 49.1334 184.004 46.4615 181.851 44.8393C180.464 43.7896 178.741 43.2647 177.067 42.883C171.613 41.5948 165.919 41.1177 160.321 41.5948C158.455 41.7379 156.59 42.0242 154.963 42.8353C149.987 45.2687 149.987 53.2367 154.628 56.1949Z" fill="#AA4A4D"/>
<path d="M198.358 34.0069C194.531 30.3808 189.603 28.1383 184.579 26.4206C183.479 26.0389 182.378 25.7527 181.277 25.4187C181.852 22.4128 182.33 19.3592 182.139 16.2579C182.043 14.6356 181.708 12.9657 180.751 11.6297C179.507 9.95981 177.354 9.14868 175.393 8.43299C165.872 5.0454 156.111 2.03951 146.064 0.703562C136.017 -0.632391 125.587 -0.202975 116.018 3.18462C115.061 3.51861 114.105 3.90031 113.483 4.71142C112.956 5.3794 112.813 6.23822 112.621 7.09705C112.191 9.43497 111.904 11.7729 111.569 14.1108C105.78 12.2023 99.8471 10.7232 93.7709 11.1049C90.8046 11.2958 87.7904 11.9637 85.3982 13.7291C83.006 15.4945 81.3788 18.5004 81.9051 21.4108C82.4314 24.4167 85.0152 26.6115 87.5509 28.2337C91.8091 30.9533 96.5456 32.8141 101.282 34.5318C123.721 42.8338 147.069 48.941 170.848 51.7083C174.914 52.1854 179.029 52.5671 183.095 51.9469C189.22 51.0403 194.961 47.939 199.028 43.2632C200.033 42.0704 200.989 40.7344 201.085 39.1599C201.181 37.156 199.793 35.3906 198.358 34.0069Z" fill="#333333"/>
<path d="M164.819 114.927C163.766 115.165 162.762 115.547 161.996 116.31C160.896 117.456 160.752 119.269 160.8 120.843C160.896 122.99 161.183 125.09 161.661 127.189C161.757 127.666 161.9 128.191 162.283 128.525C162.714 128.954 163.288 129.05 163.862 129.145C165.441 129.431 167.02 129.67 168.551 129.479C170.13 129.288 171.709 128.62 172.618 127.332C173.383 126.33 173.671 125.042 173.862 123.801C174.053 122.418 174.101 121.034 174.149 119.603C174.436 113.495 169.604 113.782 164.819 114.927Z" fill="#D9924E"/>
<path d="M160.753 132.008C160.609 134.68 161.231 137.352 161.566 140.024C161.901 142.696 161.853 145.559 160.513 147.897C159.174 150.235 156.111 151.761 153.671 150.664C155.776 152 158.408 152.525 160.848 152.143C161.278 155.674 157.068 158.775 158.025 162.211C158.599 164.262 160.8 165.36 162.523 166.648C167.164 169.988 169.604 176.19 168.455 181.773C171.852 180.437 170.417 174.807 173.048 172.326C174.197 171.228 175.871 170.99 177.307 170.322C180.129 168.938 181.851 165.503 181.182 162.449C180.464 159.061 177.354 156.437 177.115 152.954C176.876 149.328 180.177 146.131 183.813 145.702C180.895 144.7 177.546 143.269 176.732 140.31C176.493 139.404 176.493 138.45 176.11 137.591C175.536 136.255 174.196 135.444 173.479 134.203C172.857 133.154 172.809 131.865 172.378 130.72C170.417 125.281 161.088 125.806 160.753 132.008Z" fill="#AA4A4D"/>
<defs>
<linearGradient id="paint0_linear_287_667" x1="288.032" y1="466.224" x2="0.058248" y2="466.224" gradientUnits="userSpaceOnUse">
<stop/>
<stop offset="1"/>
</linearGradient>
</defs>
</svg>
