<svg width="277" height="380" viewBox="0 0 277 380" fill="none" xmlns="http://www.w3.org/2000/svg">
<path d="M149.341 379.985C139.904 380.109 129.103 379.652 123.077 372.581C121.675 370.917 120.576 368.838 120.803 366.675C121.296 362.058 126.981 360.061 131.68 359.271C159.043 354.779 187.013 356.567 214.717 358.314C231.999 359.396 249.508 360.56 265.994 365.718C274.597 368.422 281.419 375.409 270.58 378.529C260.082 381.524 243.975 378.654 232.984 378.82C205.09 379.194 177.235 379.61 149.341 379.985Z" fill="url(#paint0_linear_288_849)"/>
<path d="M178.681 0.405981C178.219 0.155517 177.337 -0.178434 176.833 0.113774C176.455 0.364238 176.539 0.698201 176.875 0.906921C177.253 1.11564 177.841 1.15738 178.261 1.19913C178.849 1.19913 179.437 0.781677 178.681 0.405981Z" fill="white"/>
<path d="M177.882 208.887C173.852 222.687 172.698 234.611 171.16 248.842C170.757 256.254 170.729 263.249 172.698 270.766C176.929 286.92 179.442 305.852 180.243 323.534C180.383 326.257 180.721 329.347 183.422 331.145C184.657 331.963 186.21 332.365 187.722 332.76C191.154 333.654 195.933 334.075 197.059 331.415C197.446 330.544 197.215 329.539 197.021 328.581C193.809 313.915 196.681 299.739 195.982 285.027C195.641 277.757 195.982 270.766 194.622 263.073C194.622 241.743 197.314 224.995 205.052 204.961C214.503 189.702 235.873 174.109 233.491 156.486C233.021 152.869 231.962 149.207 229.557 146.018C226.3 141.73 220.574 138.593 214.539 137.773C195.585 135.313 197.412 153.233 194.93 163.711C191.174 179.232 181.425 193.376 177.882 208.887Z" fill="#F9E9DE"/>
<path d="M154.518 367.365C154.76 368.288 155.544 368.996 156.379 369.375C157.214 369.753 158.162 369.937 159.118 370.08C169.194 371.421 179.395 369.699 189.576 369.789C191.061 369.801 192.587 369.818 193.911 369.214C195.234 368.611 196.273 367.078 195.809 365.657C195.758 365.438 195.617 365.248 195.421 365.135C195.303 365.075 195.172 365.098 195.048 365.079C183.386 365.231 171.646 366.174 160.019 364.981C157.805 364.733 153.391 363.312 154.518 367.365Z" fill="white"/>
<path d="M155.08 359.174C156.529 357.745 158.88 354.002 160.817 353.279C164.147 352.047 167.551 351.164 171.043 350.548C173.089 350.221 175.301 349.919 176.833 348.502C178.514 346.939 178.849 344.456 179.069 342.167C179.391 338.923 179.422 335.635 179.281 332.363C179.126 328.625 179.47 324.961 179.011 321.262C178.216 315.022 178.16 310.074 177.501 302.376C177.178 298.908 176.87 295.612 176.291 292.148C175.586 288.116 174.782 283.9 175.644 279.893C175.767 279.362 175.938 278.797 176.404 278.529C176.69 278.318 177.077 278.292 177.421 278.259C182.469 277.749 187.59 277.588 192.656 277.798C195.019 277.898 196.797 279.896 196.737 282.251C196.656 285.025 196.838 287.754 196.958 290.6C197.195 296.04 197.812 301.493 198.09 306.939C198.305 310.559 197.837 314.204 197.928 317.806C198.026 322.76 197.487 335.555 197.971 340.482C199.018 350.94 199.206 353.628 197.877 364.067C197.756 365.146 197.479 366.414 196.548 366.949C196.082 367.217 195.565 367.267 195.054 367.274C188.653 367.751 182.251 368.227 175.844 368.744C171.677 369.049 167.463 369.388 163.37 368.649C158.6 367.892 148.776 365.449 155.08 359.174Z" fill="#333333"/>
<path d="M217.191 321.977C222.34 327.53 226.695 326.374 234.167 325.175C228.913 295.627 231.408 279.259 228.469 250.381C225.53 221.502 232.249 193.092 230.5 168.536C227.339 155.099 223.773 148.302 200.967 149.926C203.841 190.268 202.279 220.349 205.061 247.035L209.94 284.59L217.191 321.977Z" fill="#F9E9DE"/>
<path d="M193.571 369.197C193.888 370.097 194.694 370.754 195.561 371.112C196.429 371.47 197.405 371.569 198.335 371.629C208.453 372.383 218.561 370.077 228.711 369.529C230.18 369.467 231.734 369.4 232.987 368.682C234.283 367.962 235.222 366.386 234.663 365.042C234.564 364.839 234.465 364.636 234.249 364.568C234.12 364.535 233.995 364.544 233.869 364.553C222.223 365.374 210.595 367.033 198.894 366.516C196.652 366.38 192.145 365.188 193.571 369.197Z" fill="white"/>
<path d="M193.642 360.996C195.005 359.477 196.871 358.508 198.749 357.706C201.972 356.307 205.342 355.191 208.819 354.402C210.847 353.924 213.047 353.518 214.455 352.037C216.019 350.378 216.219 347.895 216.308 345.628C216.472 341.473 216.674 337.273 216.206 333.12C215.807 329.339 215.956 325.561 215.265 321.8C214.103 315.603 213.746 310.647 212.61 303.067C212.107 299.587 211.566 296.067 210.776 292.69C209.815 288.698 208.772 284.836 209.405 280.773C209.492 280.223 209.62 279.67 210.06 279.346C210.338 279.117 210.715 279.09 211.088 279.022C217.577 277.979 224.192 277.513 230.77 277.719C230.278 281.982 230.904 285.998 231.336 290.237C231.894 295.639 232.831 301.057 233.472 306.453C233.901 310.065 233.659 313.724 233.962 317.344C234.361 322.297 234.61 335.088 235.382 339.973C237.057 350.362 237.416 353.015 236.701 363.53C236.611 364.625 236.45 365.892 235.526 366.501C235.084 366.784 234.543 366.864 234.043 366.941C227.71 367.805 221.335 368.673 215.001 369.538C210.875 370.079 206.709 370.666 202.549 370.164C197.702 369.459 187.723 367.608 193.642 360.996Z" fill="#333333"/>
<path d="M147.207 219.413C147.353 221.749 150.309 222.794 152.67 222.731C155.036 222.709 157.738 222.313 159.485 223.876C160.716 224.994 161.092 226.758 162.285 227.922C163.95 229.495 166.597 229.356 168.807 228.723C171.016 228.089 173.223 227.077 175.539 227.355C178.839 227.73 181.414 230.584 184.673 230.963C188.618 231.431 192.131 228.209 196.104 227.833C201.589 227.367 207.366 232.287 212.069 229.474C214.006 228.325 215.214 226 217.377 225.33C220.6 224.326 223.835 227.398 227.168 226.97C231.836 226.388 233.309 219.83 237.678 218.147C240.386 217.077 243.435 218.196 246.348 218.153C249.256 218.068 252.665 215.404 251.306 212.83C253.763 212.504 256.319 212.67 258.73 213.4C258.666 209.961 258.474 206.159 255.957 203.803C253.295 201.295 249.136 201.524 245.521 202.068C232.108 204.167 219.276 209.056 206.078 212.264C192.879 215.472 178.675 216.948 165.904 212.248C161.93 210.817 157.752 208.358 153.958 210.983C152.081 212.293 147.065 217.118 147.207 219.413Z" fill="#EAEAEA"/>
<path d="M158.467 208.841C181.16 225.38 263.663 206.916 255.393 202.302C247.123 197.689 262.701 107.684 233.47 88.8374C225.682 81.0495 102.901 55.0799 83.9276 68.1449L78.9187 106.949C89.8187 108.356 180.59 140.019 183.093 141.229C185.836 142.554 160.775 179.609 158.467 208.841Z" fill="#4A4A4A"/>
<path d="M112.433 137.869C111.019 130.876 109.309 123.883 106.09 117.346C102.87 110.808 98.0174 104.744 91.1044 100.489C87.4422 98.2369 81.8731 96.6428 78.0449 99.2066C74.4944 101.622 75.1896 105.875 76.2833 109.247C88.0798 123.838 93.08 137.869 94.5808 153.922C97.3609 159.987 100.178 166.009 102.222 172.28C107.013 186.735 107.81 202.075 106.354 217.324C109.513 217.564 113.478 217.474 115.145 215.223C116.525 213.387 115.56 211.395 116.001 209.489C116.563 207.19 117.444 205.417 117.566 202.985C117.839 197.664 117.945 192.365 117.843 187.093C117.662 176.393 116.815 165.779 115.343 155.244C114.575 149.376 113.608 143.61 112.433 137.869Z" fill="#303030"/>
<path d="M98.4969 219.551C97.4398 219.896 96.2993 220.252 95.2018 219.928C93.7975 219.518 92.9519 218.152 92.2415 216.853C82.8399 199.313 78.2926 179.639 74.5621 160.072C78.563 157.878 83.0978 156.922 87.5958 156.012C99.7208 153.501 111.892 151.025 124.017 148.513C131.155 147.057 138.376 145.59 145.656 145.969C149.006 165.879 152.355 185.79 155.705 205.7C155.953 207.016 103.136 218.076 98.4969 219.551Z" fill="#E2E2E2"/>
<path d="M123.9 189.806C119.751 190.497 115.657 191.307 111.575 192.243C110.544 192.478 110.238 191.124 110.938 190.546C110.93 190.463 110.925 190.421 110.917 190.338C111.933 184.98 113.123 179.688 114.439 174.382C114.647 173.52 115.966 173.213 116.318 174.184C118.242 179.399 120.995 184.064 124.545 188.268C125.072 188.884 124.564 189.694 123.9 189.806ZM115.659 177.656C114.684 181.749 113.791 185.834 112.987 189.951C116.001 189.297 118.977 188.688 122.003 188.158C119.481 184.939 117.351 181.425 115.659 177.656Z" fill="white"/>
<path d="M128.52 205.005C128.268 205.698 128.061 206.436 128.105 207.158C128.149 207.88 128.534 208.676 129.221 208.922C129.523 209.047 129.903 209.071 130.13 209.346C130.223 209.485 130.28 209.723 130.288 209.868C130.349 211.555 129.366 213.358 130.133 214.903C130.706 216.025 132.039 216.519 133.269 216.681C134.795 216.872 136.342 216.724 137.823 216.194C138.811 215.84 139.829 215.291 140.447 214.382C141.451 212.916 141.244 210.9 140.926 209.133C140.394 205.93 139.905 202.724 139.37 199.473C139.225 198.468 138.897 197.233 137.991 196.857C137.56 196.691 137.097 196.673 136.597 196.754C135.089 196.851 130.711 196.795 130.102 198.526C129.85 199.218 130.163 200.213 129.919 201.05C129.454 202.384 128.944 203.674 128.52 205.005Z" fill="#F9E9DE"/>
<path d="M69.9585 104.779C72.2741 103.813 77.4874 93.5331 77.5755 91.1824C77.8316 84.55 76.4313 77.2152 68.5033 72.7008C61.2782 68.5354 50.6436 67.8779 40.8389 67.4877C37.5422 67.3851 34.0848 69.0858 31.0638 69.8284C25.1887 71.3167 22.6772 73.7489 21.1409 77.5433C18.4206 84.2144 16.8181 91.368 20.4464 97.9457C29.0732 113.605 48.5724 113.627 69.9585 104.779Z" fill="#F9E9DE"/>
<path d="M124.69 109.105C122.288 101.343 119.591 93.6085 115.45 86.529C111.309 79.4495 105.601 73.0545 98.0908 68.8937C94.1122 66.6915 88.3208 65.4089 84.8568 68.6576C81.6495 71.7129 82.9453 76.449 84.5148 80.1533C91.715 96.8557 100.318 112.913 109.115 128.879C112.751 135.466 116.417 142.002 119.346 148.89C126.176 164.76 129.141 182 129.84 199.346C133.032 199.324 136.981 198.855 138.33 196.16C139.45 193.958 138.204 191.8 138.375 189.608C138.612 186.961 139.242 184.878 139.02 182.122C138.541 176.092 137.899 170.101 137.052 164.159C135.359 152.1 133.013 140.199 130.053 128.445C128.457 121.894 126.676 115.475 124.69 109.105Z" fill="#303030"/>
<path d="M83.5067 91.8621C83.0153 91.7564 82.4825 91.6454 82.1007 91.342C81.5281 90.887 81.3711 90.1465 81.2088 89.448C80.469 86.0491 79.7652 82.6974 79.0254 79.2985C78.9135 78.8605 78.8485 78.386 78.9077 77.9278C79.0582 76.7614 80.1701 75.9735 81.2137 75.3882C81.5304 75.2174 81.8472 75.046 82.2251 75.0525C82.9397 75.06 83.444 75.718 83.8295 76.3184C86.4829 80.2184 89.0895 84.1548 91.7428 88.0548C92.802 89.6314 94.4812 92.6008 91.589 93.1592C89.1738 93.6098 85.8865 92.3387 83.5067 91.8621Z" fill="#EAEAEA"/>
<path d="M78.8214 97.1865C79.2494 96.4794 79.5586 95.7145 80.064 95.0598C80.5694 94.4051 81.2711 93.8605 82.0738 93.837C82.7938 93.8029 83.4239 94.1382 84.0487 94.5154C86.2795 95.8197 88.3592 97.3164 90.2824 99.0469C90.6227 99.345 90.9883 99.7733 90.8104 100.174C90.6845 100.496 90.3732 100.626 90.0673 100.713C87.8575 101.529 85.6062 102.34 83.3964 103.156C81.057 103.997 78.4638 104.848 76.19 103.877C75.7508 103.693 75.3222 103.426 75.2104 102.988C75.1545 102.769 75.1867 102.519 75.2604 102.275C75.526 100.869 75.5061 100.697 76.546 99.8148C77.2116 99.2231 78.7031 98.103 78.8214 97.1865Z" fill="#EAEAEA"/>
<path d="M84.7597 95.6161C84.4636 97.9384 84.8374 100.311 84.9602 102.664C85.083 105.017 84.8587 107.512 83.5369 109.465C82.215 111.418 79.4369 112.551 77.3708 111.434C79.1285 112.737 81.3986 113.367 83.5591 113.193C83.7109 116.302 79.8275 118.734 80.4461 121.794C80.8179 123.622 82.6748 124.723 84.1005 125.959C87.9502 129.176 89.6907 134.748 88.3295 139.544C91.3885 138.6 90.4908 133.593 92.9526 131.6C94.0278 130.717 95.509 130.618 96.8081 130.128C99.3675 129.105 101.094 126.219 100.702 123.511C100.29 120.508 97.7352 118.015 97.7479 114.96C97.7697 111.78 100.864 109.206 104.074 109.068C101.583 108.004 98.7427 106.536 98.2193 103.902C98.0677 103.095 98.1285 102.262 97.8482 101.488C97.4308 100.285 96.3096 99.4898 95.7604 98.3605C95.2829 97.404 95.3232 96.2767 95.0193 95.2493C93.6489 90.375 85.4484 90.2252 84.7597 95.6161Z" fill="#AA4A4D"/>
<path d="M37.786 98.9592C38.3666 101.28 37.9421 103.751 37.7697 106.142C37.5973 108.533 37.7956 111.183 39.3886 112.977C41.3892 115.282 44.8094 115.471 47.8056 115.988C49.9277 116.363 52.0448 116.99 53.7305 118.323C55.4162 119.657 56.5852 121.778 56.3335 123.958C56.0826 126.096 54.0819 128.033 51.9573 127.784C53.1417 127.008 53.3435 125.247 52.7422 123.976C52.1409 122.705 50.8627 121.883 49.537 121.355C43.8583 119.234 36.9901 122.384 31.6603 119.514C27.612 117.297 25.9223 111.932 27.1379 107.459C27.4991 106.08 28.1092 104.788 28.6775 103.497C29.6371 101.414 30.8217 96.3947 32.7257 95.1275C34.9268 93.6137 37.3216 97.1024 37.786 98.9592Z" fill="#AA4A4D"/>
<path d="M45.0366 78.5937C45.4664 77.9715 45.7309 77.2624 46.2016 76.683C47.5704 75.0279 50.074 75.116 52.1994 75.3231C50.9303 74.0396 49.6612 72.756 48.3913 71.5145C50.211 70.2877 52.5468 70.4146 54.7565 70.5813C56.9245 70.7471 59.0508 70.9121 61.2188 71.0779C62.4276 71.1842 63.6372 71.2484 64.7985 71.6478C66.0015 72.048 67.1152 72.7406 68.2298 73.3912C70.8321 74.8253 73.6514 75.8429 76.5641 76.3585C78.3113 76.6846 80.1045 76.8017 81.9043 76.5828C83.4645 79.9907 82.8011 84.2931 87.6954 83.837C88.6579 83.7287 92.9474 85.4369 93.4649 84.6062C93.8095 84.0665 93.8688 87.4459 96.5419 81.9139C96.358 80.6503 98.2538 69.736 97.3111 68.8365C95.7147 67.3132 95.388 65.7595 93.7915 64.5356C87.5202 62.8241 84.4578 55.0803 78.2783 52.9505C75.6652 52.0623 72.7376 52.3025 70.1712 51.1632C67.7702 50.1109 65.9333 47.9771 63.4446 47.1332C60.9977 46.2901 58.273 46.8278 55.8756 47.7079C53.4364 48.5872 51.1151 49.847 48.5983 50.4308C46.3327 50.9773 43.9527 50.9756 41.6896 51.3961C39.3848 51.8158 37.03 52.6548 35.5736 54.5183C34.6313 55.7192 34.1423 57.2224 33.7794 58.686C32.5581 63.4523 32.0421 68.4416 32.3626 73.3623C32.4556 75.0022 32.6737 76.6445 33.3552 78.0852C35.3978 82.4915 42.3684 82.6193 45.0366 78.5937Z" fill="#AA4A4D"/>
<path d="M31.7672 33.7024C28.5288 37.0034 26.4817 41.2925 24.8921 45.674C24.5391 46.6337 24.2697 47.5951 23.9584 48.5556C21.3387 48.0033 18.6757 47.5341 15.9592 47.6522C14.5384 47.7101 13.0717 47.9774 11.8865 48.7957C10.404 49.8607 9.65718 51.7372 8.99713 53.4474C5.86882 61.7492 3.0703 70.2671 1.7277 79.0639C0.385109 87.8606 0.580273 97.0217 3.37822 105.474C3.65384 106.32 3.97121 107.165 4.67003 107.724C5.24528 108.197 5.99412 108.337 6.74212 108.519C8.77994 108.934 10.8202 109.224 12.8597 109.555C11.0899 114.605 9.69331 119.788 9.92208 125.127C10.0377 127.734 10.5699 130.39 12.0729 132.518C13.5759 134.646 16.1773 136.123 18.7326 135.707C21.3713 135.294 23.3361 133.061 24.7991 130.862C27.252 127.168 28.9618 123.041 30.5464 118.912C38.1975 99.3511 43.9443 78.9573 46.7767 58.1321C47.2645 54.5705 47.6696 50.9656 47.1974 47.3864C46.5103 41.9969 43.8965 36.9077 39.8764 33.2633C38.8503 32.3623 37.6981 31.5013 36.3223 31.392C34.5709 31.2758 33.0025 32.4649 31.7672 33.7024Z" fill="#333333"/>
<path d="M87.4003 81.5828C86.4834 81.8197 85.6126 82.1805 84.9623 82.8687C84.0287 83.8997 83.9535 85.4891 84.0394 86.8648C84.1834 88.7398 84.4936 90.5681 84.972 92.3912C85.0693 92.8059 85.21 93.261 85.5551 93.5428C85.9449 93.9068 86.4512 93.9748 86.9576 94.0429C88.3509 94.2508 89.7434 94.417 91.0814 94.209C92.4614 93.9997 93.828 93.3731 94.5896 92.2221C95.2333 91.3253 95.4492 90.191 95.5825 89.101C95.7118 87.8858 95.7148 86.6745 95.7168 85.4215C95.7981 80.0728 91.5663 80.4529 87.4003 81.5828Z" fill="#D9924E"/>
<defs>
<linearGradient id="paint0_linear_288_849" x1="276.18" y1="368.23" x2="120.805" y2="368.23" gradientUnits="userSpaceOnUse">
<stop/>
<stop offset="1"/>
</linearGradient>
</defs>
</svg>
