<svg width="228" height="480" viewBox="0 0 228 480" fill="none" xmlns="http://www.w3.org/2000/svg">
<path d="M55.9491 240.552C55.3209 240.956 54.7096 241.426 54.3455 242.042C53.9814 242.659 53.8981 243.552 54.4115 244.188C54.627 244.481 54.9733 244.741 55.0336 245.109C55.0431 245.281 54.9631 245.511 54.8902 245.634C53.9994 247.048 52.0546 247.893 51.9125 249.638C51.8241 250.916 52.8096 252.164 53.8827 253.075C55.2199 254.198 56.768 255.058 58.4693 255.564C59.6035 255.902 60.8761 256.1 61.9721 255.75C63.7471 255.192 64.6845 253.418 65.3768 251.777C66.6738 248.83 68.012 245.908 69.3333 242.92C69.7607 242.008 70.1446 240.794 69.4981 239.913C69.1833 239.506 68.7547 239.197 68.2361 238.946C66.7533 238.069 62.6392 235.25 61.0894 236.274C60.4612 236.678 60.1987 237.687 59.4977 238.215C58.3067 239.008 57.0989 239.735 55.9491 240.552Z" fill="#F9E9DE"/>
<path d="M114.349 154.192C117.269 145.588 119.898 136.81 120.765 127.658C121.632 118.506 120.605 108.924 116.439 100.153C114.231 95.5075 112.516 90.5339 107.179 91.1483C102.379 91.1483 97.4963 96.8428 96.4926 101.232C92.0806 121.107 89.3868 141.336 86.932 161.614C85.9251 169.984 84.9808 178.328 83.1241 186.498C78.9217 205.374 70.2532 222.901 59.4285 239.011C62.3829 241.124 66.3301 243.342 69.3539 241.812C71.8406 240.576 72.1198 237.797 73.7272 235.935C75.6951 233.706 77.6523 232.248 79.2706 229.615C82.8162 223.857 86.1854 218.025 89.3337 212.101C95.748 200.095 101.456 187.794 106.501 175.217C109.363 168.242 111.966 161.263 114.349 154.192Z" fill="#303030"/>
<path d="M46.3737 470.946C33.9053 471.08 19.6339 470.589 11.6722 463.008C9.81943 461.225 8.3674 458.995 8.66785 456.676C9.3188 451.726 16.8299 449.586 23.039 448.739C59.1924 443.923 96.1471 445.84 132.751 447.713C155.585 448.872 178.719 450.121 200.501 455.651C211.868 458.549 220.881 466.041 206.56 469.385C192.69 472.596 171.408 469.519 156.887 469.697C120.032 470.099 83.2281 470.545 46.3737 470.946Z" fill="url(#paint0_linear_287_631)"/>
<path d="M138.355 305.9C136.702 317.491 137.48 330.032 139.555 347.5C140.495 355.405 141.366 363.322 143.088 371.169C147.235 389.713 155.222 408.526 155.482 426.803C156.137 429.655 157.077 432.861 160.333 434.278C161.822 434.922 163.578 435.068 165.288 435.216C169.168 435.547 174.419 435.136 175.144 432.124C175.401 431.134 174.965 430.113 174.577 429.135C168.38 414.21 168.86 398.713 165.374 383.29C163.656 375.667 163.503 368.159 162.983 360.425C161.443 338.431 160.333 317.1 162.983 295.1C155.72 273.84 172.757 260.547 166.91 242.347C165.73 238.609 179.125 233.305 175.93 230.365C171.609 226.416 164.83 224.125 158.146 224.338C137.175 225.129 142.476 243.741 141.734 255.259C140.547 272.335 142.284 289.952 138.355 305.9Z" fill="#F9E9DE"/>
<path d="M132.634 456.711C133.053 457.63 134.025 458.233 134.995 458.485C135.966 458.737 137.028 458.768 138.089 458.755C149.261 458.441 160.052 454.922 171.126 453.291C172.741 453.051 174.402 452.811 175.738 451.959C177.074 451.107 177.944 449.337 177.2 447.939C177.106 447.72 176.921 447.547 176.69 447.462C176.551 447.419 176.413 447.465 176.275 447.467C163.632 449.601 151.039 452.571 138.207 453.301C135.76 453.419 130.725 452.689 132.634 456.711Z" fill="white"/>
<path d="M131.442 447.922C132.786 446.164 134.725 441.808 136.723 440.711C140.162 438.837 143.741 437.319 147.462 436.067C149.647 435.37 152.02 434.671 153.457 432.912C155.032 430.972 154.976 428.293 154.827 425.839C154.627 422.358 154.101 418.881 153.389 415.451C152.582 411.531 152.335 407.604 151.202 403.778C149.268 397.326 148.363 392.112 146.33 384.099C145.384 380.493 144.486 377.066 143.262 373.508C141.802 369.373 140.202 365.061 140.465 360.681C140.509 360.1 140.6 359.474 141.064 359.111C141.343 358.839 141.761 358.745 142.133 358.651C147.576 357.244 153.16 356.192 158.745 355.542C161.352 355.242 163.641 357.044 163.976 359.541C164.36 362.484 165.023 365.334 165.64 368.318C166.827 374.02 168.432 379.672 169.664 385.373C170.517 389.158 170.625 393.087 171.339 396.874C172.29 402.087 173.879 415.688 175.249 420.807C178.178 431.667 178.841 434.473 179.164 445.723C179.215 446.883 179.128 448.269 178.199 448.995C177.735 449.358 177.176 449.498 176.618 449.595C169.686 451.199 162.754 452.803 155.822 454.452C151.309 455.491 146.75 456.575 142.139 456.498C136.784 456.519 125.605 455.631 131.442 447.922Z" fill="#333333"/>
<path d="M85.9262 301.287C82.8325 312.806 74.1409 335.24 70.855 344.241C70.2349 348.409 71.1835 351.847 72.6406 364.962C71.1908 383.901 68.4395 402.594 66.9487 421.484C66.7198 424.387 66.7165 427.763 69.4387 429.975C70.6696 431.001 72.3168 431.618 73.918 432.231C77.569 433.593 82.7414 434.614 84.2852 431.98C84.8015 431.087 84.6906 429.996 84.5748 428.949C82.9644 412.939 87.9788 398.234 89.1242 382.46C89.7124 374.642 91.3375 367.048 93.103 359.485C98.0371 337.974 107.207 318.036 121.641 300.327C133.932 285.237 147.11 269.246 146.807 250.219C146.727 246.339 146.066 242.265 143.878 238.577C140.907 233.593 135.051 229.531 128.547 227.97C108.231 223.023 118.696 245.326 114.615 256.21C108.622 272.212 91.8321 285.232 85.9262 301.287Z" fill="#F9E9DE"/>
<path d="M66.8596 301.811C66.7213 304.317 69.8114 305.794 72.3939 306.017C74.9765 306.286 77.9738 306.196 79.6801 308.076C80.8791 309.419 81.0638 311.343 82.2167 312.731C83.8308 314.61 86.7362 314.789 89.2265 314.387C91.7168 313.984 94.2532 313.178 96.7435 313.76C100.294 314.566 102.738 317.922 106.243 318.728C110.486 319.712 114.729 316.714 119.11 316.803C125.151 316.982 130.823 322.935 136.311 320.518C138.571 319.533 140.185 317.206 142.629 316.758C146.272 316.087 149.408 319.757 153.097 319.712C158.262 319.667 160.707 312.865 165.687 311.612C168.777 310.806 171.959 312.373 175.141 312.686C178.323 312.954 182.381 310.538 181.228 307.629C183.949 307.584 186.716 308.076 189.252 309.15C189.621 305.48 189.898 301.408 187.454 298.588C184.871 295.59 180.306 295.321 176.294 295.455C161.398 296.037 146.779 299.662 131.976 301.453C117.172 303.243 101.493 303.064 88.1653 296.485C84.0149 294.471 79.7726 291.338 75.2993 293.665C73.0857 294.829 66.998 299.349 66.8596 301.811Z" fill="#EAEAEA"/>
<path d="M189.022 291.116C187.869 279.793 182.75 270.215 181.597 258.892C178 237.679 172.374 218.077 168.546 197.669C163.335 170.1 162.643 156.361 157.663 128.702C155.818 118.364 155.449 107.668 151.391 97.9115C150.699 96.2556 149.823 94.5997 148.255 93.7046C147.148 93.078 145.811 92.9885 144.52 92.899C137.787 92.4067 131.054 91.9144 124.321 91.4221C119.248 91.0641 114.175 90.7061 109.102 90.7061C107.857 90.7061 106.473 90.7956 105.505 91.5564C104.813 92.0934 104.399 92.8543 104.076 93.6598C100.479 101.581 100.571 110.532 100.156 119.215C99.6948 128.881 98.4492 138.459 96.789 147.991C95.9066 160.892 93.4969 175.391 93.015 189.422L89.6414 201.115L88.1955 211.404C88.1955 217.484 82.4122 247.885 70.2265 287.222C70.2265 290.447 70.0419 293.174 71.8405 295.457C73.0395 296.978 74.8382 297.873 76.5906 298.679C109.518 313.716 149.085 314.522 182.612 300.827C185.01 299.843 187.546 298.634 188.607 296.352C189.391 294.785 189.206 292.906 189.022 291.116Z" fill="#4A4A4A"/>
<path d="M111.777 80.1418C112.883 82.6032 124.274 87.9738 126.857 88.0185C134.143 88.1528 142.167 86.4969 146.963 77.9041C151.391 70.0721 151.898 58.6597 152.128 48.1425C152.174 44.6069 150.238 40.9371 149.361 37.7148C147.609 31.4492 144.888 28.8087 140.692 27.2423C133.313 24.4675 125.427 22.9011 118.279 26.929C101.262 36.5064 101.631 57.4066 111.777 80.1418Z" fill="#F9E9DE"/>
<path d="M127.595 94.2851C127.641 93.748 127.687 93.1662 127.964 92.7187C128.379 92.0474 129.163 91.7788 129.901 91.5103C133.498 90.2572 137.049 89.0488 140.646 87.7957C141.107 87.6167 141.615 87.4824 142.122 87.4824C143.413 87.4824 144.427 88.5565 145.211 89.5859C145.442 89.8992 145.673 90.2124 145.719 90.6152C145.811 91.376 145.166 92.0026 144.566 92.4949C140.693 95.8515 136.772 99.1633 132.899 102.52C131.331 103.862 128.333 106.055 127.319 103.057C126.489 100.551 127.411 96.8808 127.595 94.2851Z" fill="#EAEAEA"/>
<path d="M121.139 90.0339C121.969 90.392 122.845 90.6158 123.629 91.0633C124.413 91.5108 125.105 92.1821 125.243 93.0325C125.382 93.7933 125.105 94.5094 124.782 95.2254C123.675 97.7764 122.338 100.193 120.724 102.476C120.447 102.878 120.032 103.326 119.571 103.192C119.202 103.102 119.018 102.789 118.879 102.476C117.68 100.238 116.481 97.9554 115.282 95.7177C114.037 93.3457 112.746 90.7053 113.484 88.1543C113.622 87.662 113.853 87.1697 114.314 86.9907C114.544 86.9012 114.821 86.9011 115.098 86.9459C116.666 87.0354 116.85 86.9906 117.957 87.9752C118.695 88.6018 120.124 90.0339 121.139 90.0339Z" fill="#EAEAEA"/>
<path d="M34.5085 443.447C34.6565 444.44 35.3828 445.285 36.2407 445.836C37.0985 446.388 38.1278 446.696 39.1175 446.955C49.8551 449.871 61.2416 449.638 72.2949 451.221C73.8911 451.469 75.579 451.728 77.0842 451.255C78.6351 450.788 79.9869 449.367 79.6733 447.866C79.6106 447.636 79.5474 447.407 79.3301 447.291C79.1985 447.23 79.0613 447.212 78.924 447.195C66.2 445.576 53.3152 444.822 40.8211 441.815C38.4355 441.202 33.8366 439.023 34.5085 443.447Z" fill="white"/>
<path d="M36.3532 434.651C38.166 433.354 40.4058 432.742 42.6223 432.307C46.432 431.537 50.3394 431.095 54.2932 431.018C56.6019 430.955 59.0838 431.004 60.937 429.757C62.998 428.357 63.7554 425.8 64.345 423.446C65.4259 419.13 66.5586 414.776 66.9528 410.327C67.341 406.282 68.3241 402.358 68.3892 398.272C68.4725 391.533 69.1611 386.267 69.574 378.085C69.7832 374.332 71.424 370.763 71.2985 367.057C71.1212 362.67 69.3622 358.169 70.9337 354.051C71.1475 353.494 71.4077 352.942 71.9561 352.698C72.3082 352.518 72.7238 352.571 73.1451 352.58C80.429 352.887 87.724 353.825 94.8342 355.459C93.3723 359.816 93.1804 364.156 92.7284 368.688C92.1606 374.465 92.0024 380.339 91.527 386.128C91.208 390.001 90.1501 393.78 89.6926 397.636C89.0499 402.908 86.5402 416.355 86.3189 421.636C85.8817 432.875 85.6955 435.731 82.6324 446.586C82.2972 447.713 81.8467 449.005 80.7095 449.444C80.1668 449.644 79.5609 449.611 79.001 449.584C71.925 449.124 64.803 448.659 57.727 448.199C53.1212 447.877 48.4631 447.593 44.0482 446.17C38.9293 444.387 28.4783 440.298 36.3532 434.651Z" fill="#333333"/>
<path d="M140.83 251.596C139.631 251.82 138.34 252.044 137.187 251.551C135.711 250.925 134.974 249.358 134.374 247.881C126.488 227.966 124.182 206.439 122.753 185.136C127.41 183.346 132.484 182.943 137.51 182.585C151.068 181.556 164.673 180.571 178.231 179.542C186.209 178.96 194.279 178.378 202.165 179.765C203.134 201.382 204.102 222.998 205.071 244.614C205.163 246.046 146.088 250.656 140.83 251.596Z" fill="#E2E2E2"/>
<path d="M176.386 220.223C171.774 220.491 167.209 220.894 162.643 221.431C161.491 221.565 161.306 220.089 162.136 219.551C162.136 219.462 162.136 219.417 162.136 219.328C163.843 213.733 165.733 208.229 167.762 202.724C168.085 201.829 169.561 201.65 169.838 202.724C171.36 208.497 173.85 213.778 177.263 218.656C177.77 219.372 177.124 220.178 176.386 220.223ZM168.731 206.349C167.209 210.601 165.779 214.852 164.442 219.149C167.809 218.791 171.129 218.477 174.496 218.254C172.098 214.539 170.161 210.556 168.731 206.349Z" fill="white"/>
<path d="M182.704 143.247C182.104 134.744 181.182 126.196 178.554 117.961C175.925 109.726 171.452 101.805 164.488 95.7181C160.799 92.4958 154.942 89.7658 150.422 92.2273C146.226 94.5545 146.41 99.7012 147.148 103.863C150.607 122.66 155.726 141.144 161.075 159.582C163.289 167.191 165.549 174.754 166.932 182.497C170.207 200.354 169.008 218.658 165.364 236.515C168.777 237.276 173.112 237.768 175.233 235.351C176.985 233.382 176.201 230.876 176.939 228.683C177.861 226.042 179.061 224.073 179.522 221.209C180.536 214.943 181.367 208.678 181.966 202.412C183.211 189.702 183.718 176.992 183.534 164.282C183.488 157.21 183.211 150.229 182.704 143.247Z" fill="#303030"/>
<path d="M117.865 45.3696C115.328 46.0409 112.608 45.6381 109.979 45.5039C107.35 45.3696 104.445 45.6381 102.508 47.3835C100.018 49.5765 99.8794 53.2463 99.3722 56.4686C99.0032 58.7511 98.3575 61.0336 96.9279 62.8685C95.4982 64.7034 93.1926 66.0013 90.7946 65.7775C88.4427 65.5537 86.2749 63.4503 86.5055 61.1678C87.3817 62.421 89.3188 62.6 90.7023 61.9286C92.0858 61.2573 92.9619 59.87 93.5153 58.4378C95.7289 52.3065 92.1317 45.0115 95.1754 39.2383C97.5273 34.8523 103.384 32.9279 108.318 34.1363C109.84 34.4943 111.27 35.1209 112.7 35.7027C115.006 36.6873 120.54 37.8509 121.969 39.8648C123.676 42.192 119.894 44.8325 117.865 45.3696Z" fill="#AA4A4D"/>
<path d="M140.369 52.71C141.061 53.1575 141.845 53.4261 142.49 53.9184C144.335 55.3505 144.289 58.0357 144.104 60.3182C145.488 58.9308 146.871 57.5434 148.209 56.1561C149.592 58.0805 149.5 60.5867 149.362 62.9587C149.223 65.2859 149.085 67.5684 148.947 69.8956C148.854 71.1935 148.808 72.4914 148.393 73.7445C147.978 75.0424 147.24 76.2507 146.549 77.4591C145.027 80.2786 143.966 83.3219 143.459 86.4547C143.136 88.3344 143.044 90.2588 143.321 92.1832C144.058 97.4195 147.609 101.984 148.209 107.221C148.347 108.25 148.439 109.503 149.362 110.04C149.961 110.398 150.745 110.309 151.483 110.174C152.867 109.951 154.388 109.682 155.357 108.653C156.325 107.579 156.417 106.057 156.786 104.67C158.539 97.9118 166.978 94.4657 169.192 87.7973C170.114 84.9778 169.791 81.845 170.99 79.0702C172.097 76.4745 174.403 74.4606 175.279 71.7753C176.155 69.1348 175.51 66.2258 174.495 63.6748C173.481 61.079 172.051 58.6176 171.359 55.9323C170.713 53.5156 170.667 50.9646 170.16 48.5479C169.653 46.0864 168.684 43.5801 166.609 42.0585C165.272 41.0739 163.611 40.5816 161.997 40.2236C156.74 39.0152 151.252 38.5677 145.857 39.0152C144.058 39.1495 142.26 39.418 140.692 40.1788C135.896 42.4613 135.896 49.9352 140.369 52.71Z" fill="#AA4A4D"/>
<path d="M182.52 31.8984C178.83 28.4971 174.08 26.3936 169.238 24.7825C168.178 24.4244 167.117 24.1559 166.056 23.8426C166.609 21.0231 167.071 18.1588 166.886 15.2498C166.794 13.7282 166.471 12.1618 165.549 10.9087C164.35 9.34227 162.274 8.58143 160.384 7.91012C151.207 4.73257 141.799 1.91306 132.114 0.659938C122.43 -0.59318 112.376 -0.19039 103.153 2.98716C102.231 3.30044 101.309 3.65847 100.709 4.4193C100.202 5.04585 100.064 5.85143 99.8791 6.65701C99.4641 8.84997 99.1875 11.0429 98.8647 13.2359C93.2846 11.4457 87.5663 10.0583 81.7096 10.4164C78.8504 10.5954 75.945 11.2219 73.6392 12.8778C71.3334 14.5338 69.765 17.3533 70.2723 20.0833C70.7795 22.9028 73.2701 24.9615 75.7142 26.4831C79.8186 29.0341 84.3841 30.7795 88.9496 32.3907C110.578 40.1779 133.083 45.9065 156.003 48.5022C159.923 48.9498 163.888 49.3078 167.808 48.726C173.711 47.8756 179.246 44.9666 183.165 40.5807C184.134 39.4619 185.056 38.2087 185.148 36.7318C185.24 34.8522 183.903 33.1963 182.52 31.8984Z" fill="#333333"/>
<path d="M150.192 107.801C149.178 108.025 148.209 108.383 147.471 109.099C146.411 110.173 146.272 111.873 146.318 113.35C146.411 115.364 146.687 117.333 147.148 119.303C147.24 119.75 147.379 120.242 147.748 120.556C148.163 120.959 148.716 121.048 149.269 121.138C150.791 121.406 152.314 121.63 153.789 121.451C155.311 121.272 156.833 120.645 157.709 119.437C158.447 118.497 158.724 117.289 158.908 116.125C159.093 114.827 159.138 113.529 159.185 112.187C159.461 106.458 154.804 106.727 150.192 107.801Z" fill="#D9924E"/>
<path d="M146.272 123.823C146.134 126.329 146.733 128.836 147.056 131.342C147.379 133.848 147.333 136.533 146.042 138.726C144.75 140.919 141.799 142.351 139.447 141.322C141.476 142.575 144.012 143.067 146.364 142.709C146.779 146.021 142.721 148.93 143.644 152.153C144.197 154.077 146.319 155.106 147.979 156.315C152.452 159.448 154.804 165.266 153.697 170.502C156.971 169.249 155.588 163.968 158.124 161.64C159.231 160.611 160.845 160.387 162.228 159.761C164.949 158.463 166.609 155.241 165.964 152.376C165.272 149.199 162.274 146.737 162.044 143.47C161.813 140.069 164.995 137.07 168.5 136.668C165.687 135.728 162.459 134.385 161.675 131.61C161.445 130.76 161.445 129.865 161.076 129.059C160.522 127.806 159.231 127.045 158.539 125.882C157.939 124.897 157.893 123.689 157.478 122.615C155.588 117.513 146.595 118.005 146.272 123.823Z" fill="#AA4A4D"/>
<path d="M164.58 242.69C164.257 243.317 163.981 243.988 163.981 244.659C163.981 245.331 164.35 246.091 165.088 246.36C165.41 246.494 165.825 246.539 166.056 246.808C166.148 246.942 166.194 247.166 166.194 247.3C166.148 248.866 164.949 250.477 165.687 251.954C166.24 253.028 167.67 253.565 169.007 253.789C170.667 254.058 172.374 254.013 174.034 253.61C175.141 253.342 176.294 252.894 177.031 252.089C178.23 250.791 178.139 248.911 177.908 247.255C177.539 244.257 177.216 241.258 176.847 238.215C176.755 237.275 176.478 236.111 175.51 235.709C175.049 235.529 174.542 235.485 173.988 235.529C172.328 235.529 167.532 235.216 166.748 236.783C166.425 237.409 166.702 238.349 166.379 239.11C165.779 240.318 165.134 241.482 164.58 242.69Z" fill="#F9E9DE"/>
<defs>
<linearGradient id="paint0_linear_287_631" x1="213.959" y1="458.344" x2="8.66982" y2="458.344" gradientUnits="userSpaceOnUse">
<stop/>
<stop offset="1"/>
</linearGradient>
</defs>
</svg>
