<svg width="162" height="480" viewBox="0 0 162 480" fill="none" xmlns="http://www.w3.org/2000/svg">
<path d="M19.9176 243.583C19.2895 243.988 18.6781 244.458 18.314 245.074C17.9499 245.69 17.8667 246.583 18.38 247.219C18.5955 247.512 18.9418 247.772 19.0021 248.141C19.0116 248.313 18.9316 248.542 18.8587 248.666C17.9679 250.079 16.0231 250.925 15.881 252.67C15.7926 253.948 16.7781 255.195 17.8512 256.106C19.1884 257.229 20.7365 258.089 22.4378 258.596C23.572 258.933 24.8446 259.131 25.9406 258.781C27.7156 258.223 28.653 256.449 29.3453 254.808C30.6423 251.861 31.9805 248.939 33.3018 245.951C33.7292 245.04 34.1131 243.826 33.4666 242.945C33.1518 242.537 32.7232 242.228 32.2046 241.977C30.7218 241.101 26.6078 238.281 25.0579 239.305C24.4297 239.71 24.1672 240.718 23.4662 241.246C22.2753 242.039 21.0674 242.766 19.9176 243.583Z" fill="#F9E9DE"/>
<path d="M78.3177 157.223C81.2376 148.618 83.8672 139.841 84.7342 130.689C85.6012 121.537 84.5733 111.955 80.4078 103.183C78.1999 98.5384 77.7065 93.2162 72.3687 93.8306C67.5687 93.8306 61.4651 99.8737 60.4613 104.263C56.0494 124.137 53.3555 144.367 50.9007 164.645C49.8938 173.015 48.9496 181.359 47.0928 189.529C42.8904 208.405 34.2219 225.932 23.3973 242.042C26.3517 244.155 30.2988 246.373 33.3226 244.843C35.8093 243.607 36.0885 240.828 37.6959 238.966C39.6638 236.737 41.621 235.279 43.2393 232.646C46.785 226.888 50.1541 221.056 53.3024 215.132C59.7167 203.126 65.4244 190.825 70.4701 178.248C73.3313 171.273 75.9348 164.294 78.3177 157.223Z" fill="#303030"/>
<path d="M29.7099 479.984C19.8959 480.113 8.66273 479.638 2.39595 472.284C0.937637 470.554 -0.205261 468.391 0.0312195 466.142C0.543594 461.34 6.45564 459.264 11.3429 458.442C39.7997 453.771 68.8872 455.63 97.6986 457.447C115.671 458.572 133.88 459.783 151.025 465.147C159.972 467.958 167.067 475.225 155.794 478.47C144.877 481.584 128.126 478.6 116.696 478.773C87.6873 479.162 58.7184 479.594 29.7099 479.984Z" fill="url(#paint0_linear_292_1147)"/>
<path d="M59.3915 302.048C56.4055 315.035 57.5188 330.176 57.5188 343.333C57.1005 351.041 57.1963 358.242 57.5188 366.017C58.3517 384.406 61.014 402.889 61.8469 421.277C61.9917 424.109 62.3436 427.322 65.1522 429.192C66.4367 430.043 68.0523 430.461 69.6244 430.872C73.1941 431.802 78.1638 432.239 79.3344 429.473C79.7368 428.567 79.4974 427.522 79.2951 426.526C75.9543 411.274 78.942 396.531 78.2147 381.232C77.8597 373.671 77.4679 366.061 78.2489 358.583C80.4161 337.307 76.0673 316.645 87.6476 297.965C97.4762 282.096 119.7 265.88 117.223 247.552C116.734 243.791 115.633 239.982 113.132 236.666C109.744 232.207 103.79 228.944 97.5135 228.092C77.802 225.534 79.7014 244.17 77.1208 255.066C73.2144 271.208 63.0754 285.917 59.3915 302.048Z" fill="#F9E9DE"/>
<path d="M35.093 466.859C35.345 467.819 36.1609 468.556 37.0289 468.949C37.8969 469.343 38.8835 469.534 39.8769 469.683C50.3557 471.078 60.9645 469.287 71.5523 469.38C73.0967 469.392 74.6842 469.411 76.0605 468.783C77.4368 468.155 78.5177 466.561 78.035 465.083C77.9812 464.856 77.8345 464.658 77.6316 464.54C77.5085 464.478 77.3726 464.501 77.243 464.482C65.115 464.64 52.9065 465.621 40.8141 464.38C38.5118 464.123 33.9211 462.645 35.093 466.859Z" fill="white"/>
<path d="M35.6776 458.341C37.1842 456.855 39.63 452.963 41.6436 452.211C45.1069 450.93 48.6474 450.011 52.2787 449.37C54.4064 449.03 56.7071 448.717 58.3001 447.243C60.0487 445.617 60.3964 443.035 60.625 440.655C60.9601 437.28 60.9927 433.861 60.8462 430.458C60.685 426.571 61.0422 422.761 60.5656 418.914C59.7389 412.424 59.68 407.279 58.9948 399.273C58.6584 395.667 58.339 392.238 57.7369 388.636C57.0035 384.443 56.1668 380.059 57.0641 375.891C57.1919 375.339 57.3695 374.751 57.8535 374.473C58.1518 374.254 58.5534 374.226 58.912 374.192C64.161 373.662 69.4872 373.494 74.755 373.712C77.2129 373.817 79.0624 375.894 79.0001 378.344C78.9159 381.229 79.1042 384.067 79.2295 387.027C79.4758 392.683 80.1172 398.355 80.4068 404.018C80.6307 407.783 80.144 411.574 80.2384 415.32C80.3403 420.472 79.7794 433.778 80.2831 438.902C81.3722 449.778 81.567 452.573 80.1852 463.43C80.059 464.552 79.771 465.87 78.8029 466.427C78.3189 466.706 77.7807 466.757 77.2493 466.765C70.5921 467.261 63.935 467.756 57.2713 468.294C52.9383 468.611 48.5558 468.964 44.2992 468.194C39.3385 467.407 29.1217 464.867 35.6776 458.341Z" fill="#333333"/>
<path d="M100.272 419.657C105.626 425.433 110.155 424.231 117.926 422.983C112.462 392.255 112.69 375.23 109.634 345.197C106.578 315.164 115.932 285.622 114.112 260.084C110.825 246.11 107.116 239.041 83.3995 240.73C86.3884 282.685 84.7632 313.968 87.6571 341.721L92.7312 380.777L100.272 419.657Z" fill="#F9E9DE"/>
<path d="M75.7067 468.765C76.0368 469.701 76.8744 470.384 77.777 470.756C78.6796 471.128 79.6938 471.231 80.6616 471.294C91.1837 472.078 101.696 469.68 112.252 469.11C113.78 469.046 115.395 468.976 116.699 468.229C118.046 467.48 119.023 465.842 118.441 464.444C118.338 464.233 118.235 464.022 118.011 463.951C117.877 463.916 117.747 463.926 117.616 463.935C105.504 464.789 93.411 466.514 81.2427 465.976C78.9117 465.835 74.2244 464.596 75.7067 468.765Z" fill="white"/>
<path d="M75.7808 460.236C77.1985 458.656 79.139 457.649 81.0918 456.815C84.4439 455.36 87.9482 454.199 91.5648 453.378C93.6732 452.881 95.962 452.459 97.4264 450.919C99.0524 449.194 99.2603 446.611 99.353 444.254C99.523 439.932 99.7331 435.564 99.2469 431.245C98.8323 427.313 98.9872 423.384 98.2679 419.474C97.0596 413.029 96.688 407.875 95.5074 399.992C94.984 396.372 95.8106 392.657 94.9887 389.145C93.9894 384.993 91.5157 381.032 92.174 376.807C92.264 376.234 92.3978 375.659 92.8549 375.322C93.1441 375.084 93.5359 375.056 93.9246 374.986C100.673 373.901 107.552 373.416 114.393 373.631C113.881 378.064 114.533 382.24 114.981 386.649C115.561 392.267 116.536 397.901 117.203 403.513C117.649 407.269 117.397 411.074 117.712 414.839C118.127 419.99 118.386 433.293 119.19 438.373C120.931 449.176 121.304 451.936 120.561 462.871C120.468 464.01 120.3 465.328 119.339 465.961C118.879 466.255 118.316 466.338 117.797 466.418C111.21 467.317 104.581 468.22 97.9941 469.119C93.7026 469.682 89.3703 470.292 85.0443 469.77C80.003 469.037 69.625 467.112 75.7808 460.236Z" fill="#333333"/>
<path d="M27.4895 312.994C27.6423 315.424 30.7163 316.511 33.1713 316.445C35.6314 316.423 38.4413 316.01 40.2589 317.635C41.5385 318.799 41.9295 320.633 43.1708 321.844C44.9016 323.479 47.6554 323.335 49.9529 322.676C52.2504 322.017 54.5458 320.965 56.9544 321.254C60.3863 321.644 63.0645 324.612 66.4529 325.006C70.5558 325.493 74.2092 322.142 78.3412 321.751C84.0453 321.266 90.0538 326.384 94.9442 323.458C96.9591 322.263 98.215 319.845 100.464 319.148C103.816 318.104 107.181 321.299 110.647 320.854C115.501 320.248 117.033 313.428 121.577 311.678C124.393 310.566 127.564 311.728 130.593 311.684C133.617 311.596 137.163 308.826 135.749 306.149C138.304 305.809 140.963 305.982 143.471 306.741C143.404 303.165 143.204 299.211 140.586 296.76C137.818 294.152 133.493 294.391 129.733 294.957C115.784 297.139 102.439 302.224 88.7134 305.56C74.9878 308.897 60.2156 310.431 46.9337 305.543C42.8015 304.055 38.4565 301.498 34.5105 304.227C32.5592 305.59 27.3419 310.608 27.4895 312.994Z" fill="#EAEAEA"/>
<path d="M30.6763 301.251C33.8766 327.31 137.2 306.737 140.858 297.593C144.515 288.45 135.829 234.502 135.829 234.502C124.399 204.328 125.771 111.976 109.769 94.146H69.0799C69.0799 105.576 48.5065 203.413 47.5921 206.156C46.5902 209.162 31.1334 269.705 30.6763 301.251Z" fill="#4A4A4A"/>
<path d="M70.1248 84.6153C71.429 86.875 82.7259 90.8835 85.1622 90.6614C92.037 90.0425 99.4158 87.6216 103.016 78.8436C106.351 70.8371 105.613 59.7809 104.71 49.6162C104.377 46.2024 102.163 42.8627 100.995 39.8457C98.6774 33.9842 95.8344 31.7176 91.7163 30.6383C84.4735 28.7206 76.8818 28.0202 70.5806 32.6382C55.5783 43.6208 58.1512 63.7355 70.1248 84.6153Z" fill="#F9E9DE"/>
<path d="M85.2518 96.8692C85.2955 96.3482 85.339 95.7839 85.6011 95.3498C85.9942 94.6986 86.737 94.4381 87.4359 94.1776C90.8431 92.9621 94.2063 91.7899 97.6135 90.5744C98.0503 90.4007 98.5311 90.2705 99.0116 90.2705C100.235 90.2705 101.195 91.3124 101.938 92.3109C102.156 92.6148 102.375 92.9187 102.419 93.3094C102.506 94.0474 101.895 94.6552 101.327 95.1327C97.6576 98.3886 93.9445 101.601 90.2753 104.857C88.7901 106.159 85.951 108.287 84.99 105.378C84.2038 102.947 85.0771 99.3871 85.2518 96.8692Z" fill="#EAEAEA"/>
<path d="M79.1358 92.7456C79.9221 93.0929 80.7522 93.31 81.4948 93.7441C82.2373 94.1783 82.8925 94.8294 83.0235 95.6543C83.1545 96.3923 82.8926 97.0869 82.5868 97.7815C81.5384 100.256 80.2717 102.6 78.7428 104.814C78.4807 105.205 78.0876 105.639 77.6508 105.509C77.3013 105.422 77.1265 105.118 76.9955 104.814C75.8597 102.644 74.7239 100.43 73.5882 98.259C72.4088 95.9582 71.1862 93.3968 71.8851 90.9223C72.0161 90.4448 72.2342 89.9673 72.671 89.7936C72.8894 89.7068 73.1517 89.7068 73.4138 89.7502C74.899 89.837 75.0737 89.7936 76.122 90.7487C76.8209 91.3564 78.1748 92.7456 79.1358 92.7456Z" fill="#EAEAEA"/>
<path d="M123.068 151.792C125.072 143.768 126.799 135.609 126.893 127.247C126.987 118.885 125.324 110.28 120.867 102.651C118.505 98.6107 114.042 94.3997 109.231 95.3681C104.751 96.3056 103.377 101.111 102.797 105.167C100.29 123.52 99.3746 142.063 98.6801 160.632C98.3991 168.296 98.1732 175.931 97.1037 183.479C94.7123 200.911 88.154 217.466 79.5259 232.902C82.375 234.589 86.1355 236.295 88.7713 234.676C90.9405 233.363 90.9836 230.823 92.3051 229.011C93.9268 226.839 95.5973 225.367 96.8702 222.856C99.6598 217.364 102.283 211.818 104.699 206.206C109.625 194.83 113.885 183.241 117.522 171.453C119.597 164.91 121.436 158.384 123.068 151.792Z" fill="#303030"/>
<path d="M71.8431 50.6576C69.5265 51.5654 66.922 51.4565 64.4327 51.597C61.9434 51.7376 59.2365 52.2949 57.5987 54.1768C55.4876 56.5471 55.7479 60.0999 55.6134 63.259C55.5091 65.4977 55.1441 67.7649 53.9935 69.681C52.8429 71.5971 50.8102 73.0854 48.5285 73.1159C46.2902 73.1417 44.0252 71.3361 43.9993 69.1116C44.9577 70.2299 46.8006 70.2036 48.0317 69.4142C49.2629 68.6248 49.94 67.1971 50.3086 65.7593C51.7398 59.62 47.5761 52.9554 49.8271 47.0761C51.5745 42.6055 56.8838 40.1484 61.6585 40.8067C63.1295 40.9956 64.5426 41.4529 65.9506 41.867C68.2265 42.5796 73.5609 43.1332 75.1214 44.9282C76.9758 46.9969 73.6965 49.9314 71.8431 50.6576Z" fill="#AA4A4D"/>
<path d="M93.8138 55.4244C94.5128 55.7849 95.2794 55.9633 95.9397 56.3717C97.829 57.5631 98.0714 60.157 98.1408 62.3768C99.2957 60.897 100.451 59.4171 101.562 57.942C103.07 59.6555 103.25 62.0815 103.372 64.3829C103.49 66.6411 103.603 68.8561 103.72 71.1142C103.771 72.3752 103.866 73.6313 103.609 74.8823C103.356 76.1763 102.79 77.4173 102.268 78.6535C101.135 81.5284 100.461 84.5717 100.317 87.6446C100.213 89.4902 100.331 91.3553 100.796 93.1824C102.049 98.1556 105.878 102.193 107 107.18C107.24 108.158 107.46 109.357 108.386 109.78C108.988 110.064 109.717 109.897 110.398 109.692C111.677 109.334 113.081 108.919 113.883 107.827C114.68 106.691 114.605 105.215 114.805 103.839C115.735 97.143 123.314 92.9534 124.688 86.2962C125.256 83.4828 124.619 80.4952 125.452 77.6966C126.218 75.08 128.174 72.9013 128.713 70.2221C129.257 67.5861 128.34 64.8474 127.113 62.4919C125.881 60.0932 124.273 57.8666 123.335 55.3485C122.47 53.0845 122.155 50.6295 121.42 48.3513C120.68 46.03 119.502 43.7129 117.386 42.4588C116.022 41.6468 114.406 41.3427 112.848 41.1632C107.77 40.538 102.555 40.6702 97.5222 41.6559C95.8431 41.9701 94.1783 42.4137 92.7831 43.3083C88.5104 46.0018 89.3065 53.2083 93.8138 55.4244Z" fill="#AA4A4D"/>
<path d="M131.285 31.0277C127.449 28.127 122.752 26.5867 118.022 25.5305C116.985 25.2942 115.957 25.1443 114.925 24.9511C115.146 22.1756 115.275 19.3664 114.792 16.5804C114.543 15.1227 114.072 13.6455 113.07 12.5319C111.775 11.1447 109.74 10.6243 107.888 10.1712C98.9089 8.04986 89.7508 6.29747 80.499 6.08386C71.2472 5.87025 61.8243 7.29122 53.4786 11.3024C52.6435 11.6992 51.8136 12.1391 51.3302 12.9343C50.9193 13.5906 50.8746 14.3816 50.7867 15.1773C50.6294 17.3344 50.6025 19.4773 50.5321 21.625C45.0876 20.472 39.5558 19.7216 34.0795 20.6683C31.4065 21.1346 28.7377 22.0372 26.743 23.8707C24.7483 25.7042 23.5719 28.5839 24.3402 31.1641C25.1181 33.8307 27.6823 35.56 30.1456 36.7761C34.2817 38.8143 38.7662 40.0284 43.2364 41.113C64.4299 46.4002 86.2294 49.6123 108.086 49.7611C111.824 49.79 115.596 49.7279 119.225 48.7643C124.692 47.3382 129.593 43.9648 132.817 39.3331C133.61 38.1548 134.344 36.8518 134.274 35.4183C134.161 33.5964 132.725 32.1371 131.285 31.0277Z" fill="#333333"/>
<path d="M108.929 107.535C107.998 107.855 107.124 108.3 106.506 109.066C105.622 110.211 105.672 111.865 105.873 113.284C106.174 115.216 106.644 117.087 107.288 118.938C107.423 119.36 107.605 119.821 107.986 120.085C108.42 120.431 108.95 120.46 109.481 120.49C110.942 120.592 112.399 120.652 113.77 120.327C115.184 119.999 116.55 119.238 117.246 117.983C117.841 117.001 117.973 115.807 118.022 114.666C118.058 113.396 117.963 112.14 117.863 110.841C117.514 105.289 113.157 106.026 108.929 107.535Z" fill="#D9924E"/>
<path d="M106.945 123.386C107.082 125.817 107.913 128.172 108.484 130.556C109.054 132.939 109.297 135.533 108.315 137.78C107.333 140.027 104.706 141.711 102.382 140.96C104.426 141.96 106.866 142.174 109.043 141.588C109.786 144.738 106.275 147.96 107.487 150.972C108.213 152.771 110.32 153.546 112.012 154.54C116.557 157.102 119.391 162.47 118.907 167.633C121.856 166.088 119.991 161.138 122.131 158.634C123.064 157.527 124.56 157.146 125.796 156.4C128.219 154.869 129.439 151.591 128.526 148.896C127.536 145.903 124.452 143.837 123.887 140.711C123.308 137.455 125.984 134.237 129.241 133.488C126.493 132.871 123.31 131.908 122.277 129.313C121.969 128.517 121.874 127.654 121.441 126.915C120.786 125.763 119.489 125.162 118.714 124.112C118.045 123.224 117.873 122.063 117.367 121.07C115.044 116.345 106.63 117.743 106.945 123.386Z" fill="#AA4A4D"/>
<path d="M76.9713 238.377C76.4928 238.862 76.0424 239.402 75.8415 240.022C75.6406 240.642 75.7455 241.451 76.3304 241.912C76.5813 242.129 76.942 242.29 77.0695 242.604C77.1125 242.755 77.0872 242.975 77.047 243.099C76.5367 244.532 74.9736 245.673 75.197 247.25C75.3745 248.402 76.5026 249.31 77.6413 249.903C79.0578 250.63 80.6094 251.081 82.2268 251.188C83.305 251.259 84.4785 251.179 85.3848 250.648C86.8542 249.796 87.3337 248.034 87.6213 246.438C88.186 243.563 88.7923 240.702 89.3704 237.785C89.5684 236.891 89.667 235.737 88.9144 235.085C88.5522 234.787 88.1084 234.599 87.5961 234.481C86.0993 234.002 81.8687 232.328 80.6931 233.548C80.2146 234.033 80.183 234.981 79.6643 235.59C78.7622 236.533 77.8318 237.421 76.9713 238.377Z" fill="#F9E9DE"/>
<defs>
<linearGradient id="paint0_linear_292_1147" x1="161.618" y1="467.759" x2="0.0327751" y2="467.759" gradientUnits="userSpaceOnUse">
<stop/>
<stop offset="1"/>
</linearGradient>
</defs>
</svg>
