<svg width="208" height="480" viewBox="0 0 208 480" fill="none" xmlns="http://www.w3.org/2000/svg">
<path d="M4.04215 244.203C3.41396 244.608 2.80266 245.078 2.43852 245.694C2.07438 246.31 1.99116 247.203 2.50454 247.839C2.72004 248.133 3.06631 248.393 3.1266 248.761C3.13615 248.933 3.05608 249.162 2.98325 249.286C2.0924 250.699 0.147592 251.545 0.00551225 253.29C-0.0828391 254.568 0.902593 255.815 1.97571 256.727C3.31287 257.849 4.86102 258.709 6.56233 259.216C7.69653 259.553 8.96914 259.751 10.0651 259.401C11.8401 258.843 12.7775 257.07 13.4698 255.428C14.7668 252.481 16.1051 249.559 17.4263 246.571C17.8537 245.66 18.2376 244.446 17.5911 243.565C17.2763 243.157 16.8477 242.848 16.3291 242.597C14.8463 241.721 10.7323 238.901 9.18238 239.925C8.55419 240.33 8.2917 241.339 7.59068 241.866C6.39976 242.659 5.19188 243.386 4.04215 244.203Z" fill="#F9E9DE"/>
<path d="M62.4422 157.844C65.3621 149.239 67.9917 140.462 68.8587 131.31C69.7257 122.158 68.6979 112.576 64.5323 103.804C62.3244 99.1594 60.6097 94.1857 55.2718 94.8002C50.4718 94.8002 45.5896 100.495 44.5859 104.884C40.1739 124.758 37.4801 144.988 35.0253 165.266C34.0184 173.636 33.0741 181.98 31.2174 190.15C27.015 209.026 18.3464 226.553 7.52181 242.663C10.4762 244.776 14.4234 246.994 17.4471 245.464C19.9339 244.228 20.2131 241.449 21.8205 239.587C23.7883 237.358 25.7455 235.9 27.3639 233.267C30.9095 227.509 34.2786 221.677 37.4269 215.753C43.8412 203.747 49.549 191.446 54.5946 178.869C57.4558 171.894 60.0593 164.915 62.4422 157.844Z" fill="#303030"/>
<path d="M45.2928 475.147C33.2398 475.286 19.444 474.776 11.7476 466.901C9.95657 465.048 8.55293 462.732 8.84337 460.323C9.47263 455.182 16.7334 452.958 22.7357 452.078C57.6844 447.075 93.4077 449.067 128.792 451.012C150.865 452.217 173.228 453.514 194.284 459.258C205.272 462.269 213.986 470.051 200.142 473.525C186.733 476.861 166.161 473.664 152.123 473.85C116.497 474.267 80.9192 474.73 45.2928 475.147Z" fill="url(#paint0_linear_287_703)"/>
<path d="M43.6842 339.125C43.6842 343.012 40.7367 351.272 64.8081 363.606C72.4688 366.912 79.6344 374.112 87.6422 376.706C106.607 382.769 125.549 388.873 144.514 394.937C147.441 395.854 150.833 396.708 153.787 394.609C155.134 393.647 156.167 392.193 157.176 390.78C159.464 387.57 161.78 382.779 159.415 380.575C158.648 379.834 157.497 379.681 156.411 379.509C139.682 377.122 125.855 368.616 110.063 363.606C102.26 361.125 95.3636 357.34 88.0728 353.758C45.6492 345.927 75.1245 312.889 63.6011 304.143C51.208 288.396 57.5894 284.849 38.0671 280.447C34.0677 279.525 39.4511 277.216 35.1454 278.466C29.3466 280.172 32.664 280.378 31.7069 278.423C21.6862 297.115 43.8236 289.121 40.7367 299.771C43.0058 309.974 43.6842 321.122 43.6842 339.125Z" fill="#F9E9DE"/>
<path d="M150.38 429.859C151.443 429.996 152.512 429.487 153.258 428.789C154.004 428.09 154.597 427.194 155.15 426.274C160.804 416.5 163.323 405.32 167.72 394.917C168.36 393.398 169.023 391.84 168.954 390.231C168.886 388.622 167.73 386.916 166.056 386.8C165.807 386.761 165.549 386.827 165.349 386.979C165.236 387.076 165.205 387.219 165.132 387.339C160.362 399.363 156.381 411.796 150.225 423.222C149.032 425.39 145.688 429.324 150.38 429.859Z" fill="white"/>
<path d="M142.698 425.847C141.821 423.762 138.916 419.781 138.982 417.489C139.108 413.553 139.629 409.686 140.465 405.84C140.991 403.602 141.614 401.202 140.785 399.036C139.868 396.655 137.421 395.274 135.128 394.091C131.881 392.404 128.467 390.997 124.996 389.774C121.033 388.37 117.359 386.486 113.308 385.411C106.466 383.619 101.284 381.608 92.9795 379.067C89.2269 377.95 85.66 376.888 81.8034 376.034C77.3014 375.073 72.5657 374.138 68.7528 371.576C68.2519 371.228 69.5127 371.367 69.4304 370.776C69.3326 370.394 69.4342 368.831 69.4342 368.831C69.4342 368.831 71.4092 358.339 73.7737 353.222C74.8798 350.836 77.7154 349.844 80.1453 350.89C83.0032 352.133 85.9249 353.088 88.9435 354.154C94.7144 356.184 100.662 357.83 106.456 359.821C110.322 361.113 113.924 363.118 117.718 364.53C122.924 366.5 136.035 372.403 141.377 373.965C152.723 377.261 155.605 378.192 165.925 383.921C166.999 384.497 168.203 385.312 168.368 386.492C168.45 387.082 168.282 387.635 168.074 388.163C165.859 394.939 163.644 401.715 161.47 408.515C160.022 412.923 158.592 417.394 156.087 421.29C153.277 425.875 146.569 434.947 142.698 425.847Z" fill="#333333"/>
<path d="M70.0841 317.262C67.7397 326.979 68.2469 355.346 68.2469 359.233C67.7556 360.69 71.3882 376.662 71.6856 384.983C72.3801 404.694 71.6856 424.337 70.0841 443.533C70.1837 446.554 70.5661 450.041 73.5783 452.034C74.9432 452.962 76.6834 453.423 78.3765 453.885C82.233 454.901 87.5927 455.403 88.8565 452.518C89.2778 451.541 89.0407 450.426 88.8037 449.357C85.3419 432.998 88.7445 417.278 88.1031 400.869C87.806 392.733 88.5855 384.718 89.5109 376.72C89.5109 341.257 91.5591 345.928 103.126 312.889C110.951 290.54 119.853 292.178 117.372 272.563C116.848 268.566 115.59 255.733 112.951 252.158C109.37 247.329 117.182 238.053 110.411 237.135C73.5783 248.757 81.2694 260.889 78.3765 272.563C74.1305 289.726 74.236 300.053 70.0841 317.262Z" fill="#F9E9DE"/>
<path d="M14.0759 313.519C13.9349 316.123 17.0847 317.657 19.7171 317.889C22.3495 318.168 25.4048 318.075 27.144 320.028C28.3662 321.423 28.5545 323.422 29.7296 324.863C31.3749 326.816 34.3364 327.002 36.8748 326.583C39.4132 326.165 41.9986 325.328 44.537 325.932C48.1566 326.769 50.6477 330.256 54.2202 331.093C58.5449 332.116 62.8697 329.001 67.3354 329.094C73.4934 329.28 79.2752 335.463 84.869 332.952C87.1724 331.93 88.8176 329.512 91.309 329.047C95.0226 328.35 98.2191 332.162 101.98 332.116C107.245 332.069 109.736 325.003 114.813 323.701C117.962 322.864 121.206 324.491 124.449 324.817C127.693 325.095 131.829 322.585 130.654 319.563C133.427 319.517 136.248 320.028 138.833 321.144C139.209 317.332 139.491 313.101 137 310.172C134.367 307.057 129.714 306.778 125.624 306.918C110.441 307.522 95.5394 311.288 80.45 313.147C65.3607 315.007 49.3783 314.821 35.7932 307.987C31.5625 305.895 27.2383 302.641 22.6786 305.058C20.4222 306.267 14.2169 310.962 14.0759 313.519Z" fill="#EAEAEA"/>
<path d="M138.598 302.409C137.423 290.647 132.205 280.698 131.03 268.936C127.363 246.9 121.629 226.537 117.727 205.337C112.415 176.699 111.71 162.427 106.633 133.695C104.753 122.956 104.377 111.845 100.241 101.71C99.5354 99.9899 98.642 98.2698 97.0438 97.34C95.9156 96.6891 94.5527 96.5961 93.2365 96.5031C86.3735 95.9917 79.5104 95.4803 72.6473 94.9689C67.4765 94.597 62.3055 94.2251 57.1347 94.2251C55.8655 94.2251 54.4552 94.3181 53.468 95.1084C52.7629 95.6663 52.3401 96.4566 52.0111 97.2935C48.3445 105.522 48.4386 114.82 48.0156 123.84C47.5455 133.881 46.2758 143.83 44.5836 153.733C43.6842 167.133 41.2279 182.195 40.7367 196.77L37.2979 208.917L35.8241 219.606C35.8241 225.922 29.9291 257.502 17.5079 298.365C17.5079 301.715 17.3198 304.548 19.1531 306.919C20.3753 308.499 22.2087 309.429 23.995 310.266C57.5581 325.887 97.8903 326.724 132.065 312.498C134.509 311.475 137.094 310.22 138.175 307.849C138.974 306.221 138.786 304.269 138.598 302.409Z" fill="#4A4A4A"/>
<path d="M59.8608 83.2515C60.989 85.8085 72.5998 91.3873 75.2322 91.4338C82.6594 91.5733 90.8386 89.8531 95.7273 80.927C100.24 72.7911 100.757 60.9361 100.992 50.0109C101.039 46.3381 99.0649 42.5259 98.1718 39.1786C96.3855 32.6699 93.6121 29.927 89.3344 28.2998C81.8132 25.4174 73.7751 23.7903 66.489 27.9744C49.1433 37.9233 49.5192 59.6344 59.8608 83.2515Z" fill="#F9E9DE"/>
<path d="M75.9847 97.9435C76.0317 97.3856 76.0785 96.7812 76.3605 96.3163C76.7836 95.619 77.5829 95.34 78.335 95.0611C82.0016 93.7594 85.6209 92.5041 89.2875 91.2024C89.7576 91.0164 90.275 90.877 90.7921 90.877C92.1083 90.877 93.142 91.9927 93.9412 93.062C94.1762 93.3874 94.4117 93.7129 94.4588 94.1313C94.5528 94.9216 93.8947 95.5725 93.2836 96.0839C89.335 99.5707 85.3392 103.011 81.3906 106.498C79.7924 107.892 76.7371 110.17 75.7029 107.056C74.8568 104.452 75.7966 100.64 75.9847 97.9435Z" fill="#EAEAEA"/>
<path d="M69.4038 93.5265C70.2499 93.8984 71.1433 94.1308 71.9424 94.5957C72.7415 95.0607 73.4465 95.758 73.5875 96.6413C73.7285 97.4317 73.4466 98.1755 73.1176 98.9194C71.9894 101.569 70.6262 104.08 68.9809 106.451C68.6989 106.869 68.2758 107.334 67.8057 107.195C67.4297 107.102 67.2415 106.776 67.1005 106.451C65.8783 104.126 64.656 101.755 63.4338 99.4307C62.1646 96.9667 60.8489 94.2238 61.601 91.5739C61.742 91.0625 61.9768 90.5511 62.4468 90.3651C62.6819 90.2721 62.9641 90.2721 63.2462 90.3186C64.8444 90.4116 65.0324 90.3651 66.1606 91.3879C66.9127 92.0388 68.3697 93.5265 69.4038 93.5265Z" fill="#EAEAEA"/>
<path d="M41.8824 458.487C42.1541 459.497 42.9927 460.287 43.9284 460.758C44.8641 461.23 45.9433 461.429 46.9764 461.582C58.1982 463.352 69.6898 461.789 81.0674 462.145C82.7127 462.216 84.4522 462.288 85.917 461.624C87.4289 460.962 88.622 459.334 88.1204 457.817C88.0287 457.587 87.9366 457.357 87.7025 457.262C87.5619 457.215 87.421 457.212 87.2799 457.21C74.2076 457.012 61.0789 457.727 48.0688 456.066C45.5799 455.708 40.6594 453.988 41.8824 458.487Z" fill="white"/>
<path d="M42.6979 449.319C44.3682 447.766 46.5517 446.871 48.7332 446.161C52.4799 444.919 56.3648 444.003 60.3407 443.461C62.6601 443.125 65.1677 442.885 66.8847 441.379C68.7927 439.69 69.2464 436.958 69.5558 434.455C70.1229 429.868 70.7375 425.234 70.5962 420.589C70.4979 416.362 71.0139 412.191 70.5848 407.96C69.853 400.984 69.9096 395.459 69.3354 386.954C69.092 383.05 69.2802 379.135 68.7051 375.319C67.9953 370.804 66.711 366.391 67.7965 361.951C67.9445 361.349 68.14 360.749 68.6632 360.432C68.9964 360.205 69.4217 360.211 69.8475 360.171C77.2264 359.635 84.6928 359.749 92.0574 360.605C91.1113 365.28 91.4432 369.789 91.5363 374.526C91.6632 380.564 92.2149 386.655 92.4363 392.694C92.5838 396.736 91.9749 400.766 91.9806 404.806C91.971 410.331 91.0691 424.524 91.4853 430.01C92.4051 441.678 92.5631 444.652 90.7897 456.232C90.5882 457.436 90.2906 458.825 89.1974 459.411C88.6747 459.682 88.06 459.719 87.4924 459.757C80.3045 460.111 73.0695 460.464 65.8816 460.818C61.2002 461.025 56.4707 461.277 51.8485 460.324C46.4731 459.081 35.4441 456.079 42.6979 449.319Z" fill="#333333"/>
<path d="M89.4756 261.357C88.2534 261.589 86.937 261.822 85.7618 261.31C84.2576 260.659 83.5056 259.032 82.8945 257.498C74.8562 236.81 72.5058 214.448 71.0486 192.318C75.7963 190.459 80.9674 190.04 86.0912 189.668C99.9113 188.599 113.778 187.576 127.598 186.507C135.731 185.903 143.957 185.298 151.995 186.74C152.983 209.194 153.97 231.649 154.957 254.104C155.051 255.592 94.8344 260.38 89.4756 261.357Z" fill="#E2E2E2"/>
<path d="M125.718 228.766C121.017 229.045 116.364 229.464 111.71 230.021C110.535 230.161 110.347 228.627 111.193 228.069C111.193 227.976 111.193 227.929 111.193 227.836C112.932 222.025 114.859 216.307 116.928 210.588C117.257 209.659 118.761 209.473 119.043 210.588C120.594 216.586 123.133 222.072 126.611 227.139C127.128 227.883 126.47 228.72 125.718 228.766ZM117.915 214.354C116.364 218.771 114.906 223.187 113.543 227.65C116.975 227.279 120.359 226.953 123.791 226.721C121.347 222.862 119.372 218.724 117.915 214.354Z" fill="white"/>
<path d="M132.158 148.804C131.547 139.971 130.607 131.091 127.928 122.537C125.248 113.983 120.688 105.754 113.59 99.4314C109.83 96.0841 103.86 93.2482 99.2528 95.8052C94.9752 98.2227 95.1634 103.569 95.9155 107.893C99.441 127.419 104.659 146.619 110.112 165.773C112.368 173.677 114.672 181.534 116.082 189.576C119.419 208.126 118.197 227.141 114.484 245.69C117.962 246.481 122.38 246.992 124.543 244.482C126.329 242.436 125.53 239.832 126.282 237.554C127.222 234.812 128.445 232.766 128.915 229.791C129.949 223.282 130.795 216.773 131.406 210.265C132.675 197.061 133.192 183.858 133.004 170.655C132.957 163.309 132.675 156.057 132.158 148.804Z" fill="#303030"/>
<path d="M66.0665 47.1297C63.4811 47.827 60.7079 47.4086 58.0285 47.2691C55.3491 47.1297 52.3876 47.4086 50.4133 49.2217C47.8749 51.4998 47.7337 55.312 47.2166 58.6593C46.8405 61.0303 46.1823 63.4013 44.7251 65.3074C43.2678 67.2135 40.9177 68.5617 38.4733 68.3293C36.0759 68.0968 33.8663 65.9118 34.1014 63.5408C34.9945 64.8425 36.969 65.0285 38.3792 64.3311C39.7894 63.6338 40.6825 62.1926 41.2466 60.7049C43.5029 54.3357 39.8363 46.7577 42.9388 40.7605C45.3361 36.2044 51.3059 34.2053 56.3357 35.4606C57.8869 35.8325 59.3445 36.4834 60.8017 37.0877C63.1521 38.1105 68.793 39.3193 70.2502 41.4113C71.9895 43.8288 68.1348 46.5718 66.0665 47.1297Z" fill="#AA4A4D"/>
<path d="M89.0056 54.7552C89.7107 55.2201 90.5096 55.499 91.1677 56.0104C93.048 57.4981 93.0009 60.2875 92.8129 62.6585C94.2231 61.2173 95.6334 59.7761 96.9966 58.3349C98.4068 60.334 98.3128 62.9375 98.1717 65.4015C98.0307 67.819 97.8899 70.19 97.7488 72.6075C97.6548 73.9557 97.6078 75.3039 97.1848 76.6057C96.7617 77.9539 96.0095 79.2091 95.3044 80.4644C93.7531 83.3933 92.6723 86.5546 92.1553 89.8089C91.8262 91.7615 91.7321 93.7606 92.0141 95.7597C92.7662 101.199 96.3855 105.941 96.9966 111.38C97.1376 112.45 97.2316 113.752 98.1717 114.309C98.7828 114.681 99.5823 114.588 100.334 114.449C101.745 114.216 103.296 113.937 104.283 112.868C105.27 111.752 105.364 110.172 105.74 108.731C107.526 101.71 116.129 98.1307 118.385 91.2037C119.325 88.2748 118.996 85.0204 120.218 82.138C121.347 79.4416 123.697 77.3495 124.59 74.5601C125.483 71.8172 124.825 68.7953 123.791 66.1453C122.757 63.4489 121.299 60.8919 120.594 58.1025C119.936 55.592 119.889 52.9421 119.372 50.4316C118.855 47.8746 117.868 45.2711 115.752 43.6905C114.389 42.6677 112.697 42.1563 111.052 41.7844C105.693 40.5291 100.099 40.0642 94.5991 40.5291C92.7659 40.6686 90.9326 40.9475 89.3344 41.7379C84.4456 44.1089 84.4459 51.8728 89.0056 54.7552Z" fill="#AA4A4D"/>
<path d="M131.97 33.1358C128.21 29.6026 123.368 27.4175 118.432 25.7439C117.351 25.3719 116.27 25.093 115.188 24.7676C115.752 21.8387 116.223 18.8633 116.035 15.8414C115.941 14.2607 115.612 12.6336 114.671 11.3318C113.449 9.70468 111.334 8.91434 109.407 8.21698C100.052 4.91616 90.4627 1.98727 80.5911 0.68554C70.7196 -0.616192 60.4719 -0.197776 51.0705 3.10304C50.1303 3.42848 49.1906 3.8004 48.5795 4.59073C48.0624 5.2416 47.9212 6.07843 47.7331 6.91526C47.3101 9.19329 47.0282 11.4713 46.6991 13.7493C41.0112 11.8897 35.1825 10.4485 29.2126 10.8205C26.2981 11.0064 23.3367 11.6573 20.9863 13.3774C18.6359 15.0976 17.0372 18.0265 17.5543 20.8624C18.0714 23.7913 20.61 25.9298 23.1014 27.5105C27.285 30.1605 31.9387 31.9736 36.5924 33.6472C58.6388 41.7366 81.5785 47.6873 104.941 50.3838C108.937 50.8487 112.979 51.2206 116.975 50.6162C122.992 49.7329 128.633 46.711 132.628 42.155C133.616 40.9927 134.555 39.691 134.649 38.1568C134.743 36.2042 133.381 34.4841 131.97 33.1358Z" fill="#333333"/>
<path d="M99.0184 111.983C97.9842 112.216 96.9972 112.588 96.2451 113.332C95.1639 114.447 95.0229 116.214 95.0699 117.748C95.1639 119.84 95.4457 121.886 95.9157 123.931C96.0098 124.396 96.1508 124.908 96.5269 125.233C96.9499 125.651 97.5138 125.744 98.0779 125.837C99.6291 126.116 101.181 126.349 102.685 126.163C104.236 125.977 105.787 125.326 106.681 124.071C107.433 123.094 107.715 121.839 107.903 120.631C108.091 119.282 108.138 117.934 108.185 116.539C108.467 110.589 103.719 110.868 99.0184 111.983Z" fill="#D9924E"/>
<path d="M95.023 128.627C94.8819 131.23 95.4927 133.834 95.8217 136.437C96.1508 139.041 96.1039 141.83 94.7877 144.108C93.4715 146.386 90.4628 147.874 88.0654 146.805C90.1337 148.106 92.7191 148.618 95.1165 148.246C95.5395 151.686 91.4031 154.708 92.3432 158.055C92.9073 160.055 95.0699 161.124 96.7622 162.379C101.322 165.633 103.719 171.677 102.591 177.117C105.929 175.815 104.518 170.329 107.104 167.911C108.232 166.842 109.877 166.61 111.287 165.959C114.061 164.611 115.753 161.263 115.095 158.288C114.389 154.987 111.334 152.43 111.099 149.036C110.864 145.503 114.108 142.388 117.68 141.97C114.813 140.993 111.522 139.599 110.723 136.716C110.488 135.833 110.488 134.903 110.112 134.066C109.548 132.765 108.232 131.974 107.526 130.766C106.915 129.743 106.868 128.488 106.445 127.372C104.518 122.072 95.352 122.583 95.023 128.627Z" fill="#AA4A4D"/>
<path d="M113.685 252.105C113.356 252.756 113.073 253.453 113.073 254.15C113.073 254.848 113.449 255.638 114.202 255.917C114.531 256.056 114.954 256.103 115.189 256.382C115.283 256.521 115.33 256.754 115.33 256.893C115.283 258.52 114.061 260.194 114.813 261.728C115.377 262.844 116.834 263.402 118.197 263.634C119.889 263.913 121.628 263.867 123.321 263.448C124.449 263.169 125.624 262.704 126.376 261.868C127.598 260.519 127.505 258.567 127.27 256.847C126.894 253.732 126.565 250.617 126.189 247.456C126.095 246.479 125.812 245.271 124.825 244.852C124.355 244.666 123.838 244.62 123.274 244.666C121.582 244.666 116.693 244.341 115.894 245.968C115.565 246.619 115.847 247.595 115.518 248.385C114.907 249.641 114.249 250.849 113.685 252.105Z" fill="#F9E9DE"/>
<defs>
<linearGradient id="paint0_linear_287_703" x1="207.294" y1="462.055" x2="8.84529" y2="462.055" gradientUnits="userSpaceOnUse">
<stop/>
<stop offset="1"/>
</linearGradient>
</defs>
</svg>
