<svg width="270" height="480" viewBox="0 0 270 480" fill="none" xmlns="http://www.w3.org/2000/svg">
<path d="M69.549 241.351C68.9208 241.756 68.3095 242.226 67.9454 242.842C67.5812 243.458 67.498 244.351 68.0114 244.987C68.2269 245.281 68.5731 245.541 68.6334 245.909C68.643 246.081 68.5629 246.311 68.4901 246.434C67.5992 247.847 65.6544 248.693 65.5123 250.438C65.424 251.716 66.4094 252.964 67.4825 253.875C68.8197 254.998 70.3679 255.857 72.0692 256.364C73.2034 256.702 74.476 256.9 75.572 256.55C77.3469 255.992 78.2844 254.218 78.9766 252.576C80.2736 249.63 81.6119 246.707 82.9331 243.719C83.3606 242.808 83.7444 241.594 83.0979 240.713C82.7832 240.305 82.3545 239.997 81.836 239.746C80.3532 238.869 76.2391 236.05 74.6892 237.074C74.061 237.478 73.7985 238.487 73.0975 239.015C71.9066 239.807 70.6987 240.535 69.549 241.351Z" fill="#F9E9DE"/>
<path d="M127.949 154.992C130.869 146.387 133.499 137.61 134.366 128.458C135.233 119.306 134.205 109.724 130.039 100.953C127.831 96.3075 127.338 90.9852 122 91.5997C117.2 91.5997 111.096 97.6428 110.093 102.032C105.681 121.906 102.987 142.136 100.532 162.414C99.5252 170.784 98.5809 179.128 96.7242 187.298C92.5218 206.174 83.8533 223.701 73.0286 239.811C75.983 241.924 79.9302 244.142 82.954 242.612C85.4407 241.376 85.7199 238.597 87.3273 236.735C89.2952 234.506 91.2524 233.048 92.8707 230.415C96.4163 224.657 99.7855 218.825 102.934 212.901C109.348 200.895 115.056 188.594 120.101 176.017C122.963 169.042 125.566 162.063 127.949 154.992Z" fill="#303030"/>
<path d="M93.7723 472.212C81.2422 472.347 66.9002 471.852 58.899 464.198C57.0371 462.397 55.5779 460.145 55.8798 457.804C56.534 452.807 64.0822 450.645 70.3221 449.79C106.655 444.927 143.792 446.863 180.578 448.754C203.524 449.925 226.773 451.186 248.663 456.769C260.086 459.695 269.144 467.259 254.752 470.636C240.813 473.878 219.426 470.771 204.832 470.951C167.795 471.356 130.809 471.807 93.7723 472.212Z" fill="url(#paint0_linear_287_739)"/>
<path d="M104.13 318.164C101.882 327.609 102.384 355.183 102.386 358.962C101.914 360.378 105.414 375.906 105.704 383.995C106.381 403.155 105.724 422.25 104.194 440.909C104.292 443.846 104.661 447.235 107.557 449.174C108.869 450.076 110.542 450.526 112.169 450.976C115.876 451.965 121.028 452.456 122.241 449.652C122.645 448.703 122.417 447.618 122.188 446.579C118.853 430.676 122.115 415.397 121.49 399.445C121.201 391.537 121.946 383.746 122.831 375.971C122.813 341.498 124.784 346.04 135.884 313.93C143.393 292.209 151.949 293.805 149.555 274.737C149.049 270.851 147.834 258.376 145.296 254.899C141.851 250.204 149.355 241.191 142.847 240.295C107.453 251.574 114.852 263.371 112.077 274.718C108.005 291.399 108.112 301.438 104.13 318.164Z" fill="#F9E9DE"/>
<path d="M76.9356 455.485C77.195 456.479 78.0008 457.256 78.9009 457.718C79.8009 458.181 80.8397 458.375 81.8342 458.523C92.6369 460.244 103.707 458.679 114.663 459.005C116.247 459.072 117.922 459.139 119.334 458.482C120.791 457.826 121.944 456.22 121.464 454.727C121.377 454.5 121.288 454.274 121.063 454.181C120.928 454.134 120.792 454.132 120.656 454.13C108.068 453.963 95.4235 454.695 82.8985 453.087C80.5025 452.74 75.7678 451.055 76.9356 455.485Z" fill="white"/>
<path d="M77.7277 446.626C79.3331 445.111 81.4293 444.236 83.5231 443.541C87.1194 442.324 90.8475 441.425 94.662 440.888C96.8874 440.557 99.2929 440.318 100.943 438.849C102.777 437.202 103.218 434.542 103.52 432.106C104.074 427.641 104.674 423.131 104.548 418.612C104.463 414.499 104.967 410.44 104.565 406.323C103.878 399.537 103.945 394.162 103.413 385.887C103.188 382.089 103.377 378.279 102.834 374.567C102.163 370.176 100.941 365.885 101.991 361.562C102.135 360.977 102.323 360.392 102.826 360.082C103.146 359.861 103.554 359.866 103.962 359.826C111.041 359.288 118.202 359.384 125.263 360.201C124.346 364.752 124.654 369.138 124.733 373.748C124.842 379.622 125.357 385.548 125.557 391.423C125.689 395.356 125.096 399.278 125.093 403.209C125.072 408.585 124.176 422.398 124.563 427.734C125.419 439.085 125.565 441.979 123.838 453.25C123.642 454.422 123.354 455.774 122.304 456.347C121.802 456.611 121.213 456.649 120.668 456.687C113.773 457.046 106.833 457.406 99.9384 457.765C95.448 457.976 90.9112 458.232 86.4801 457.315C81.3271 456.116 70.7556 453.219 77.7277 446.626Z" fill="#333333"/>
<path d="M134.538 338.621C134.538 341.455 133.591 352.844 152.993 364.594C160.373 367.808 170.114 372.627 177.828 375.148C196.097 381.041 214.344 386.974 232.613 392.868C235.432 393.759 238.699 394.589 241.545 392.549C242.843 391.614 243.837 390.201 244.81 388.827C247.014 385.707 249.244 381.051 246.967 378.909C246.228 378.189 245.119 378.04 244.073 377.873C227.958 375.552 214.638 367.285 199.426 362.415C191.91 360.004 185.266 356.326 178.243 352.844C137.377 345.233 165.77 313.121 154.67 304.62C142.732 289.314 148.879 285.867 130.073 281.588C126.22 280.692 131.406 278.448 127.259 279.663C121.673 281.321 124.868 281.521 123.946 279.621C114.293 297.789 135.618 290.019 132.645 300.371C134.83 310.288 134.538 321.123 134.538 338.621Z" fill="#F9E9DE"/>
<path d="M238.283 426.809C239.308 426.943 240.338 426.45 241.058 425.772C241.777 425.095 242.347 424.224 242.879 423.33C248.319 413.834 250.733 402.966 254.96 392.856C255.574 391.381 256.212 389.867 256.143 388.302C256.075 386.737 254.957 385.077 253.342 384.961C253.101 384.923 252.853 384.987 252.66 385.135C252.551 385.228 252.521 385.368 252.452 385.484C247.867 397.169 244.045 409.253 238.123 420.355C236.975 422.461 233.755 426.282 238.283 426.809Z" fill="white"/>
<path d="M230.923 422.909C230.075 420.883 227.271 417.013 227.331 414.788C227.447 410.966 227.943 407.212 228.743 403.48C229.246 401.307 229.842 398.978 229.041 396.874C228.153 394.561 225.794 393.216 223.584 392.064C220.455 390.421 217.164 389.05 213.819 387.857C210 386.489 206.459 384.654 202.556 383.604C195.962 381.854 190.968 379.894 182.966 377.415C179.35 376.325 175.913 375.288 172.197 374.454C167.86 373.514 163.297 372.599 159.621 370.106C159.138 369.767 159.228 369.904 159.148 369.331C159.053 368.959 160.096 365.079 160.096 365.079C160.096 365.079 162.16 357.257 164.429 352.292C165.491 349.977 168.221 349.018 170.563 350.037C173.317 351.248 176.133 352.179 179.042 353.219C184.603 355.199 190.333 356.806 195.918 358.747C199.643 360.007 203.115 361.959 206.771 363.336C211.788 365.257 224.425 371.007 229.573 372.532C240.506 375.749 243.282 376.657 253.231 382.235C254.267 382.796 255.427 383.588 255.587 384.734C255.668 385.308 255.507 385.844 255.307 386.356C253.184 392.932 251.061 399.508 248.977 406.107C247.589 410.385 246.218 414.725 243.811 418.504C241.112 422.951 234.665 431.75 230.923 422.909Z" fill="#333333"/>
<path d="M81.739 304.728C81.6032 307.258 84.6374 308.749 87.1731 308.975C89.7089 309.247 92.652 309.156 94.3274 311.054C95.5048 312.41 95.6861 314.353 96.8182 315.753C98.403 317.651 101.256 317.832 103.701 317.425C106.146 317.019 108.637 316.205 111.082 316.793C114.569 317.606 116.968 320.995 120.41 321.808C124.576 322.803 128.742 319.775 133.043 319.865C138.975 320.046 144.545 326.056 149.933 323.616C152.152 322.622 153.737 320.272 156.137 319.82C159.714 319.142 162.793 322.848 166.416 322.803C171.488 322.757 173.887 315.889 178.778 314.624C181.812 313.81 184.936 315.392 188.061 315.708C191.185 315.979 195.17 313.539 194.038 310.602C196.709 310.557 199.426 311.054 201.917 312.138C202.279 308.433 202.551 304.321 200.151 301.474C197.615 298.447 193.132 298.176 189.193 298.311C174.567 298.899 160.212 302.559 145.677 304.366C131.141 306.174 115.746 305.993 102.659 299.351C98.5838 297.317 94.4182 294.154 90.0259 296.504C87.8524 297.679 81.8748 302.243 81.739 304.728Z" fill="#EAEAEA"/>
<path d="M201.69 293.929C200.558 282.497 195.532 272.827 194.4 261.395C190.868 239.976 185.344 220.185 181.586 199.579C176.469 171.744 175.79 157.872 170.899 129.947C169.088 119.508 168.726 108.709 164.741 98.8581C164.062 97.1862 163.201 95.5143 161.662 94.6105C160.575 93.9779 159.262 93.8875 157.994 93.7972C151.383 93.3001 144.772 92.8031 138.161 92.306C133.18 91.9445 128.199 91.583 123.218 91.583C121.995 91.583 120.636 91.6734 119.685 92.4416C119.006 92.9838 118.599 93.752 118.282 94.5653C114.75 102.563 114.841 111.601 114.433 120.367C113.98 130.127 112.757 139.797 111.127 149.422C110.261 162.447 107.895 177.086 107.421 191.253L104.109 203.059L102.689 213.448C102.689 219.587 97.0106 250.282 85.0454 289.998C85.0454 293.254 84.8642 296.008 86.6302 298.313C87.8075 299.849 89.5736 300.753 91.2943 301.566C123.625 316.749 162.477 317.562 195.397 303.735C197.751 302.741 200.242 301.521 201.283 299.216C202.053 297.635 201.872 295.737 201.69 293.929Z" fill="#4A4A4A"/>
<path d="M125.843 80.917C126.93 83.4023 138.115 88.8247 140.65 88.8699C147.805 89.0054 155.684 87.3335 160.393 78.6576C164.74 70.75 165.238 59.2273 165.465 48.6084C165.51 45.0387 163.608 41.3334 162.748 38.0799C161.027 31.7538 158.355 29.0877 154.235 27.5062C146.99 24.7046 139.247 23.1231 132.228 27.1899C115.519 36.8599 115.881 57.9621 125.843 80.917Z" fill="#F9E9DE"/>
<path d="M141.376 95.197C141.421 94.6548 141.466 94.0673 141.738 93.6155C142.145 92.9377 142.915 92.6666 143.64 92.3954C147.172 91.1302 150.658 89.9101 154.19 88.6449C154.643 88.4642 155.141 88.3286 155.639 88.3286C156.907 88.3286 157.903 89.4131 158.673 90.4524C158.899 90.7687 159.126 91.085 159.171 91.4917C159.262 92.2599 158.628 92.8925 158.039 93.3895C154.236 96.7786 150.387 100.122 146.583 103.511C145.043 104.867 142.1 107.081 141.104 104.054C140.289 101.523 141.194 97.8178 141.376 95.197Z" fill="#EAEAEA"/>
<path d="M135.036 90.9044C135.851 91.2659 136.712 91.4918 137.481 91.9437C138.251 92.3956 138.93 93.0734 139.066 93.9319C139.202 94.7001 138.93 95.4231 138.613 96.1461C137.527 98.7217 136.214 101.162 134.629 103.466C134.357 103.873 133.949 104.325 133.497 104.189C133.134 104.099 132.953 103.783 132.817 103.466C131.64 101.207 130.463 98.9025 129.285 96.6431C128.063 94.2482 126.795 91.5822 127.52 89.0066C127.656 88.5095 127.882 88.0125 128.334 87.8317C128.561 87.7413 128.833 87.7413 129.104 87.7865C130.644 87.8769 130.825 87.8317 131.912 88.8258C132.636 89.4584 134.04 90.9044 135.036 90.9044Z" fill="#EAEAEA"/>
<path d="M154.371 254.027C153.194 254.253 151.926 254.479 150.794 253.982C149.345 253.35 148.62 251.768 148.031 250.277C140.288 230.169 138.024 208.434 136.62 186.925C141.194 185.118 146.175 184.711 151.111 184.349C164.424 183.31 177.782 182.316 191.094 181.277C198.928 180.689 206.853 180.102 214.596 181.503C215.547 203.328 216.498 225.153 217.449 246.978C217.539 248.424 159.533 253.079 154.371 254.027Z" fill="#E2E2E2"/>
<path d="M189.283 222.351C184.755 222.622 180.272 223.029 175.789 223.571C174.657 223.707 174.476 222.216 175.291 221.673C175.291 221.583 175.291 221.538 175.291 221.447C176.967 215.799 178.823 210.241 180.815 204.683C181.132 203.779 182.582 203.599 182.853 204.683C184.348 210.512 186.793 215.844 190.144 220.77C190.642 221.493 190.008 222.306 189.283 222.351ZM181.767 208.343C180.272 212.636 178.868 216.929 177.555 221.267C180.861 220.905 184.121 220.589 187.427 220.363C185.072 216.612 183.17 212.591 181.767 208.343Z" fill="white"/>
<path d="M195.486 144.632C194.898 136.046 193.993 127.416 191.412 119.101C188.83 110.787 184.438 102.789 177.6 96.6434C173.978 93.3899 168.227 90.6335 163.789 93.1188C159.669 95.4685 159.85 100.665 160.574 104.867C163.971 123.846 168.997 142.508 174.25 161.125C176.423 168.807 178.642 176.443 180 184.261C183.215 202.29 182.038 220.771 178.461 238.801C181.812 239.569 186.068 240.066 188.151 237.626C189.872 235.638 189.102 233.107 189.826 230.893C190.732 228.227 191.909 226.239 192.362 223.347C193.358 217.021 194.174 210.695 194.762 204.369C195.985 191.536 196.483 178.703 196.302 165.87C196.256 158.73 195.985 151.681 195.486 144.632Z" fill="#303030"/>
<path d="M131.821 45.8082C129.331 46.486 126.659 46.0794 124.078 45.9438C121.497 45.8082 118.644 46.0794 116.743 47.8416C114.297 50.0558 114.161 53.7611 113.663 57.0146C113.301 59.3191 112.667 61.6236 111.263 63.4763C109.859 65.3289 107.595 66.6394 105.241 66.4134C102.931 66.1875 100.803 64.0637 101.029 61.7592C101.89 63.0244 103.792 63.2052 105.15 62.5273C106.509 61.8495 107.369 60.4488 107.912 59.0028C110.086 52.8122 106.554 45.4467 109.542 39.6177C111.852 35.1893 117.602 33.2463 122.448 34.4664C123.942 34.8279 125.346 35.4605 126.75 36.0479C129.014 37.042 134.448 38.2169 135.851 40.2503C137.527 42.6 133.814 45.266 131.821 45.8082Z" fill="#AA4A4D"/>
<path d="M153.918 53.2195C154.598 53.6714 155.367 53.9425 156.001 54.4395C157.812 55.8855 157.767 58.5967 157.586 60.9012C158.944 59.5004 160.303 58.0997 161.616 56.6989C162.974 58.6419 162.884 61.1724 162.748 63.5673C162.612 65.917 162.476 68.2215 162.341 70.5712C162.25 71.8816 162.205 73.192 161.797 74.4573C161.39 75.7677 160.665 76.9877 159.986 78.2078C158.492 81.0545 157.45 84.1272 156.952 87.2903C156.635 89.1882 156.545 91.1312 156.816 93.0742C157.541 98.3611 161.027 102.97 161.616 108.257C161.752 109.296 161.842 110.562 162.748 111.104C163.337 111.465 164.107 111.375 164.831 111.239C166.19 111.013 167.684 110.742 168.635 109.703C169.586 108.618 169.676 107.082 170.038 105.681C171.759 98.8581 180.046 95.3787 182.219 88.6459C183.125 85.7991 182.808 82.6361 183.985 79.8345C185.072 77.2137 187.336 75.1803 188.196 72.4691C189.057 69.803 188.423 66.8659 187.427 64.2902C186.431 61.6694 185.027 59.1841 184.347 56.4729C183.713 54.0328 183.668 51.4572 183.17 49.0171C182.672 46.5318 181.721 44.0014 179.683 42.465C178.37 41.4709 176.74 40.9739 175.155 40.6124C169.993 39.3923 164.604 38.9405 159.307 39.3923C157.541 39.5279 155.775 39.799 154.235 40.5672C149.526 42.8717 149.526 50.4179 153.918 53.2195Z" fill="#AA4A4D"/>
<path d="M195.306 32.2067C191.683 28.7725 187.019 26.6487 182.265 25.022C181.223 24.6605 180.181 24.3894 179.14 24.0731C179.683 21.2263 180.136 18.3343 179.955 15.3972C179.865 13.8609 179.548 12.2793 178.642 11.0141C177.465 9.43256 175.427 8.66437 173.57 7.98657C164.559 4.77831 155.322 1.93155 145.813 0.666317C136.304 -0.598913 126.432 -0.19223 117.376 3.01603C116.47 3.33234 115.565 3.69383 114.976 4.46201C114.478 5.09462 114.342 5.90798 114.161 6.72135C113.753 8.9355 113.482 11.1496 113.165 13.3638C107.686 11.5563 102.071 10.1555 96.3202 10.517C93.5128 10.6978 90.66 11.3304 88.3959 13.0023C86.1319 14.6742 84.5918 17.521 85.0899 20.2774C85.588 23.1241 88.0335 25.2027 90.4334 26.7391C94.4635 29.3147 98.9463 31.077 103.429 32.7037C124.666 40.5662 146.764 46.3502 169.269 48.971C173.118 49.4229 177.012 49.7843 180.861 49.1969C186.657 48.3384 192.091 45.4012 195.94 40.9729C196.891 39.8433 197.796 38.578 197.887 37.0869C197.977 35.189 196.664 33.5171 195.306 32.2067Z" fill="#333333"/>
<path d="M163.564 108.843C162.567 109.069 161.617 109.431 160.892 110.154C159.851 111.238 159.715 112.955 159.76 114.447C159.851 116.48 160.122 118.468 160.575 120.456C160.665 120.908 160.801 121.405 161.163 121.722C161.571 122.128 162.114 122.219 162.658 122.309C164.152 122.58 165.647 122.806 167.096 122.625C168.59 122.445 170.084 121.812 170.944 120.592C171.669 119.643 171.941 118.423 172.122 117.248C172.303 115.938 172.348 114.627 172.393 113.272C172.665 107.488 168.092 107.759 163.564 108.843Z" fill="#D9924E"/>
<path d="M159.715 125.02C159.579 127.55 160.167 130.081 160.484 132.611C160.801 135.142 160.756 137.853 159.488 140.067C158.22 142.281 155.322 143.727 153.012 142.688C155.005 143.953 157.495 144.45 159.805 144.089C160.212 147.432 156.228 150.369 157.133 153.623C157.677 155.566 159.76 156.605 161.39 157.825C165.782 160.988 168.092 166.863 167.005 172.149C170.22 170.884 168.861 165.552 171.352 163.202C172.438 162.163 174.023 161.937 175.382 161.305C178.053 159.994 179.683 156.741 179.049 153.849C178.37 150.641 175.427 148.155 175.2 144.857C174.974 141.422 178.099 138.395 181.54 137.988C178.778 137.039 175.608 135.684 174.838 132.882C174.612 132.024 174.612 131.12 174.25 130.307C173.706 129.041 172.438 128.273 171.759 127.098C171.17 126.104 171.125 124.884 170.718 123.8C168.861 118.648 160.031 119.145 159.715 125.02Z" fill="#AA4A4D"/>
<path d="M177.691 245.036C177.374 245.669 177.103 246.346 177.103 247.024C177.103 247.702 177.465 248.47 178.189 248.741C178.506 248.877 178.914 248.922 179.14 249.193C179.231 249.329 179.276 249.555 179.276 249.69C179.231 251.272 178.053 252.898 178.778 254.39C179.321 255.474 180.725 256.016 182.038 256.242C183.668 256.513 185.344 256.468 186.974 256.062C188.06 255.79 189.193 255.339 189.917 254.525C191.094 253.215 191.004 251.317 190.778 249.645C190.415 246.618 190.099 243.59 189.736 240.517C189.646 239.568 189.374 238.394 188.423 237.987C187.97 237.806 187.472 237.761 186.929 237.806C185.299 237.806 180.589 237.49 179.819 239.071C179.502 239.704 179.774 240.653 179.457 241.421C178.869 242.641 178.235 243.816 177.691 245.036Z" fill="#F9E9DE"/>
<defs>
<linearGradient id="paint0_linear_287_739" x1="262.187" y1="459.488" x2="55.8818" y2="459.488" gradientUnits="userSpaceOnUse">
<stop/>
<stop offset="1"/>
</linearGradient>
</defs>
</svg>
